G04 #@! TF.GenerationSoftware,KiCad,Pcbnew,(5.1.2-1)-1*
G04 #@! TF.CreationDate,2019-06-05T23:38:11-07:00*
G04 #@! TF.ProjectId,nowhere,6e6f7768-6572-4652-9e6b-696361645f70,rev?*
G04 #@! TF.SameCoordinates,Original*
G04 #@! TF.FileFunction,Copper,L2,Bot*
G04 #@! TF.FilePolarity,Positive*
%FSLAX46Y46*%
G04 Gerber Fmt 4.6, Leading zero omitted, Abs format (unit mm)*
G04 Created by KiCad (PCBNEW (5.1.2-1)-1) date 2019-06-05 23:38:11*
%MOMM*%
%LPD*%
G04 APERTURE LIST*
%ADD10O,1.600000X1.600000*%
%ADD11C,1.600000*%
%ADD12R,1.600000X1.600000*%
%ADD13R,2.400000X2.400000*%
%ADD14C,2.400000*%
%ADD15R,3.200000X3.200000*%
%ADD16O,3.200000X3.200000*%
%ADD17C,3.200000*%
%ADD18R,1.275000X1.800000*%
%ADD19O,1.275000X1.800000*%
%ADD20C,1.417157*%
%ADD21C,0.100000*%
%ADD22C,1.700000*%
%ADD23R,2.000000X4.000000*%
%ADD24O,2.000000X3.300000*%
%ADD25O,3.500000X2.000000*%
%ADD26C,1.000000*%
%ADD27C,0.250000*%
G04 APERTURE END LIST*
D10*
X114300000Y-59690000D03*
D11*
X124460000Y-59690000D03*
D12*
X72390000Y-64770000D03*
D11*
X68890000Y-64770000D03*
D13*
X73660000Y-44450000D03*
D14*
X68660000Y-44450000D03*
D15*
X85090000Y-64770000D03*
D16*
X85090000Y-80010000D03*
D17*
X83820000Y-57150000D03*
X83820000Y-51150000D03*
D10*
X114300000Y-36830000D03*
D11*
X124460000Y-36830000D03*
X124460000Y-40640000D03*
D10*
X114300000Y-40640000D03*
X114300000Y-44450000D03*
D11*
X124460000Y-44450000D03*
X124460000Y-48260000D03*
D10*
X114300000Y-48260000D03*
X114300000Y-52070000D03*
D11*
X124460000Y-52070000D03*
X124460000Y-55880000D03*
D10*
X114300000Y-55880000D03*
D11*
X124460000Y-63500000D03*
D10*
X114300000Y-63500000D03*
D11*
X111760000Y-31750000D03*
X114300000Y-31750000D03*
X116840000Y-31750000D03*
X119380000Y-31750000D03*
X109220000Y-31750000D03*
X106680000Y-31750000D03*
X104140000Y-31750000D03*
X121920000Y-31750000D03*
X124460000Y-31750000D03*
X127000000Y-31750000D03*
X129540000Y-31750000D03*
X116840000Y-29210000D03*
X116840000Y-26670000D03*
X116840000Y-24130000D03*
X116840000Y-21590000D03*
X116840000Y-19050000D03*
X129540000Y-16510000D03*
X127000000Y-16510000D03*
X124460000Y-16510000D03*
X121920000Y-16510000D03*
X119380000Y-16510000D03*
X116840000Y-16510000D03*
X114300000Y-16510000D03*
X111760000Y-16510000D03*
X101600000Y-31750000D03*
X99060000Y-31750000D03*
X96520000Y-31750000D03*
X93980000Y-31750000D03*
X91440000Y-31750000D03*
X88900000Y-31750000D03*
X86360000Y-31750000D03*
X83820000Y-31750000D03*
X81280000Y-31750000D03*
X78740000Y-31750000D03*
X76200000Y-31750000D03*
X73660000Y-31750000D03*
D12*
X71120000Y-31750000D03*
D11*
X109220000Y-16510000D03*
X106680000Y-16510000D03*
X104140000Y-16510000D03*
X101600000Y-16510000D03*
X99060000Y-16510000D03*
X96520000Y-16510000D03*
X93980000Y-16510000D03*
X91440000Y-16510000D03*
X88900000Y-16510000D03*
X86360000Y-16510000D03*
X83820000Y-16510000D03*
X81280000Y-16510000D03*
X78740000Y-16510000D03*
X76200000Y-16510000D03*
X73660000Y-16510000D03*
X71120000Y-16510000D03*
X73660000Y-19050000D03*
X78740000Y-19050000D03*
X81280000Y-19050000D03*
X83820000Y-19050000D03*
X86360000Y-24130000D03*
X88900000Y-24130000D03*
X91440000Y-24130000D03*
X93980000Y-24130000D03*
X109220000Y-24130000D03*
X111760000Y-24130000D03*
X114300000Y-24130000D03*
X119380000Y-24130000D03*
X121920000Y-24130000D03*
X124460000Y-24130000D03*
X127000000Y-24130000D03*
X129540000Y-24130000D03*
X129540000Y-21590000D03*
X127000000Y-21590000D03*
X124460000Y-21590000D03*
X121920000Y-21590000D03*
X119380000Y-21590000D03*
X114300000Y-21590000D03*
X111760000Y-21590000D03*
X109220000Y-21590000D03*
X93980000Y-21590000D03*
X91440000Y-21590000D03*
X88900000Y-21590000D03*
X86360000Y-21590000D03*
X77470000Y-28750000D03*
X80010000Y-28750000D03*
X82550000Y-28750000D03*
X85090000Y-28750000D03*
X87630000Y-28750000D03*
D12*
X96520000Y-40640000D03*
D10*
X104140000Y-63500000D03*
X96520000Y-43180000D03*
X104140000Y-60960000D03*
X96520000Y-45720000D03*
X104140000Y-58420000D03*
X96520000Y-48260000D03*
X104140000Y-55880000D03*
X96520000Y-50800000D03*
X104140000Y-53340000D03*
X96520000Y-53340000D03*
X104140000Y-50800000D03*
X96520000Y-55880000D03*
X104140000Y-48260000D03*
X96520000Y-58420000D03*
X104140000Y-45720000D03*
X96520000Y-60960000D03*
X104140000Y-43180000D03*
X96520000Y-63500000D03*
X104140000Y-40640000D03*
D18*
X73660000Y-54610000D03*
D19*
X71960000Y-54610000D03*
X70260000Y-54610000D03*
X68560000Y-54610000D03*
X66860000Y-54610000D03*
D20*
X138430000Y-36790000D03*
D21*
G36*
X137781227Y-37635196D02*
G01*
X137734329Y-37620970D01*
X137691107Y-37597867D01*
X137653223Y-37566777D01*
X137622133Y-37528893D01*
X137599030Y-37485671D01*
X137584804Y-37438773D01*
X137580000Y-37390000D01*
X137580000Y-36190000D01*
X137584804Y-36141227D01*
X137599030Y-36094329D01*
X137622133Y-36051107D01*
X137653223Y-36013223D01*
X137691107Y-35982133D01*
X137734329Y-35959030D01*
X137781227Y-35944804D01*
X137830000Y-35940000D01*
X138630000Y-35940000D01*
X138678773Y-35944804D01*
X138725671Y-35959030D01*
X138768893Y-35982133D01*
X138806777Y-36013223D01*
X139206777Y-36413223D01*
X139237867Y-36451107D01*
X139260970Y-36494329D01*
X139275196Y-36541227D01*
X139280000Y-36590000D01*
X139280000Y-37390000D01*
X139275196Y-37438773D01*
X139260970Y-37485671D01*
X139237867Y-37528893D01*
X139206777Y-37566777D01*
X139168893Y-37597867D01*
X139125671Y-37620970D01*
X139078773Y-37635196D01*
X139030000Y-37640000D01*
X137830000Y-37640000D01*
X137781227Y-37635196D01*
X137781227Y-37635196D01*
G37*
D22*
X138430000Y-34290000D03*
X135930000Y-36790000D03*
X135930000Y-34290000D03*
D20*
X138430000Y-46990000D03*
D21*
G36*
X137781227Y-47835196D02*
G01*
X137734329Y-47820970D01*
X137691107Y-47797867D01*
X137653223Y-47766777D01*
X137622133Y-47728893D01*
X137599030Y-47685671D01*
X137584804Y-47638773D01*
X137580000Y-47590000D01*
X137580000Y-46390000D01*
X137584804Y-46341227D01*
X137599030Y-46294329D01*
X137622133Y-46251107D01*
X137653223Y-46213223D01*
X137691107Y-46182133D01*
X137734329Y-46159030D01*
X137781227Y-46144804D01*
X137830000Y-46140000D01*
X138630000Y-46140000D01*
X138678773Y-46144804D01*
X138725671Y-46159030D01*
X138768893Y-46182133D01*
X138806777Y-46213223D01*
X139206777Y-46613223D01*
X139237867Y-46651107D01*
X139260970Y-46694329D01*
X139275196Y-46741227D01*
X139280000Y-46790000D01*
X139280000Y-47590000D01*
X139275196Y-47638773D01*
X139260970Y-47685671D01*
X139237867Y-47728893D01*
X139206777Y-47766777D01*
X139168893Y-47797867D01*
X139125671Y-47820970D01*
X139078773Y-47835196D01*
X139030000Y-47840000D01*
X137830000Y-47840000D01*
X137781227Y-47835196D01*
X137781227Y-47835196D01*
G37*
D22*
X138430000Y-44490000D03*
X135930000Y-46990000D03*
X135930000Y-44490000D03*
X135930000Y-54650000D03*
X135930000Y-57150000D03*
X138430000Y-54650000D03*
D20*
X138430000Y-57150000D03*
D21*
G36*
X137781227Y-57995196D02*
G01*
X137734329Y-57980970D01*
X137691107Y-57957867D01*
X137653223Y-57926777D01*
X137622133Y-57888893D01*
X137599030Y-57845671D01*
X137584804Y-57798773D01*
X137580000Y-57750000D01*
X137580000Y-56550000D01*
X137584804Y-56501227D01*
X137599030Y-56454329D01*
X137622133Y-56411107D01*
X137653223Y-56373223D01*
X137691107Y-56342133D01*
X137734329Y-56319030D01*
X137781227Y-56304804D01*
X137830000Y-56300000D01*
X138630000Y-56300000D01*
X138678773Y-56304804D01*
X138725671Y-56319030D01*
X138768893Y-56342133D01*
X138806777Y-56373223D01*
X139206777Y-56773223D01*
X139237867Y-56811107D01*
X139260970Y-56854329D01*
X139275196Y-56901227D01*
X139280000Y-56950000D01*
X139280000Y-57750000D01*
X139275196Y-57798773D01*
X139260970Y-57845671D01*
X139237867Y-57888893D01*
X139206777Y-57926777D01*
X139168893Y-57957867D01*
X139125671Y-57980970D01*
X139078773Y-57995196D01*
X139030000Y-58000000D01*
X137830000Y-58000000D01*
X137781227Y-57995196D01*
X137781227Y-57995196D01*
G37*
D20*
X138430000Y-67310000D03*
D21*
G36*
X137781227Y-68155196D02*
G01*
X137734329Y-68140970D01*
X137691107Y-68117867D01*
X137653223Y-68086777D01*
X137622133Y-68048893D01*
X137599030Y-68005671D01*
X137584804Y-67958773D01*
X137580000Y-67910000D01*
X137580000Y-66710000D01*
X137584804Y-66661227D01*
X137599030Y-66614329D01*
X137622133Y-66571107D01*
X137653223Y-66533223D01*
X137691107Y-66502133D01*
X137734329Y-66479030D01*
X137781227Y-66464804D01*
X137830000Y-66460000D01*
X138630000Y-66460000D01*
X138678773Y-66464804D01*
X138725671Y-66479030D01*
X138768893Y-66502133D01*
X138806777Y-66533223D01*
X139206777Y-66933223D01*
X139237867Y-66971107D01*
X139260970Y-67014329D01*
X139275196Y-67061227D01*
X139280000Y-67110000D01*
X139280000Y-67910000D01*
X139275196Y-67958773D01*
X139260970Y-68005671D01*
X139237867Y-68048893D01*
X139206777Y-68086777D01*
X139168893Y-68117867D01*
X139125671Y-68140970D01*
X139078773Y-68155196D01*
X139030000Y-68160000D01*
X137830000Y-68160000D01*
X137781227Y-68155196D01*
X137781227Y-68155196D01*
G37*
D22*
X138430000Y-64810000D03*
X135930000Y-67310000D03*
X135930000Y-64810000D03*
X129500000Y-73660000D03*
X127000000Y-73660000D03*
X129500000Y-76160000D03*
D20*
X127000000Y-76160000D03*
D21*
G36*
X126154804Y-75511227D02*
G01*
X126169030Y-75464329D01*
X126192133Y-75421107D01*
X126223223Y-75383223D01*
X126261107Y-75352133D01*
X126304329Y-75329030D01*
X126351227Y-75314804D01*
X126400000Y-75310000D01*
X127600000Y-75310000D01*
X127648773Y-75314804D01*
X127695671Y-75329030D01*
X127738893Y-75352133D01*
X127776777Y-75383223D01*
X127807867Y-75421107D01*
X127830970Y-75464329D01*
X127845196Y-75511227D01*
X127850000Y-75560000D01*
X127850000Y-76360000D01*
X127845196Y-76408773D01*
X127830970Y-76455671D01*
X127807867Y-76498893D01*
X127776777Y-76536777D01*
X127376777Y-76936777D01*
X127338893Y-76967867D01*
X127295671Y-76990970D01*
X127248773Y-77005196D01*
X127200000Y-77010000D01*
X126400000Y-77010000D01*
X126351227Y-77005196D01*
X126304329Y-76990970D01*
X126261107Y-76967867D01*
X126223223Y-76936777D01*
X126192133Y-76898893D01*
X126169030Y-76855671D01*
X126154804Y-76808773D01*
X126150000Y-76760000D01*
X126150000Y-75560000D01*
X126154804Y-75511227D01*
X126154804Y-75511227D01*
G37*
D20*
X116840000Y-76160000D03*
D21*
G36*
X115994804Y-75511227D02*
G01*
X116009030Y-75464329D01*
X116032133Y-75421107D01*
X116063223Y-75383223D01*
X116101107Y-75352133D01*
X116144329Y-75329030D01*
X116191227Y-75314804D01*
X116240000Y-75310000D01*
X117440000Y-75310000D01*
X117488773Y-75314804D01*
X117535671Y-75329030D01*
X117578893Y-75352133D01*
X117616777Y-75383223D01*
X117647867Y-75421107D01*
X117670970Y-75464329D01*
X117685196Y-75511227D01*
X117690000Y-75560000D01*
X117690000Y-76360000D01*
X117685196Y-76408773D01*
X117670970Y-76455671D01*
X117647867Y-76498893D01*
X117616777Y-76536777D01*
X117216777Y-76936777D01*
X117178893Y-76967867D01*
X117135671Y-76990970D01*
X117088773Y-77005196D01*
X117040000Y-77010000D01*
X116240000Y-77010000D01*
X116191227Y-77005196D01*
X116144329Y-76990970D01*
X116101107Y-76967867D01*
X116063223Y-76936777D01*
X116032133Y-76898893D01*
X116009030Y-76855671D01*
X115994804Y-76808773D01*
X115990000Y-76760000D01*
X115990000Y-75560000D01*
X115994804Y-75511227D01*
X115994804Y-75511227D01*
G37*
D22*
X119340000Y-76160000D03*
X116840000Y-73660000D03*
X119340000Y-73660000D03*
X109180000Y-73660000D03*
X106680000Y-73660000D03*
X109180000Y-76160000D03*
D20*
X106680000Y-76160000D03*
D21*
G36*
X105834804Y-75511227D02*
G01*
X105849030Y-75464329D01*
X105872133Y-75421107D01*
X105903223Y-75383223D01*
X105941107Y-75352133D01*
X105984329Y-75329030D01*
X106031227Y-75314804D01*
X106080000Y-75310000D01*
X107280000Y-75310000D01*
X107328773Y-75314804D01*
X107375671Y-75329030D01*
X107418893Y-75352133D01*
X107456777Y-75383223D01*
X107487867Y-75421107D01*
X107510970Y-75464329D01*
X107525196Y-75511227D01*
X107530000Y-75560000D01*
X107530000Y-76360000D01*
X107525196Y-76408773D01*
X107510970Y-76455671D01*
X107487867Y-76498893D01*
X107456777Y-76536777D01*
X107056777Y-76936777D01*
X107018893Y-76967867D01*
X106975671Y-76990970D01*
X106928773Y-77005196D01*
X106880000Y-77010000D01*
X106080000Y-77010000D01*
X106031227Y-77005196D01*
X105984329Y-76990970D01*
X105941107Y-76967867D01*
X105903223Y-76936777D01*
X105872133Y-76898893D01*
X105849030Y-76855671D01*
X105834804Y-76808773D01*
X105830000Y-76760000D01*
X105830000Y-75560000D01*
X105834804Y-75511227D01*
X105834804Y-75511227D01*
G37*
D20*
X96520000Y-76160000D03*
D21*
G36*
X95674804Y-75511227D02*
G01*
X95689030Y-75464329D01*
X95712133Y-75421107D01*
X95743223Y-75383223D01*
X95781107Y-75352133D01*
X95824329Y-75329030D01*
X95871227Y-75314804D01*
X95920000Y-75310000D01*
X97120000Y-75310000D01*
X97168773Y-75314804D01*
X97215671Y-75329030D01*
X97258893Y-75352133D01*
X97296777Y-75383223D01*
X97327867Y-75421107D01*
X97350970Y-75464329D01*
X97365196Y-75511227D01*
X97370000Y-75560000D01*
X97370000Y-76360000D01*
X97365196Y-76408773D01*
X97350970Y-76455671D01*
X97327867Y-76498893D01*
X97296777Y-76536777D01*
X96896777Y-76936777D01*
X96858893Y-76967867D01*
X96815671Y-76990970D01*
X96768773Y-77005196D01*
X96720000Y-77010000D01*
X95920000Y-77010000D01*
X95871227Y-77005196D01*
X95824329Y-76990970D01*
X95781107Y-76967867D01*
X95743223Y-76936777D01*
X95712133Y-76898893D01*
X95689030Y-76855671D01*
X95674804Y-76808773D01*
X95670000Y-76760000D01*
X95670000Y-75560000D01*
X95674804Y-75511227D01*
X95674804Y-75511227D01*
G37*
D22*
X99020000Y-76160000D03*
X96520000Y-73660000D03*
X99020000Y-73660000D03*
D23*
X78740000Y-76200000D03*
D24*
X72740000Y-76200000D03*
D25*
X71740000Y-71700000D03*
X71740000Y-80700000D03*
D26*
X82827259Y-80010000D02*
X85090000Y-80010000D01*
X78550000Y-80010000D02*
X82827259Y-80010000D01*
X74740000Y-76200000D02*
X78550000Y-80010000D01*
X72740000Y-76200000D02*
X74740000Y-76200000D01*
X99869999Y-74509999D02*
X99020000Y-73660000D01*
X100570001Y-75210001D02*
X99869999Y-74509999D01*
X100570001Y-76904001D02*
X100570001Y-75210001D01*
X98624001Y-78850001D02*
X100570001Y-76904001D01*
X86249999Y-78850001D02*
X98624001Y-78850001D01*
X85090000Y-80010000D02*
X86249999Y-78850001D01*
X108330001Y-72810001D02*
X109180000Y-73660000D01*
X107629999Y-72109999D02*
X108330001Y-72810001D01*
X100570001Y-72109999D02*
X107629999Y-72109999D01*
X99020000Y-73660000D02*
X100570001Y-72109999D01*
X118490001Y-72810001D02*
X119340000Y-73660000D01*
X117789999Y-72109999D02*
X118490001Y-72810001D01*
X110730001Y-72109999D02*
X117789999Y-72109999D01*
X109180000Y-73660000D02*
X110730001Y-72109999D01*
X128650001Y-72810001D02*
X129500000Y-73660000D01*
X127949999Y-72109999D02*
X128650001Y-72810001D01*
X120890001Y-72109999D02*
X127949999Y-72109999D01*
X119340000Y-73660000D02*
X120890001Y-72109999D01*
X129500000Y-71240000D02*
X135930000Y-64810000D01*
X129500000Y-73660000D02*
X129500000Y-71240000D01*
X135080001Y-55499999D02*
X135930000Y-54650000D01*
X134379999Y-56200001D02*
X135080001Y-55499999D01*
X134379999Y-63259999D02*
X134379999Y-56200001D01*
X135930000Y-64810000D02*
X134379999Y-63259999D01*
X135080001Y-45339999D02*
X135930000Y-44490000D01*
X134379999Y-46040001D02*
X135080001Y-45339999D01*
X134379999Y-53099999D02*
X134379999Y-46040001D01*
X135930000Y-54650000D02*
X134379999Y-53099999D01*
X135080001Y-35139999D02*
X135930000Y-34290000D01*
X134379999Y-35840001D02*
X135080001Y-35139999D01*
X134379999Y-42939999D02*
X134379999Y-35840001D01*
X135930000Y-44490000D02*
X134379999Y-42939999D01*
X100570001Y-67550001D02*
X96520000Y-63500000D01*
X100570001Y-72109999D02*
X100570001Y-67550001D01*
X69689999Y-65569999D02*
X68890000Y-64770000D01*
X74740000Y-70620000D02*
X69689999Y-65569999D01*
X74740000Y-73550000D02*
X74740000Y-70620000D01*
X72740000Y-75550000D02*
X74740000Y-73550000D01*
X72740000Y-76200000D02*
X72740000Y-75550000D01*
X69859999Y-45649999D02*
X68660000Y-44450000D01*
X70197510Y-45987510D02*
X69859999Y-45649999D01*
X70197510Y-62331120D02*
X70197510Y-45987510D01*
X68890000Y-63638630D02*
X70197510Y-62331120D01*
X68890000Y-64770000D02*
X68890000Y-63638630D01*
X70260000Y-63400000D02*
X68890000Y-64770000D01*
X70260000Y-54610000D02*
X70260000Y-63400000D01*
X66860000Y-52710000D02*
X66860000Y-54610000D01*
X66860010Y-52709990D02*
X66860000Y-52710000D01*
X70260000Y-52710000D02*
X70259990Y-52709990D01*
X70259990Y-52709990D02*
X66860010Y-52709990D01*
X70260000Y-54610000D02*
X70260000Y-52710000D01*
X68660000Y-32410000D02*
X69320000Y-31750000D01*
X69320000Y-31750000D02*
X71120000Y-31750000D01*
X68660000Y-44450000D02*
X68660000Y-32410000D01*
D27*
X96520000Y-63500000D02*
X100330000Y-59690000D01*
X100330000Y-46990000D02*
X104140000Y-43180000D01*
X100330000Y-59690000D02*
X100330000Y-46990000D01*
X97319999Y-50000001D02*
X96520000Y-50800000D01*
X97645001Y-49674999D02*
X97319999Y-50000001D01*
X97645001Y-47719999D02*
X97645001Y-49674999D01*
X97060001Y-47134999D02*
X97645001Y-47719999D01*
X96031409Y-47134999D02*
X97060001Y-47134999D01*
X93980000Y-45083590D02*
X96031409Y-47134999D01*
X93980000Y-31750000D02*
X93980000Y-45083590D01*
X91440000Y-43180000D02*
X91440000Y-31750000D01*
X96520000Y-48260000D02*
X91440000Y-43180000D01*
X88900000Y-32881370D02*
X88900000Y-31750000D01*
X88900000Y-49925002D02*
X88900000Y-32881370D01*
X95979999Y-57005001D02*
X88900000Y-49925002D01*
X97060001Y-57005001D02*
X95979999Y-57005001D01*
X97645001Y-56420001D02*
X97060001Y-57005001D01*
X97645001Y-54465001D02*
X97645001Y-56420001D01*
X96520000Y-53340000D02*
X97645001Y-54465001D01*
X86360000Y-50800000D02*
X86360000Y-31750000D01*
X96520000Y-60960000D02*
X86360000Y-50800000D01*
X79539999Y-32549999D02*
X78740000Y-31750000D01*
X85909990Y-38919990D02*
X79539999Y-32549999D01*
X85909990Y-52014992D02*
X85909990Y-38919990D01*
X95979999Y-62085001D02*
X85909990Y-52014992D01*
X97060001Y-62085001D02*
X95979999Y-62085001D01*
X97645001Y-61500001D02*
X97060001Y-62085001D01*
X97645001Y-60419999D02*
X97645001Y-61500001D01*
X96770003Y-59545001D02*
X97645001Y-60419999D01*
X97060001Y-59545001D02*
X96770003Y-59545001D01*
X98095010Y-58509992D02*
X97060001Y-59545001D01*
X98095010Y-44755010D02*
X98095010Y-58509992D01*
X96520000Y-43180000D02*
X98095010Y-44755010D01*
X100800001Y-17309999D02*
X101600000Y-16510000D01*
X95194999Y-22915001D02*
X100800001Y-17309999D01*
X95194999Y-44394999D02*
X95194999Y-22915001D01*
X96520000Y-45720000D02*
X95194999Y-44394999D01*
X87159999Y-17309999D02*
X86360000Y-16510000D01*
X87485001Y-17635001D02*
X87159999Y-17309999D01*
X87485001Y-21840003D02*
X87485001Y-17635001D01*
X88359999Y-22715001D02*
X87485001Y-21840003D01*
X89150003Y-22715001D02*
X88359999Y-22715001D01*
X90025001Y-23589999D02*
X89150003Y-22715001D01*
X90025001Y-49385001D02*
X90025001Y-23589999D01*
X96520000Y-55880000D02*
X90025001Y-49385001D01*
X84619999Y-17309999D02*
X83820000Y-16510000D01*
X84945001Y-17635001D02*
X84619999Y-17309999D01*
X84945001Y-21840003D02*
X84945001Y-17635001D01*
X85819999Y-22715001D02*
X84945001Y-21840003D01*
X86610003Y-22715001D02*
X85819999Y-22715001D01*
X87485001Y-23589999D02*
X86610003Y-22715001D01*
X87485001Y-24670001D02*
X87485001Y-23589999D01*
X86360000Y-25795002D02*
X87485001Y-24670001D01*
X86360000Y-29145002D02*
X86360000Y-25795002D01*
X87485001Y-30270003D02*
X86360000Y-29145002D01*
X87485001Y-49385001D02*
X87485001Y-30270003D01*
X96520000Y-58420000D02*
X87485001Y-49385001D01*
M02*
