G04 #@! TF.GenerationSoftware,KiCad,Pcbnew,(5.1.2-1)-1*
G04 #@! TF.CreationDate,2019-06-05T23:38:11-07:00*
G04 #@! TF.ProjectId,nowhere,6e6f7768-6572-4652-9e6b-696361645f70,rev?*
G04 #@! TF.SameCoordinates,Original*
G04 #@! TF.FileFunction,Soldermask,Top*
G04 #@! TF.FilePolarity,Negative*
%FSLAX46Y46*%
G04 Gerber Fmt 4.6, Leading zero omitted, Abs format (unit mm)*
G04 Created by KiCad (PCBNEW (5.1.2-1)-1) date 2019-06-05 23:38:11*
%MOMM*%
%LPD*%
G04 APERTURE LIST*
%ADD10C,0.100000*%
G04 APERTURE END LIST*
D10*
G36*
X72593097Y-79654069D02*
G01*
X72696032Y-79664207D01*
X72894146Y-79724305D01*
X72894149Y-79724306D01*
X72990975Y-79776061D01*
X73076729Y-79821897D01*
X73236765Y-79953235D01*
X73368103Y-80113271D01*
X73413939Y-80199025D01*
X73465694Y-80295851D01*
X73465695Y-80295854D01*
X73525793Y-80493968D01*
X73546085Y-80700000D01*
X73525793Y-80906032D01*
X73518011Y-80931684D01*
X73465694Y-81104149D01*
X73423504Y-81183081D01*
X73368103Y-81286729D01*
X73236765Y-81446765D01*
X73076729Y-81578103D01*
X72990975Y-81623939D01*
X72894149Y-81675694D01*
X72894146Y-81675695D01*
X72696032Y-81735793D01*
X72593097Y-81745931D01*
X72541631Y-81751000D01*
X70938369Y-81751000D01*
X70886903Y-81745931D01*
X70783968Y-81735793D01*
X70585854Y-81675695D01*
X70585851Y-81675694D01*
X70489025Y-81623939D01*
X70403271Y-81578103D01*
X70243235Y-81446765D01*
X70111897Y-81286729D01*
X70056496Y-81183081D01*
X70014306Y-81104149D01*
X69961989Y-80931684D01*
X69954207Y-80906032D01*
X69933915Y-80700000D01*
X69954207Y-80493968D01*
X70014305Y-80295854D01*
X70014306Y-80295851D01*
X70066061Y-80199025D01*
X70111897Y-80113271D01*
X70243235Y-79953235D01*
X70403271Y-79821897D01*
X70489025Y-79776061D01*
X70585851Y-79724306D01*
X70585854Y-79724305D01*
X70783968Y-79664207D01*
X70886903Y-79654069D01*
X70938369Y-79649000D01*
X72541631Y-79649000D01*
X72593097Y-79654069D01*
X72593097Y-79654069D01*
G37*
G36*
X85413651Y-78382888D02*
G01*
X85724870Y-78477296D01*
X86011680Y-78630599D01*
X86011683Y-78630601D01*
X86011684Y-78630602D01*
X86263082Y-78836918D01*
X86469398Y-79088316D01*
X86469401Y-79088320D01*
X86622704Y-79375130D01*
X86717112Y-79686349D01*
X86748988Y-80010000D01*
X86717112Y-80333651D01*
X86622704Y-80644870D01*
X86469401Y-80931680D01*
X86469399Y-80931683D01*
X86469398Y-80931684D01*
X86263082Y-81183082D01*
X86011684Y-81389398D01*
X86011680Y-81389401D01*
X85724870Y-81542704D01*
X85413651Y-81637112D01*
X85171107Y-81661000D01*
X85008893Y-81661000D01*
X84766349Y-81637112D01*
X84455130Y-81542704D01*
X84168320Y-81389401D01*
X84168316Y-81389398D01*
X83916918Y-81183082D01*
X83710602Y-80931684D01*
X83710601Y-80931683D01*
X83710599Y-80931680D01*
X83557296Y-80644870D01*
X83462888Y-80333651D01*
X83431012Y-80010000D01*
X83462888Y-79686349D01*
X83557296Y-79375130D01*
X83710599Y-79088320D01*
X83710602Y-79088316D01*
X83916918Y-78836918D01*
X84168316Y-78630602D01*
X84168317Y-78630601D01*
X84168320Y-78630599D01*
X84455130Y-78477296D01*
X84766349Y-78382888D01*
X85008893Y-78359000D01*
X85171107Y-78359000D01*
X85413651Y-78382888D01*
X85413651Y-78382888D01*
G37*
G36*
X79791000Y-78251000D02*
G01*
X77689000Y-78251000D01*
X77689000Y-74149000D01*
X79791000Y-74149000D01*
X79791000Y-78251000D01*
X79791000Y-78251000D01*
G37*
G36*
X129606845Y-75262601D02*
G01*
X129762812Y-75293624D01*
X129926784Y-75361544D01*
X130074354Y-75460147D01*
X130199853Y-75585646D01*
X130298456Y-75733216D01*
X130366376Y-75897188D01*
X130401000Y-76071259D01*
X130401000Y-76248741D01*
X130366376Y-76422812D01*
X130298456Y-76586784D01*
X130199853Y-76734354D01*
X130074354Y-76859853D01*
X129926784Y-76958456D01*
X129762812Y-77026376D01*
X129613722Y-77056031D01*
X129588742Y-77061000D01*
X129411258Y-77061000D01*
X129386278Y-77056031D01*
X129237188Y-77026376D01*
X129073216Y-76958456D01*
X128977915Y-76894778D01*
X128956305Y-76883227D01*
X128932856Y-76876114D01*
X128908470Y-76873712D01*
X128884083Y-76876114D01*
X128860635Y-76883227D01*
X128839024Y-76894778D01*
X128820082Y-76910324D01*
X128804537Y-76929266D01*
X128792986Y-76950876D01*
X128785873Y-76974325D01*
X128783471Y-76998711D01*
X128785873Y-77023098D01*
X128792986Y-77046546D01*
X128804537Y-77068157D01*
X128871219Y-77167954D01*
X128924062Y-77295527D01*
X128951000Y-77430956D01*
X128951000Y-77569044D01*
X128924062Y-77704473D01*
X128871218Y-77832049D01*
X128794505Y-77946859D01*
X128696859Y-78044505D01*
X128582049Y-78121218D01*
X128454473Y-78174062D01*
X128319044Y-78201000D01*
X128180956Y-78201000D01*
X128045527Y-78174062D01*
X127917951Y-78121218D01*
X127803141Y-78044505D01*
X127705495Y-77946859D01*
X127628782Y-77832049D01*
X127575938Y-77704473D01*
X127549000Y-77569044D01*
X127549000Y-77430956D01*
X127575938Y-77295527D01*
X127628782Y-77167951D01*
X127705495Y-77053141D01*
X127803141Y-76955495D01*
X127917951Y-76878782D01*
X128045527Y-76825938D01*
X128180956Y-76799000D01*
X128319044Y-76799000D01*
X128454473Y-76825938D01*
X128539155Y-76861015D01*
X128582048Y-76878782D01*
X128616244Y-76901631D01*
X128627894Y-76909415D01*
X128649505Y-76920965D01*
X128672954Y-76928078D01*
X128697340Y-76930480D01*
X128721726Y-76928078D01*
X128745175Y-76920965D01*
X128766786Y-76909413D01*
X128785728Y-76893868D01*
X128801273Y-76874926D01*
X128812823Y-76853315D01*
X128819936Y-76829866D01*
X128822338Y-76805480D01*
X128819936Y-76781094D01*
X128812823Y-76757645D01*
X128801272Y-76736035D01*
X128800152Y-76734359D01*
X128800147Y-76734354D01*
X128701544Y-76586784D01*
X128633624Y-76422812D01*
X128599000Y-76248741D01*
X128599000Y-76071259D01*
X128633624Y-75897188D01*
X128701544Y-75733216D01*
X128800147Y-75585646D01*
X128925646Y-75460147D01*
X129073216Y-75361544D01*
X129237188Y-75293624D01*
X129393155Y-75262601D01*
X129411258Y-75259000D01*
X129588742Y-75259000D01*
X129606845Y-75262601D01*
X129606845Y-75262601D01*
G37*
G36*
X119446845Y-75262601D02*
G01*
X119602812Y-75293624D01*
X119766784Y-75361544D01*
X119914354Y-75460147D01*
X120039853Y-75585646D01*
X120138456Y-75733216D01*
X120206376Y-75897188D01*
X120241000Y-76071259D01*
X120241000Y-76248741D01*
X120206376Y-76422812D01*
X120138456Y-76586784D01*
X120039853Y-76734354D01*
X119914354Y-76859853D01*
X119766784Y-76958456D01*
X119602812Y-77026376D01*
X119453722Y-77056031D01*
X119428742Y-77061000D01*
X119251258Y-77061000D01*
X119226278Y-77056031D01*
X119077188Y-77026376D01*
X118913216Y-76958456D01*
X118817915Y-76894778D01*
X118796305Y-76883227D01*
X118772856Y-76876114D01*
X118748470Y-76873712D01*
X118724083Y-76876114D01*
X118700635Y-76883227D01*
X118679024Y-76894778D01*
X118660082Y-76910324D01*
X118644537Y-76929266D01*
X118632986Y-76950876D01*
X118625873Y-76974325D01*
X118623471Y-76998711D01*
X118625873Y-77023098D01*
X118632986Y-77046546D01*
X118644537Y-77068157D01*
X118711219Y-77167954D01*
X118764062Y-77295527D01*
X118791000Y-77430956D01*
X118791000Y-77569044D01*
X118764062Y-77704473D01*
X118711218Y-77832049D01*
X118634505Y-77946859D01*
X118536859Y-78044505D01*
X118422049Y-78121218D01*
X118294473Y-78174062D01*
X118159044Y-78201000D01*
X118020956Y-78201000D01*
X117885527Y-78174062D01*
X117757951Y-78121218D01*
X117643141Y-78044505D01*
X117545495Y-77946859D01*
X117468782Y-77832049D01*
X117415938Y-77704473D01*
X117389000Y-77569044D01*
X117389000Y-77430956D01*
X117415938Y-77295527D01*
X117468782Y-77167951D01*
X117545495Y-77053141D01*
X117643141Y-76955495D01*
X117757951Y-76878782D01*
X117885527Y-76825938D01*
X118020956Y-76799000D01*
X118159044Y-76799000D01*
X118294473Y-76825938D01*
X118379155Y-76861015D01*
X118422048Y-76878782D01*
X118456244Y-76901631D01*
X118467894Y-76909415D01*
X118489505Y-76920965D01*
X118512954Y-76928078D01*
X118537340Y-76930480D01*
X118561726Y-76928078D01*
X118585175Y-76920965D01*
X118606786Y-76909413D01*
X118625728Y-76893868D01*
X118641273Y-76874926D01*
X118652823Y-76853315D01*
X118659936Y-76829866D01*
X118662338Y-76805480D01*
X118659936Y-76781094D01*
X118652823Y-76757645D01*
X118641272Y-76736035D01*
X118640152Y-76734359D01*
X118640147Y-76734354D01*
X118541544Y-76586784D01*
X118473624Y-76422812D01*
X118439000Y-76248741D01*
X118439000Y-76071259D01*
X118473624Y-75897188D01*
X118541544Y-75733216D01*
X118640147Y-75585646D01*
X118765646Y-75460147D01*
X118913216Y-75361544D01*
X119077188Y-75293624D01*
X119233155Y-75262601D01*
X119251258Y-75259000D01*
X119428742Y-75259000D01*
X119446845Y-75262601D01*
X119446845Y-75262601D01*
G37*
G36*
X109286845Y-75262601D02*
G01*
X109442812Y-75293624D01*
X109606784Y-75361544D01*
X109754354Y-75460147D01*
X109879853Y-75585646D01*
X109978456Y-75733216D01*
X110046376Y-75897188D01*
X110081000Y-76071259D01*
X110081000Y-76248741D01*
X110046376Y-76422812D01*
X109978456Y-76586784D01*
X109879853Y-76734354D01*
X109754354Y-76859853D01*
X109606784Y-76958456D01*
X109442812Y-77026376D01*
X109293722Y-77056031D01*
X109268742Y-77061000D01*
X109091258Y-77061000D01*
X109066278Y-77056031D01*
X108917188Y-77026376D01*
X108753216Y-76958456D01*
X108657915Y-76894778D01*
X108636305Y-76883227D01*
X108612856Y-76876114D01*
X108588470Y-76873712D01*
X108564083Y-76876114D01*
X108540635Y-76883227D01*
X108519024Y-76894778D01*
X108500082Y-76910324D01*
X108484537Y-76929266D01*
X108472986Y-76950876D01*
X108465873Y-76974325D01*
X108463471Y-76998711D01*
X108465873Y-77023098D01*
X108472986Y-77046546D01*
X108484537Y-77068157D01*
X108551219Y-77167954D01*
X108604062Y-77295527D01*
X108631000Y-77430956D01*
X108631000Y-77569044D01*
X108604062Y-77704473D01*
X108551218Y-77832049D01*
X108474505Y-77946859D01*
X108376859Y-78044505D01*
X108262049Y-78121218D01*
X108134473Y-78174062D01*
X107999044Y-78201000D01*
X107860956Y-78201000D01*
X107725527Y-78174062D01*
X107597951Y-78121218D01*
X107483141Y-78044505D01*
X107385495Y-77946859D01*
X107308782Y-77832049D01*
X107255938Y-77704473D01*
X107229000Y-77569044D01*
X107229000Y-77430956D01*
X107255938Y-77295527D01*
X107308782Y-77167951D01*
X107385495Y-77053141D01*
X107483141Y-76955495D01*
X107597951Y-76878782D01*
X107725527Y-76825938D01*
X107860956Y-76799000D01*
X107999044Y-76799000D01*
X108134473Y-76825938D01*
X108219155Y-76861015D01*
X108262048Y-76878782D01*
X108296244Y-76901631D01*
X108307894Y-76909415D01*
X108329505Y-76920965D01*
X108352954Y-76928078D01*
X108377340Y-76930480D01*
X108401726Y-76928078D01*
X108425175Y-76920965D01*
X108446786Y-76909413D01*
X108465728Y-76893868D01*
X108481273Y-76874926D01*
X108492823Y-76853315D01*
X108499936Y-76829866D01*
X108502338Y-76805480D01*
X108499936Y-76781094D01*
X108492823Y-76757645D01*
X108481272Y-76736035D01*
X108480152Y-76734359D01*
X108480147Y-76734354D01*
X108381544Y-76586784D01*
X108313624Y-76422812D01*
X108279000Y-76248741D01*
X108279000Y-76071259D01*
X108313624Y-75897188D01*
X108381544Y-75733216D01*
X108480147Y-75585646D01*
X108605646Y-75460147D01*
X108753216Y-75361544D01*
X108917188Y-75293624D01*
X109073155Y-75262601D01*
X109091258Y-75259000D01*
X109268742Y-75259000D01*
X109286845Y-75262601D01*
X109286845Y-75262601D01*
G37*
G36*
X99126845Y-75262601D02*
G01*
X99282812Y-75293624D01*
X99446784Y-75361544D01*
X99594354Y-75460147D01*
X99719853Y-75585646D01*
X99818456Y-75733216D01*
X99886376Y-75897188D01*
X99921000Y-76071259D01*
X99921000Y-76248741D01*
X99886376Y-76422812D01*
X99818456Y-76586784D01*
X99719853Y-76734354D01*
X99594354Y-76859853D01*
X99446784Y-76958456D01*
X99282812Y-77026376D01*
X99133722Y-77056031D01*
X99108742Y-77061000D01*
X98931258Y-77061000D01*
X98906278Y-77056031D01*
X98757188Y-77026376D01*
X98593216Y-76958456D01*
X98497915Y-76894778D01*
X98476305Y-76883227D01*
X98452856Y-76876114D01*
X98428470Y-76873712D01*
X98404083Y-76876114D01*
X98380635Y-76883227D01*
X98359024Y-76894778D01*
X98340082Y-76910324D01*
X98324537Y-76929266D01*
X98312986Y-76950876D01*
X98305873Y-76974325D01*
X98303471Y-76998711D01*
X98305873Y-77023098D01*
X98312986Y-77046546D01*
X98324537Y-77068157D01*
X98391219Y-77167954D01*
X98444062Y-77295527D01*
X98471000Y-77430956D01*
X98471000Y-77569044D01*
X98444062Y-77704473D01*
X98391218Y-77832049D01*
X98314505Y-77946859D01*
X98216859Y-78044505D01*
X98102049Y-78121218D01*
X97974473Y-78174062D01*
X97839044Y-78201000D01*
X97700956Y-78201000D01*
X97565527Y-78174062D01*
X97437951Y-78121218D01*
X97323141Y-78044505D01*
X97225495Y-77946859D01*
X97148782Y-77832049D01*
X97095938Y-77704473D01*
X97069000Y-77569044D01*
X97069000Y-77430956D01*
X97095938Y-77295527D01*
X97148782Y-77167951D01*
X97225495Y-77053141D01*
X97323141Y-76955495D01*
X97437951Y-76878782D01*
X97565527Y-76825938D01*
X97700956Y-76799000D01*
X97839044Y-76799000D01*
X97974473Y-76825938D01*
X98059155Y-76861015D01*
X98102048Y-76878782D01*
X98136244Y-76901631D01*
X98147894Y-76909415D01*
X98169505Y-76920965D01*
X98192954Y-76928078D01*
X98217340Y-76930480D01*
X98241726Y-76928078D01*
X98265175Y-76920965D01*
X98286786Y-76909413D01*
X98305728Y-76893868D01*
X98321273Y-76874926D01*
X98332823Y-76853315D01*
X98339936Y-76829866D01*
X98342338Y-76805480D01*
X98339936Y-76781094D01*
X98332823Y-76757645D01*
X98321272Y-76736035D01*
X98320152Y-76734359D01*
X98320147Y-76734354D01*
X98221544Y-76586784D01*
X98153624Y-76422812D01*
X98119000Y-76248741D01*
X98119000Y-76071259D01*
X98153624Y-75897188D01*
X98221544Y-75733216D01*
X98320147Y-75585646D01*
X98445646Y-75460147D01*
X98593216Y-75361544D01*
X98757188Y-75293624D01*
X98913155Y-75262601D01*
X98931258Y-75259000D01*
X99108742Y-75259000D01*
X99126845Y-75262601D01*
X99126845Y-75262601D01*
G37*
G36*
X72946032Y-74514207D02*
G01*
X73144146Y-74574305D01*
X73144149Y-74574306D01*
X73240975Y-74626061D01*
X73326729Y-74671897D01*
X73486765Y-74803235D01*
X73618103Y-74963271D01*
X73663939Y-75049025D01*
X73715694Y-75145851D01*
X73715695Y-75145854D01*
X73775793Y-75343968D01*
X73779510Y-75381705D01*
X73791000Y-75498369D01*
X73791000Y-76901631D01*
X73790233Y-76909415D01*
X73775793Y-77056032D01*
X73741842Y-77167951D01*
X73715694Y-77254149D01*
X73693577Y-77295526D01*
X73618103Y-77436729D01*
X73486765Y-77596765D01*
X73326729Y-77728103D01*
X73210030Y-77790479D01*
X73144148Y-77825694D01*
X73144145Y-77825695D01*
X72946031Y-77885793D01*
X72740000Y-77906085D01*
X72533968Y-77885793D01*
X72335854Y-77825695D01*
X72335851Y-77825694D01*
X72239025Y-77773939D01*
X72153271Y-77728103D01*
X71993235Y-77596765D01*
X71861897Y-77436729D01*
X71764307Y-77254149D01*
X71764306Y-77254148D01*
X71738159Y-77167954D01*
X71704207Y-77056031D01*
X71691932Y-76931403D01*
X71689000Y-76901630D01*
X71689000Y-75498369D01*
X71704207Y-75343970D01*
X71764305Y-75145853D01*
X71839184Y-75005766D01*
X71861898Y-74963271D01*
X71993236Y-74803235D01*
X72153272Y-74671897D01*
X72239026Y-74626061D01*
X72335852Y-74574306D01*
X72335855Y-74574305D01*
X72533969Y-74514207D01*
X72740000Y-74493915D01*
X72946032Y-74514207D01*
X72946032Y-74514207D01*
G37*
G36*
X117448129Y-75258698D02*
G01*
X117487749Y-75262601D01*
X117509697Y-75266966D01*
X117544846Y-75277628D01*
X117556141Y-75282306D01*
X117559829Y-75283834D01*
X117559832Y-75283835D01*
X117565528Y-75286195D01*
X117597923Y-75303511D01*
X117616534Y-75315946D01*
X117644920Y-75339241D01*
X117660759Y-75355080D01*
X117684054Y-75383466D01*
X117696489Y-75402077D01*
X117713805Y-75434472D01*
X117722372Y-75455154D01*
X117733034Y-75490303D01*
X117737399Y-75512251D01*
X117741302Y-75551871D01*
X117741852Y-75563064D01*
X117741852Y-76356936D01*
X117741302Y-76368129D01*
X117737399Y-76407749D01*
X117733034Y-76429697D01*
X117722372Y-76464846D01*
X117713805Y-76485528D01*
X117696489Y-76517923D01*
X117684054Y-76536534D01*
X117658804Y-76567302D01*
X117651280Y-76575604D01*
X117255604Y-76971280D01*
X117247302Y-76978804D01*
X117216534Y-77004054D01*
X117197923Y-77016489D01*
X117165528Y-77033805D01*
X117159832Y-77036165D01*
X117159829Y-77036166D01*
X117156141Y-77037694D01*
X117144846Y-77042372D01*
X117109697Y-77053034D01*
X117087749Y-77057399D01*
X117048129Y-77061302D01*
X117036936Y-77061852D01*
X116243064Y-77061852D01*
X116231871Y-77061302D01*
X116192251Y-77057399D01*
X116170303Y-77053034D01*
X116135154Y-77042372D01*
X116123859Y-77037694D01*
X116120171Y-77036166D01*
X116120168Y-77036165D01*
X116114472Y-77033805D01*
X116082077Y-77016489D01*
X116063466Y-77004054D01*
X116035080Y-76980759D01*
X116019241Y-76964920D01*
X115995946Y-76936534D01*
X115983511Y-76917923D01*
X115966195Y-76885528D01*
X115963401Y-76878782D01*
X115961301Y-76873712D01*
X115957628Y-76864846D01*
X115946966Y-76829697D01*
X115942601Y-76807749D01*
X115938698Y-76768129D01*
X115938148Y-76756936D01*
X115938148Y-75563064D01*
X115938698Y-75551871D01*
X115942601Y-75512251D01*
X115946966Y-75490303D01*
X115957628Y-75455154D01*
X115966195Y-75434472D01*
X115983511Y-75402077D01*
X115995946Y-75383466D01*
X116019241Y-75355080D01*
X116035080Y-75339241D01*
X116063466Y-75315946D01*
X116082077Y-75303511D01*
X116114472Y-75286195D01*
X116120168Y-75283835D01*
X116120171Y-75283834D01*
X116123859Y-75282306D01*
X116135154Y-75277628D01*
X116170303Y-75266966D01*
X116192251Y-75262601D01*
X116231871Y-75258698D01*
X116243064Y-75258148D01*
X117436936Y-75258148D01*
X117448129Y-75258698D01*
X117448129Y-75258698D01*
G37*
G36*
X107288129Y-75258698D02*
G01*
X107327749Y-75262601D01*
X107349697Y-75266966D01*
X107384846Y-75277628D01*
X107396141Y-75282306D01*
X107399829Y-75283834D01*
X107399832Y-75283835D01*
X107405528Y-75286195D01*
X107437923Y-75303511D01*
X107456534Y-75315946D01*
X107484920Y-75339241D01*
X107500759Y-75355080D01*
X107524054Y-75383466D01*
X107536489Y-75402077D01*
X107553805Y-75434472D01*
X107562372Y-75455154D01*
X107573034Y-75490303D01*
X107577399Y-75512251D01*
X107581302Y-75551871D01*
X107581852Y-75563064D01*
X107581852Y-76356936D01*
X107581302Y-76368129D01*
X107577399Y-76407749D01*
X107573034Y-76429697D01*
X107562372Y-76464846D01*
X107553805Y-76485528D01*
X107536489Y-76517923D01*
X107524054Y-76536534D01*
X107498804Y-76567302D01*
X107491280Y-76575604D01*
X107095604Y-76971280D01*
X107087302Y-76978804D01*
X107056534Y-77004054D01*
X107037923Y-77016489D01*
X107005528Y-77033805D01*
X106999832Y-77036165D01*
X106999829Y-77036166D01*
X106996141Y-77037694D01*
X106984846Y-77042372D01*
X106949697Y-77053034D01*
X106927749Y-77057399D01*
X106888129Y-77061302D01*
X106876936Y-77061852D01*
X106083064Y-77061852D01*
X106071871Y-77061302D01*
X106032251Y-77057399D01*
X106010303Y-77053034D01*
X105975154Y-77042372D01*
X105963859Y-77037694D01*
X105960171Y-77036166D01*
X105960168Y-77036165D01*
X105954472Y-77033805D01*
X105922077Y-77016489D01*
X105903466Y-77004054D01*
X105875080Y-76980759D01*
X105859241Y-76964920D01*
X105835946Y-76936534D01*
X105823511Y-76917923D01*
X105806195Y-76885528D01*
X105803401Y-76878782D01*
X105801301Y-76873712D01*
X105797628Y-76864846D01*
X105786966Y-76829697D01*
X105782601Y-76807749D01*
X105778698Y-76768129D01*
X105778148Y-76756936D01*
X105778148Y-75563064D01*
X105778698Y-75551871D01*
X105782601Y-75512251D01*
X105786966Y-75490303D01*
X105797628Y-75455154D01*
X105806195Y-75434472D01*
X105823511Y-75402077D01*
X105835946Y-75383466D01*
X105859241Y-75355080D01*
X105875080Y-75339241D01*
X105903466Y-75315946D01*
X105922077Y-75303511D01*
X105954472Y-75286195D01*
X105960168Y-75283835D01*
X105960171Y-75283834D01*
X105963859Y-75282306D01*
X105975154Y-75277628D01*
X106010303Y-75266966D01*
X106032251Y-75262601D01*
X106071871Y-75258698D01*
X106083064Y-75258148D01*
X107276936Y-75258148D01*
X107288129Y-75258698D01*
X107288129Y-75258698D01*
G37*
G36*
X97128129Y-75258698D02*
G01*
X97167749Y-75262601D01*
X97189697Y-75266966D01*
X97224846Y-75277628D01*
X97236141Y-75282306D01*
X97239829Y-75283834D01*
X97239832Y-75283835D01*
X97245528Y-75286195D01*
X97277923Y-75303511D01*
X97296534Y-75315946D01*
X97324920Y-75339241D01*
X97340759Y-75355080D01*
X97364054Y-75383466D01*
X97376489Y-75402077D01*
X97393805Y-75434472D01*
X97402372Y-75455154D01*
X97413034Y-75490303D01*
X97417399Y-75512251D01*
X97421302Y-75551871D01*
X97421852Y-75563064D01*
X97421852Y-76356936D01*
X97421302Y-76368129D01*
X97417399Y-76407749D01*
X97413034Y-76429697D01*
X97402372Y-76464846D01*
X97393805Y-76485528D01*
X97376489Y-76517923D01*
X97364054Y-76536534D01*
X97338804Y-76567302D01*
X97331280Y-76575604D01*
X96935604Y-76971280D01*
X96927302Y-76978804D01*
X96896534Y-77004054D01*
X96877923Y-77016489D01*
X96845528Y-77033805D01*
X96839832Y-77036165D01*
X96839829Y-77036166D01*
X96836141Y-77037694D01*
X96824846Y-77042372D01*
X96789697Y-77053034D01*
X96767749Y-77057399D01*
X96728129Y-77061302D01*
X96716936Y-77061852D01*
X95923064Y-77061852D01*
X95911871Y-77061302D01*
X95872251Y-77057399D01*
X95850303Y-77053034D01*
X95815154Y-77042372D01*
X95803859Y-77037694D01*
X95800171Y-77036166D01*
X95800168Y-77036165D01*
X95794472Y-77033805D01*
X95762077Y-77016489D01*
X95743466Y-77004054D01*
X95715080Y-76980759D01*
X95699241Y-76964920D01*
X95675946Y-76936534D01*
X95663511Y-76917923D01*
X95646195Y-76885528D01*
X95643401Y-76878782D01*
X95641301Y-76873712D01*
X95637628Y-76864846D01*
X95626966Y-76829697D01*
X95622601Y-76807749D01*
X95618698Y-76768129D01*
X95618148Y-76756936D01*
X95618148Y-75563064D01*
X95618698Y-75551871D01*
X95622601Y-75512251D01*
X95626966Y-75490303D01*
X95637628Y-75455154D01*
X95646195Y-75434472D01*
X95663511Y-75402077D01*
X95675946Y-75383466D01*
X95699241Y-75355080D01*
X95715080Y-75339241D01*
X95743466Y-75315946D01*
X95762077Y-75303511D01*
X95794472Y-75286195D01*
X95800168Y-75283835D01*
X95800171Y-75283834D01*
X95803859Y-75282306D01*
X95815154Y-75277628D01*
X95850303Y-75266966D01*
X95872251Y-75262601D01*
X95911871Y-75258698D01*
X95923064Y-75258148D01*
X97116936Y-75258148D01*
X97128129Y-75258698D01*
X97128129Y-75258698D01*
G37*
G36*
X127608129Y-75258698D02*
G01*
X127647749Y-75262601D01*
X127669697Y-75266966D01*
X127704846Y-75277628D01*
X127716141Y-75282306D01*
X127719829Y-75283834D01*
X127719832Y-75283835D01*
X127725528Y-75286195D01*
X127757923Y-75303511D01*
X127776534Y-75315946D01*
X127804920Y-75339241D01*
X127820759Y-75355080D01*
X127844054Y-75383466D01*
X127856489Y-75402077D01*
X127873805Y-75434472D01*
X127882372Y-75455154D01*
X127893034Y-75490303D01*
X127897399Y-75512251D01*
X127901302Y-75551871D01*
X127901852Y-75563064D01*
X127901852Y-76356936D01*
X127901302Y-76368129D01*
X127897399Y-76407749D01*
X127893034Y-76429697D01*
X127882372Y-76464846D01*
X127873805Y-76485528D01*
X127856489Y-76517923D01*
X127844054Y-76536534D01*
X127818804Y-76567302D01*
X127811280Y-76575604D01*
X127415604Y-76971280D01*
X127407302Y-76978804D01*
X127376534Y-77004054D01*
X127357923Y-77016489D01*
X127325528Y-77033805D01*
X127319832Y-77036165D01*
X127319829Y-77036166D01*
X127316141Y-77037694D01*
X127304846Y-77042372D01*
X127269697Y-77053034D01*
X127247749Y-77057399D01*
X127208129Y-77061302D01*
X127196936Y-77061852D01*
X126403064Y-77061852D01*
X126391871Y-77061302D01*
X126352251Y-77057399D01*
X126330303Y-77053034D01*
X126295154Y-77042372D01*
X126283859Y-77037694D01*
X126280171Y-77036166D01*
X126280168Y-77036165D01*
X126274472Y-77033805D01*
X126242077Y-77016489D01*
X126223466Y-77004054D01*
X126195080Y-76980759D01*
X126179241Y-76964920D01*
X126155946Y-76936534D01*
X126143511Y-76917923D01*
X126126195Y-76885528D01*
X126123401Y-76878782D01*
X126121301Y-76873712D01*
X126117628Y-76864846D01*
X126106966Y-76829697D01*
X126102601Y-76807749D01*
X126098698Y-76768129D01*
X126098148Y-76756936D01*
X126098148Y-75563064D01*
X126098698Y-75551871D01*
X126102601Y-75512251D01*
X126106966Y-75490303D01*
X126117628Y-75455154D01*
X126126195Y-75434472D01*
X126143511Y-75402077D01*
X126155946Y-75383466D01*
X126179241Y-75355080D01*
X126195080Y-75339241D01*
X126223466Y-75315946D01*
X126242077Y-75303511D01*
X126274472Y-75286195D01*
X126280168Y-75283835D01*
X126280171Y-75283834D01*
X126283859Y-75282306D01*
X126295154Y-75277628D01*
X126330303Y-75266966D01*
X126352251Y-75262601D01*
X126391871Y-75258698D01*
X126403064Y-75258148D01*
X127596936Y-75258148D01*
X127608129Y-75258698D01*
X127608129Y-75258698D01*
G37*
G36*
X69988228Y-75381703D02*
G01*
X70143100Y-75445853D01*
X70282481Y-75538985D01*
X70401015Y-75657519D01*
X70494147Y-75796900D01*
X70558297Y-75951772D01*
X70591000Y-76116184D01*
X70591000Y-76283816D01*
X70558297Y-76448228D01*
X70494147Y-76603100D01*
X70401015Y-76742481D01*
X70282481Y-76861015D01*
X70143100Y-76954147D01*
X69988228Y-77018297D01*
X69823816Y-77051000D01*
X69656184Y-77051000D01*
X69491772Y-77018297D01*
X69336900Y-76954147D01*
X69197519Y-76861015D01*
X69078985Y-76742481D01*
X68985853Y-76603100D01*
X68921703Y-76448228D01*
X68889000Y-76283816D01*
X68889000Y-76116184D01*
X68921703Y-75951772D01*
X68985853Y-75796900D01*
X69078985Y-75657519D01*
X69197519Y-75538985D01*
X69336900Y-75445853D01*
X69491772Y-75381703D01*
X69656184Y-75349000D01*
X69823816Y-75349000D01*
X69988228Y-75381703D01*
X69988228Y-75381703D01*
G37*
G36*
X116953512Y-72763927D02*
G01*
X117102812Y-72793624D01*
X117266784Y-72861544D01*
X117414354Y-72960147D01*
X117539853Y-73085646D01*
X117638456Y-73233216D01*
X117706376Y-73397188D01*
X117741000Y-73571259D01*
X117741000Y-73748741D01*
X117706376Y-73922812D01*
X117638456Y-74086784D01*
X117539853Y-74234354D01*
X117414354Y-74359853D01*
X117266784Y-74458456D01*
X117102812Y-74526376D01*
X116953512Y-74556073D01*
X116928742Y-74561000D01*
X116751258Y-74561000D01*
X116726488Y-74556073D01*
X116577188Y-74526376D01*
X116413216Y-74458456D01*
X116265646Y-74359853D01*
X116140147Y-74234354D01*
X116041544Y-74086784D01*
X115973624Y-73922812D01*
X115939000Y-73748741D01*
X115939000Y-73571259D01*
X115973624Y-73397188D01*
X116041544Y-73233216D01*
X116140147Y-73085646D01*
X116265646Y-72960147D01*
X116413216Y-72861544D01*
X116577188Y-72793624D01*
X116726488Y-72763927D01*
X116751258Y-72759000D01*
X116928742Y-72759000D01*
X116953512Y-72763927D01*
X116953512Y-72763927D01*
G37*
G36*
X129613512Y-72763927D02*
G01*
X129762812Y-72793624D01*
X129926784Y-72861544D01*
X130074354Y-72960147D01*
X130199853Y-73085646D01*
X130298456Y-73233216D01*
X130366376Y-73397188D01*
X130401000Y-73571259D01*
X130401000Y-73748741D01*
X130366376Y-73922812D01*
X130298456Y-74086784D01*
X130199853Y-74234354D01*
X130074354Y-74359853D01*
X129926784Y-74458456D01*
X129762812Y-74526376D01*
X129613512Y-74556073D01*
X129588742Y-74561000D01*
X129411258Y-74561000D01*
X129386488Y-74556073D01*
X129237188Y-74526376D01*
X129073216Y-74458456D01*
X128925646Y-74359853D01*
X128800147Y-74234354D01*
X128701544Y-74086784D01*
X128633624Y-73922812D01*
X128599000Y-73748741D01*
X128599000Y-73571259D01*
X128633624Y-73397188D01*
X128701544Y-73233216D01*
X128800147Y-73085646D01*
X128925646Y-72960147D01*
X129073216Y-72861544D01*
X129237188Y-72793624D01*
X129386488Y-72763927D01*
X129411258Y-72759000D01*
X129588742Y-72759000D01*
X129613512Y-72763927D01*
X129613512Y-72763927D01*
G37*
G36*
X127113512Y-72763927D02*
G01*
X127262812Y-72793624D01*
X127426784Y-72861544D01*
X127574354Y-72960147D01*
X127699853Y-73085646D01*
X127798456Y-73233216D01*
X127866376Y-73397188D01*
X127901000Y-73571259D01*
X127901000Y-73748741D01*
X127866376Y-73922812D01*
X127798456Y-74086784D01*
X127699853Y-74234354D01*
X127574354Y-74359853D01*
X127426784Y-74458456D01*
X127262812Y-74526376D01*
X127113512Y-74556073D01*
X127088742Y-74561000D01*
X126911258Y-74561000D01*
X126886488Y-74556073D01*
X126737188Y-74526376D01*
X126573216Y-74458456D01*
X126425646Y-74359853D01*
X126300147Y-74234354D01*
X126201544Y-74086784D01*
X126133624Y-73922812D01*
X126099000Y-73748741D01*
X126099000Y-73571259D01*
X126133624Y-73397188D01*
X126201544Y-73233216D01*
X126300147Y-73085646D01*
X126425646Y-72960147D01*
X126573216Y-72861544D01*
X126737188Y-72793624D01*
X126886488Y-72763927D01*
X126911258Y-72759000D01*
X127088742Y-72759000D01*
X127113512Y-72763927D01*
X127113512Y-72763927D01*
G37*
G36*
X96633512Y-72763927D02*
G01*
X96782812Y-72793624D01*
X96946784Y-72861544D01*
X97094354Y-72960147D01*
X97219853Y-73085646D01*
X97318456Y-73233216D01*
X97386376Y-73397188D01*
X97421000Y-73571259D01*
X97421000Y-73748741D01*
X97386376Y-73922812D01*
X97318456Y-74086784D01*
X97219853Y-74234354D01*
X97094354Y-74359853D01*
X96946784Y-74458456D01*
X96782812Y-74526376D01*
X96633512Y-74556073D01*
X96608742Y-74561000D01*
X96431258Y-74561000D01*
X96406488Y-74556073D01*
X96257188Y-74526376D01*
X96093216Y-74458456D01*
X95945646Y-74359853D01*
X95820147Y-74234354D01*
X95721544Y-74086784D01*
X95653624Y-73922812D01*
X95619000Y-73748741D01*
X95619000Y-73571259D01*
X95653624Y-73397188D01*
X95721544Y-73233216D01*
X95820147Y-73085646D01*
X95945646Y-72960147D01*
X96093216Y-72861544D01*
X96257188Y-72793624D01*
X96406488Y-72763927D01*
X96431258Y-72759000D01*
X96608742Y-72759000D01*
X96633512Y-72763927D01*
X96633512Y-72763927D01*
G37*
G36*
X99133512Y-72763927D02*
G01*
X99282812Y-72793624D01*
X99446784Y-72861544D01*
X99594354Y-72960147D01*
X99719853Y-73085646D01*
X99818456Y-73233216D01*
X99886376Y-73397188D01*
X99921000Y-73571259D01*
X99921000Y-73748741D01*
X99886376Y-73922812D01*
X99818456Y-74086784D01*
X99719853Y-74234354D01*
X99594354Y-74359853D01*
X99446784Y-74458456D01*
X99282812Y-74526376D01*
X99133512Y-74556073D01*
X99108742Y-74561000D01*
X98931258Y-74561000D01*
X98906488Y-74556073D01*
X98757188Y-74526376D01*
X98593216Y-74458456D01*
X98445646Y-74359853D01*
X98320147Y-74234354D01*
X98221544Y-74086784D01*
X98153624Y-73922812D01*
X98119000Y-73748741D01*
X98119000Y-73571259D01*
X98153624Y-73397188D01*
X98221544Y-73233216D01*
X98320147Y-73085646D01*
X98445646Y-72960147D01*
X98593216Y-72861544D01*
X98757188Y-72793624D01*
X98906488Y-72763927D01*
X98931258Y-72759000D01*
X99108742Y-72759000D01*
X99133512Y-72763927D01*
X99133512Y-72763927D01*
G37*
G36*
X106793512Y-72763927D02*
G01*
X106942812Y-72793624D01*
X107106784Y-72861544D01*
X107254354Y-72960147D01*
X107379853Y-73085646D01*
X107478456Y-73233216D01*
X107546376Y-73397188D01*
X107581000Y-73571259D01*
X107581000Y-73748741D01*
X107546376Y-73922812D01*
X107478456Y-74086784D01*
X107379853Y-74234354D01*
X107254354Y-74359853D01*
X107106784Y-74458456D01*
X106942812Y-74526376D01*
X106793512Y-74556073D01*
X106768742Y-74561000D01*
X106591258Y-74561000D01*
X106566488Y-74556073D01*
X106417188Y-74526376D01*
X106253216Y-74458456D01*
X106105646Y-74359853D01*
X105980147Y-74234354D01*
X105881544Y-74086784D01*
X105813624Y-73922812D01*
X105779000Y-73748741D01*
X105779000Y-73571259D01*
X105813624Y-73397188D01*
X105881544Y-73233216D01*
X105980147Y-73085646D01*
X106105646Y-72960147D01*
X106253216Y-72861544D01*
X106417188Y-72793624D01*
X106566488Y-72763927D01*
X106591258Y-72759000D01*
X106768742Y-72759000D01*
X106793512Y-72763927D01*
X106793512Y-72763927D01*
G37*
G36*
X119453512Y-72763927D02*
G01*
X119602812Y-72793624D01*
X119766784Y-72861544D01*
X119914354Y-72960147D01*
X120039853Y-73085646D01*
X120138456Y-73233216D01*
X120206376Y-73397188D01*
X120241000Y-73571259D01*
X120241000Y-73748741D01*
X120206376Y-73922812D01*
X120138456Y-74086784D01*
X120039853Y-74234354D01*
X119914354Y-74359853D01*
X119766784Y-74458456D01*
X119602812Y-74526376D01*
X119453512Y-74556073D01*
X119428742Y-74561000D01*
X119251258Y-74561000D01*
X119226488Y-74556073D01*
X119077188Y-74526376D01*
X118913216Y-74458456D01*
X118765646Y-74359853D01*
X118640147Y-74234354D01*
X118541544Y-74086784D01*
X118473624Y-73922812D01*
X118439000Y-73748741D01*
X118439000Y-73571259D01*
X118473624Y-73397188D01*
X118541544Y-73233216D01*
X118640147Y-73085646D01*
X118765646Y-72960147D01*
X118913216Y-72861544D01*
X119077188Y-72793624D01*
X119226488Y-72763927D01*
X119251258Y-72759000D01*
X119428742Y-72759000D01*
X119453512Y-72763927D01*
X119453512Y-72763927D01*
G37*
G36*
X109293512Y-72763927D02*
G01*
X109442812Y-72793624D01*
X109606784Y-72861544D01*
X109754354Y-72960147D01*
X109879853Y-73085646D01*
X109978456Y-73233216D01*
X110046376Y-73397188D01*
X110081000Y-73571259D01*
X110081000Y-73748741D01*
X110046376Y-73922812D01*
X109978456Y-74086784D01*
X109879853Y-74234354D01*
X109754354Y-74359853D01*
X109606784Y-74458456D01*
X109442812Y-74526376D01*
X109293512Y-74556073D01*
X109268742Y-74561000D01*
X109091258Y-74561000D01*
X109066488Y-74556073D01*
X108917188Y-74526376D01*
X108753216Y-74458456D01*
X108605646Y-74359853D01*
X108480147Y-74234354D01*
X108381544Y-74086784D01*
X108313624Y-73922812D01*
X108279000Y-73748741D01*
X108279000Y-73571259D01*
X108313624Y-73397188D01*
X108381544Y-73233216D01*
X108480147Y-73085646D01*
X108605646Y-72960147D01*
X108753216Y-72861544D01*
X108917188Y-72793624D01*
X109066488Y-72763927D01*
X109091258Y-72759000D01*
X109268742Y-72759000D01*
X109293512Y-72763927D01*
X109293512Y-72763927D01*
G37*
G36*
X72593097Y-70654069D02*
G01*
X72696032Y-70664207D01*
X72894146Y-70724305D01*
X72894149Y-70724306D01*
X72990975Y-70776061D01*
X73076729Y-70821897D01*
X73236765Y-70953235D01*
X73368103Y-71113271D01*
X73413939Y-71199025D01*
X73465694Y-71295851D01*
X73465695Y-71295854D01*
X73525793Y-71493968D01*
X73546085Y-71700000D01*
X73525793Y-71906032D01*
X73465695Y-72104146D01*
X73465694Y-72104149D01*
X73413939Y-72200975D01*
X73368103Y-72286729D01*
X73236765Y-72446765D01*
X73076729Y-72578103D01*
X72990975Y-72623939D01*
X72894149Y-72675694D01*
X72894146Y-72675695D01*
X72696032Y-72735793D01*
X72593097Y-72745931D01*
X72541631Y-72751000D01*
X70938369Y-72751000D01*
X70886903Y-72745931D01*
X70783968Y-72735793D01*
X70585854Y-72675695D01*
X70585851Y-72675694D01*
X70489025Y-72623939D01*
X70403271Y-72578103D01*
X70243235Y-72446765D01*
X70111897Y-72286729D01*
X70066061Y-72200975D01*
X70014306Y-72104149D01*
X70014305Y-72104146D01*
X69954207Y-71906032D01*
X69933915Y-71700000D01*
X69954207Y-71493968D01*
X70014305Y-71295854D01*
X70014306Y-71295851D01*
X70066061Y-71199025D01*
X70111897Y-71113271D01*
X70243235Y-70953235D01*
X70403271Y-70821897D01*
X70489025Y-70776061D01*
X70585851Y-70724306D01*
X70585854Y-70724305D01*
X70783968Y-70664207D01*
X70886903Y-70654069D01*
X70938369Y-70649000D01*
X72541631Y-70649000D01*
X72593097Y-70654069D01*
X72593097Y-70654069D01*
G37*
G36*
X138638129Y-66408698D02*
G01*
X138677749Y-66412601D01*
X138699697Y-66416966D01*
X138734846Y-66427628D01*
X138746141Y-66432306D01*
X138749829Y-66433834D01*
X138749832Y-66433835D01*
X138755528Y-66436195D01*
X138787923Y-66453511D01*
X138806534Y-66465946D01*
X138837302Y-66491196D01*
X138845604Y-66498720D01*
X139241280Y-66894396D01*
X139248804Y-66902698D01*
X139274054Y-66933466D01*
X139286489Y-66952077D01*
X139303805Y-66984472D01*
X139312372Y-67005154D01*
X139323034Y-67040303D01*
X139327399Y-67062251D01*
X139331302Y-67101871D01*
X139331852Y-67113064D01*
X139331852Y-67906936D01*
X139331302Y-67918129D01*
X139327399Y-67957749D01*
X139323034Y-67979697D01*
X139312372Y-68014846D01*
X139303805Y-68035528D01*
X139286489Y-68067923D01*
X139274054Y-68086534D01*
X139250759Y-68114920D01*
X139234920Y-68130759D01*
X139206534Y-68154054D01*
X139187923Y-68166489D01*
X139155528Y-68183805D01*
X139149832Y-68186165D01*
X139149829Y-68186166D01*
X139146141Y-68187694D01*
X139134846Y-68192372D01*
X139099697Y-68203034D01*
X139077749Y-68207399D01*
X139038129Y-68211302D01*
X139026936Y-68211852D01*
X137833064Y-68211852D01*
X137821871Y-68211302D01*
X137782251Y-68207399D01*
X137760303Y-68203034D01*
X137725154Y-68192372D01*
X137713859Y-68187694D01*
X137710171Y-68186166D01*
X137710168Y-68186165D01*
X137704472Y-68183805D01*
X137672077Y-68166489D01*
X137653466Y-68154054D01*
X137625080Y-68130759D01*
X137609241Y-68114920D01*
X137585946Y-68086534D01*
X137573511Y-68067923D01*
X137556195Y-68035528D01*
X137547628Y-68014846D01*
X137536966Y-67979697D01*
X137532601Y-67957749D01*
X137528698Y-67918129D01*
X137528148Y-67906936D01*
X137528148Y-66713064D01*
X137528698Y-66701871D01*
X137532601Y-66662251D01*
X137536966Y-66640303D01*
X137547628Y-66605154D01*
X137556195Y-66584472D01*
X137573511Y-66552077D01*
X137585946Y-66533466D01*
X137609241Y-66505080D01*
X137625080Y-66489241D01*
X137653466Y-66465946D01*
X137672077Y-66453511D01*
X137704472Y-66436195D01*
X137710168Y-66433835D01*
X137710171Y-66433834D01*
X137713859Y-66432306D01*
X137725154Y-66427628D01*
X137760303Y-66416966D01*
X137782251Y-66412601D01*
X137821871Y-66408698D01*
X137833064Y-66408148D01*
X138626936Y-66408148D01*
X138638129Y-66408698D01*
X138638129Y-66408698D01*
G37*
G36*
X136036845Y-66412601D02*
G01*
X136192812Y-66443624D01*
X136356784Y-66511544D01*
X136504354Y-66610147D01*
X136629853Y-66735646D01*
X136728456Y-66883216D01*
X136796376Y-67047188D01*
X136831000Y-67221259D01*
X136831000Y-67398741D01*
X136796376Y-67572812D01*
X136728456Y-67736784D01*
X136629853Y-67884354D01*
X136504354Y-68009853D01*
X136356784Y-68108456D01*
X136192812Y-68176376D01*
X136043512Y-68206073D01*
X136018742Y-68211000D01*
X135841258Y-68211000D01*
X135816488Y-68206073D01*
X135667188Y-68176376D01*
X135503216Y-68108456D01*
X135355646Y-68009853D01*
X135230147Y-67884354D01*
X135131544Y-67736784D01*
X135063624Y-67572812D01*
X135029000Y-67398741D01*
X135029000Y-67221259D01*
X135063624Y-67047188D01*
X135131544Y-66883216D01*
X135230147Y-66735646D01*
X135355646Y-66610147D01*
X135503216Y-66511544D01*
X135667188Y-66443624D01*
X135823155Y-66412601D01*
X135841258Y-66409000D01*
X136018742Y-66409000D01*
X136036845Y-66412601D01*
X136036845Y-66412601D01*
G37*
G36*
X138543512Y-63913927D02*
G01*
X138692812Y-63943624D01*
X138856784Y-64011544D01*
X139004354Y-64110147D01*
X139129853Y-64235646D01*
X139228456Y-64383216D01*
X139296376Y-64547188D01*
X139331000Y-64721259D01*
X139331000Y-64898741D01*
X139296376Y-65072812D01*
X139228456Y-65236784D01*
X139228455Y-65236785D01*
X139164778Y-65332085D01*
X139153227Y-65353695D01*
X139146114Y-65377144D01*
X139143712Y-65401530D01*
X139146114Y-65425917D01*
X139153227Y-65449365D01*
X139164778Y-65470976D01*
X139180324Y-65489918D01*
X139199266Y-65505463D01*
X139220876Y-65517014D01*
X139244325Y-65524127D01*
X139268711Y-65526529D01*
X139293098Y-65524127D01*
X139316546Y-65517014D01*
X139338154Y-65505464D01*
X139437952Y-65438782D01*
X139456703Y-65431015D01*
X139565527Y-65385938D01*
X139700956Y-65359000D01*
X139839044Y-65359000D01*
X139974473Y-65385938D01*
X140102049Y-65438782D01*
X140216859Y-65515495D01*
X140314505Y-65613141D01*
X140391218Y-65727951D01*
X140444062Y-65855527D01*
X140471000Y-65990956D01*
X140471000Y-66129044D01*
X140444062Y-66264473D01*
X140391218Y-66392049D01*
X140314505Y-66506859D01*
X140216859Y-66604505D01*
X140102049Y-66681218D01*
X139974473Y-66734062D01*
X139839044Y-66761000D01*
X139700956Y-66761000D01*
X139565527Y-66734062D01*
X139437951Y-66681218D01*
X139323141Y-66604505D01*
X139225495Y-66506859D01*
X139148782Y-66392049D01*
X139095938Y-66264473D01*
X139069000Y-66129044D01*
X139069000Y-65990956D01*
X139095938Y-65855527D01*
X139148781Y-65727955D01*
X139148782Y-65727952D01*
X139179415Y-65682106D01*
X139190965Y-65660495D01*
X139198078Y-65637046D01*
X139200480Y-65612660D01*
X139198078Y-65588274D01*
X139190965Y-65564825D01*
X139179413Y-65543214D01*
X139163868Y-65524272D01*
X139144926Y-65508727D01*
X139123315Y-65497177D01*
X139099866Y-65490064D01*
X139075480Y-65487662D01*
X139051094Y-65490064D01*
X139027645Y-65497177D01*
X139006035Y-65508728D01*
X139004359Y-65509848D01*
X139004354Y-65509853D01*
X138856784Y-65608456D01*
X138692812Y-65676376D01*
X138543512Y-65706073D01*
X138518742Y-65711000D01*
X138341258Y-65711000D01*
X138316488Y-65706073D01*
X138167188Y-65676376D01*
X138003216Y-65608456D01*
X137855646Y-65509853D01*
X137730147Y-65384354D01*
X137631544Y-65236784D01*
X137563624Y-65072812D01*
X137529000Y-64898741D01*
X137529000Y-64721259D01*
X137563624Y-64547188D01*
X137631544Y-64383216D01*
X137730147Y-64235646D01*
X137855646Y-64110147D01*
X138003216Y-64011544D01*
X138167188Y-63943624D01*
X138316488Y-63913927D01*
X138341258Y-63909000D01*
X138518742Y-63909000D01*
X138543512Y-63913927D01*
X138543512Y-63913927D01*
G37*
G36*
X86741000Y-66421000D02*
G01*
X83439000Y-66421000D01*
X83439000Y-63119000D01*
X86741000Y-63119000D01*
X86741000Y-66421000D01*
X86741000Y-66421000D01*
G37*
G36*
X136043512Y-63913927D02*
G01*
X136192812Y-63943624D01*
X136356784Y-64011544D01*
X136504354Y-64110147D01*
X136629853Y-64235646D01*
X136728456Y-64383216D01*
X136796376Y-64547188D01*
X136831000Y-64721259D01*
X136831000Y-64898741D01*
X136796376Y-65072812D01*
X136728456Y-65236784D01*
X136629853Y-65384354D01*
X136504354Y-65509853D01*
X136356784Y-65608456D01*
X136192812Y-65676376D01*
X136043512Y-65706073D01*
X136018742Y-65711000D01*
X135841258Y-65711000D01*
X135816488Y-65706073D01*
X135667188Y-65676376D01*
X135503216Y-65608456D01*
X135355646Y-65509853D01*
X135230147Y-65384354D01*
X135131544Y-65236784D01*
X135063624Y-65072812D01*
X135029000Y-64898741D01*
X135029000Y-64721259D01*
X135063624Y-64547188D01*
X135131544Y-64383216D01*
X135230147Y-64235646D01*
X135355646Y-64110147D01*
X135503216Y-64011544D01*
X135667188Y-63943624D01*
X135816488Y-63913927D01*
X135841258Y-63909000D01*
X136018742Y-63909000D01*
X136043512Y-63913927D01*
X136043512Y-63913927D01*
G37*
G36*
X73241000Y-65621000D02*
G01*
X71539000Y-65621000D01*
X71539000Y-63919000D01*
X73241000Y-63919000D01*
X73241000Y-65621000D01*
X73241000Y-65621000D01*
G37*
G36*
X69138228Y-63951703D02*
G01*
X69293100Y-64015853D01*
X69432481Y-64108985D01*
X69551015Y-64227519D01*
X69644147Y-64366900D01*
X69708297Y-64521772D01*
X69741000Y-64686184D01*
X69741000Y-64853816D01*
X69708297Y-65018228D01*
X69644147Y-65173100D01*
X69551015Y-65312481D01*
X69432481Y-65431015D01*
X69293100Y-65524147D01*
X69138228Y-65588297D01*
X68973816Y-65621000D01*
X68806184Y-65621000D01*
X68641772Y-65588297D01*
X68486900Y-65524147D01*
X68347519Y-65431015D01*
X68228985Y-65312481D01*
X68135853Y-65173100D01*
X68071703Y-65018228D01*
X68039000Y-64853816D01*
X68039000Y-64686184D01*
X68071703Y-64521772D01*
X68135853Y-64366900D01*
X68228985Y-64227519D01*
X68347519Y-64108985D01*
X68486900Y-64015853D01*
X68641772Y-63951703D01*
X68806184Y-63919000D01*
X68973816Y-63919000D01*
X69138228Y-63951703D01*
X69138228Y-63951703D01*
G37*
G36*
X124708228Y-62681703D02*
G01*
X124863100Y-62745853D01*
X125002481Y-62838985D01*
X125121015Y-62957519D01*
X125214147Y-63096900D01*
X125278297Y-63251772D01*
X125311000Y-63416184D01*
X125311000Y-63583816D01*
X125278297Y-63748228D01*
X125214147Y-63903100D01*
X125121015Y-64042481D01*
X125002481Y-64161015D01*
X124863100Y-64254147D01*
X124708228Y-64318297D01*
X124543816Y-64351000D01*
X124376184Y-64351000D01*
X124211772Y-64318297D01*
X124056900Y-64254147D01*
X123917519Y-64161015D01*
X123798985Y-64042481D01*
X123705853Y-63903100D01*
X123641703Y-63748228D01*
X123609000Y-63583816D01*
X123609000Y-63416184D01*
X123641703Y-63251772D01*
X123705853Y-63096900D01*
X123798985Y-62957519D01*
X123917519Y-62838985D01*
X124056900Y-62745853D01*
X124211772Y-62681703D01*
X124376184Y-62649000D01*
X124543816Y-62649000D01*
X124708228Y-62681703D01*
X124708228Y-62681703D01*
G37*
G36*
X104306823Y-62661313D02*
G01*
X104467242Y-62709976D01*
X104534361Y-62745852D01*
X104615078Y-62788996D01*
X104744659Y-62895341D01*
X104851004Y-63024922D01*
X104851005Y-63024924D01*
X104930024Y-63172758D01*
X104978687Y-63333177D01*
X104995117Y-63500000D01*
X104978687Y-63666823D01*
X104930024Y-63827242D01*
X104889477Y-63903100D01*
X104851004Y-63975078D01*
X104744659Y-64104659D01*
X104615078Y-64211004D01*
X104615076Y-64211005D01*
X104467242Y-64290024D01*
X104306823Y-64338687D01*
X104181804Y-64351000D01*
X104098196Y-64351000D01*
X103973177Y-64338687D01*
X103812758Y-64290024D01*
X103664924Y-64211005D01*
X103664922Y-64211004D01*
X103535341Y-64104659D01*
X103428996Y-63975078D01*
X103390523Y-63903100D01*
X103349976Y-63827242D01*
X103301313Y-63666823D01*
X103284883Y-63500000D01*
X103301313Y-63333177D01*
X103349976Y-63172758D01*
X103428995Y-63024924D01*
X103428996Y-63024922D01*
X103535341Y-62895341D01*
X103664922Y-62788996D01*
X103745639Y-62745852D01*
X103812758Y-62709976D01*
X103973177Y-62661313D01*
X104098196Y-62649000D01*
X104181804Y-62649000D01*
X104306823Y-62661313D01*
X104306823Y-62661313D01*
G37*
G36*
X114466823Y-62661313D02*
G01*
X114627242Y-62709976D01*
X114694361Y-62745852D01*
X114775078Y-62788996D01*
X114904659Y-62895341D01*
X115011004Y-63024922D01*
X115011005Y-63024924D01*
X115090024Y-63172758D01*
X115138687Y-63333177D01*
X115155117Y-63500000D01*
X115138687Y-63666823D01*
X115090024Y-63827242D01*
X115049477Y-63903100D01*
X115011004Y-63975078D01*
X114904659Y-64104659D01*
X114775078Y-64211004D01*
X114775076Y-64211005D01*
X114627242Y-64290024D01*
X114466823Y-64338687D01*
X114341804Y-64351000D01*
X114258196Y-64351000D01*
X114133177Y-64338687D01*
X113972758Y-64290024D01*
X113824924Y-64211005D01*
X113824922Y-64211004D01*
X113695341Y-64104659D01*
X113588996Y-63975078D01*
X113550523Y-63903100D01*
X113509976Y-63827242D01*
X113461313Y-63666823D01*
X113444883Y-63500000D01*
X113461313Y-63333177D01*
X113509976Y-63172758D01*
X113588995Y-63024924D01*
X113588996Y-63024922D01*
X113695341Y-62895341D01*
X113824922Y-62788996D01*
X113905639Y-62745852D01*
X113972758Y-62709976D01*
X114133177Y-62661313D01*
X114258196Y-62649000D01*
X114341804Y-62649000D01*
X114466823Y-62661313D01*
X114466823Y-62661313D01*
G37*
G36*
X96686823Y-62661313D02*
G01*
X96847242Y-62709976D01*
X96914361Y-62745852D01*
X96995078Y-62788996D01*
X97124659Y-62895341D01*
X97231004Y-63024922D01*
X97231005Y-63024924D01*
X97310024Y-63172758D01*
X97358687Y-63333177D01*
X97375117Y-63500000D01*
X97358687Y-63666823D01*
X97310024Y-63827242D01*
X97269477Y-63903100D01*
X97231004Y-63975078D01*
X97124659Y-64104659D01*
X96995078Y-64211004D01*
X96995076Y-64211005D01*
X96847242Y-64290024D01*
X96686823Y-64338687D01*
X96561804Y-64351000D01*
X96478196Y-64351000D01*
X96353177Y-64338687D01*
X96192758Y-64290024D01*
X96044924Y-64211005D01*
X96044922Y-64211004D01*
X95915341Y-64104659D01*
X95808996Y-63975078D01*
X95770523Y-63903100D01*
X95729976Y-63827242D01*
X95681313Y-63666823D01*
X95664883Y-63500000D01*
X95681313Y-63333177D01*
X95729976Y-63172758D01*
X95808995Y-63024924D01*
X95808996Y-63024922D01*
X95915341Y-62895341D01*
X96044922Y-62788996D01*
X96125639Y-62745852D01*
X96192758Y-62709976D01*
X96353177Y-62661313D01*
X96478196Y-62649000D01*
X96561804Y-62649000D01*
X96686823Y-62661313D01*
X96686823Y-62661313D01*
G37*
G36*
X104306823Y-60121313D02*
G01*
X104467242Y-60169976D01*
X104599906Y-60240886D01*
X104615078Y-60248996D01*
X104744659Y-60355341D01*
X104851004Y-60484922D01*
X104851005Y-60484924D01*
X104930024Y-60632758D01*
X104978687Y-60793177D01*
X104995117Y-60960000D01*
X104978687Y-61126823D01*
X104930024Y-61287242D01*
X104859114Y-61419906D01*
X104851004Y-61435078D01*
X104744659Y-61564659D01*
X104615078Y-61671004D01*
X104615076Y-61671005D01*
X104467242Y-61750024D01*
X104306823Y-61798687D01*
X104181804Y-61811000D01*
X104098196Y-61811000D01*
X103973177Y-61798687D01*
X103812758Y-61750024D01*
X103664924Y-61671005D01*
X103664922Y-61671004D01*
X103535341Y-61564659D01*
X103428996Y-61435078D01*
X103420886Y-61419906D01*
X103349976Y-61287242D01*
X103301313Y-61126823D01*
X103284883Y-60960000D01*
X103301313Y-60793177D01*
X103349976Y-60632758D01*
X103428995Y-60484924D01*
X103428996Y-60484922D01*
X103535341Y-60355341D01*
X103664922Y-60248996D01*
X103680094Y-60240886D01*
X103812758Y-60169976D01*
X103973177Y-60121313D01*
X104098196Y-60109000D01*
X104181804Y-60109000D01*
X104306823Y-60121313D01*
X104306823Y-60121313D01*
G37*
G36*
X96686823Y-60121313D02*
G01*
X96847242Y-60169976D01*
X96979906Y-60240886D01*
X96995078Y-60248996D01*
X97124659Y-60355341D01*
X97231004Y-60484922D01*
X97231005Y-60484924D01*
X97310024Y-60632758D01*
X97358687Y-60793177D01*
X97375117Y-60960000D01*
X97358687Y-61126823D01*
X97310024Y-61287242D01*
X97239114Y-61419906D01*
X97231004Y-61435078D01*
X97124659Y-61564659D01*
X96995078Y-61671004D01*
X96995076Y-61671005D01*
X96847242Y-61750024D01*
X96686823Y-61798687D01*
X96561804Y-61811000D01*
X96478196Y-61811000D01*
X96353177Y-61798687D01*
X96192758Y-61750024D01*
X96044924Y-61671005D01*
X96044922Y-61671004D01*
X95915341Y-61564659D01*
X95808996Y-61435078D01*
X95800886Y-61419906D01*
X95729976Y-61287242D01*
X95681313Y-61126823D01*
X95664883Y-60960000D01*
X95681313Y-60793177D01*
X95729976Y-60632758D01*
X95808995Y-60484924D01*
X95808996Y-60484922D01*
X95915341Y-60355341D01*
X96044922Y-60248996D01*
X96060094Y-60240886D01*
X96192758Y-60169976D01*
X96353177Y-60121313D01*
X96478196Y-60109000D01*
X96561804Y-60109000D01*
X96686823Y-60121313D01*
X96686823Y-60121313D01*
G37*
G36*
X124708228Y-58871703D02*
G01*
X124863100Y-58935853D01*
X125002481Y-59028985D01*
X125121015Y-59147519D01*
X125214147Y-59286900D01*
X125278297Y-59441772D01*
X125311000Y-59606184D01*
X125311000Y-59773816D01*
X125278297Y-59938228D01*
X125214147Y-60093100D01*
X125121015Y-60232481D01*
X125002481Y-60351015D01*
X124863100Y-60444147D01*
X124708228Y-60508297D01*
X124543816Y-60541000D01*
X124376184Y-60541000D01*
X124211772Y-60508297D01*
X124056900Y-60444147D01*
X123917519Y-60351015D01*
X123798985Y-60232481D01*
X123705853Y-60093100D01*
X123641703Y-59938228D01*
X123609000Y-59773816D01*
X123609000Y-59606184D01*
X123641703Y-59441772D01*
X123705853Y-59286900D01*
X123798985Y-59147519D01*
X123917519Y-59028985D01*
X124056900Y-58935853D01*
X124211772Y-58871703D01*
X124376184Y-58839000D01*
X124543816Y-58839000D01*
X124708228Y-58871703D01*
X124708228Y-58871703D01*
G37*
G36*
X114466823Y-58851313D02*
G01*
X114627242Y-58899976D01*
X114694361Y-58935852D01*
X114775078Y-58978996D01*
X114904659Y-59085341D01*
X115011004Y-59214922D01*
X115011005Y-59214924D01*
X115090024Y-59362758D01*
X115138687Y-59523177D01*
X115155117Y-59690000D01*
X115138687Y-59856823D01*
X115090024Y-60017242D01*
X115049477Y-60093100D01*
X115011004Y-60165078D01*
X114904659Y-60294659D01*
X114775078Y-60401004D01*
X114775076Y-60401005D01*
X114627242Y-60480024D01*
X114466823Y-60528687D01*
X114341804Y-60541000D01*
X114258196Y-60541000D01*
X114133177Y-60528687D01*
X113972758Y-60480024D01*
X113824924Y-60401005D01*
X113824922Y-60401004D01*
X113695341Y-60294659D01*
X113588996Y-60165078D01*
X113550523Y-60093100D01*
X113509976Y-60017242D01*
X113461313Y-59856823D01*
X113444883Y-59690000D01*
X113461313Y-59523177D01*
X113509976Y-59362758D01*
X113588995Y-59214924D01*
X113588996Y-59214922D01*
X113695341Y-59085341D01*
X113824922Y-58978996D01*
X113905639Y-58935852D01*
X113972758Y-58899976D01*
X114133177Y-58851313D01*
X114258196Y-58839000D01*
X114341804Y-58839000D01*
X114466823Y-58851313D01*
X114466823Y-58851313D01*
G37*
G36*
X104306823Y-57581313D02*
G01*
X104467242Y-57629976D01*
X104599906Y-57700886D01*
X104615078Y-57708996D01*
X104744659Y-57815341D01*
X104851004Y-57944922D01*
X104851005Y-57944924D01*
X104930024Y-58092758D01*
X104978687Y-58253177D01*
X104995117Y-58420000D01*
X104978687Y-58586823D01*
X104930024Y-58747242D01*
X104880978Y-58839000D01*
X104851004Y-58895078D01*
X104744659Y-59024659D01*
X104615078Y-59131004D01*
X104615076Y-59131005D01*
X104467242Y-59210024D01*
X104306823Y-59258687D01*
X104181804Y-59271000D01*
X104098196Y-59271000D01*
X103973177Y-59258687D01*
X103812758Y-59210024D01*
X103664924Y-59131005D01*
X103664922Y-59131004D01*
X103535341Y-59024659D01*
X103428996Y-58895078D01*
X103399022Y-58839000D01*
X103349976Y-58747242D01*
X103301313Y-58586823D01*
X103284883Y-58420000D01*
X103301313Y-58253177D01*
X103349976Y-58092758D01*
X103428995Y-57944924D01*
X103428996Y-57944922D01*
X103535341Y-57815341D01*
X103664922Y-57708996D01*
X103680094Y-57700886D01*
X103812758Y-57629976D01*
X103973177Y-57581313D01*
X104098196Y-57569000D01*
X104181804Y-57569000D01*
X104306823Y-57581313D01*
X104306823Y-57581313D01*
G37*
G36*
X96686823Y-57581313D02*
G01*
X96847242Y-57629976D01*
X96979906Y-57700886D01*
X96995078Y-57708996D01*
X97124659Y-57815341D01*
X97231004Y-57944922D01*
X97231005Y-57944924D01*
X97310024Y-58092758D01*
X97358687Y-58253177D01*
X97375117Y-58420000D01*
X97358687Y-58586823D01*
X97310024Y-58747242D01*
X97260978Y-58839000D01*
X97231004Y-58895078D01*
X97124659Y-59024659D01*
X96995078Y-59131004D01*
X96995076Y-59131005D01*
X96847242Y-59210024D01*
X96686823Y-59258687D01*
X96561804Y-59271000D01*
X96478196Y-59271000D01*
X96353177Y-59258687D01*
X96192758Y-59210024D01*
X96044924Y-59131005D01*
X96044922Y-59131004D01*
X95915341Y-59024659D01*
X95808996Y-58895078D01*
X95779022Y-58839000D01*
X95729976Y-58747242D01*
X95681313Y-58586823D01*
X95664883Y-58420000D01*
X95681313Y-58253177D01*
X95729976Y-58092758D01*
X95808995Y-57944924D01*
X95808996Y-57944922D01*
X95915341Y-57815341D01*
X96044922Y-57708996D01*
X96060094Y-57700886D01*
X96192758Y-57629976D01*
X96353177Y-57581313D01*
X96478196Y-57569000D01*
X96561804Y-57569000D01*
X96686823Y-57581313D01*
X96686823Y-57581313D01*
G37*
G36*
X84195256Y-55541298D02*
G01*
X84301579Y-55562447D01*
X84602042Y-55686903D01*
X84872451Y-55867585D01*
X85102415Y-56097549D01*
X85283097Y-56367958D01*
X85283098Y-56367960D01*
X85312711Y-56439453D01*
X85407553Y-56668421D01*
X85418452Y-56723216D01*
X85471000Y-56987389D01*
X85471000Y-57312611D01*
X85428702Y-57525256D01*
X85407553Y-57631579D01*
X85358501Y-57750000D01*
X85285379Y-57926534D01*
X85283097Y-57932042D01*
X85102415Y-58202451D01*
X84872451Y-58432415D01*
X84602042Y-58613097D01*
X84301579Y-58737553D01*
X84252884Y-58747239D01*
X83982611Y-58801000D01*
X83657389Y-58801000D01*
X83387116Y-58747239D01*
X83338421Y-58737553D01*
X83037958Y-58613097D01*
X82767549Y-58432415D01*
X82537585Y-58202451D01*
X82356903Y-57932042D01*
X82354622Y-57926534D01*
X82281499Y-57750000D01*
X82232447Y-57631579D01*
X82211298Y-57525256D01*
X82169000Y-57312611D01*
X82169000Y-56987389D01*
X82221548Y-56723216D01*
X82232447Y-56668421D01*
X82327289Y-56439453D01*
X82356902Y-56367960D01*
X82356903Y-56367958D01*
X82537585Y-56097549D01*
X82767549Y-55867585D01*
X83037958Y-55686903D01*
X83338421Y-55562447D01*
X83444744Y-55541298D01*
X83657389Y-55499000D01*
X83982611Y-55499000D01*
X84195256Y-55541298D01*
X84195256Y-55541298D01*
G37*
G36*
X138638129Y-56248698D02*
G01*
X138677749Y-56252601D01*
X138699697Y-56256966D01*
X138734846Y-56267628D01*
X138746141Y-56272306D01*
X138749829Y-56273834D01*
X138749832Y-56273835D01*
X138755528Y-56276195D01*
X138787923Y-56293511D01*
X138806534Y-56305946D01*
X138837302Y-56331196D01*
X138845604Y-56338720D01*
X139241280Y-56734396D01*
X139248804Y-56742698D01*
X139274054Y-56773466D01*
X139286489Y-56792077D01*
X139303805Y-56824472D01*
X139312372Y-56845154D01*
X139323034Y-56880303D01*
X139327399Y-56902251D01*
X139331302Y-56941871D01*
X139331852Y-56953064D01*
X139331852Y-57746936D01*
X139331302Y-57758129D01*
X139327399Y-57797749D01*
X139323034Y-57819697D01*
X139312372Y-57854846D01*
X139303805Y-57875528D01*
X139286489Y-57907923D01*
X139274054Y-57926534D01*
X139250759Y-57954920D01*
X139234920Y-57970759D01*
X139206534Y-57994054D01*
X139187923Y-58006489D01*
X139155528Y-58023805D01*
X139149832Y-58026165D01*
X139149829Y-58026166D01*
X139146141Y-58027694D01*
X139134846Y-58032372D01*
X139099697Y-58043034D01*
X139077749Y-58047399D01*
X139038129Y-58051302D01*
X139026936Y-58051852D01*
X137833064Y-58051852D01*
X137821871Y-58051302D01*
X137782251Y-58047399D01*
X137760303Y-58043034D01*
X137725154Y-58032372D01*
X137713859Y-58027694D01*
X137710171Y-58026166D01*
X137710168Y-58026165D01*
X137704472Y-58023805D01*
X137672077Y-58006489D01*
X137653466Y-57994054D01*
X137625080Y-57970759D01*
X137609241Y-57954920D01*
X137585946Y-57926534D01*
X137573511Y-57907923D01*
X137556195Y-57875528D01*
X137547628Y-57854846D01*
X137536966Y-57819697D01*
X137532601Y-57797749D01*
X137528698Y-57758129D01*
X137528148Y-57746936D01*
X137528148Y-56553064D01*
X137528698Y-56541871D01*
X137532601Y-56502251D01*
X137536966Y-56480303D01*
X137547628Y-56445154D01*
X137556195Y-56424472D01*
X137573511Y-56392077D01*
X137585946Y-56373466D01*
X137609241Y-56345080D01*
X137625080Y-56329241D01*
X137653466Y-56305946D01*
X137672077Y-56293511D01*
X137704472Y-56276195D01*
X137710168Y-56273835D01*
X137710171Y-56273834D01*
X137713859Y-56272306D01*
X137725154Y-56267628D01*
X137760303Y-56256966D01*
X137782251Y-56252601D01*
X137821871Y-56248698D01*
X137833064Y-56248148D01*
X138626936Y-56248148D01*
X138638129Y-56248698D01*
X138638129Y-56248698D01*
G37*
G36*
X136036845Y-56252601D02*
G01*
X136192812Y-56283624D01*
X136356784Y-56351544D01*
X136504354Y-56450147D01*
X136629853Y-56575646D01*
X136728456Y-56723216D01*
X136796376Y-56887188D01*
X136831000Y-57061259D01*
X136831000Y-57238741D01*
X136796376Y-57412812D01*
X136728456Y-57576784D01*
X136629853Y-57724354D01*
X136504354Y-57849853D01*
X136356784Y-57948456D01*
X136192812Y-58016376D01*
X136043512Y-58046073D01*
X136018742Y-58051000D01*
X135841258Y-58051000D01*
X135816488Y-58046073D01*
X135667188Y-58016376D01*
X135503216Y-57948456D01*
X135355646Y-57849853D01*
X135230147Y-57724354D01*
X135131544Y-57576784D01*
X135063624Y-57412812D01*
X135029000Y-57238741D01*
X135029000Y-57061259D01*
X135063624Y-56887188D01*
X135131544Y-56723216D01*
X135230147Y-56575646D01*
X135355646Y-56450147D01*
X135503216Y-56351544D01*
X135667188Y-56283624D01*
X135823155Y-56252601D01*
X135841258Y-56249000D01*
X136018742Y-56249000D01*
X136036845Y-56252601D01*
X136036845Y-56252601D01*
G37*
G36*
X114466823Y-55041313D02*
G01*
X114627242Y-55089976D01*
X114715698Y-55137257D01*
X114775078Y-55168996D01*
X114904659Y-55275341D01*
X115011004Y-55404922D01*
X115011005Y-55404924D01*
X115090024Y-55552758D01*
X115138687Y-55713177D01*
X115155117Y-55880000D01*
X115138687Y-56046823D01*
X115090024Y-56207242D01*
X115024814Y-56329241D01*
X115011004Y-56355078D01*
X114904659Y-56484659D01*
X114775078Y-56591004D01*
X114775076Y-56591005D01*
X114627242Y-56670024D01*
X114466823Y-56718687D01*
X114341804Y-56731000D01*
X114258196Y-56731000D01*
X114133177Y-56718687D01*
X113972758Y-56670024D01*
X113824924Y-56591005D01*
X113824922Y-56591004D01*
X113695341Y-56484659D01*
X113588996Y-56355078D01*
X113575186Y-56329241D01*
X113509976Y-56207242D01*
X113461313Y-56046823D01*
X113444883Y-55880000D01*
X113461313Y-55713177D01*
X113509976Y-55552758D01*
X113588995Y-55404924D01*
X113588996Y-55404922D01*
X113695341Y-55275341D01*
X113824922Y-55168996D01*
X113884302Y-55137257D01*
X113972758Y-55089976D01*
X114133177Y-55041313D01*
X114258196Y-55029000D01*
X114341804Y-55029000D01*
X114466823Y-55041313D01*
X114466823Y-55041313D01*
G37*
G36*
X104306823Y-55041313D02*
G01*
X104467242Y-55089976D01*
X104555698Y-55137257D01*
X104615078Y-55168996D01*
X104744659Y-55275341D01*
X104851004Y-55404922D01*
X104851005Y-55404924D01*
X104930024Y-55552758D01*
X104978687Y-55713177D01*
X104995117Y-55880000D01*
X104978687Y-56046823D01*
X104930024Y-56207242D01*
X104864814Y-56329241D01*
X104851004Y-56355078D01*
X104744659Y-56484659D01*
X104615078Y-56591004D01*
X104615076Y-56591005D01*
X104467242Y-56670024D01*
X104306823Y-56718687D01*
X104181804Y-56731000D01*
X104098196Y-56731000D01*
X103973177Y-56718687D01*
X103812758Y-56670024D01*
X103664924Y-56591005D01*
X103664922Y-56591004D01*
X103535341Y-56484659D01*
X103428996Y-56355078D01*
X103415186Y-56329241D01*
X103349976Y-56207242D01*
X103301313Y-56046823D01*
X103284883Y-55880000D01*
X103301313Y-55713177D01*
X103349976Y-55552758D01*
X103428995Y-55404924D01*
X103428996Y-55404922D01*
X103535341Y-55275341D01*
X103664922Y-55168996D01*
X103724302Y-55137257D01*
X103812758Y-55089976D01*
X103973177Y-55041313D01*
X104098196Y-55029000D01*
X104181804Y-55029000D01*
X104306823Y-55041313D01*
X104306823Y-55041313D01*
G37*
G36*
X96686823Y-55041313D02*
G01*
X96847242Y-55089976D01*
X96935698Y-55137257D01*
X96995078Y-55168996D01*
X97124659Y-55275341D01*
X97231004Y-55404922D01*
X97231005Y-55404924D01*
X97310024Y-55552758D01*
X97358687Y-55713177D01*
X97375117Y-55880000D01*
X97358687Y-56046823D01*
X97310024Y-56207242D01*
X97244814Y-56329241D01*
X97231004Y-56355078D01*
X97124659Y-56484659D01*
X96995078Y-56591004D01*
X96995076Y-56591005D01*
X96847242Y-56670024D01*
X96686823Y-56718687D01*
X96561804Y-56731000D01*
X96478196Y-56731000D01*
X96353177Y-56718687D01*
X96192758Y-56670024D01*
X96044924Y-56591005D01*
X96044922Y-56591004D01*
X95915341Y-56484659D01*
X95808996Y-56355078D01*
X95795186Y-56329241D01*
X95729976Y-56207242D01*
X95681313Y-56046823D01*
X95664883Y-55880000D01*
X95681313Y-55713177D01*
X95729976Y-55552758D01*
X95808995Y-55404924D01*
X95808996Y-55404922D01*
X95915341Y-55275341D01*
X96044922Y-55168996D01*
X96104302Y-55137257D01*
X96192758Y-55089976D01*
X96353177Y-55041313D01*
X96478196Y-55029000D01*
X96561804Y-55029000D01*
X96686823Y-55041313D01*
X96686823Y-55041313D01*
G37*
G36*
X124708228Y-55061703D02*
G01*
X124863100Y-55125853D01*
X125002481Y-55218985D01*
X125121015Y-55337519D01*
X125214147Y-55476900D01*
X125278297Y-55631772D01*
X125311000Y-55796184D01*
X125311000Y-55963816D01*
X125278297Y-56128228D01*
X125214147Y-56283100D01*
X125121015Y-56422481D01*
X125002481Y-56541015D01*
X124863100Y-56634147D01*
X124708228Y-56698297D01*
X124543816Y-56731000D01*
X124376184Y-56731000D01*
X124211772Y-56698297D01*
X124056900Y-56634147D01*
X123917519Y-56541015D01*
X123798985Y-56422481D01*
X123705853Y-56283100D01*
X123641703Y-56128228D01*
X123609000Y-55963816D01*
X123609000Y-55796184D01*
X123641703Y-55631772D01*
X123705853Y-55476900D01*
X123798985Y-55337519D01*
X123917519Y-55218985D01*
X124056900Y-55125853D01*
X124211772Y-55061703D01*
X124376184Y-55029000D01*
X124543816Y-55029000D01*
X124708228Y-55061703D01*
X124708228Y-55061703D01*
G37*
G36*
X138543512Y-53753927D02*
G01*
X138692812Y-53783624D01*
X138856784Y-53851544D01*
X139004354Y-53950147D01*
X139129853Y-54075646D01*
X139228456Y-54223216D01*
X139296376Y-54387188D01*
X139331000Y-54561259D01*
X139331000Y-54738741D01*
X139296376Y-54912812D01*
X139228456Y-55076784D01*
X139228455Y-55076785D01*
X139164778Y-55172085D01*
X139153227Y-55193695D01*
X139146114Y-55217144D01*
X139143712Y-55241530D01*
X139146114Y-55265917D01*
X139153227Y-55289365D01*
X139164778Y-55310976D01*
X139180324Y-55329918D01*
X139199266Y-55345463D01*
X139220876Y-55357014D01*
X139244325Y-55364127D01*
X139268711Y-55366529D01*
X139293098Y-55364127D01*
X139316546Y-55357014D01*
X139338154Y-55345464D01*
X139437952Y-55278782D01*
X139446259Y-55275341D01*
X139565527Y-55225938D01*
X139700956Y-55199000D01*
X139839044Y-55199000D01*
X139974473Y-55225938D01*
X140102049Y-55278782D01*
X140216859Y-55355495D01*
X140314505Y-55453141D01*
X140391218Y-55567951D01*
X140444062Y-55695527D01*
X140471000Y-55830956D01*
X140471000Y-55969044D01*
X140444062Y-56104473D01*
X140391218Y-56232049D01*
X140314505Y-56346859D01*
X140216859Y-56444505D01*
X140102049Y-56521218D01*
X139974473Y-56574062D01*
X139839044Y-56601000D01*
X139700956Y-56601000D01*
X139565527Y-56574062D01*
X139437951Y-56521218D01*
X139323141Y-56444505D01*
X139225495Y-56346859D01*
X139148782Y-56232049D01*
X139095938Y-56104473D01*
X139069000Y-55969044D01*
X139069000Y-55830956D01*
X139095938Y-55695527D01*
X139148781Y-55567955D01*
X139148782Y-55567952D01*
X139179415Y-55522106D01*
X139190965Y-55500495D01*
X139198078Y-55477046D01*
X139200480Y-55452660D01*
X139198078Y-55428274D01*
X139190965Y-55404825D01*
X139179413Y-55383214D01*
X139163868Y-55364272D01*
X139144926Y-55348727D01*
X139123315Y-55337177D01*
X139099866Y-55330064D01*
X139075480Y-55327662D01*
X139051094Y-55330064D01*
X139027645Y-55337177D01*
X139006035Y-55348728D01*
X139004359Y-55349848D01*
X139004354Y-55349853D01*
X138856784Y-55448456D01*
X138692812Y-55516376D01*
X138543512Y-55546073D01*
X138518742Y-55551000D01*
X138341258Y-55551000D01*
X138316488Y-55546073D01*
X138167188Y-55516376D01*
X138003216Y-55448456D01*
X137855646Y-55349853D01*
X137730147Y-55224354D01*
X137631544Y-55076784D01*
X137563624Y-54912812D01*
X137529000Y-54738741D01*
X137529000Y-54561259D01*
X137563624Y-54387188D01*
X137631544Y-54223216D01*
X137730147Y-54075646D01*
X137855646Y-53950147D01*
X138003216Y-53851544D01*
X138167188Y-53783624D01*
X138316488Y-53753927D01*
X138341258Y-53749000D01*
X138518742Y-53749000D01*
X138543512Y-53753927D01*
X138543512Y-53753927D01*
G37*
G36*
X68694970Y-53668962D02*
G01*
X68824752Y-53708331D01*
X68874145Y-53734733D01*
X68944360Y-53772263D01*
X69049199Y-53858301D01*
X69120070Y-53944659D01*
X69135236Y-53963139D01*
X69199169Y-54082748D01*
X69238538Y-54212530D01*
X69248500Y-54313679D01*
X69248500Y-54906321D01*
X69238538Y-55007470D01*
X69199169Y-55137252D01*
X69199166Y-55137257D01*
X69135237Y-55256860D01*
X69049199Y-55361698D01*
X68944359Y-55447737D01*
X68874144Y-55485267D01*
X68824751Y-55511669D01*
X68694969Y-55551038D01*
X68560000Y-55564331D01*
X68425030Y-55551038D01*
X68295248Y-55511669D01*
X68245855Y-55485267D01*
X68175640Y-55447737D01*
X68070802Y-55361699D01*
X67984763Y-55256859D01*
X67937799Y-55168995D01*
X67920831Y-55137251D01*
X67881462Y-55007469D01*
X67871500Y-54906320D01*
X67871500Y-54313679D01*
X67881462Y-54212530D01*
X67920831Y-54082748D01*
X67984764Y-53963139D01*
X67999930Y-53944659D01*
X68070802Y-53858301D01*
X68175641Y-53772263D01*
X68245856Y-53734733D01*
X68295249Y-53708331D01*
X68425031Y-53668962D01*
X68560000Y-53655669D01*
X68694970Y-53668962D01*
X68694970Y-53668962D01*
G37*
G36*
X72094970Y-53668962D02*
G01*
X72224752Y-53708331D01*
X72274145Y-53734733D01*
X72344360Y-53772263D01*
X72449199Y-53858301D01*
X72520070Y-53944659D01*
X72535236Y-53963139D01*
X72599169Y-54082748D01*
X72638538Y-54212530D01*
X72648500Y-54313679D01*
X72648500Y-54906321D01*
X72638538Y-55007470D01*
X72599169Y-55137252D01*
X72599166Y-55137257D01*
X72535237Y-55256860D01*
X72449199Y-55361698D01*
X72344359Y-55447737D01*
X72274144Y-55485267D01*
X72224751Y-55511669D01*
X72094969Y-55551038D01*
X71960000Y-55564331D01*
X71825030Y-55551038D01*
X71695248Y-55511669D01*
X71645855Y-55485267D01*
X71575640Y-55447737D01*
X71470802Y-55361699D01*
X71384763Y-55256859D01*
X71337799Y-55168995D01*
X71320831Y-55137251D01*
X71281462Y-55007469D01*
X71271500Y-54906320D01*
X71271500Y-54313679D01*
X71281462Y-54212530D01*
X71320831Y-54082748D01*
X71384764Y-53963139D01*
X71399930Y-53944659D01*
X71470802Y-53858301D01*
X71575641Y-53772263D01*
X71645856Y-53734733D01*
X71695249Y-53708331D01*
X71825031Y-53668962D01*
X71960000Y-53655669D01*
X72094970Y-53668962D01*
X72094970Y-53668962D01*
G37*
G36*
X66994970Y-53668962D02*
G01*
X67124752Y-53708331D01*
X67174145Y-53734733D01*
X67244360Y-53772263D01*
X67349199Y-53858301D01*
X67420070Y-53944659D01*
X67435236Y-53963139D01*
X67499169Y-54082748D01*
X67538538Y-54212530D01*
X67548500Y-54313679D01*
X67548500Y-54906321D01*
X67538538Y-55007470D01*
X67499169Y-55137252D01*
X67499166Y-55137257D01*
X67435237Y-55256860D01*
X67349199Y-55361698D01*
X67244359Y-55447737D01*
X67174144Y-55485267D01*
X67124751Y-55511669D01*
X66994969Y-55551038D01*
X66860000Y-55564331D01*
X66725030Y-55551038D01*
X66595248Y-55511669D01*
X66545855Y-55485267D01*
X66475640Y-55447737D01*
X66370802Y-55361699D01*
X66284763Y-55256859D01*
X66237799Y-55168995D01*
X66220831Y-55137251D01*
X66181462Y-55007469D01*
X66171500Y-54906320D01*
X66171500Y-54313679D01*
X66181462Y-54212530D01*
X66220831Y-54082748D01*
X66284764Y-53963139D01*
X66299930Y-53944659D01*
X66370802Y-53858301D01*
X66475641Y-53772263D01*
X66545856Y-53734733D01*
X66595249Y-53708331D01*
X66725031Y-53668962D01*
X66860000Y-53655669D01*
X66994970Y-53668962D01*
X66994970Y-53668962D01*
G37*
G36*
X70394970Y-53668962D02*
G01*
X70524752Y-53708331D01*
X70574145Y-53734733D01*
X70644360Y-53772263D01*
X70749199Y-53858301D01*
X70820070Y-53944659D01*
X70835236Y-53963139D01*
X70899169Y-54082748D01*
X70938538Y-54212530D01*
X70948500Y-54313679D01*
X70948500Y-54906321D01*
X70938538Y-55007470D01*
X70899169Y-55137252D01*
X70899166Y-55137257D01*
X70835237Y-55256860D01*
X70749199Y-55361698D01*
X70644359Y-55447737D01*
X70574144Y-55485267D01*
X70524751Y-55511669D01*
X70394969Y-55551038D01*
X70260000Y-55564331D01*
X70125030Y-55551038D01*
X69995248Y-55511669D01*
X69945855Y-55485267D01*
X69875640Y-55447737D01*
X69770802Y-55361699D01*
X69684763Y-55256859D01*
X69637799Y-55168995D01*
X69620831Y-55137251D01*
X69581462Y-55007469D01*
X69571500Y-54906320D01*
X69571500Y-54313679D01*
X69581462Y-54212530D01*
X69620831Y-54082748D01*
X69684764Y-53963139D01*
X69699930Y-53944659D01*
X69770802Y-53858301D01*
X69875641Y-53772263D01*
X69945856Y-53734733D01*
X69995249Y-53708331D01*
X70125031Y-53668962D01*
X70260000Y-53655669D01*
X70394970Y-53668962D01*
X70394970Y-53668962D01*
G37*
G36*
X74348500Y-55561000D02*
G01*
X72971500Y-55561000D01*
X72971500Y-53659000D01*
X74348500Y-53659000D01*
X74348500Y-55561000D01*
X74348500Y-55561000D01*
G37*
G36*
X136043512Y-53753927D02*
G01*
X136192812Y-53783624D01*
X136356784Y-53851544D01*
X136504354Y-53950147D01*
X136629853Y-54075646D01*
X136728456Y-54223216D01*
X136796376Y-54387188D01*
X136831000Y-54561259D01*
X136831000Y-54738741D01*
X136796376Y-54912812D01*
X136728456Y-55076784D01*
X136629853Y-55224354D01*
X136504354Y-55349853D01*
X136356784Y-55448456D01*
X136192812Y-55516376D01*
X136043512Y-55546073D01*
X136018742Y-55551000D01*
X135841258Y-55551000D01*
X135816488Y-55546073D01*
X135667188Y-55516376D01*
X135503216Y-55448456D01*
X135355646Y-55349853D01*
X135230147Y-55224354D01*
X135131544Y-55076784D01*
X135063624Y-54912812D01*
X135029000Y-54738741D01*
X135029000Y-54561259D01*
X135063624Y-54387188D01*
X135131544Y-54223216D01*
X135230147Y-54075646D01*
X135355646Y-53950147D01*
X135503216Y-53851544D01*
X135667188Y-53783624D01*
X135816488Y-53753927D01*
X135841258Y-53749000D01*
X136018742Y-53749000D01*
X136043512Y-53753927D01*
X136043512Y-53753927D01*
G37*
G36*
X96686823Y-52501313D02*
G01*
X96847242Y-52549976D01*
X96965333Y-52613097D01*
X96995078Y-52628996D01*
X97124659Y-52735341D01*
X97231004Y-52864922D01*
X97231005Y-52864924D01*
X97310024Y-53012758D01*
X97358687Y-53173177D01*
X97375117Y-53340000D01*
X97358687Y-53506823D01*
X97310024Y-53667242D01*
X97247816Y-53783624D01*
X97231004Y-53815078D01*
X97124659Y-53944659D01*
X96995078Y-54051004D01*
X96995076Y-54051005D01*
X96847242Y-54130024D01*
X96686823Y-54178687D01*
X96561804Y-54191000D01*
X96478196Y-54191000D01*
X96353177Y-54178687D01*
X96192758Y-54130024D01*
X96044924Y-54051005D01*
X96044922Y-54051004D01*
X95915341Y-53944659D01*
X95808996Y-53815078D01*
X95792184Y-53783624D01*
X95729976Y-53667242D01*
X95681313Y-53506823D01*
X95664883Y-53340000D01*
X95681313Y-53173177D01*
X95729976Y-53012758D01*
X95808995Y-52864924D01*
X95808996Y-52864922D01*
X95915341Y-52735341D01*
X96044922Y-52628996D01*
X96074667Y-52613097D01*
X96192758Y-52549976D01*
X96353177Y-52501313D01*
X96478196Y-52489000D01*
X96561804Y-52489000D01*
X96686823Y-52501313D01*
X96686823Y-52501313D01*
G37*
G36*
X104306823Y-52501313D02*
G01*
X104467242Y-52549976D01*
X104585333Y-52613097D01*
X104615078Y-52628996D01*
X104744659Y-52735341D01*
X104851004Y-52864922D01*
X104851005Y-52864924D01*
X104930024Y-53012758D01*
X104978687Y-53173177D01*
X104995117Y-53340000D01*
X104978687Y-53506823D01*
X104930024Y-53667242D01*
X104867816Y-53783624D01*
X104851004Y-53815078D01*
X104744659Y-53944659D01*
X104615078Y-54051004D01*
X104615076Y-54051005D01*
X104467242Y-54130024D01*
X104306823Y-54178687D01*
X104181804Y-54191000D01*
X104098196Y-54191000D01*
X103973177Y-54178687D01*
X103812758Y-54130024D01*
X103664924Y-54051005D01*
X103664922Y-54051004D01*
X103535341Y-53944659D01*
X103428996Y-53815078D01*
X103412184Y-53783624D01*
X103349976Y-53667242D01*
X103301313Y-53506823D01*
X103284883Y-53340000D01*
X103301313Y-53173177D01*
X103349976Y-53012758D01*
X103428995Y-52864924D01*
X103428996Y-52864922D01*
X103535341Y-52735341D01*
X103664922Y-52628996D01*
X103694667Y-52613097D01*
X103812758Y-52549976D01*
X103973177Y-52501313D01*
X104098196Y-52489000D01*
X104181804Y-52489000D01*
X104306823Y-52501313D01*
X104306823Y-52501313D01*
G37*
G36*
X114466823Y-51231313D02*
G01*
X114627242Y-51279976D01*
X114694361Y-51315852D01*
X114775078Y-51358996D01*
X114904659Y-51465341D01*
X115011004Y-51594922D01*
X115011005Y-51594924D01*
X115090024Y-51742758D01*
X115138687Y-51903177D01*
X115155117Y-52070000D01*
X115138687Y-52236823D01*
X115090024Y-52397242D01*
X115049477Y-52473100D01*
X115011004Y-52545078D01*
X114904659Y-52674659D01*
X114775078Y-52781004D01*
X114775076Y-52781005D01*
X114627242Y-52860024D01*
X114466823Y-52908687D01*
X114341804Y-52921000D01*
X114258196Y-52921000D01*
X114133177Y-52908687D01*
X113972758Y-52860024D01*
X113824924Y-52781005D01*
X113824922Y-52781004D01*
X113695341Y-52674659D01*
X113588996Y-52545078D01*
X113550523Y-52473100D01*
X113509976Y-52397242D01*
X113461313Y-52236823D01*
X113444883Y-52070000D01*
X113461313Y-51903177D01*
X113509976Y-51742758D01*
X113588995Y-51594924D01*
X113588996Y-51594922D01*
X113695341Y-51465341D01*
X113824922Y-51358996D01*
X113905639Y-51315852D01*
X113972758Y-51279976D01*
X114133177Y-51231313D01*
X114258196Y-51219000D01*
X114341804Y-51219000D01*
X114466823Y-51231313D01*
X114466823Y-51231313D01*
G37*
G36*
X124708228Y-51251703D02*
G01*
X124863100Y-51315853D01*
X125002481Y-51408985D01*
X125121015Y-51527519D01*
X125214147Y-51666900D01*
X125278297Y-51821772D01*
X125311000Y-51986184D01*
X125311000Y-52153816D01*
X125278297Y-52318228D01*
X125214147Y-52473100D01*
X125121015Y-52612481D01*
X125002481Y-52731015D01*
X124863100Y-52824147D01*
X124708228Y-52888297D01*
X124543816Y-52921000D01*
X124376184Y-52921000D01*
X124211772Y-52888297D01*
X124056900Y-52824147D01*
X123917519Y-52731015D01*
X123798985Y-52612481D01*
X123705853Y-52473100D01*
X123641703Y-52318228D01*
X123609000Y-52153816D01*
X123609000Y-51986184D01*
X123641703Y-51821772D01*
X123705853Y-51666900D01*
X123798985Y-51527519D01*
X123917519Y-51408985D01*
X124056900Y-51315853D01*
X124211772Y-51251703D01*
X124376184Y-51219000D01*
X124543816Y-51219000D01*
X124708228Y-51251703D01*
X124708228Y-51251703D01*
G37*
G36*
X84195256Y-49541298D02*
G01*
X84301579Y-49562447D01*
X84602042Y-49686903D01*
X84872451Y-49867585D01*
X85102415Y-50097549D01*
X85283097Y-50367958D01*
X85392954Y-50633175D01*
X85407553Y-50668422D01*
X85471000Y-50987389D01*
X85471000Y-51312611D01*
X85461773Y-51358996D01*
X85407553Y-51631579D01*
X85283097Y-51932042D01*
X85102415Y-52202451D01*
X84872451Y-52432415D01*
X84602042Y-52613097D01*
X84602041Y-52613098D01*
X84602040Y-52613098D01*
X84514037Y-52649550D01*
X84301579Y-52737553D01*
X84195256Y-52758702D01*
X83982611Y-52801000D01*
X83657389Y-52801000D01*
X83444744Y-52758702D01*
X83338421Y-52737553D01*
X83125963Y-52649550D01*
X83037960Y-52613098D01*
X83037959Y-52613098D01*
X83037958Y-52613097D01*
X82767549Y-52432415D01*
X82537585Y-52202451D01*
X82356903Y-51932042D01*
X82232447Y-51631579D01*
X82178227Y-51358996D01*
X82169000Y-51312611D01*
X82169000Y-50987389D01*
X82232447Y-50668422D01*
X82247047Y-50633175D01*
X82356903Y-50367958D01*
X82537585Y-50097549D01*
X82767549Y-49867585D01*
X83037958Y-49686903D01*
X83338421Y-49562447D01*
X83444744Y-49541298D01*
X83657389Y-49499000D01*
X83982611Y-49499000D01*
X84195256Y-49541298D01*
X84195256Y-49541298D01*
G37*
G36*
X104306823Y-49961313D02*
G01*
X104467242Y-50009976D01*
X104599906Y-50080886D01*
X104615078Y-50088996D01*
X104744659Y-50195341D01*
X104851004Y-50324922D01*
X104851005Y-50324924D01*
X104930024Y-50472758D01*
X104978687Y-50633177D01*
X104995117Y-50800000D01*
X104978687Y-50966823D01*
X104930024Y-51127242D01*
X104880978Y-51219000D01*
X104851004Y-51275078D01*
X104744659Y-51404659D01*
X104615078Y-51511004D01*
X104615076Y-51511005D01*
X104467242Y-51590024D01*
X104306823Y-51638687D01*
X104181804Y-51651000D01*
X104098196Y-51651000D01*
X103973177Y-51638687D01*
X103812758Y-51590024D01*
X103664924Y-51511005D01*
X103664922Y-51511004D01*
X103535341Y-51404659D01*
X103428996Y-51275078D01*
X103399022Y-51219000D01*
X103349976Y-51127242D01*
X103301313Y-50966823D01*
X103284883Y-50800000D01*
X103301313Y-50633177D01*
X103349976Y-50472758D01*
X103428995Y-50324924D01*
X103428996Y-50324922D01*
X103535341Y-50195341D01*
X103664922Y-50088996D01*
X103680094Y-50080886D01*
X103812758Y-50009976D01*
X103973177Y-49961313D01*
X104098196Y-49949000D01*
X104181804Y-49949000D01*
X104306823Y-49961313D01*
X104306823Y-49961313D01*
G37*
G36*
X96686823Y-49961313D02*
G01*
X96847242Y-50009976D01*
X96979906Y-50080886D01*
X96995078Y-50088996D01*
X97124659Y-50195341D01*
X97231004Y-50324922D01*
X97231005Y-50324924D01*
X97310024Y-50472758D01*
X97358687Y-50633177D01*
X97375117Y-50800000D01*
X97358687Y-50966823D01*
X97310024Y-51127242D01*
X97260978Y-51219000D01*
X97231004Y-51275078D01*
X97124659Y-51404659D01*
X96995078Y-51511004D01*
X96995076Y-51511005D01*
X96847242Y-51590024D01*
X96686823Y-51638687D01*
X96561804Y-51651000D01*
X96478196Y-51651000D01*
X96353177Y-51638687D01*
X96192758Y-51590024D01*
X96044924Y-51511005D01*
X96044922Y-51511004D01*
X95915341Y-51404659D01*
X95808996Y-51275078D01*
X95779022Y-51219000D01*
X95729976Y-51127242D01*
X95681313Y-50966823D01*
X95664883Y-50800000D01*
X95681313Y-50633177D01*
X95729976Y-50472758D01*
X95808995Y-50324924D01*
X95808996Y-50324922D01*
X95915341Y-50195341D01*
X96044922Y-50088996D01*
X96060094Y-50080886D01*
X96192758Y-50009976D01*
X96353177Y-49961313D01*
X96478196Y-49949000D01*
X96561804Y-49949000D01*
X96686823Y-49961313D01*
X96686823Y-49961313D01*
G37*
G36*
X114466823Y-47421313D02*
G01*
X114627242Y-47469976D01*
X114694361Y-47505852D01*
X114775078Y-47548996D01*
X114904659Y-47655341D01*
X115011004Y-47784922D01*
X115011005Y-47784924D01*
X115090024Y-47932758D01*
X115138687Y-48093177D01*
X115155117Y-48260000D01*
X115138687Y-48426823D01*
X115090024Y-48587242D01*
X115049477Y-48663100D01*
X115011004Y-48735078D01*
X114904659Y-48864659D01*
X114775078Y-48971004D01*
X114775076Y-48971005D01*
X114627242Y-49050024D01*
X114466823Y-49098687D01*
X114341804Y-49111000D01*
X114258196Y-49111000D01*
X114133177Y-49098687D01*
X113972758Y-49050024D01*
X113824924Y-48971005D01*
X113824922Y-48971004D01*
X113695341Y-48864659D01*
X113588996Y-48735078D01*
X113550523Y-48663100D01*
X113509976Y-48587242D01*
X113461313Y-48426823D01*
X113444883Y-48260000D01*
X113461313Y-48093177D01*
X113509976Y-47932758D01*
X113588995Y-47784924D01*
X113588996Y-47784922D01*
X113695341Y-47655341D01*
X113824922Y-47548996D01*
X113905639Y-47505852D01*
X113972758Y-47469976D01*
X114133177Y-47421313D01*
X114258196Y-47409000D01*
X114341804Y-47409000D01*
X114466823Y-47421313D01*
X114466823Y-47421313D01*
G37*
G36*
X104306823Y-47421313D02*
G01*
X104467242Y-47469976D01*
X104534361Y-47505852D01*
X104615078Y-47548996D01*
X104744659Y-47655341D01*
X104851004Y-47784922D01*
X104851005Y-47784924D01*
X104930024Y-47932758D01*
X104978687Y-48093177D01*
X104995117Y-48260000D01*
X104978687Y-48426823D01*
X104930024Y-48587242D01*
X104889477Y-48663100D01*
X104851004Y-48735078D01*
X104744659Y-48864659D01*
X104615078Y-48971004D01*
X104615076Y-48971005D01*
X104467242Y-49050024D01*
X104306823Y-49098687D01*
X104181804Y-49111000D01*
X104098196Y-49111000D01*
X103973177Y-49098687D01*
X103812758Y-49050024D01*
X103664924Y-48971005D01*
X103664922Y-48971004D01*
X103535341Y-48864659D01*
X103428996Y-48735078D01*
X103390523Y-48663100D01*
X103349976Y-48587242D01*
X103301313Y-48426823D01*
X103284883Y-48260000D01*
X103301313Y-48093177D01*
X103349976Y-47932758D01*
X103428995Y-47784924D01*
X103428996Y-47784922D01*
X103535341Y-47655341D01*
X103664922Y-47548996D01*
X103745639Y-47505852D01*
X103812758Y-47469976D01*
X103973177Y-47421313D01*
X104098196Y-47409000D01*
X104181804Y-47409000D01*
X104306823Y-47421313D01*
X104306823Y-47421313D01*
G37*
G36*
X96686823Y-47421313D02*
G01*
X96847242Y-47469976D01*
X96914361Y-47505852D01*
X96995078Y-47548996D01*
X97124659Y-47655341D01*
X97231004Y-47784922D01*
X97231005Y-47784924D01*
X97310024Y-47932758D01*
X97358687Y-48093177D01*
X97375117Y-48260000D01*
X97358687Y-48426823D01*
X97310024Y-48587242D01*
X97269477Y-48663100D01*
X97231004Y-48735078D01*
X97124659Y-48864659D01*
X96995078Y-48971004D01*
X96995076Y-48971005D01*
X96847242Y-49050024D01*
X96686823Y-49098687D01*
X96561804Y-49111000D01*
X96478196Y-49111000D01*
X96353177Y-49098687D01*
X96192758Y-49050024D01*
X96044924Y-48971005D01*
X96044922Y-48971004D01*
X95915341Y-48864659D01*
X95808996Y-48735078D01*
X95770523Y-48663100D01*
X95729976Y-48587242D01*
X95681313Y-48426823D01*
X95664883Y-48260000D01*
X95681313Y-48093177D01*
X95729976Y-47932758D01*
X95808995Y-47784924D01*
X95808996Y-47784922D01*
X95915341Y-47655341D01*
X96044922Y-47548996D01*
X96125639Y-47505852D01*
X96192758Y-47469976D01*
X96353177Y-47421313D01*
X96478196Y-47409000D01*
X96561804Y-47409000D01*
X96686823Y-47421313D01*
X96686823Y-47421313D01*
G37*
G36*
X124708228Y-47441703D02*
G01*
X124863100Y-47505853D01*
X125002481Y-47598985D01*
X125121015Y-47717519D01*
X125214147Y-47856900D01*
X125278297Y-48011772D01*
X125311000Y-48176184D01*
X125311000Y-48343816D01*
X125278297Y-48508228D01*
X125214147Y-48663100D01*
X125121015Y-48802481D01*
X125002481Y-48921015D01*
X124863100Y-49014147D01*
X124708228Y-49078297D01*
X124543816Y-49111000D01*
X124376184Y-49111000D01*
X124211772Y-49078297D01*
X124056900Y-49014147D01*
X123917519Y-48921015D01*
X123798985Y-48802481D01*
X123705853Y-48663100D01*
X123641703Y-48508228D01*
X123609000Y-48343816D01*
X123609000Y-48176184D01*
X123641703Y-48011772D01*
X123705853Y-47856900D01*
X123798985Y-47717519D01*
X123917519Y-47598985D01*
X124056900Y-47505853D01*
X124211772Y-47441703D01*
X124376184Y-47409000D01*
X124543816Y-47409000D01*
X124708228Y-47441703D01*
X124708228Y-47441703D01*
G37*
G36*
X138638129Y-46088698D02*
G01*
X138677749Y-46092601D01*
X138699697Y-46096966D01*
X138734846Y-46107628D01*
X138746141Y-46112306D01*
X138749829Y-46113834D01*
X138749832Y-46113835D01*
X138755528Y-46116195D01*
X138787923Y-46133511D01*
X138806534Y-46145946D01*
X138837302Y-46171196D01*
X138845604Y-46178720D01*
X139241280Y-46574396D01*
X139248804Y-46582698D01*
X139274054Y-46613466D01*
X139286489Y-46632077D01*
X139303805Y-46664472D01*
X139312372Y-46685154D01*
X139323034Y-46720303D01*
X139327399Y-46742251D01*
X139331302Y-46781871D01*
X139331852Y-46793064D01*
X139331852Y-47586936D01*
X139331302Y-47598129D01*
X139327399Y-47637749D01*
X139323034Y-47659697D01*
X139312372Y-47694846D01*
X139303805Y-47715528D01*
X139286489Y-47747923D01*
X139274054Y-47766534D01*
X139250759Y-47794920D01*
X139234920Y-47810759D01*
X139206534Y-47834054D01*
X139187923Y-47846489D01*
X139155528Y-47863805D01*
X139149832Y-47866165D01*
X139149829Y-47866166D01*
X139146141Y-47867694D01*
X139134846Y-47872372D01*
X139099697Y-47883034D01*
X139077749Y-47887399D01*
X139038129Y-47891302D01*
X139026936Y-47891852D01*
X137833064Y-47891852D01*
X137821871Y-47891302D01*
X137782251Y-47887399D01*
X137760303Y-47883034D01*
X137725154Y-47872372D01*
X137713859Y-47867694D01*
X137710171Y-47866166D01*
X137710168Y-47866165D01*
X137704472Y-47863805D01*
X137672077Y-47846489D01*
X137653466Y-47834054D01*
X137625080Y-47810759D01*
X137609241Y-47794920D01*
X137585946Y-47766534D01*
X137573511Y-47747923D01*
X137556195Y-47715528D01*
X137547628Y-47694846D01*
X137536966Y-47659697D01*
X137532601Y-47637749D01*
X137528698Y-47598129D01*
X137528148Y-47586936D01*
X137528148Y-46393064D01*
X137528698Y-46381871D01*
X137532601Y-46342251D01*
X137536966Y-46320303D01*
X137547628Y-46285154D01*
X137556195Y-46264472D01*
X137573511Y-46232077D01*
X137585946Y-46213466D01*
X137609241Y-46185080D01*
X137625080Y-46169241D01*
X137653466Y-46145946D01*
X137672077Y-46133511D01*
X137704472Y-46116195D01*
X137710168Y-46113835D01*
X137710171Y-46113834D01*
X137713859Y-46112306D01*
X137725154Y-46107628D01*
X137760303Y-46096966D01*
X137782251Y-46092601D01*
X137821871Y-46088698D01*
X137833064Y-46088148D01*
X138626936Y-46088148D01*
X138638129Y-46088698D01*
X138638129Y-46088698D01*
G37*
G36*
X136036845Y-46092601D02*
G01*
X136192812Y-46123624D01*
X136356784Y-46191544D01*
X136504354Y-46290147D01*
X136629853Y-46415646D01*
X136728456Y-46563216D01*
X136796376Y-46727188D01*
X136831000Y-46901259D01*
X136831000Y-47078741D01*
X136796376Y-47252812D01*
X136728456Y-47416784D01*
X136629853Y-47564354D01*
X136504354Y-47689853D01*
X136356784Y-47788456D01*
X136192812Y-47856376D01*
X136043512Y-47886073D01*
X136018742Y-47891000D01*
X135841258Y-47891000D01*
X135816488Y-47886073D01*
X135667188Y-47856376D01*
X135503216Y-47788456D01*
X135355646Y-47689853D01*
X135230147Y-47564354D01*
X135131544Y-47416784D01*
X135063624Y-47252812D01*
X135029000Y-47078741D01*
X135029000Y-46901259D01*
X135063624Y-46727188D01*
X135131544Y-46563216D01*
X135230147Y-46415646D01*
X135355646Y-46290147D01*
X135503216Y-46191544D01*
X135667188Y-46123624D01*
X135823155Y-46092601D01*
X135841258Y-46089000D01*
X136018742Y-46089000D01*
X136036845Y-46092601D01*
X136036845Y-46092601D01*
G37*
G36*
X104306823Y-44881313D02*
G01*
X104467242Y-44929976D01*
X104599906Y-45000886D01*
X104615078Y-45008996D01*
X104744659Y-45115341D01*
X104851004Y-45244922D01*
X104851005Y-45244924D01*
X104930024Y-45392758D01*
X104978687Y-45553177D01*
X104995117Y-45720000D01*
X104978687Y-45886823D01*
X104930024Y-46047242D01*
X104864814Y-46169241D01*
X104851004Y-46195078D01*
X104744659Y-46324659D01*
X104615078Y-46431004D01*
X104615076Y-46431005D01*
X104467242Y-46510024D01*
X104306823Y-46558687D01*
X104181804Y-46571000D01*
X104098196Y-46571000D01*
X103973177Y-46558687D01*
X103812758Y-46510024D01*
X103664924Y-46431005D01*
X103664922Y-46431004D01*
X103535341Y-46324659D01*
X103428996Y-46195078D01*
X103415186Y-46169241D01*
X103349976Y-46047242D01*
X103301313Y-45886823D01*
X103284883Y-45720000D01*
X103301313Y-45553177D01*
X103349976Y-45392758D01*
X103428995Y-45244924D01*
X103428996Y-45244922D01*
X103535341Y-45115341D01*
X103664922Y-45008996D01*
X103680094Y-45000886D01*
X103812758Y-44929976D01*
X103973177Y-44881313D01*
X104098196Y-44869000D01*
X104181804Y-44869000D01*
X104306823Y-44881313D01*
X104306823Y-44881313D01*
G37*
G36*
X96686823Y-44881313D02*
G01*
X96847242Y-44929976D01*
X96979906Y-45000886D01*
X96995078Y-45008996D01*
X97124659Y-45115341D01*
X97231004Y-45244922D01*
X97231005Y-45244924D01*
X97310024Y-45392758D01*
X97358687Y-45553177D01*
X97375117Y-45720000D01*
X97358687Y-45886823D01*
X97310024Y-46047242D01*
X97244814Y-46169241D01*
X97231004Y-46195078D01*
X97124659Y-46324659D01*
X96995078Y-46431004D01*
X96995076Y-46431005D01*
X96847242Y-46510024D01*
X96686823Y-46558687D01*
X96561804Y-46571000D01*
X96478196Y-46571000D01*
X96353177Y-46558687D01*
X96192758Y-46510024D01*
X96044924Y-46431005D01*
X96044922Y-46431004D01*
X95915341Y-46324659D01*
X95808996Y-46195078D01*
X95795186Y-46169241D01*
X95729976Y-46047242D01*
X95681313Y-45886823D01*
X95664883Y-45720000D01*
X95681313Y-45553177D01*
X95729976Y-45392758D01*
X95808995Y-45244924D01*
X95808996Y-45244922D01*
X95915341Y-45115341D01*
X96044922Y-45008996D01*
X96060094Y-45000886D01*
X96192758Y-44929976D01*
X96353177Y-44881313D01*
X96478196Y-44869000D01*
X96561804Y-44869000D01*
X96686823Y-44881313D01*
X96686823Y-44881313D01*
G37*
G36*
X138543512Y-43593927D02*
G01*
X138692812Y-43623624D01*
X138856784Y-43691544D01*
X139004354Y-43790147D01*
X139129853Y-43915646D01*
X139228456Y-44063216D01*
X139296376Y-44227188D01*
X139331000Y-44401259D01*
X139331000Y-44578741D01*
X139296376Y-44752812D01*
X139228456Y-44916784D01*
X139228455Y-44916785D01*
X139164778Y-45012085D01*
X139153227Y-45033695D01*
X139146114Y-45057144D01*
X139143712Y-45081530D01*
X139146114Y-45105917D01*
X139153227Y-45129365D01*
X139164778Y-45150976D01*
X139180324Y-45169918D01*
X139199266Y-45185463D01*
X139220876Y-45197014D01*
X139244325Y-45204127D01*
X139268711Y-45206529D01*
X139293098Y-45204127D01*
X139316546Y-45197014D01*
X139338154Y-45185464D01*
X139437952Y-45118782D01*
X139456703Y-45111015D01*
X139565527Y-45065938D01*
X139700956Y-45039000D01*
X139839044Y-45039000D01*
X139974473Y-45065938D01*
X140102049Y-45118782D01*
X140216859Y-45195495D01*
X140314505Y-45293141D01*
X140391218Y-45407951D01*
X140444062Y-45535527D01*
X140471000Y-45670956D01*
X140471000Y-45809044D01*
X140444062Y-45944473D01*
X140391218Y-46072049D01*
X140314505Y-46186859D01*
X140216859Y-46284505D01*
X140102049Y-46361218D01*
X139974473Y-46414062D01*
X139839044Y-46441000D01*
X139700956Y-46441000D01*
X139565527Y-46414062D01*
X139437951Y-46361218D01*
X139323141Y-46284505D01*
X139225495Y-46186859D01*
X139148782Y-46072049D01*
X139095938Y-45944473D01*
X139069000Y-45809044D01*
X139069000Y-45670956D01*
X139095938Y-45535527D01*
X139148781Y-45407955D01*
X139148782Y-45407952D01*
X139179415Y-45362106D01*
X139190965Y-45340495D01*
X139198078Y-45317046D01*
X139200480Y-45292660D01*
X139198078Y-45268274D01*
X139190965Y-45244825D01*
X139179413Y-45223214D01*
X139163868Y-45204272D01*
X139144926Y-45188727D01*
X139123315Y-45177177D01*
X139099866Y-45170064D01*
X139075480Y-45167662D01*
X139051094Y-45170064D01*
X139027645Y-45177177D01*
X139006035Y-45188728D01*
X139004359Y-45189848D01*
X139004354Y-45189853D01*
X138856784Y-45288456D01*
X138692812Y-45356376D01*
X138543512Y-45386073D01*
X138518742Y-45391000D01*
X138341258Y-45391000D01*
X138316488Y-45386073D01*
X138167188Y-45356376D01*
X138003216Y-45288456D01*
X137855646Y-45189853D01*
X137730147Y-45064354D01*
X137631544Y-44916784D01*
X137563624Y-44752812D01*
X137529000Y-44578741D01*
X137529000Y-44401259D01*
X137563624Y-44227188D01*
X137631544Y-44063216D01*
X137730147Y-43915646D01*
X137855646Y-43790147D01*
X138003216Y-43691544D01*
X138167188Y-43623624D01*
X138316488Y-43593927D01*
X138341258Y-43589000D01*
X138518742Y-43589000D01*
X138543512Y-43593927D01*
X138543512Y-43593927D01*
G37*
G36*
X74911000Y-45701000D02*
G01*
X72409000Y-45701000D01*
X72409000Y-43199000D01*
X74911000Y-43199000D01*
X74911000Y-45701000D01*
X74911000Y-45701000D01*
G37*
G36*
X69024903Y-43247075D02*
G01*
X69252571Y-43341378D01*
X69457466Y-43478285D01*
X69631715Y-43652534D01*
X69689487Y-43738996D01*
X69768623Y-43857431D01*
X69862925Y-44085097D01*
X69911000Y-44326786D01*
X69911000Y-44573214D01*
X69902325Y-44616825D01*
X69862925Y-44814903D01*
X69768622Y-45042571D01*
X69631715Y-45247466D01*
X69457466Y-45421715D01*
X69252571Y-45558622D01*
X69252570Y-45558623D01*
X69252569Y-45558623D01*
X69024903Y-45652925D01*
X68783214Y-45701000D01*
X68536786Y-45701000D01*
X68295097Y-45652925D01*
X68067431Y-45558623D01*
X68067430Y-45558623D01*
X68067429Y-45558622D01*
X67862534Y-45421715D01*
X67688285Y-45247466D01*
X67551378Y-45042571D01*
X67457075Y-44814903D01*
X67417675Y-44616825D01*
X67409000Y-44573214D01*
X67409000Y-44326786D01*
X67457075Y-44085097D01*
X67551377Y-43857431D01*
X67630513Y-43738996D01*
X67688285Y-43652534D01*
X67862534Y-43478285D01*
X68067429Y-43341378D01*
X68295097Y-43247075D01*
X68536786Y-43199000D01*
X68783214Y-43199000D01*
X69024903Y-43247075D01*
X69024903Y-43247075D01*
G37*
G36*
X136043512Y-43593927D02*
G01*
X136192812Y-43623624D01*
X136356784Y-43691544D01*
X136504354Y-43790147D01*
X136629853Y-43915646D01*
X136728456Y-44063216D01*
X136796376Y-44227188D01*
X136831000Y-44401259D01*
X136831000Y-44578741D01*
X136796376Y-44752812D01*
X136728456Y-44916784D01*
X136629853Y-45064354D01*
X136504354Y-45189853D01*
X136356784Y-45288456D01*
X136192812Y-45356376D01*
X136043512Y-45386073D01*
X136018742Y-45391000D01*
X135841258Y-45391000D01*
X135816488Y-45386073D01*
X135667188Y-45356376D01*
X135503216Y-45288456D01*
X135355646Y-45189853D01*
X135230147Y-45064354D01*
X135131544Y-44916784D01*
X135063624Y-44752812D01*
X135029000Y-44578741D01*
X135029000Y-44401259D01*
X135063624Y-44227188D01*
X135131544Y-44063216D01*
X135230147Y-43915646D01*
X135355646Y-43790147D01*
X135503216Y-43691544D01*
X135667188Y-43623624D01*
X135816488Y-43593927D01*
X135841258Y-43589000D01*
X136018742Y-43589000D01*
X136043512Y-43593927D01*
X136043512Y-43593927D01*
G37*
G36*
X124708228Y-43631703D02*
G01*
X124863100Y-43695853D01*
X125002481Y-43788985D01*
X125121015Y-43907519D01*
X125214147Y-44046900D01*
X125278297Y-44201772D01*
X125311000Y-44366184D01*
X125311000Y-44533816D01*
X125278297Y-44698228D01*
X125214147Y-44853100D01*
X125121015Y-44992481D01*
X125002481Y-45111015D01*
X124863100Y-45204147D01*
X124708228Y-45268297D01*
X124543816Y-45301000D01*
X124376184Y-45301000D01*
X124211772Y-45268297D01*
X124056900Y-45204147D01*
X123917519Y-45111015D01*
X123798985Y-44992481D01*
X123705853Y-44853100D01*
X123641703Y-44698228D01*
X123609000Y-44533816D01*
X123609000Y-44366184D01*
X123641703Y-44201772D01*
X123705853Y-44046900D01*
X123798985Y-43907519D01*
X123917519Y-43788985D01*
X124056900Y-43695853D01*
X124211772Y-43631703D01*
X124376184Y-43599000D01*
X124543816Y-43599000D01*
X124708228Y-43631703D01*
X124708228Y-43631703D01*
G37*
G36*
X114466823Y-43611313D02*
G01*
X114627242Y-43659976D01*
X114694361Y-43695852D01*
X114775078Y-43738996D01*
X114904659Y-43845341D01*
X115011004Y-43974922D01*
X115011005Y-43974924D01*
X115090024Y-44122758D01*
X115138687Y-44283177D01*
X115155117Y-44450000D01*
X115138687Y-44616823D01*
X115090024Y-44777242D01*
X115049477Y-44853100D01*
X115011004Y-44925078D01*
X114904659Y-45054659D01*
X114775078Y-45161004D01*
X114775076Y-45161005D01*
X114627242Y-45240024D01*
X114627239Y-45240025D01*
X114611096Y-45244922D01*
X114466823Y-45288687D01*
X114341804Y-45301000D01*
X114258196Y-45301000D01*
X114133177Y-45288687D01*
X113988904Y-45244922D01*
X113972761Y-45240025D01*
X113972758Y-45240024D01*
X113824924Y-45161005D01*
X113824922Y-45161004D01*
X113695341Y-45054659D01*
X113588996Y-44925078D01*
X113550523Y-44853100D01*
X113509976Y-44777242D01*
X113461313Y-44616823D01*
X113444883Y-44450000D01*
X113461313Y-44283177D01*
X113509976Y-44122758D01*
X113588995Y-43974924D01*
X113588996Y-43974922D01*
X113695341Y-43845341D01*
X113824922Y-43738996D01*
X113905639Y-43695852D01*
X113972758Y-43659976D01*
X114133177Y-43611313D01*
X114258196Y-43599000D01*
X114341804Y-43599000D01*
X114466823Y-43611313D01*
X114466823Y-43611313D01*
G37*
G36*
X96686823Y-42341313D02*
G01*
X96847242Y-42389976D01*
X96979906Y-42460886D01*
X96995078Y-42468996D01*
X97124659Y-42575341D01*
X97231004Y-42704922D01*
X97231005Y-42704924D01*
X97310024Y-42852758D01*
X97358687Y-43013177D01*
X97375117Y-43180000D01*
X97358687Y-43346823D01*
X97310024Y-43507242D01*
X97266323Y-43589000D01*
X97231004Y-43655078D01*
X97124659Y-43784659D01*
X96995078Y-43891004D01*
X96995076Y-43891005D01*
X96847242Y-43970024D01*
X96686823Y-44018687D01*
X96561804Y-44031000D01*
X96478196Y-44031000D01*
X96353177Y-44018687D01*
X96192758Y-43970024D01*
X96044924Y-43891005D01*
X96044922Y-43891004D01*
X95915341Y-43784659D01*
X95808996Y-43655078D01*
X95773677Y-43589000D01*
X95729976Y-43507242D01*
X95681313Y-43346823D01*
X95664883Y-43180000D01*
X95681313Y-43013177D01*
X95729976Y-42852758D01*
X95808995Y-42704924D01*
X95808996Y-42704922D01*
X95915341Y-42575341D01*
X96044922Y-42468996D01*
X96060094Y-42460886D01*
X96192758Y-42389976D01*
X96353177Y-42341313D01*
X96478196Y-42329000D01*
X96561804Y-42329000D01*
X96686823Y-42341313D01*
X96686823Y-42341313D01*
G37*
G36*
X104306823Y-42341313D02*
G01*
X104467242Y-42389976D01*
X104599906Y-42460886D01*
X104615078Y-42468996D01*
X104744659Y-42575341D01*
X104851004Y-42704922D01*
X104851005Y-42704924D01*
X104930024Y-42852758D01*
X104978687Y-43013177D01*
X104995117Y-43180000D01*
X104978687Y-43346823D01*
X104930024Y-43507242D01*
X104886323Y-43589000D01*
X104851004Y-43655078D01*
X104744659Y-43784659D01*
X104615078Y-43891004D01*
X104615076Y-43891005D01*
X104467242Y-43970024D01*
X104306823Y-44018687D01*
X104181804Y-44031000D01*
X104098196Y-44031000D01*
X103973177Y-44018687D01*
X103812758Y-43970024D01*
X103664924Y-43891005D01*
X103664922Y-43891004D01*
X103535341Y-43784659D01*
X103428996Y-43655078D01*
X103393677Y-43589000D01*
X103349976Y-43507242D01*
X103301313Y-43346823D01*
X103284883Y-43180000D01*
X103301313Y-43013177D01*
X103349976Y-42852758D01*
X103428995Y-42704924D01*
X103428996Y-42704922D01*
X103535341Y-42575341D01*
X103664922Y-42468996D01*
X103680094Y-42460886D01*
X103812758Y-42389976D01*
X103973177Y-42341313D01*
X104098196Y-42329000D01*
X104181804Y-42329000D01*
X104306823Y-42341313D01*
X104306823Y-42341313D01*
G37*
G36*
X124708228Y-39821703D02*
G01*
X124863100Y-39885853D01*
X125002481Y-39978985D01*
X125121015Y-40097519D01*
X125214147Y-40236900D01*
X125278297Y-40391772D01*
X125311000Y-40556184D01*
X125311000Y-40723816D01*
X125278297Y-40888228D01*
X125214147Y-41043100D01*
X125121015Y-41182481D01*
X125002481Y-41301015D01*
X124863100Y-41394147D01*
X124708228Y-41458297D01*
X124543816Y-41491000D01*
X124376184Y-41491000D01*
X124211772Y-41458297D01*
X124056900Y-41394147D01*
X123917519Y-41301015D01*
X123798985Y-41182481D01*
X123705853Y-41043100D01*
X123641703Y-40888228D01*
X123609000Y-40723816D01*
X123609000Y-40556184D01*
X123641703Y-40391772D01*
X123705853Y-40236900D01*
X123798985Y-40097519D01*
X123917519Y-39978985D01*
X124056900Y-39885853D01*
X124211772Y-39821703D01*
X124376184Y-39789000D01*
X124543816Y-39789000D01*
X124708228Y-39821703D01*
X124708228Y-39821703D01*
G37*
G36*
X114466823Y-39801313D02*
G01*
X114627242Y-39849976D01*
X114694361Y-39885852D01*
X114775078Y-39928996D01*
X114904659Y-40035341D01*
X115011004Y-40164922D01*
X115011005Y-40164924D01*
X115090024Y-40312758D01*
X115138687Y-40473177D01*
X115155117Y-40640000D01*
X115138687Y-40806823D01*
X115090024Y-40967242D01*
X115049477Y-41043100D01*
X115011004Y-41115078D01*
X114904659Y-41244659D01*
X114775078Y-41351004D01*
X114775076Y-41351005D01*
X114627242Y-41430024D01*
X114466823Y-41478687D01*
X114341804Y-41491000D01*
X114258196Y-41491000D01*
X114133177Y-41478687D01*
X113972758Y-41430024D01*
X113824924Y-41351005D01*
X113824922Y-41351004D01*
X113695341Y-41244659D01*
X113588996Y-41115078D01*
X113550523Y-41043100D01*
X113509976Y-40967242D01*
X113461313Y-40806823D01*
X113444883Y-40640000D01*
X113461313Y-40473177D01*
X113509976Y-40312758D01*
X113588995Y-40164924D01*
X113588996Y-40164922D01*
X113695341Y-40035341D01*
X113824922Y-39928996D01*
X113905639Y-39885852D01*
X113972758Y-39849976D01*
X114133177Y-39801313D01*
X114258196Y-39789000D01*
X114341804Y-39789000D01*
X114466823Y-39801313D01*
X114466823Y-39801313D01*
G37*
G36*
X104306823Y-39801313D02*
G01*
X104467242Y-39849976D01*
X104534361Y-39885852D01*
X104615078Y-39928996D01*
X104744659Y-40035341D01*
X104851004Y-40164922D01*
X104851005Y-40164924D01*
X104930024Y-40312758D01*
X104978687Y-40473177D01*
X104995117Y-40640000D01*
X104978687Y-40806823D01*
X104930024Y-40967242D01*
X104889477Y-41043100D01*
X104851004Y-41115078D01*
X104744659Y-41244659D01*
X104615078Y-41351004D01*
X104615076Y-41351005D01*
X104467242Y-41430024D01*
X104306823Y-41478687D01*
X104181804Y-41491000D01*
X104098196Y-41491000D01*
X103973177Y-41478687D01*
X103812758Y-41430024D01*
X103664924Y-41351005D01*
X103664922Y-41351004D01*
X103535341Y-41244659D01*
X103428996Y-41115078D01*
X103390523Y-41043100D01*
X103349976Y-40967242D01*
X103301313Y-40806823D01*
X103284883Y-40640000D01*
X103301313Y-40473177D01*
X103349976Y-40312758D01*
X103428995Y-40164924D01*
X103428996Y-40164922D01*
X103535341Y-40035341D01*
X103664922Y-39928996D01*
X103745639Y-39885852D01*
X103812758Y-39849976D01*
X103973177Y-39801313D01*
X104098196Y-39789000D01*
X104181804Y-39789000D01*
X104306823Y-39801313D01*
X104306823Y-39801313D01*
G37*
G36*
X97371000Y-41491000D02*
G01*
X95669000Y-41491000D01*
X95669000Y-39789000D01*
X97371000Y-39789000D01*
X97371000Y-41491000D01*
X97371000Y-41491000D01*
G37*
G36*
X138638129Y-35888698D02*
G01*
X138677749Y-35892601D01*
X138699697Y-35896966D01*
X138734846Y-35907628D01*
X138746141Y-35912306D01*
X138749829Y-35913834D01*
X138749832Y-35913835D01*
X138755528Y-35916195D01*
X138787923Y-35933511D01*
X138806534Y-35945946D01*
X138837302Y-35971196D01*
X138845604Y-35978720D01*
X139241280Y-36374396D01*
X139248804Y-36382698D01*
X139274054Y-36413466D01*
X139286489Y-36432077D01*
X139303805Y-36464472D01*
X139312372Y-36485154D01*
X139323034Y-36520303D01*
X139327399Y-36542251D01*
X139331302Y-36581871D01*
X139331852Y-36593064D01*
X139331852Y-37386936D01*
X139331302Y-37398129D01*
X139327399Y-37437749D01*
X139323034Y-37459697D01*
X139312372Y-37494846D01*
X139303805Y-37515528D01*
X139286489Y-37547923D01*
X139274054Y-37566534D01*
X139250759Y-37594920D01*
X139234920Y-37610759D01*
X139206534Y-37634054D01*
X139187923Y-37646489D01*
X139155528Y-37663805D01*
X139149832Y-37666165D01*
X139149829Y-37666166D01*
X139146141Y-37667694D01*
X139134846Y-37672372D01*
X139099697Y-37683034D01*
X139077749Y-37687399D01*
X139038129Y-37691302D01*
X139026936Y-37691852D01*
X137833064Y-37691852D01*
X137821871Y-37691302D01*
X137782251Y-37687399D01*
X137760303Y-37683034D01*
X137725154Y-37672372D01*
X137713859Y-37667694D01*
X137710171Y-37666166D01*
X137710168Y-37666165D01*
X137704472Y-37663805D01*
X137672077Y-37646489D01*
X137653466Y-37634054D01*
X137625080Y-37610759D01*
X137609241Y-37594920D01*
X137585946Y-37566534D01*
X137573511Y-37547923D01*
X137556195Y-37515528D01*
X137547628Y-37494846D01*
X137536966Y-37459697D01*
X137532601Y-37437749D01*
X137528698Y-37398129D01*
X137528148Y-37386936D01*
X137528148Y-36193064D01*
X137528698Y-36181871D01*
X137532601Y-36142251D01*
X137536966Y-36120303D01*
X137547628Y-36085154D01*
X137556195Y-36064472D01*
X137573511Y-36032077D01*
X137585946Y-36013466D01*
X137609241Y-35985080D01*
X137625080Y-35969241D01*
X137653466Y-35945946D01*
X137672077Y-35933511D01*
X137704472Y-35916195D01*
X137710168Y-35913835D01*
X137710171Y-35913834D01*
X137713859Y-35912306D01*
X137725154Y-35907628D01*
X137760303Y-35896966D01*
X137782251Y-35892601D01*
X137821871Y-35888698D01*
X137833064Y-35888148D01*
X138626936Y-35888148D01*
X138638129Y-35888698D01*
X138638129Y-35888698D01*
G37*
G36*
X136036845Y-35892601D02*
G01*
X136192812Y-35923624D01*
X136356784Y-35991544D01*
X136504354Y-36090147D01*
X136629853Y-36215646D01*
X136728456Y-36363216D01*
X136796376Y-36527188D01*
X136831000Y-36701259D01*
X136831000Y-36878741D01*
X136796376Y-37052812D01*
X136728456Y-37216784D01*
X136629853Y-37364354D01*
X136504354Y-37489853D01*
X136356784Y-37588456D01*
X136192812Y-37656376D01*
X136043512Y-37686073D01*
X136018742Y-37691000D01*
X135841258Y-37691000D01*
X135816488Y-37686073D01*
X135667188Y-37656376D01*
X135503216Y-37588456D01*
X135355646Y-37489853D01*
X135230147Y-37364354D01*
X135131544Y-37216784D01*
X135063624Y-37052812D01*
X135029000Y-36878741D01*
X135029000Y-36701259D01*
X135063624Y-36527188D01*
X135131544Y-36363216D01*
X135230147Y-36215646D01*
X135355646Y-36090147D01*
X135503216Y-35991544D01*
X135667188Y-35923624D01*
X135823155Y-35892601D01*
X135841258Y-35889000D01*
X136018742Y-35889000D01*
X136036845Y-35892601D01*
X136036845Y-35892601D01*
G37*
G36*
X124708228Y-36011703D02*
G01*
X124863100Y-36075853D01*
X125002481Y-36168985D01*
X125121015Y-36287519D01*
X125214147Y-36426900D01*
X125278297Y-36581772D01*
X125311000Y-36746184D01*
X125311000Y-36913816D01*
X125278297Y-37078228D01*
X125214147Y-37233100D01*
X125121015Y-37372481D01*
X125002481Y-37491015D01*
X124863100Y-37584147D01*
X124708228Y-37648297D01*
X124543816Y-37681000D01*
X124376184Y-37681000D01*
X124211772Y-37648297D01*
X124056900Y-37584147D01*
X123917519Y-37491015D01*
X123798985Y-37372481D01*
X123705853Y-37233100D01*
X123641703Y-37078228D01*
X123609000Y-36913816D01*
X123609000Y-36746184D01*
X123641703Y-36581772D01*
X123705853Y-36426900D01*
X123798985Y-36287519D01*
X123917519Y-36168985D01*
X124056900Y-36075853D01*
X124211772Y-36011703D01*
X124376184Y-35979000D01*
X124543816Y-35979000D01*
X124708228Y-36011703D01*
X124708228Y-36011703D01*
G37*
G36*
X114466823Y-35991313D02*
G01*
X114627242Y-36039976D01*
X114711764Y-36085154D01*
X114775078Y-36118996D01*
X114904659Y-36225341D01*
X115011004Y-36354922D01*
X115011005Y-36354924D01*
X115090024Y-36502758D01*
X115138687Y-36663177D01*
X115155117Y-36830000D01*
X115138687Y-36996823D01*
X115090024Y-37157242D01*
X115049477Y-37233100D01*
X115011004Y-37305078D01*
X114904659Y-37434659D01*
X114775078Y-37541004D01*
X114775076Y-37541005D01*
X114627242Y-37620024D01*
X114466823Y-37668687D01*
X114341804Y-37681000D01*
X114258196Y-37681000D01*
X114133177Y-37668687D01*
X113972758Y-37620024D01*
X113824924Y-37541005D01*
X113824922Y-37541004D01*
X113695341Y-37434659D01*
X113588996Y-37305078D01*
X113550523Y-37233100D01*
X113509976Y-37157242D01*
X113461313Y-36996823D01*
X113444883Y-36830000D01*
X113461313Y-36663177D01*
X113509976Y-36502758D01*
X113588995Y-36354924D01*
X113588996Y-36354922D01*
X113695341Y-36225341D01*
X113824922Y-36118996D01*
X113888236Y-36085154D01*
X113972758Y-36039976D01*
X114133177Y-35991313D01*
X114258196Y-35979000D01*
X114341804Y-35979000D01*
X114466823Y-35991313D01*
X114466823Y-35991313D01*
G37*
G36*
X138543512Y-33393927D02*
G01*
X138692812Y-33423624D01*
X138856784Y-33491544D01*
X139004354Y-33590147D01*
X139129853Y-33715646D01*
X139228456Y-33863216D01*
X139296376Y-34027188D01*
X139331000Y-34201259D01*
X139331000Y-34378741D01*
X139296376Y-34552812D01*
X139228456Y-34716784D01*
X139228455Y-34716785D01*
X139164778Y-34812085D01*
X139153227Y-34833695D01*
X139146114Y-34857144D01*
X139143712Y-34881530D01*
X139146114Y-34905917D01*
X139153227Y-34929365D01*
X139164778Y-34950976D01*
X139180324Y-34969918D01*
X139199266Y-34985463D01*
X139220876Y-34997014D01*
X139244325Y-35004127D01*
X139268711Y-35006529D01*
X139293098Y-35004127D01*
X139316546Y-34997014D01*
X139338154Y-34985464D01*
X139437952Y-34918782D01*
X139437954Y-34918781D01*
X139565527Y-34865938D01*
X139700956Y-34839000D01*
X139839044Y-34839000D01*
X139974473Y-34865938D01*
X140102049Y-34918782D01*
X140216859Y-34995495D01*
X140314505Y-35093141D01*
X140391218Y-35207951D01*
X140444062Y-35335527D01*
X140471000Y-35470956D01*
X140471000Y-35609044D01*
X140444062Y-35744473D01*
X140391218Y-35872049D01*
X140314505Y-35986859D01*
X140216859Y-36084505D01*
X140102049Y-36161218D01*
X139974473Y-36214062D01*
X139839044Y-36241000D01*
X139700956Y-36241000D01*
X139565527Y-36214062D01*
X139437951Y-36161218D01*
X139323141Y-36084505D01*
X139225495Y-35986859D01*
X139148782Y-35872049D01*
X139095938Y-35744473D01*
X139069000Y-35609044D01*
X139069000Y-35470956D01*
X139095938Y-35335527D01*
X139148781Y-35207955D01*
X139148782Y-35207952D01*
X139179415Y-35162106D01*
X139190965Y-35140495D01*
X139198078Y-35117046D01*
X139200480Y-35092660D01*
X139198078Y-35068274D01*
X139190965Y-35044825D01*
X139179413Y-35023214D01*
X139163868Y-35004272D01*
X139144926Y-34988727D01*
X139123315Y-34977177D01*
X139099866Y-34970064D01*
X139075480Y-34967662D01*
X139051094Y-34970064D01*
X139027645Y-34977177D01*
X139006035Y-34988728D01*
X139004359Y-34989848D01*
X139004354Y-34989853D01*
X138856784Y-35088456D01*
X138692812Y-35156376D01*
X138543512Y-35186073D01*
X138518742Y-35191000D01*
X138341258Y-35191000D01*
X138316488Y-35186073D01*
X138167188Y-35156376D01*
X138003216Y-35088456D01*
X137855646Y-34989853D01*
X137730147Y-34864354D01*
X137631544Y-34716784D01*
X137563624Y-34552812D01*
X137529000Y-34378741D01*
X137529000Y-34201259D01*
X137563624Y-34027188D01*
X137631544Y-33863216D01*
X137730147Y-33715646D01*
X137855646Y-33590147D01*
X138003216Y-33491544D01*
X138167188Y-33423624D01*
X138316488Y-33393927D01*
X138341258Y-33389000D01*
X138518742Y-33389000D01*
X138543512Y-33393927D01*
X138543512Y-33393927D01*
G37*
G36*
X136043512Y-33393927D02*
G01*
X136192812Y-33423624D01*
X136356784Y-33491544D01*
X136504354Y-33590147D01*
X136629853Y-33715646D01*
X136728456Y-33863216D01*
X136796376Y-34027188D01*
X136831000Y-34201259D01*
X136831000Y-34378741D01*
X136796376Y-34552812D01*
X136728456Y-34716784D01*
X136629853Y-34864354D01*
X136504354Y-34989853D01*
X136356784Y-35088456D01*
X136192812Y-35156376D01*
X136043512Y-35186073D01*
X136018742Y-35191000D01*
X135841258Y-35191000D01*
X135816488Y-35186073D01*
X135667188Y-35156376D01*
X135503216Y-35088456D01*
X135355646Y-34989853D01*
X135230147Y-34864354D01*
X135131544Y-34716784D01*
X135063624Y-34552812D01*
X135029000Y-34378741D01*
X135029000Y-34201259D01*
X135063624Y-34027188D01*
X135131544Y-33863216D01*
X135230147Y-33715646D01*
X135355646Y-33590147D01*
X135503216Y-33491544D01*
X135667188Y-33423624D01*
X135816488Y-33393927D01*
X135841258Y-33389000D01*
X136018742Y-33389000D01*
X136043512Y-33393927D01*
X136043512Y-33393927D01*
G37*
G36*
X109468228Y-30931703D02*
G01*
X109623100Y-30995853D01*
X109762481Y-31088985D01*
X109881015Y-31207519D01*
X109974147Y-31346900D01*
X110038297Y-31501772D01*
X110071000Y-31666184D01*
X110071000Y-31833816D01*
X110038297Y-31998228D01*
X109974147Y-32153100D01*
X109881015Y-32292481D01*
X109762481Y-32411015D01*
X109623100Y-32504147D01*
X109468228Y-32568297D01*
X109303816Y-32601000D01*
X109136184Y-32601000D01*
X108971772Y-32568297D01*
X108816900Y-32504147D01*
X108677519Y-32411015D01*
X108558985Y-32292481D01*
X108465853Y-32153100D01*
X108401703Y-31998228D01*
X108369000Y-31833816D01*
X108369000Y-31666184D01*
X108401703Y-31501772D01*
X108465853Y-31346900D01*
X108558985Y-31207519D01*
X108677519Y-31088985D01*
X108816900Y-30995853D01*
X108971772Y-30931703D01*
X109136184Y-30899000D01*
X109303816Y-30899000D01*
X109468228Y-30931703D01*
X109468228Y-30931703D01*
G37*
G36*
X112008228Y-30931703D02*
G01*
X112163100Y-30995853D01*
X112302481Y-31088985D01*
X112421015Y-31207519D01*
X112514147Y-31346900D01*
X112578297Y-31501772D01*
X112611000Y-31666184D01*
X112611000Y-31833816D01*
X112578297Y-31998228D01*
X112514147Y-32153100D01*
X112421015Y-32292481D01*
X112302481Y-32411015D01*
X112163100Y-32504147D01*
X112008228Y-32568297D01*
X111843816Y-32601000D01*
X111676184Y-32601000D01*
X111511772Y-32568297D01*
X111356900Y-32504147D01*
X111217519Y-32411015D01*
X111098985Y-32292481D01*
X111005853Y-32153100D01*
X110941703Y-31998228D01*
X110909000Y-31833816D01*
X110909000Y-31666184D01*
X110941703Y-31501772D01*
X111005853Y-31346900D01*
X111098985Y-31207519D01*
X111217519Y-31088985D01*
X111356900Y-30995853D01*
X111511772Y-30931703D01*
X111676184Y-30899000D01*
X111843816Y-30899000D01*
X112008228Y-30931703D01*
X112008228Y-30931703D01*
G37*
G36*
X114548228Y-30931703D02*
G01*
X114703100Y-30995853D01*
X114842481Y-31088985D01*
X114961015Y-31207519D01*
X115054147Y-31346900D01*
X115118297Y-31501772D01*
X115151000Y-31666184D01*
X115151000Y-31833816D01*
X115118297Y-31998228D01*
X115054147Y-32153100D01*
X114961015Y-32292481D01*
X114842481Y-32411015D01*
X114703100Y-32504147D01*
X114548228Y-32568297D01*
X114383816Y-32601000D01*
X114216184Y-32601000D01*
X114051772Y-32568297D01*
X113896900Y-32504147D01*
X113757519Y-32411015D01*
X113638985Y-32292481D01*
X113545853Y-32153100D01*
X113481703Y-31998228D01*
X113449000Y-31833816D01*
X113449000Y-31666184D01*
X113481703Y-31501772D01*
X113545853Y-31346900D01*
X113638985Y-31207519D01*
X113757519Y-31088985D01*
X113896900Y-30995853D01*
X114051772Y-30931703D01*
X114216184Y-30899000D01*
X114383816Y-30899000D01*
X114548228Y-30931703D01*
X114548228Y-30931703D01*
G37*
G36*
X117088228Y-30931703D02*
G01*
X117243100Y-30995853D01*
X117382481Y-31088985D01*
X117501015Y-31207519D01*
X117594147Y-31346900D01*
X117658297Y-31501772D01*
X117691000Y-31666184D01*
X117691000Y-31833816D01*
X117658297Y-31998228D01*
X117594147Y-32153100D01*
X117501015Y-32292481D01*
X117382481Y-32411015D01*
X117243100Y-32504147D01*
X117088228Y-32568297D01*
X116923816Y-32601000D01*
X116756184Y-32601000D01*
X116591772Y-32568297D01*
X116436900Y-32504147D01*
X116297519Y-32411015D01*
X116178985Y-32292481D01*
X116085853Y-32153100D01*
X116021703Y-31998228D01*
X115989000Y-31833816D01*
X115989000Y-31666184D01*
X116021703Y-31501772D01*
X116085853Y-31346900D01*
X116178985Y-31207519D01*
X116297519Y-31088985D01*
X116436900Y-30995853D01*
X116591772Y-30931703D01*
X116756184Y-30899000D01*
X116923816Y-30899000D01*
X117088228Y-30931703D01*
X117088228Y-30931703D01*
G37*
G36*
X106928228Y-30931703D02*
G01*
X107083100Y-30995853D01*
X107222481Y-31088985D01*
X107341015Y-31207519D01*
X107434147Y-31346900D01*
X107498297Y-31501772D01*
X107531000Y-31666184D01*
X107531000Y-31833816D01*
X107498297Y-31998228D01*
X107434147Y-32153100D01*
X107341015Y-32292481D01*
X107222481Y-32411015D01*
X107083100Y-32504147D01*
X106928228Y-32568297D01*
X106763816Y-32601000D01*
X106596184Y-32601000D01*
X106431772Y-32568297D01*
X106276900Y-32504147D01*
X106137519Y-32411015D01*
X106018985Y-32292481D01*
X105925853Y-32153100D01*
X105861703Y-31998228D01*
X105829000Y-31833816D01*
X105829000Y-31666184D01*
X105861703Y-31501772D01*
X105925853Y-31346900D01*
X106018985Y-31207519D01*
X106137519Y-31088985D01*
X106276900Y-30995853D01*
X106431772Y-30931703D01*
X106596184Y-30899000D01*
X106763816Y-30899000D01*
X106928228Y-30931703D01*
X106928228Y-30931703D01*
G37*
G36*
X119628228Y-30931703D02*
G01*
X119783100Y-30995853D01*
X119922481Y-31088985D01*
X120041015Y-31207519D01*
X120134147Y-31346900D01*
X120198297Y-31501772D01*
X120231000Y-31666184D01*
X120231000Y-31833816D01*
X120198297Y-31998228D01*
X120134147Y-32153100D01*
X120041015Y-32292481D01*
X119922481Y-32411015D01*
X119783100Y-32504147D01*
X119628228Y-32568297D01*
X119463816Y-32601000D01*
X119296184Y-32601000D01*
X119131772Y-32568297D01*
X118976900Y-32504147D01*
X118837519Y-32411015D01*
X118718985Y-32292481D01*
X118625853Y-32153100D01*
X118561703Y-31998228D01*
X118529000Y-31833816D01*
X118529000Y-31666184D01*
X118561703Y-31501772D01*
X118625853Y-31346900D01*
X118718985Y-31207519D01*
X118837519Y-31088985D01*
X118976900Y-30995853D01*
X119131772Y-30931703D01*
X119296184Y-30899000D01*
X119463816Y-30899000D01*
X119628228Y-30931703D01*
X119628228Y-30931703D01*
G37*
G36*
X71971000Y-32601000D02*
G01*
X70269000Y-32601000D01*
X70269000Y-30899000D01*
X71971000Y-30899000D01*
X71971000Y-32601000D01*
X71971000Y-32601000D01*
G37*
G36*
X73908228Y-30931703D02*
G01*
X74063100Y-30995853D01*
X74202481Y-31088985D01*
X74321015Y-31207519D01*
X74414147Y-31346900D01*
X74478297Y-31501772D01*
X74511000Y-31666184D01*
X74511000Y-31833816D01*
X74478297Y-31998228D01*
X74414147Y-32153100D01*
X74321015Y-32292481D01*
X74202481Y-32411015D01*
X74063100Y-32504147D01*
X73908228Y-32568297D01*
X73743816Y-32601000D01*
X73576184Y-32601000D01*
X73411772Y-32568297D01*
X73256900Y-32504147D01*
X73117519Y-32411015D01*
X72998985Y-32292481D01*
X72905853Y-32153100D01*
X72841703Y-31998228D01*
X72809000Y-31833816D01*
X72809000Y-31666184D01*
X72841703Y-31501772D01*
X72905853Y-31346900D01*
X72998985Y-31207519D01*
X73117519Y-31088985D01*
X73256900Y-30995853D01*
X73411772Y-30931703D01*
X73576184Y-30899000D01*
X73743816Y-30899000D01*
X73908228Y-30931703D01*
X73908228Y-30931703D01*
G37*
G36*
X76448228Y-30931703D02*
G01*
X76603100Y-30995853D01*
X76742481Y-31088985D01*
X76861015Y-31207519D01*
X76954147Y-31346900D01*
X77018297Y-31501772D01*
X77051000Y-31666184D01*
X77051000Y-31833816D01*
X77018297Y-31998228D01*
X76954147Y-32153100D01*
X76861015Y-32292481D01*
X76742481Y-32411015D01*
X76603100Y-32504147D01*
X76448228Y-32568297D01*
X76283816Y-32601000D01*
X76116184Y-32601000D01*
X75951772Y-32568297D01*
X75796900Y-32504147D01*
X75657519Y-32411015D01*
X75538985Y-32292481D01*
X75445853Y-32153100D01*
X75381703Y-31998228D01*
X75349000Y-31833816D01*
X75349000Y-31666184D01*
X75381703Y-31501772D01*
X75445853Y-31346900D01*
X75538985Y-31207519D01*
X75657519Y-31088985D01*
X75796900Y-30995853D01*
X75951772Y-30931703D01*
X76116184Y-30899000D01*
X76283816Y-30899000D01*
X76448228Y-30931703D01*
X76448228Y-30931703D01*
G37*
G36*
X78988228Y-30931703D02*
G01*
X79143100Y-30995853D01*
X79282481Y-31088985D01*
X79401015Y-31207519D01*
X79494147Y-31346900D01*
X79558297Y-31501772D01*
X79591000Y-31666184D01*
X79591000Y-31833816D01*
X79558297Y-31998228D01*
X79494147Y-32153100D01*
X79401015Y-32292481D01*
X79282481Y-32411015D01*
X79143100Y-32504147D01*
X78988228Y-32568297D01*
X78823816Y-32601000D01*
X78656184Y-32601000D01*
X78491772Y-32568297D01*
X78336900Y-32504147D01*
X78197519Y-32411015D01*
X78078985Y-32292481D01*
X77985853Y-32153100D01*
X77921703Y-31998228D01*
X77889000Y-31833816D01*
X77889000Y-31666184D01*
X77921703Y-31501772D01*
X77985853Y-31346900D01*
X78078985Y-31207519D01*
X78197519Y-31088985D01*
X78336900Y-30995853D01*
X78491772Y-30931703D01*
X78656184Y-30899000D01*
X78823816Y-30899000D01*
X78988228Y-30931703D01*
X78988228Y-30931703D01*
G37*
G36*
X81528228Y-30931703D02*
G01*
X81683100Y-30995853D01*
X81822481Y-31088985D01*
X81941015Y-31207519D01*
X82034147Y-31346900D01*
X82098297Y-31501772D01*
X82131000Y-31666184D01*
X82131000Y-31833816D01*
X82098297Y-31998228D01*
X82034147Y-32153100D01*
X81941015Y-32292481D01*
X81822481Y-32411015D01*
X81683100Y-32504147D01*
X81528228Y-32568297D01*
X81363816Y-32601000D01*
X81196184Y-32601000D01*
X81031772Y-32568297D01*
X80876900Y-32504147D01*
X80737519Y-32411015D01*
X80618985Y-32292481D01*
X80525853Y-32153100D01*
X80461703Y-31998228D01*
X80429000Y-31833816D01*
X80429000Y-31666184D01*
X80461703Y-31501772D01*
X80525853Y-31346900D01*
X80618985Y-31207519D01*
X80737519Y-31088985D01*
X80876900Y-30995853D01*
X81031772Y-30931703D01*
X81196184Y-30899000D01*
X81363816Y-30899000D01*
X81528228Y-30931703D01*
X81528228Y-30931703D01*
G37*
G36*
X84068228Y-30931703D02*
G01*
X84223100Y-30995853D01*
X84362481Y-31088985D01*
X84481015Y-31207519D01*
X84574147Y-31346900D01*
X84638297Y-31501772D01*
X84671000Y-31666184D01*
X84671000Y-31833816D01*
X84638297Y-31998228D01*
X84574147Y-32153100D01*
X84481015Y-32292481D01*
X84362481Y-32411015D01*
X84223100Y-32504147D01*
X84068228Y-32568297D01*
X83903816Y-32601000D01*
X83736184Y-32601000D01*
X83571772Y-32568297D01*
X83416900Y-32504147D01*
X83277519Y-32411015D01*
X83158985Y-32292481D01*
X83065853Y-32153100D01*
X83001703Y-31998228D01*
X82969000Y-31833816D01*
X82969000Y-31666184D01*
X83001703Y-31501772D01*
X83065853Y-31346900D01*
X83158985Y-31207519D01*
X83277519Y-31088985D01*
X83416900Y-30995853D01*
X83571772Y-30931703D01*
X83736184Y-30899000D01*
X83903816Y-30899000D01*
X84068228Y-30931703D01*
X84068228Y-30931703D01*
G37*
G36*
X122168228Y-30931703D02*
G01*
X122323100Y-30995853D01*
X122462481Y-31088985D01*
X122581015Y-31207519D01*
X122674147Y-31346900D01*
X122738297Y-31501772D01*
X122771000Y-31666184D01*
X122771000Y-31833816D01*
X122738297Y-31998228D01*
X122674147Y-32153100D01*
X122581015Y-32292481D01*
X122462481Y-32411015D01*
X122323100Y-32504147D01*
X122168228Y-32568297D01*
X122003816Y-32601000D01*
X121836184Y-32601000D01*
X121671772Y-32568297D01*
X121516900Y-32504147D01*
X121377519Y-32411015D01*
X121258985Y-32292481D01*
X121165853Y-32153100D01*
X121101703Y-31998228D01*
X121069000Y-31833816D01*
X121069000Y-31666184D01*
X121101703Y-31501772D01*
X121165853Y-31346900D01*
X121258985Y-31207519D01*
X121377519Y-31088985D01*
X121516900Y-30995853D01*
X121671772Y-30931703D01*
X121836184Y-30899000D01*
X122003816Y-30899000D01*
X122168228Y-30931703D01*
X122168228Y-30931703D01*
G37*
G36*
X124708228Y-30931703D02*
G01*
X124863100Y-30995853D01*
X125002481Y-31088985D01*
X125121015Y-31207519D01*
X125214147Y-31346900D01*
X125278297Y-31501772D01*
X125311000Y-31666184D01*
X125311000Y-31833816D01*
X125278297Y-31998228D01*
X125214147Y-32153100D01*
X125121015Y-32292481D01*
X125002481Y-32411015D01*
X124863100Y-32504147D01*
X124708228Y-32568297D01*
X124543816Y-32601000D01*
X124376184Y-32601000D01*
X124211772Y-32568297D01*
X124056900Y-32504147D01*
X123917519Y-32411015D01*
X123798985Y-32292481D01*
X123705853Y-32153100D01*
X123641703Y-31998228D01*
X123609000Y-31833816D01*
X123609000Y-31666184D01*
X123641703Y-31501772D01*
X123705853Y-31346900D01*
X123798985Y-31207519D01*
X123917519Y-31088985D01*
X124056900Y-30995853D01*
X124211772Y-30931703D01*
X124376184Y-30899000D01*
X124543816Y-30899000D01*
X124708228Y-30931703D01*
X124708228Y-30931703D01*
G37*
G36*
X104388228Y-30931703D02*
G01*
X104543100Y-30995853D01*
X104682481Y-31088985D01*
X104801015Y-31207519D01*
X104894147Y-31346900D01*
X104958297Y-31501772D01*
X104991000Y-31666184D01*
X104991000Y-31833816D01*
X104958297Y-31998228D01*
X104894147Y-32153100D01*
X104801015Y-32292481D01*
X104682481Y-32411015D01*
X104543100Y-32504147D01*
X104388228Y-32568297D01*
X104223816Y-32601000D01*
X104056184Y-32601000D01*
X103891772Y-32568297D01*
X103736900Y-32504147D01*
X103597519Y-32411015D01*
X103478985Y-32292481D01*
X103385853Y-32153100D01*
X103321703Y-31998228D01*
X103289000Y-31833816D01*
X103289000Y-31666184D01*
X103321703Y-31501772D01*
X103385853Y-31346900D01*
X103478985Y-31207519D01*
X103597519Y-31088985D01*
X103736900Y-30995853D01*
X103891772Y-30931703D01*
X104056184Y-30899000D01*
X104223816Y-30899000D01*
X104388228Y-30931703D01*
X104388228Y-30931703D01*
G37*
G36*
X127248228Y-30931703D02*
G01*
X127403100Y-30995853D01*
X127542481Y-31088985D01*
X127661015Y-31207519D01*
X127754147Y-31346900D01*
X127818297Y-31501772D01*
X127851000Y-31666184D01*
X127851000Y-31833816D01*
X127818297Y-31998228D01*
X127754147Y-32153100D01*
X127661015Y-32292481D01*
X127542481Y-32411015D01*
X127403100Y-32504147D01*
X127248228Y-32568297D01*
X127083816Y-32601000D01*
X126916184Y-32601000D01*
X126751772Y-32568297D01*
X126596900Y-32504147D01*
X126457519Y-32411015D01*
X126338985Y-32292481D01*
X126245853Y-32153100D01*
X126181703Y-31998228D01*
X126149000Y-31833816D01*
X126149000Y-31666184D01*
X126181703Y-31501772D01*
X126245853Y-31346900D01*
X126338985Y-31207519D01*
X126457519Y-31088985D01*
X126596900Y-30995853D01*
X126751772Y-30931703D01*
X126916184Y-30899000D01*
X127083816Y-30899000D01*
X127248228Y-30931703D01*
X127248228Y-30931703D01*
G37*
G36*
X129788228Y-30931703D02*
G01*
X129943100Y-30995853D01*
X130082481Y-31088985D01*
X130201015Y-31207519D01*
X130294147Y-31346900D01*
X130358297Y-31501772D01*
X130391000Y-31666184D01*
X130391000Y-31833816D01*
X130358297Y-31998228D01*
X130294147Y-32153100D01*
X130201015Y-32292481D01*
X130082481Y-32411015D01*
X129943100Y-32504147D01*
X129788228Y-32568297D01*
X129623816Y-32601000D01*
X129456184Y-32601000D01*
X129291772Y-32568297D01*
X129136900Y-32504147D01*
X128997519Y-32411015D01*
X128878985Y-32292481D01*
X128785853Y-32153100D01*
X128721703Y-31998228D01*
X128689000Y-31833816D01*
X128689000Y-31666184D01*
X128721703Y-31501772D01*
X128785853Y-31346900D01*
X128878985Y-31207519D01*
X128997519Y-31088985D01*
X129136900Y-30995853D01*
X129291772Y-30931703D01*
X129456184Y-30899000D01*
X129623816Y-30899000D01*
X129788228Y-30931703D01*
X129788228Y-30931703D01*
G37*
G36*
X101848228Y-30931703D02*
G01*
X102003100Y-30995853D01*
X102142481Y-31088985D01*
X102261015Y-31207519D01*
X102354147Y-31346900D01*
X102418297Y-31501772D01*
X102451000Y-31666184D01*
X102451000Y-31833816D01*
X102418297Y-31998228D01*
X102354147Y-32153100D01*
X102261015Y-32292481D01*
X102142481Y-32411015D01*
X102003100Y-32504147D01*
X101848228Y-32568297D01*
X101683816Y-32601000D01*
X101516184Y-32601000D01*
X101351772Y-32568297D01*
X101196900Y-32504147D01*
X101057519Y-32411015D01*
X100938985Y-32292481D01*
X100845853Y-32153100D01*
X100781703Y-31998228D01*
X100749000Y-31833816D01*
X100749000Y-31666184D01*
X100781703Y-31501772D01*
X100845853Y-31346900D01*
X100938985Y-31207519D01*
X101057519Y-31088985D01*
X101196900Y-30995853D01*
X101351772Y-30931703D01*
X101516184Y-30899000D01*
X101683816Y-30899000D01*
X101848228Y-30931703D01*
X101848228Y-30931703D01*
G37*
G36*
X99308228Y-30931703D02*
G01*
X99463100Y-30995853D01*
X99602481Y-31088985D01*
X99721015Y-31207519D01*
X99814147Y-31346900D01*
X99878297Y-31501772D01*
X99911000Y-31666184D01*
X99911000Y-31833816D01*
X99878297Y-31998228D01*
X99814147Y-32153100D01*
X99721015Y-32292481D01*
X99602481Y-32411015D01*
X99463100Y-32504147D01*
X99308228Y-32568297D01*
X99143816Y-32601000D01*
X98976184Y-32601000D01*
X98811772Y-32568297D01*
X98656900Y-32504147D01*
X98517519Y-32411015D01*
X98398985Y-32292481D01*
X98305853Y-32153100D01*
X98241703Y-31998228D01*
X98209000Y-31833816D01*
X98209000Y-31666184D01*
X98241703Y-31501772D01*
X98305853Y-31346900D01*
X98398985Y-31207519D01*
X98517519Y-31088985D01*
X98656900Y-30995853D01*
X98811772Y-30931703D01*
X98976184Y-30899000D01*
X99143816Y-30899000D01*
X99308228Y-30931703D01*
X99308228Y-30931703D01*
G37*
G36*
X96768228Y-30931703D02*
G01*
X96923100Y-30995853D01*
X97062481Y-31088985D01*
X97181015Y-31207519D01*
X97274147Y-31346900D01*
X97338297Y-31501772D01*
X97371000Y-31666184D01*
X97371000Y-31833816D01*
X97338297Y-31998228D01*
X97274147Y-32153100D01*
X97181015Y-32292481D01*
X97062481Y-32411015D01*
X96923100Y-32504147D01*
X96768228Y-32568297D01*
X96603816Y-32601000D01*
X96436184Y-32601000D01*
X96271772Y-32568297D01*
X96116900Y-32504147D01*
X95977519Y-32411015D01*
X95858985Y-32292481D01*
X95765853Y-32153100D01*
X95701703Y-31998228D01*
X95669000Y-31833816D01*
X95669000Y-31666184D01*
X95701703Y-31501772D01*
X95765853Y-31346900D01*
X95858985Y-31207519D01*
X95977519Y-31088985D01*
X96116900Y-30995853D01*
X96271772Y-30931703D01*
X96436184Y-30899000D01*
X96603816Y-30899000D01*
X96768228Y-30931703D01*
X96768228Y-30931703D01*
G37*
G36*
X94228228Y-30931703D02*
G01*
X94383100Y-30995853D01*
X94522481Y-31088985D01*
X94641015Y-31207519D01*
X94734147Y-31346900D01*
X94798297Y-31501772D01*
X94831000Y-31666184D01*
X94831000Y-31833816D01*
X94798297Y-31998228D01*
X94734147Y-32153100D01*
X94641015Y-32292481D01*
X94522481Y-32411015D01*
X94383100Y-32504147D01*
X94228228Y-32568297D01*
X94063816Y-32601000D01*
X93896184Y-32601000D01*
X93731772Y-32568297D01*
X93576900Y-32504147D01*
X93437519Y-32411015D01*
X93318985Y-32292481D01*
X93225853Y-32153100D01*
X93161703Y-31998228D01*
X93129000Y-31833816D01*
X93129000Y-31666184D01*
X93161703Y-31501772D01*
X93225853Y-31346900D01*
X93318985Y-31207519D01*
X93437519Y-31088985D01*
X93576900Y-30995853D01*
X93731772Y-30931703D01*
X93896184Y-30899000D01*
X94063816Y-30899000D01*
X94228228Y-30931703D01*
X94228228Y-30931703D01*
G37*
G36*
X91688228Y-30931703D02*
G01*
X91843100Y-30995853D01*
X91982481Y-31088985D01*
X92101015Y-31207519D01*
X92194147Y-31346900D01*
X92258297Y-31501772D01*
X92291000Y-31666184D01*
X92291000Y-31833816D01*
X92258297Y-31998228D01*
X92194147Y-32153100D01*
X92101015Y-32292481D01*
X91982481Y-32411015D01*
X91843100Y-32504147D01*
X91688228Y-32568297D01*
X91523816Y-32601000D01*
X91356184Y-32601000D01*
X91191772Y-32568297D01*
X91036900Y-32504147D01*
X90897519Y-32411015D01*
X90778985Y-32292481D01*
X90685853Y-32153100D01*
X90621703Y-31998228D01*
X90589000Y-31833816D01*
X90589000Y-31666184D01*
X90621703Y-31501772D01*
X90685853Y-31346900D01*
X90778985Y-31207519D01*
X90897519Y-31088985D01*
X91036900Y-30995853D01*
X91191772Y-30931703D01*
X91356184Y-30899000D01*
X91523816Y-30899000D01*
X91688228Y-30931703D01*
X91688228Y-30931703D01*
G37*
G36*
X89148228Y-30931703D02*
G01*
X89303100Y-30995853D01*
X89442481Y-31088985D01*
X89561015Y-31207519D01*
X89654147Y-31346900D01*
X89718297Y-31501772D01*
X89751000Y-31666184D01*
X89751000Y-31833816D01*
X89718297Y-31998228D01*
X89654147Y-32153100D01*
X89561015Y-32292481D01*
X89442481Y-32411015D01*
X89303100Y-32504147D01*
X89148228Y-32568297D01*
X88983816Y-32601000D01*
X88816184Y-32601000D01*
X88651772Y-32568297D01*
X88496900Y-32504147D01*
X88357519Y-32411015D01*
X88238985Y-32292481D01*
X88145853Y-32153100D01*
X88081703Y-31998228D01*
X88049000Y-31833816D01*
X88049000Y-31666184D01*
X88081703Y-31501772D01*
X88145853Y-31346900D01*
X88238985Y-31207519D01*
X88357519Y-31088985D01*
X88496900Y-30995853D01*
X88651772Y-30931703D01*
X88816184Y-30899000D01*
X88983816Y-30899000D01*
X89148228Y-30931703D01*
X89148228Y-30931703D01*
G37*
G36*
X86608228Y-30931703D02*
G01*
X86763100Y-30995853D01*
X86902481Y-31088985D01*
X87021015Y-31207519D01*
X87114147Y-31346900D01*
X87178297Y-31501772D01*
X87211000Y-31666184D01*
X87211000Y-31833816D01*
X87178297Y-31998228D01*
X87114147Y-32153100D01*
X87021015Y-32292481D01*
X86902481Y-32411015D01*
X86763100Y-32504147D01*
X86608228Y-32568297D01*
X86443816Y-32601000D01*
X86276184Y-32601000D01*
X86111772Y-32568297D01*
X85956900Y-32504147D01*
X85817519Y-32411015D01*
X85698985Y-32292481D01*
X85605853Y-32153100D01*
X85541703Y-31998228D01*
X85509000Y-31833816D01*
X85509000Y-31666184D01*
X85541703Y-31501772D01*
X85605853Y-31346900D01*
X85698985Y-31207519D01*
X85817519Y-31088985D01*
X85956900Y-30995853D01*
X86111772Y-30931703D01*
X86276184Y-30899000D01*
X86443816Y-30899000D01*
X86608228Y-30931703D01*
X86608228Y-30931703D01*
G37*
G36*
X117088228Y-28391703D02*
G01*
X117243100Y-28455853D01*
X117382481Y-28548985D01*
X117501015Y-28667519D01*
X117594147Y-28806900D01*
X117658297Y-28961772D01*
X117691000Y-29126184D01*
X117691000Y-29293816D01*
X117658297Y-29458228D01*
X117594147Y-29613100D01*
X117501015Y-29752481D01*
X117382481Y-29871015D01*
X117243100Y-29964147D01*
X117088228Y-30028297D01*
X116923816Y-30061000D01*
X116756184Y-30061000D01*
X116591772Y-30028297D01*
X116436900Y-29964147D01*
X116297519Y-29871015D01*
X116178985Y-29752481D01*
X116085853Y-29613100D01*
X116021703Y-29458228D01*
X115989000Y-29293816D01*
X115989000Y-29126184D01*
X116021703Y-28961772D01*
X116085853Y-28806900D01*
X116178985Y-28667519D01*
X116297519Y-28548985D01*
X116436900Y-28455853D01*
X116591772Y-28391703D01*
X116756184Y-28359000D01*
X116923816Y-28359000D01*
X117088228Y-28391703D01*
X117088228Y-28391703D01*
G37*
G36*
X85338228Y-27931703D02*
G01*
X85493100Y-27995853D01*
X85632481Y-28088985D01*
X85751015Y-28207519D01*
X85844147Y-28346900D01*
X85908297Y-28501772D01*
X85941000Y-28666184D01*
X85941000Y-28833816D01*
X85908297Y-28998228D01*
X85844147Y-29153100D01*
X85751015Y-29292481D01*
X85632481Y-29411015D01*
X85493100Y-29504147D01*
X85338228Y-29568297D01*
X85173816Y-29601000D01*
X85006184Y-29601000D01*
X84841772Y-29568297D01*
X84686900Y-29504147D01*
X84547519Y-29411015D01*
X84428985Y-29292481D01*
X84335853Y-29153100D01*
X84271703Y-28998228D01*
X84239000Y-28833816D01*
X84239000Y-28666184D01*
X84271703Y-28501772D01*
X84335853Y-28346900D01*
X84428985Y-28207519D01*
X84547519Y-28088985D01*
X84686900Y-27995853D01*
X84841772Y-27931703D01*
X85006184Y-27899000D01*
X85173816Y-27899000D01*
X85338228Y-27931703D01*
X85338228Y-27931703D01*
G37*
G36*
X82798228Y-27931703D02*
G01*
X82953100Y-27995853D01*
X83092481Y-28088985D01*
X83211015Y-28207519D01*
X83304147Y-28346900D01*
X83368297Y-28501772D01*
X83401000Y-28666184D01*
X83401000Y-28833816D01*
X83368297Y-28998228D01*
X83304147Y-29153100D01*
X83211015Y-29292481D01*
X83092481Y-29411015D01*
X82953100Y-29504147D01*
X82798228Y-29568297D01*
X82633816Y-29601000D01*
X82466184Y-29601000D01*
X82301772Y-29568297D01*
X82146900Y-29504147D01*
X82007519Y-29411015D01*
X81888985Y-29292481D01*
X81795853Y-29153100D01*
X81731703Y-28998228D01*
X81699000Y-28833816D01*
X81699000Y-28666184D01*
X81731703Y-28501772D01*
X81795853Y-28346900D01*
X81888985Y-28207519D01*
X82007519Y-28088985D01*
X82146900Y-27995853D01*
X82301772Y-27931703D01*
X82466184Y-27899000D01*
X82633816Y-27899000D01*
X82798228Y-27931703D01*
X82798228Y-27931703D01*
G37*
G36*
X87878228Y-27931703D02*
G01*
X88033100Y-27995853D01*
X88172481Y-28088985D01*
X88291015Y-28207519D01*
X88384147Y-28346900D01*
X88448297Y-28501772D01*
X88481000Y-28666184D01*
X88481000Y-28833816D01*
X88448297Y-28998228D01*
X88384147Y-29153100D01*
X88291015Y-29292481D01*
X88172481Y-29411015D01*
X88033100Y-29504147D01*
X87878228Y-29568297D01*
X87713816Y-29601000D01*
X87546184Y-29601000D01*
X87381772Y-29568297D01*
X87226900Y-29504147D01*
X87087519Y-29411015D01*
X86968985Y-29292481D01*
X86875853Y-29153100D01*
X86811703Y-28998228D01*
X86779000Y-28833816D01*
X86779000Y-28666184D01*
X86811703Y-28501772D01*
X86875853Y-28346900D01*
X86968985Y-28207519D01*
X87087519Y-28088985D01*
X87226900Y-27995853D01*
X87381772Y-27931703D01*
X87546184Y-27899000D01*
X87713816Y-27899000D01*
X87878228Y-27931703D01*
X87878228Y-27931703D01*
G37*
G36*
X80258228Y-27931703D02*
G01*
X80413100Y-27995853D01*
X80552481Y-28088985D01*
X80671015Y-28207519D01*
X80764147Y-28346900D01*
X80828297Y-28501772D01*
X80861000Y-28666184D01*
X80861000Y-28833816D01*
X80828297Y-28998228D01*
X80764147Y-29153100D01*
X80671015Y-29292481D01*
X80552481Y-29411015D01*
X80413100Y-29504147D01*
X80258228Y-29568297D01*
X80093816Y-29601000D01*
X79926184Y-29601000D01*
X79761772Y-29568297D01*
X79606900Y-29504147D01*
X79467519Y-29411015D01*
X79348985Y-29292481D01*
X79255853Y-29153100D01*
X79191703Y-28998228D01*
X79159000Y-28833816D01*
X79159000Y-28666184D01*
X79191703Y-28501772D01*
X79255853Y-28346900D01*
X79348985Y-28207519D01*
X79467519Y-28088985D01*
X79606900Y-27995853D01*
X79761772Y-27931703D01*
X79926184Y-27899000D01*
X80093816Y-27899000D01*
X80258228Y-27931703D01*
X80258228Y-27931703D01*
G37*
G36*
X77718228Y-27931703D02*
G01*
X77873100Y-27995853D01*
X78012481Y-28088985D01*
X78131015Y-28207519D01*
X78224147Y-28346900D01*
X78288297Y-28501772D01*
X78321000Y-28666184D01*
X78321000Y-28833816D01*
X78288297Y-28998228D01*
X78224147Y-29153100D01*
X78131015Y-29292481D01*
X78012481Y-29411015D01*
X77873100Y-29504147D01*
X77718228Y-29568297D01*
X77553816Y-29601000D01*
X77386184Y-29601000D01*
X77221772Y-29568297D01*
X77066900Y-29504147D01*
X76927519Y-29411015D01*
X76808985Y-29292481D01*
X76715853Y-29153100D01*
X76651703Y-28998228D01*
X76619000Y-28833816D01*
X76619000Y-28666184D01*
X76651703Y-28501772D01*
X76715853Y-28346900D01*
X76808985Y-28207519D01*
X76927519Y-28088985D01*
X77066900Y-27995853D01*
X77221772Y-27931703D01*
X77386184Y-27899000D01*
X77553816Y-27899000D01*
X77718228Y-27931703D01*
X77718228Y-27931703D01*
G37*
G36*
X117088228Y-25851703D02*
G01*
X117243100Y-25915853D01*
X117382481Y-26008985D01*
X117501015Y-26127519D01*
X117594147Y-26266900D01*
X117658297Y-26421772D01*
X117691000Y-26586184D01*
X117691000Y-26753816D01*
X117658297Y-26918228D01*
X117594147Y-27073100D01*
X117501015Y-27212481D01*
X117382481Y-27331015D01*
X117243100Y-27424147D01*
X117088228Y-27488297D01*
X116923816Y-27521000D01*
X116756184Y-27521000D01*
X116591772Y-27488297D01*
X116436900Y-27424147D01*
X116297519Y-27331015D01*
X116178985Y-27212481D01*
X116085853Y-27073100D01*
X116021703Y-26918228D01*
X115989000Y-26753816D01*
X115989000Y-26586184D01*
X116021703Y-26421772D01*
X116085853Y-26266900D01*
X116178985Y-26127519D01*
X116297519Y-26008985D01*
X116436900Y-25915853D01*
X116591772Y-25851703D01*
X116756184Y-25819000D01*
X116923816Y-25819000D01*
X117088228Y-25851703D01*
X117088228Y-25851703D01*
G37*
G36*
X91688228Y-23311703D02*
G01*
X91843100Y-23375853D01*
X91982481Y-23468985D01*
X92101015Y-23587519D01*
X92194147Y-23726900D01*
X92258297Y-23881772D01*
X92291000Y-24046184D01*
X92291000Y-24213816D01*
X92258297Y-24378228D01*
X92194147Y-24533100D01*
X92101015Y-24672481D01*
X91982481Y-24791015D01*
X91843100Y-24884147D01*
X91688228Y-24948297D01*
X91523816Y-24981000D01*
X91356184Y-24981000D01*
X91191772Y-24948297D01*
X91036900Y-24884147D01*
X90897519Y-24791015D01*
X90778985Y-24672481D01*
X90685853Y-24533100D01*
X90621703Y-24378228D01*
X90589000Y-24213816D01*
X90589000Y-24046184D01*
X90621703Y-23881772D01*
X90685853Y-23726900D01*
X90778985Y-23587519D01*
X90897519Y-23468985D01*
X91036900Y-23375853D01*
X91191772Y-23311703D01*
X91356184Y-23279000D01*
X91523816Y-23279000D01*
X91688228Y-23311703D01*
X91688228Y-23311703D01*
G37*
G36*
X129788228Y-23311703D02*
G01*
X129943100Y-23375853D01*
X130082481Y-23468985D01*
X130201015Y-23587519D01*
X130294147Y-23726900D01*
X130358297Y-23881772D01*
X130391000Y-24046184D01*
X130391000Y-24213816D01*
X130358297Y-24378228D01*
X130294147Y-24533100D01*
X130201015Y-24672481D01*
X130082481Y-24791015D01*
X129943100Y-24884147D01*
X129788228Y-24948297D01*
X129623816Y-24981000D01*
X129456184Y-24981000D01*
X129291772Y-24948297D01*
X129136900Y-24884147D01*
X128997519Y-24791015D01*
X128878985Y-24672481D01*
X128785853Y-24533100D01*
X128721703Y-24378228D01*
X128689000Y-24213816D01*
X128689000Y-24046184D01*
X128721703Y-23881772D01*
X128785853Y-23726900D01*
X128878985Y-23587519D01*
X128997519Y-23468985D01*
X129136900Y-23375853D01*
X129291772Y-23311703D01*
X129456184Y-23279000D01*
X129623816Y-23279000D01*
X129788228Y-23311703D01*
X129788228Y-23311703D01*
G37*
G36*
X117088228Y-23311703D02*
G01*
X117243100Y-23375853D01*
X117382481Y-23468985D01*
X117501015Y-23587519D01*
X117594147Y-23726900D01*
X117658297Y-23881772D01*
X117691000Y-24046184D01*
X117691000Y-24213816D01*
X117658297Y-24378228D01*
X117594147Y-24533100D01*
X117501015Y-24672481D01*
X117382481Y-24791015D01*
X117243100Y-24884147D01*
X117088228Y-24948297D01*
X116923816Y-24981000D01*
X116756184Y-24981000D01*
X116591772Y-24948297D01*
X116436900Y-24884147D01*
X116297519Y-24791015D01*
X116178985Y-24672481D01*
X116085853Y-24533100D01*
X116021703Y-24378228D01*
X115989000Y-24213816D01*
X115989000Y-24046184D01*
X116021703Y-23881772D01*
X116085853Y-23726900D01*
X116178985Y-23587519D01*
X116297519Y-23468985D01*
X116436900Y-23375853D01*
X116591772Y-23311703D01*
X116756184Y-23279000D01*
X116923816Y-23279000D01*
X117088228Y-23311703D01*
X117088228Y-23311703D01*
G37*
G36*
X127248228Y-23311703D02*
G01*
X127403100Y-23375853D01*
X127542481Y-23468985D01*
X127661015Y-23587519D01*
X127754147Y-23726900D01*
X127818297Y-23881772D01*
X127851000Y-24046184D01*
X127851000Y-24213816D01*
X127818297Y-24378228D01*
X127754147Y-24533100D01*
X127661015Y-24672481D01*
X127542481Y-24791015D01*
X127403100Y-24884147D01*
X127248228Y-24948297D01*
X127083816Y-24981000D01*
X126916184Y-24981000D01*
X126751772Y-24948297D01*
X126596900Y-24884147D01*
X126457519Y-24791015D01*
X126338985Y-24672481D01*
X126245853Y-24533100D01*
X126181703Y-24378228D01*
X126149000Y-24213816D01*
X126149000Y-24046184D01*
X126181703Y-23881772D01*
X126245853Y-23726900D01*
X126338985Y-23587519D01*
X126457519Y-23468985D01*
X126596900Y-23375853D01*
X126751772Y-23311703D01*
X126916184Y-23279000D01*
X127083816Y-23279000D01*
X127248228Y-23311703D01*
X127248228Y-23311703D01*
G37*
G36*
X124708228Y-23311703D02*
G01*
X124863100Y-23375853D01*
X125002481Y-23468985D01*
X125121015Y-23587519D01*
X125214147Y-23726900D01*
X125278297Y-23881772D01*
X125311000Y-24046184D01*
X125311000Y-24213816D01*
X125278297Y-24378228D01*
X125214147Y-24533100D01*
X125121015Y-24672481D01*
X125002481Y-24791015D01*
X124863100Y-24884147D01*
X124708228Y-24948297D01*
X124543816Y-24981000D01*
X124376184Y-24981000D01*
X124211772Y-24948297D01*
X124056900Y-24884147D01*
X123917519Y-24791015D01*
X123798985Y-24672481D01*
X123705853Y-24533100D01*
X123641703Y-24378228D01*
X123609000Y-24213816D01*
X123609000Y-24046184D01*
X123641703Y-23881772D01*
X123705853Y-23726900D01*
X123798985Y-23587519D01*
X123917519Y-23468985D01*
X124056900Y-23375853D01*
X124211772Y-23311703D01*
X124376184Y-23279000D01*
X124543816Y-23279000D01*
X124708228Y-23311703D01*
X124708228Y-23311703D01*
G37*
G36*
X122168228Y-23311703D02*
G01*
X122323100Y-23375853D01*
X122462481Y-23468985D01*
X122581015Y-23587519D01*
X122674147Y-23726900D01*
X122738297Y-23881772D01*
X122771000Y-24046184D01*
X122771000Y-24213816D01*
X122738297Y-24378228D01*
X122674147Y-24533100D01*
X122581015Y-24672481D01*
X122462481Y-24791015D01*
X122323100Y-24884147D01*
X122168228Y-24948297D01*
X122003816Y-24981000D01*
X121836184Y-24981000D01*
X121671772Y-24948297D01*
X121516900Y-24884147D01*
X121377519Y-24791015D01*
X121258985Y-24672481D01*
X121165853Y-24533100D01*
X121101703Y-24378228D01*
X121069000Y-24213816D01*
X121069000Y-24046184D01*
X121101703Y-23881772D01*
X121165853Y-23726900D01*
X121258985Y-23587519D01*
X121377519Y-23468985D01*
X121516900Y-23375853D01*
X121671772Y-23311703D01*
X121836184Y-23279000D01*
X122003816Y-23279000D01*
X122168228Y-23311703D01*
X122168228Y-23311703D01*
G37*
G36*
X119628228Y-23311703D02*
G01*
X119783100Y-23375853D01*
X119922481Y-23468985D01*
X120041015Y-23587519D01*
X120134147Y-23726900D01*
X120198297Y-23881772D01*
X120231000Y-24046184D01*
X120231000Y-24213816D01*
X120198297Y-24378228D01*
X120134147Y-24533100D01*
X120041015Y-24672481D01*
X119922481Y-24791015D01*
X119783100Y-24884147D01*
X119628228Y-24948297D01*
X119463816Y-24981000D01*
X119296184Y-24981000D01*
X119131772Y-24948297D01*
X118976900Y-24884147D01*
X118837519Y-24791015D01*
X118718985Y-24672481D01*
X118625853Y-24533100D01*
X118561703Y-24378228D01*
X118529000Y-24213816D01*
X118529000Y-24046184D01*
X118561703Y-23881772D01*
X118625853Y-23726900D01*
X118718985Y-23587519D01*
X118837519Y-23468985D01*
X118976900Y-23375853D01*
X119131772Y-23311703D01*
X119296184Y-23279000D01*
X119463816Y-23279000D01*
X119628228Y-23311703D01*
X119628228Y-23311703D01*
G37*
G36*
X114548228Y-23311703D02*
G01*
X114703100Y-23375853D01*
X114842481Y-23468985D01*
X114961015Y-23587519D01*
X115054147Y-23726900D01*
X115118297Y-23881772D01*
X115151000Y-24046184D01*
X115151000Y-24213816D01*
X115118297Y-24378228D01*
X115054147Y-24533100D01*
X114961015Y-24672481D01*
X114842481Y-24791015D01*
X114703100Y-24884147D01*
X114548228Y-24948297D01*
X114383816Y-24981000D01*
X114216184Y-24981000D01*
X114051772Y-24948297D01*
X113896900Y-24884147D01*
X113757519Y-24791015D01*
X113638985Y-24672481D01*
X113545853Y-24533100D01*
X113481703Y-24378228D01*
X113449000Y-24213816D01*
X113449000Y-24046184D01*
X113481703Y-23881772D01*
X113545853Y-23726900D01*
X113638985Y-23587519D01*
X113757519Y-23468985D01*
X113896900Y-23375853D01*
X114051772Y-23311703D01*
X114216184Y-23279000D01*
X114383816Y-23279000D01*
X114548228Y-23311703D01*
X114548228Y-23311703D01*
G37*
G36*
X112008228Y-23311703D02*
G01*
X112163100Y-23375853D01*
X112302481Y-23468985D01*
X112421015Y-23587519D01*
X112514147Y-23726900D01*
X112578297Y-23881772D01*
X112611000Y-24046184D01*
X112611000Y-24213816D01*
X112578297Y-24378228D01*
X112514147Y-24533100D01*
X112421015Y-24672481D01*
X112302481Y-24791015D01*
X112163100Y-24884147D01*
X112008228Y-24948297D01*
X111843816Y-24981000D01*
X111676184Y-24981000D01*
X111511772Y-24948297D01*
X111356900Y-24884147D01*
X111217519Y-24791015D01*
X111098985Y-24672481D01*
X111005853Y-24533100D01*
X110941703Y-24378228D01*
X110909000Y-24213816D01*
X110909000Y-24046184D01*
X110941703Y-23881772D01*
X111005853Y-23726900D01*
X111098985Y-23587519D01*
X111217519Y-23468985D01*
X111356900Y-23375853D01*
X111511772Y-23311703D01*
X111676184Y-23279000D01*
X111843816Y-23279000D01*
X112008228Y-23311703D01*
X112008228Y-23311703D01*
G37*
G36*
X109468228Y-23311703D02*
G01*
X109623100Y-23375853D01*
X109762481Y-23468985D01*
X109881015Y-23587519D01*
X109974147Y-23726900D01*
X110038297Y-23881772D01*
X110071000Y-24046184D01*
X110071000Y-24213816D01*
X110038297Y-24378228D01*
X109974147Y-24533100D01*
X109881015Y-24672481D01*
X109762481Y-24791015D01*
X109623100Y-24884147D01*
X109468228Y-24948297D01*
X109303816Y-24981000D01*
X109136184Y-24981000D01*
X108971772Y-24948297D01*
X108816900Y-24884147D01*
X108677519Y-24791015D01*
X108558985Y-24672481D01*
X108465853Y-24533100D01*
X108401703Y-24378228D01*
X108369000Y-24213816D01*
X108369000Y-24046184D01*
X108401703Y-23881772D01*
X108465853Y-23726900D01*
X108558985Y-23587519D01*
X108677519Y-23468985D01*
X108816900Y-23375853D01*
X108971772Y-23311703D01*
X109136184Y-23279000D01*
X109303816Y-23279000D01*
X109468228Y-23311703D01*
X109468228Y-23311703D01*
G37*
G36*
X86608228Y-23311703D02*
G01*
X86763100Y-23375853D01*
X86902481Y-23468985D01*
X87021015Y-23587519D01*
X87114147Y-23726900D01*
X87178297Y-23881772D01*
X87211000Y-24046184D01*
X87211000Y-24213816D01*
X87178297Y-24378228D01*
X87114147Y-24533100D01*
X87021015Y-24672481D01*
X86902481Y-24791015D01*
X86763100Y-24884147D01*
X86608228Y-24948297D01*
X86443816Y-24981000D01*
X86276184Y-24981000D01*
X86111772Y-24948297D01*
X85956900Y-24884147D01*
X85817519Y-24791015D01*
X85698985Y-24672481D01*
X85605853Y-24533100D01*
X85541703Y-24378228D01*
X85509000Y-24213816D01*
X85509000Y-24046184D01*
X85541703Y-23881772D01*
X85605853Y-23726900D01*
X85698985Y-23587519D01*
X85817519Y-23468985D01*
X85956900Y-23375853D01*
X86111772Y-23311703D01*
X86276184Y-23279000D01*
X86443816Y-23279000D01*
X86608228Y-23311703D01*
X86608228Y-23311703D01*
G37*
G36*
X89148228Y-23311703D02*
G01*
X89303100Y-23375853D01*
X89442481Y-23468985D01*
X89561015Y-23587519D01*
X89654147Y-23726900D01*
X89718297Y-23881772D01*
X89751000Y-24046184D01*
X89751000Y-24213816D01*
X89718297Y-24378228D01*
X89654147Y-24533100D01*
X89561015Y-24672481D01*
X89442481Y-24791015D01*
X89303100Y-24884147D01*
X89148228Y-24948297D01*
X88983816Y-24981000D01*
X88816184Y-24981000D01*
X88651772Y-24948297D01*
X88496900Y-24884147D01*
X88357519Y-24791015D01*
X88238985Y-24672481D01*
X88145853Y-24533100D01*
X88081703Y-24378228D01*
X88049000Y-24213816D01*
X88049000Y-24046184D01*
X88081703Y-23881772D01*
X88145853Y-23726900D01*
X88238985Y-23587519D01*
X88357519Y-23468985D01*
X88496900Y-23375853D01*
X88651772Y-23311703D01*
X88816184Y-23279000D01*
X88983816Y-23279000D01*
X89148228Y-23311703D01*
X89148228Y-23311703D01*
G37*
G36*
X94228228Y-23311703D02*
G01*
X94383100Y-23375853D01*
X94522481Y-23468985D01*
X94641015Y-23587519D01*
X94734147Y-23726900D01*
X94798297Y-23881772D01*
X94831000Y-24046184D01*
X94831000Y-24213816D01*
X94798297Y-24378228D01*
X94734147Y-24533100D01*
X94641015Y-24672481D01*
X94522481Y-24791015D01*
X94383100Y-24884147D01*
X94228228Y-24948297D01*
X94063816Y-24981000D01*
X93896184Y-24981000D01*
X93731772Y-24948297D01*
X93576900Y-24884147D01*
X93437519Y-24791015D01*
X93318985Y-24672481D01*
X93225853Y-24533100D01*
X93161703Y-24378228D01*
X93129000Y-24213816D01*
X93129000Y-24046184D01*
X93161703Y-23881772D01*
X93225853Y-23726900D01*
X93318985Y-23587519D01*
X93437519Y-23468985D01*
X93576900Y-23375853D01*
X93731772Y-23311703D01*
X93896184Y-23279000D01*
X94063816Y-23279000D01*
X94228228Y-23311703D01*
X94228228Y-23311703D01*
G37*
G36*
X122168228Y-20771703D02*
G01*
X122323100Y-20835853D01*
X122462481Y-20928985D01*
X122581015Y-21047519D01*
X122674147Y-21186900D01*
X122738297Y-21341772D01*
X122771000Y-21506184D01*
X122771000Y-21673816D01*
X122738297Y-21838228D01*
X122674147Y-21993100D01*
X122581015Y-22132481D01*
X122462481Y-22251015D01*
X122323100Y-22344147D01*
X122168228Y-22408297D01*
X122003816Y-22441000D01*
X121836184Y-22441000D01*
X121671772Y-22408297D01*
X121516900Y-22344147D01*
X121377519Y-22251015D01*
X121258985Y-22132481D01*
X121165853Y-21993100D01*
X121101703Y-21838228D01*
X121069000Y-21673816D01*
X121069000Y-21506184D01*
X121101703Y-21341772D01*
X121165853Y-21186900D01*
X121258985Y-21047519D01*
X121377519Y-20928985D01*
X121516900Y-20835853D01*
X121671772Y-20771703D01*
X121836184Y-20739000D01*
X122003816Y-20739000D01*
X122168228Y-20771703D01*
X122168228Y-20771703D01*
G37*
G36*
X119628228Y-20771703D02*
G01*
X119783100Y-20835853D01*
X119922481Y-20928985D01*
X120041015Y-21047519D01*
X120134147Y-21186900D01*
X120198297Y-21341772D01*
X120231000Y-21506184D01*
X120231000Y-21673816D01*
X120198297Y-21838228D01*
X120134147Y-21993100D01*
X120041015Y-22132481D01*
X119922481Y-22251015D01*
X119783100Y-22344147D01*
X119628228Y-22408297D01*
X119463816Y-22441000D01*
X119296184Y-22441000D01*
X119131772Y-22408297D01*
X118976900Y-22344147D01*
X118837519Y-22251015D01*
X118718985Y-22132481D01*
X118625853Y-21993100D01*
X118561703Y-21838228D01*
X118529000Y-21673816D01*
X118529000Y-21506184D01*
X118561703Y-21341772D01*
X118625853Y-21186900D01*
X118718985Y-21047519D01*
X118837519Y-20928985D01*
X118976900Y-20835853D01*
X119131772Y-20771703D01*
X119296184Y-20739000D01*
X119463816Y-20739000D01*
X119628228Y-20771703D01*
X119628228Y-20771703D01*
G37*
G36*
X114548228Y-20771703D02*
G01*
X114703100Y-20835853D01*
X114842481Y-20928985D01*
X114961015Y-21047519D01*
X115054147Y-21186900D01*
X115118297Y-21341772D01*
X115151000Y-21506184D01*
X115151000Y-21673816D01*
X115118297Y-21838228D01*
X115054147Y-21993100D01*
X114961015Y-22132481D01*
X114842481Y-22251015D01*
X114703100Y-22344147D01*
X114548228Y-22408297D01*
X114383816Y-22441000D01*
X114216184Y-22441000D01*
X114051772Y-22408297D01*
X113896900Y-22344147D01*
X113757519Y-22251015D01*
X113638985Y-22132481D01*
X113545853Y-21993100D01*
X113481703Y-21838228D01*
X113449000Y-21673816D01*
X113449000Y-21506184D01*
X113481703Y-21341772D01*
X113545853Y-21186900D01*
X113638985Y-21047519D01*
X113757519Y-20928985D01*
X113896900Y-20835853D01*
X114051772Y-20771703D01*
X114216184Y-20739000D01*
X114383816Y-20739000D01*
X114548228Y-20771703D01*
X114548228Y-20771703D01*
G37*
G36*
X112008228Y-20771703D02*
G01*
X112163100Y-20835853D01*
X112302481Y-20928985D01*
X112421015Y-21047519D01*
X112514147Y-21186900D01*
X112578297Y-21341772D01*
X112611000Y-21506184D01*
X112611000Y-21673816D01*
X112578297Y-21838228D01*
X112514147Y-21993100D01*
X112421015Y-22132481D01*
X112302481Y-22251015D01*
X112163100Y-22344147D01*
X112008228Y-22408297D01*
X111843816Y-22441000D01*
X111676184Y-22441000D01*
X111511772Y-22408297D01*
X111356900Y-22344147D01*
X111217519Y-22251015D01*
X111098985Y-22132481D01*
X111005853Y-21993100D01*
X110941703Y-21838228D01*
X110909000Y-21673816D01*
X110909000Y-21506184D01*
X110941703Y-21341772D01*
X111005853Y-21186900D01*
X111098985Y-21047519D01*
X111217519Y-20928985D01*
X111356900Y-20835853D01*
X111511772Y-20771703D01*
X111676184Y-20739000D01*
X111843816Y-20739000D01*
X112008228Y-20771703D01*
X112008228Y-20771703D01*
G37*
G36*
X109468228Y-20771703D02*
G01*
X109623100Y-20835853D01*
X109762481Y-20928985D01*
X109881015Y-21047519D01*
X109974147Y-21186900D01*
X110038297Y-21341772D01*
X110071000Y-21506184D01*
X110071000Y-21673816D01*
X110038297Y-21838228D01*
X109974147Y-21993100D01*
X109881015Y-22132481D01*
X109762481Y-22251015D01*
X109623100Y-22344147D01*
X109468228Y-22408297D01*
X109303816Y-22441000D01*
X109136184Y-22441000D01*
X108971772Y-22408297D01*
X108816900Y-22344147D01*
X108677519Y-22251015D01*
X108558985Y-22132481D01*
X108465853Y-21993100D01*
X108401703Y-21838228D01*
X108369000Y-21673816D01*
X108369000Y-21506184D01*
X108401703Y-21341772D01*
X108465853Y-21186900D01*
X108558985Y-21047519D01*
X108677519Y-20928985D01*
X108816900Y-20835853D01*
X108971772Y-20771703D01*
X109136184Y-20739000D01*
X109303816Y-20739000D01*
X109468228Y-20771703D01*
X109468228Y-20771703D01*
G37*
G36*
X94228228Y-20771703D02*
G01*
X94383100Y-20835853D01*
X94522481Y-20928985D01*
X94641015Y-21047519D01*
X94734147Y-21186900D01*
X94798297Y-21341772D01*
X94831000Y-21506184D01*
X94831000Y-21673816D01*
X94798297Y-21838228D01*
X94734147Y-21993100D01*
X94641015Y-22132481D01*
X94522481Y-22251015D01*
X94383100Y-22344147D01*
X94228228Y-22408297D01*
X94063816Y-22441000D01*
X93896184Y-22441000D01*
X93731772Y-22408297D01*
X93576900Y-22344147D01*
X93437519Y-22251015D01*
X93318985Y-22132481D01*
X93225853Y-21993100D01*
X93161703Y-21838228D01*
X93129000Y-21673816D01*
X93129000Y-21506184D01*
X93161703Y-21341772D01*
X93225853Y-21186900D01*
X93318985Y-21047519D01*
X93437519Y-20928985D01*
X93576900Y-20835853D01*
X93731772Y-20771703D01*
X93896184Y-20739000D01*
X94063816Y-20739000D01*
X94228228Y-20771703D01*
X94228228Y-20771703D01*
G37*
G36*
X91688228Y-20771703D02*
G01*
X91843100Y-20835853D01*
X91982481Y-20928985D01*
X92101015Y-21047519D01*
X92194147Y-21186900D01*
X92258297Y-21341772D01*
X92291000Y-21506184D01*
X92291000Y-21673816D01*
X92258297Y-21838228D01*
X92194147Y-21993100D01*
X92101015Y-22132481D01*
X91982481Y-22251015D01*
X91843100Y-22344147D01*
X91688228Y-22408297D01*
X91523816Y-22441000D01*
X91356184Y-22441000D01*
X91191772Y-22408297D01*
X91036900Y-22344147D01*
X90897519Y-22251015D01*
X90778985Y-22132481D01*
X90685853Y-21993100D01*
X90621703Y-21838228D01*
X90589000Y-21673816D01*
X90589000Y-21506184D01*
X90621703Y-21341772D01*
X90685853Y-21186900D01*
X90778985Y-21047519D01*
X90897519Y-20928985D01*
X91036900Y-20835853D01*
X91191772Y-20771703D01*
X91356184Y-20739000D01*
X91523816Y-20739000D01*
X91688228Y-20771703D01*
X91688228Y-20771703D01*
G37*
G36*
X89148228Y-20771703D02*
G01*
X89303100Y-20835853D01*
X89442481Y-20928985D01*
X89561015Y-21047519D01*
X89654147Y-21186900D01*
X89718297Y-21341772D01*
X89751000Y-21506184D01*
X89751000Y-21673816D01*
X89718297Y-21838228D01*
X89654147Y-21993100D01*
X89561015Y-22132481D01*
X89442481Y-22251015D01*
X89303100Y-22344147D01*
X89148228Y-22408297D01*
X88983816Y-22441000D01*
X88816184Y-22441000D01*
X88651772Y-22408297D01*
X88496900Y-22344147D01*
X88357519Y-22251015D01*
X88238985Y-22132481D01*
X88145853Y-21993100D01*
X88081703Y-21838228D01*
X88049000Y-21673816D01*
X88049000Y-21506184D01*
X88081703Y-21341772D01*
X88145853Y-21186900D01*
X88238985Y-21047519D01*
X88357519Y-20928985D01*
X88496900Y-20835853D01*
X88651772Y-20771703D01*
X88816184Y-20739000D01*
X88983816Y-20739000D01*
X89148228Y-20771703D01*
X89148228Y-20771703D01*
G37*
G36*
X86608228Y-20771703D02*
G01*
X86763100Y-20835853D01*
X86902481Y-20928985D01*
X87021015Y-21047519D01*
X87114147Y-21186900D01*
X87178297Y-21341772D01*
X87211000Y-21506184D01*
X87211000Y-21673816D01*
X87178297Y-21838228D01*
X87114147Y-21993100D01*
X87021015Y-22132481D01*
X86902481Y-22251015D01*
X86763100Y-22344147D01*
X86608228Y-22408297D01*
X86443816Y-22441000D01*
X86276184Y-22441000D01*
X86111772Y-22408297D01*
X85956900Y-22344147D01*
X85817519Y-22251015D01*
X85698985Y-22132481D01*
X85605853Y-21993100D01*
X85541703Y-21838228D01*
X85509000Y-21673816D01*
X85509000Y-21506184D01*
X85541703Y-21341772D01*
X85605853Y-21186900D01*
X85698985Y-21047519D01*
X85817519Y-20928985D01*
X85956900Y-20835853D01*
X86111772Y-20771703D01*
X86276184Y-20739000D01*
X86443816Y-20739000D01*
X86608228Y-20771703D01*
X86608228Y-20771703D01*
G37*
G36*
X117088228Y-20771703D02*
G01*
X117243100Y-20835853D01*
X117382481Y-20928985D01*
X117501015Y-21047519D01*
X117594147Y-21186900D01*
X117658297Y-21341772D01*
X117691000Y-21506184D01*
X117691000Y-21673816D01*
X117658297Y-21838228D01*
X117594147Y-21993100D01*
X117501015Y-22132481D01*
X117382481Y-22251015D01*
X117243100Y-22344147D01*
X117088228Y-22408297D01*
X116923816Y-22441000D01*
X116756184Y-22441000D01*
X116591772Y-22408297D01*
X116436900Y-22344147D01*
X116297519Y-22251015D01*
X116178985Y-22132481D01*
X116085853Y-21993100D01*
X116021703Y-21838228D01*
X115989000Y-21673816D01*
X115989000Y-21506184D01*
X116021703Y-21341772D01*
X116085853Y-21186900D01*
X116178985Y-21047519D01*
X116297519Y-20928985D01*
X116436900Y-20835853D01*
X116591772Y-20771703D01*
X116756184Y-20739000D01*
X116923816Y-20739000D01*
X117088228Y-20771703D01*
X117088228Y-20771703D01*
G37*
G36*
X124708228Y-20771703D02*
G01*
X124863100Y-20835853D01*
X125002481Y-20928985D01*
X125121015Y-21047519D01*
X125214147Y-21186900D01*
X125278297Y-21341772D01*
X125311000Y-21506184D01*
X125311000Y-21673816D01*
X125278297Y-21838228D01*
X125214147Y-21993100D01*
X125121015Y-22132481D01*
X125002481Y-22251015D01*
X124863100Y-22344147D01*
X124708228Y-22408297D01*
X124543816Y-22441000D01*
X124376184Y-22441000D01*
X124211772Y-22408297D01*
X124056900Y-22344147D01*
X123917519Y-22251015D01*
X123798985Y-22132481D01*
X123705853Y-21993100D01*
X123641703Y-21838228D01*
X123609000Y-21673816D01*
X123609000Y-21506184D01*
X123641703Y-21341772D01*
X123705853Y-21186900D01*
X123798985Y-21047519D01*
X123917519Y-20928985D01*
X124056900Y-20835853D01*
X124211772Y-20771703D01*
X124376184Y-20739000D01*
X124543816Y-20739000D01*
X124708228Y-20771703D01*
X124708228Y-20771703D01*
G37*
G36*
X127248228Y-20771703D02*
G01*
X127403100Y-20835853D01*
X127542481Y-20928985D01*
X127661015Y-21047519D01*
X127754147Y-21186900D01*
X127818297Y-21341772D01*
X127851000Y-21506184D01*
X127851000Y-21673816D01*
X127818297Y-21838228D01*
X127754147Y-21993100D01*
X127661015Y-22132481D01*
X127542481Y-22251015D01*
X127403100Y-22344147D01*
X127248228Y-22408297D01*
X127083816Y-22441000D01*
X126916184Y-22441000D01*
X126751772Y-22408297D01*
X126596900Y-22344147D01*
X126457519Y-22251015D01*
X126338985Y-22132481D01*
X126245853Y-21993100D01*
X126181703Y-21838228D01*
X126149000Y-21673816D01*
X126149000Y-21506184D01*
X126181703Y-21341772D01*
X126245853Y-21186900D01*
X126338985Y-21047519D01*
X126457519Y-20928985D01*
X126596900Y-20835853D01*
X126751772Y-20771703D01*
X126916184Y-20739000D01*
X127083816Y-20739000D01*
X127248228Y-20771703D01*
X127248228Y-20771703D01*
G37*
G36*
X129788228Y-20771703D02*
G01*
X129943100Y-20835853D01*
X130082481Y-20928985D01*
X130201015Y-21047519D01*
X130294147Y-21186900D01*
X130358297Y-21341772D01*
X130391000Y-21506184D01*
X130391000Y-21673816D01*
X130358297Y-21838228D01*
X130294147Y-21993100D01*
X130201015Y-22132481D01*
X130082481Y-22251015D01*
X129943100Y-22344147D01*
X129788228Y-22408297D01*
X129623816Y-22441000D01*
X129456184Y-22441000D01*
X129291772Y-22408297D01*
X129136900Y-22344147D01*
X128997519Y-22251015D01*
X128878985Y-22132481D01*
X128785853Y-21993100D01*
X128721703Y-21838228D01*
X128689000Y-21673816D01*
X128689000Y-21506184D01*
X128721703Y-21341772D01*
X128785853Y-21186900D01*
X128878985Y-21047519D01*
X128997519Y-20928985D01*
X129136900Y-20835853D01*
X129291772Y-20771703D01*
X129456184Y-20739000D01*
X129623816Y-20739000D01*
X129788228Y-20771703D01*
X129788228Y-20771703D01*
G37*
G36*
X81528228Y-18231703D02*
G01*
X81683100Y-18295853D01*
X81822481Y-18388985D01*
X81941015Y-18507519D01*
X82034147Y-18646900D01*
X82098297Y-18801772D01*
X82131000Y-18966184D01*
X82131000Y-19133816D01*
X82098297Y-19298228D01*
X82034147Y-19453100D01*
X81941015Y-19592481D01*
X81822481Y-19711015D01*
X81683100Y-19804147D01*
X81528228Y-19868297D01*
X81363816Y-19901000D01*
X81196184Y-19901000D01*
X81031772Y-19868297D01*
X80876900Y-19804147D01*
X80737519Y-19711015D01*
X80618985Y-19592481D01*
X80525853Y-19453100D01*
X80461703Y-19298228D01*
X80429000Y-19133816D01*
X80429000Y-18966184D01*
X80461703Y-18801772D01*
X80525853Y-18646900D01*
X80618985Y-18507519D01*
X80737519Y-18388985D01*
X80876900Y-18295853D01*
X81031772Y-18231703D01*
X81196184Y-18199000D01*
X81363816Y-18199000D01*
X81528228Y-18231703D01*
X81528228Y-18231703D01*
G37*
G36*
X78988228Y-18231703D02*
G01*
X79143100Y-18295853D01*
X79282481Y-18388985D01*
X79401015Y-18507519D01*
X79494147Y-18646900D01*
X79558297Y-18801772D01*
X79591000Y-18966184D01*
X79591000Y-19133816D01*
X79558297Y-19298228D01*
X79494147Y-19453100D01*
X79401015Y-19592481D01*
X79282481Y-19711015D01*
X79143100Y-19804147D01*
X78988228Y-19868297D01*
X78823816Y-19901000D01*
X78656184Y-19901000D01*
X78491772Y-19868297D01*
X78336900Y-19804147D01*
X78197519Y-19711015D01*
X78078985Y-19592481D01*
X77985853Y-19453100D01*
X77921703Y-19298228D01*
X77889000Y-19133816D01*
X77889000Y-18966184D01*
X77921703Y-18801772D01*
X77985853Y-18646900D01*
X78078985Y-18507519D01*
X78197519Y-18388985D01*
X78336900Y-18295853D01*
X78491772Y-18231703D01*
X78656184Y-18199000D01*
X78823816Y-18199000D01*
X78988228Y-18231703D01*
X78988228Y-18231703D01*
G37*
G36*
X73908228Y-18231703D02*
G01*
X74063100Y-18295853D01*
X74202481Y-18388985D01*
X74321015Y-18507519D01*
X74414147Y-18646900D01*
X74478297Y-18801772D01*
X74511000Y-18966184D01*
X74511000Y-19133816D01*
X74478297Y-19298228D01*
X74414147Y-19453100D01*
X74321015Y-19592481D01*
X74202481Y-19711015D01*
X74063100Y-19804147D01*
X73908228Y-19868297D01*
X73743816Y-19901000D01*
X73576184Y-19901000D01*
X73411772Y-19868297D01*
X73256900Y-19804147D01*
X73117519Y-19711015D01*
X72998985Y-19592481D01*
X72905853Y-19453100D01*
X72841703Y-19298228D01*
X72809000Y-19133816D01*
X72809000Y-18966184D01*
X72841703Y-18801772D01*
X72905853Y-18646900D01*
X72998985Y-18507519D01*
X73117519Y-18388985D01*
X73256900Y-18295853D01*
X73411772Y-18231703D01*
X73576184Y-18199000D01*
X73743816Y-18199000D01*
X73908228Y-18231703D01*
X73908228Y-18231703D01*
G37*
G36*
X84068228Y-18231703D02*
G01*
X84223100Y-18295853D01*
X84362481Y-18388985D01*
X84481015Y-18507519D01*
X84574147Y-18646900D01*
X84638297Y-18801772D01*
X84671000Y-18966184D01*
X84671000Y-19133816D01*
X84638297Y-19298228D01*
X84574147Y-19453100D01*
X84481015Y-19592481D01*
X84362481Y-19711015D01*
X84223100Y-19804147D01*
X84068228Y-19868297D01*
X83903816Y-19901000D01*
X83736184Y-19901000D01*
X83571772Y-19868297D01*
X83416900Y-19804147D01*
X83277519Y-19711015D01*
X83158985Y-19592481D01*
X83065853Y-19453100D01*
X83001703Y-19298228D01*
X82969000Y-19133816D01*
X82969000Y-18966184D01*
X83001703Y-18801772D01*
X83065853Y-18646900D01*
X83158985Y-18507519D01*
X83277519Y-18388985D01*
X83416900Y-18295853D01*
X83571772Y-18231703D01*
X83736184Y-18199000D01*
X83903816Y-18199000D01*
X84068228Y-18231703D01*
X84068228Y-18231703D01*
G37*
G36*
X117088228Y-18231703D02*
G01*
X117243100Y-18295853D01*
X117382481Y-18388985D01*
X117501015Y-18507519D01*
X117594147Y-18646900D01*
X117658297Y-18801772D01*
X117691000Y-18966184D01*
X117691000Y-19133816D01*
X117658297Y-19298228D01*
X117594147Y-19453100D01*
X117501015Y-19592481D01*
X117382481Y-19711015D01*
X117243100Y-19804147D01*
X117088228Y-19868297D01*
X116923816Y-19901000D01*
X116756184Y-19901000D01*
X116591772Y-19868297D01*
X116436900Y-19804147D01*
X116297519Y-19711015D01*
X116178985Y-19592481D01*
X116085853Y-19453100D01*
X116021703Y-19298228D01*
X115989000Y-19133816D01*
X115989000Y-18966184D01*
X116021703Y-18801772D01*
X116085853Y-18646900D01*
X116178985Y-18507519D01*
X116297519Y-18388985D01*
X116436900Y-18295853D01*
X116591772Y-18231703D01*
X116756184Y-18199000D01*
X116923816Y-18199000D01*
X117088228Y-18231703D01*
X117088228Y-18231703D01*
G37*
G36*
X104388228Y-15691703D02*
G01*
X104543100Y-15755853D01*
X104682481Y-15848985D01*
X104801015Y-15967519D01*
X104894147Y-16106900D01*
X104958297Y-16261772D01*
X104991000Y-16426184D01*
X104991000Y-16593816D01*
X104958297Y-16758228D01*
X104894147Y-16913100D01*
X104801015Y-17052481D01*
X104682481Y-17171015D01*
X104543100Y-17264147D01*
X104388228Y-17328297D01*
X104223816Y-17361000D01*
X104056184Y-17361000D01*
X103891772Y-17328297D01*
X103736900Y-17264147D01*
X103597519Y-17171015D01*
X103478985Y-17052481D01*
X103385853Y-16913100D01*
X103321703Y-16758228D01*
X103289000Y-16593816D01*
X103289000Y-16426184D01*
X103321703Y-16261772D01*
X103385853Y-16106900D01*
X103478985Y-15967519D01*
X103597519Y-15848985D01*
X103736900Y-15755853D01*
X103891772Y-15691703D01*
X104056184Y-15659000D01*
X104223816Y-15659000D01*
X104388228Y-15691703D01*
X104388228Y-15691703D01*
G37*
G36*
X71368228Y-15691703D02*
G01*
X71523100Y-15755853D01*
X71662481Y-15848985D01*
X71781015Y-15967519D01*
X71874147Y-16106900D01*
X71938297Y-16261772D01*
X71971000Y-16426184D01*
X71971000Y-16593816D01*
X71938297Y-16758228D01*
X71874147Y-16913100D01*
X71781015Y-17052481D01*
X71662481Y-17171015D01*
X71523100Y-17264147D01*
X71368228Y-17328297D01*
X71203816Y-17361000D01*
X71036184Y-17361000D01*
X70871772Y-17328297D01*
X70716900Y-17264147D01*
X70577519Y-17171015D01*
X70458985Y-17052481D01*
X70365853Y-16913100D01*
X70301703Y-16758228D01*
X70269000Y-16593816D01*
X70269000Y-16426184D01*
X70301703Y-16261772D01*
X70365853Y-16106900D01*
X70458985Y-15967519D01*
X70577519Y-15848985D01*
X70716900Y-15755853D01*
X70871772Y-15691703D01*
X71036184Y-15659000D01*
X71203816Y-15659000D01*
X71368228Y-15691703D01*
X71368228Y-15691703D01*
G37*
G36*
X73908228Y-15691703D02*
G01*
X74063100Y-15755853D01*
X74202481Y-15848985D01*
X74321015Y-15967519D01*
X74414147Y-16106900D01*
X74478297Y-16261772D01*
X74511000Y-16426184D01*
X74511000Y-16593816D01*
X74478297Y-16758228D01*
X74414147Y-16913100D01*
X74321015Y-17052481D01*
X74202481Y-17171015D01*
X74063100Y-17264147D01*
X73908228Y-17328297D01*
X73743816Y-17361000D01*
X73576184Y-17361000D01*
X73411772Y-17328297D01*
X73256900Y-17264147D01*
X73117519Y-17171015D01*
X72998985Y-17052481D01*
X72905853Y-16913100D01*
X72841703Y-16758228D01*
X72809000Y-16593816D01*
X72809000Y-16426184D01*
X72841703Y-16261772D01*
X72905853Y-16106900D01*
X72998985Y-15967519D01*
X73117519Y-15848985D01*
X73256900Y-15755853D01*
X73411772Y-15691703D01*
X73576184Y-15659000D01*
X73743816Y-15659000D01*
X73908228Y-15691703D01*
X73908228Y-15691703D01*
G37*
G36*
X76448228Y-15691703D02*
G01*
X76603100Y-15755853D01*
X76742481Y-15848985D01*
X76861015Y-15967519D01*
X76954147Y-16106900D01*
X77018297Y-16261772D01*
X77051000Y-16426184D01*
X77051000Y-16593816D01*
X77018297Y-16758228D01*
X76954147Y-16913100D01*
X76861015Y-17052481D01*
X76742481Y-17171015D01*
X76603100Y-17264147D01*
X76448228Y-17328297D01*
X76283816Y-17361000D01*
X76116184Y-17361000D01*
X75951772Y-17328297D01*
X75796900Y-17264147D01*
X75657519Y-17171015D01*
X75538985Y-17052481D01*
X75445853Y-16913100D01*
X75381703Y-16758228D01*
X75349000Y-16593816D01*
X75349000Y-16426184D01*
X75381703Y-16261772D01*
X75445853Y-16106900D01*
X75538985Y-15967519D01*
X75657519Y-15848985D01*
X75796900Y-15755853D01*
X75951772Y-15691703D01*
X76116184Y-15659000D01*
X76283816Y-15659000D01*
X76448228Y-15691703D01*
X76448228Y-15691703D01*
G37*
G36*
X78988228Y-15691703D02*
G01*
X79143100Y-15755853D01*
X79282481Y-15848985D01*
X79401015Y-15967519D01*
X79494147Y-16106900D01*
X79558297Y-16261772D01*
X79591000Y-16426184D01*
X79591000Y-16593816D01*
X79558297Y-16758228D01*
X79494147Y-16913100D01*
X79401015Y-17052481D01*
X79282481Y-17171015D01*
X79143100Y-17264147D01*
X78988228Y-17328297D01*
X78823816Y-17361000D01*
X78656184Y-17361000D01*
X78491772Y-17328297D01*
X78336900Y-17264147D01*
X78197519Y-17171015D01*
X78078985Y-17052481D01*
X77985853Y-16913100D01*
X77921703Y-16758228D01*
X77889000Y-16593816D01*
X77889000Y-16426184D01*
X77921703Y-16261772D01*
X77985853Y-16106900D01*
X78078985Y-15967519D01*
X78197519Y-15848985D01*
X78336900Y-15755853D01*
X78491772Y-15691703D01*
X78656184Y-15659000D01*
X78823816Y-15659000D01*
X78988228Y-15691703D01*
X78988228Y-15691703D01*
G37*
G36*
X81528228Y-15691703D02*
G01*
X81683100Y-15755853D01*
X81822481Y-15848985D01*
X81941015Y-15967519D01*
X82034147Y-16106900D01*
X82098297Y-16261772D01*
X82131000Y-16426184D01*
X82131000Y-16593816D01*
X82098297Y-16758228D01*
X82034147Y-16913100D01*
X81941015Y-17052481D01*
X81822481Y-17171015D01*
X81683100Y-17264147D01*
X81528228Y-17328297D01*
X81363816Y-17361000D01*
X81196184Y-17361000D01*
X81031772Y-17328297D01*
X80876900Y-17264147D01*
X80737519Y-17171015D01*
X80618985Y-17052481D01*
X80525853Y-16913100D01*
X80461703Y-16758228D01*
X80429000Y-16593816D01*
X80429000Y-16426184D01*
X80461703Y-16261772D01*
X80525853Y-16106900D01*
X80618985Y-15967519D01*
X80737519Y-15848985D01*
X80876900Y-15755853D01*
X81031772Y-15691703D01*
X81196184Y-15659000D01*
X81363816Y-15659000D01*
X81528228Y-15691703D01*
X81528228Y-15691703D01*
G37*
G36*
X84068228Y-15691703D02*
G01*
X84223100Y-15755853D01*
X84362481Y-15848985D01*
X84481015Y-15967519D01*
X84574147Y-16106900D01*
X84638297Y-16261772D01*
X84671000Y-16426184D01*
X84671000Y-16593816D01*
X84638297Y-16758228D01*
X84574147Y-16913100D01*
X84481015Y-17052481D01*
X84362481Y-17171015D01*
X84223100Y-17264147D01*
X84068228Y-17328297D01*
X83903816Y-17361000D01*
X83736184Y-17361000D01*
X83571772Y-17328297D01*
X83416900Y-17264147D01*
X83277519Y-17171015D01*
X83158985Y-17052481D01*
X83065853Y-16913100D01*
X83001703Y-16758228D01*
X82969000Y-16593816D01*
X82969000Y-16426184D01*
X83001703Y-16261772D01*
X83065853Y-16106900D01*
X83158985Y-15967519D01*
X83277519Y-15848985D01*
X83416900Y-15755853D01*
X83571772Y-15691703D01*
X83736184Y-15659000D01*
X83903816Y-15659000D01*
X84068228Y-15691703D01*
X84068228Y-15691703D01*
G37*
G36*
X86608228Y-15691703D02*
G01*
X86763100Y-15755853D01*
X86902481Y-15848985D01*
X87021015Y-15967519D01*
X87114147Y-16106900D01*
X87178297Y-16261772D01*
X87211000Y-16426184D01*
X87211000Y-16593816D01*
X87178297Y-16758228D01*
X87114147Y-16913100D01*
X87021015Y-17052481D01*
X86902481Y-17171015D01*
X86763100Y-17264147D01*
X86608228Y-17328297D01*
X86443816Y-17361000D01*
X86276184Y-17361000D01*
X86111772Y-17328297D01*
X85956900Y-17264147D01*
X85817519Y-17171015D01*
X85698985Y-17052481D01*
X85605853Y-16913100D01*
X85541703Y-16758228D01*
X85509000Y-16593816D01*
X85509000Y-16426184D01*
X85541703Y-16261772D01*
X85605853Y-16106900D01*
X85698985Y-15967519D01*
X85817519Y-15848985D01*
X85956900Y-15755853D01*
X86111772Y-15691703D01*
X86276184Y-15659000D01*
X86443816Y-15659000D01*
X86608228Y-15691703D01*
X86608228Y-15691703D01*
G37*
G36*
X89148228Y-15691703D02*
G01*
X89303100Y-15755853D01*
X89442481Y-15848985D01*
X89561015Y-15967519D01*
X89654147Y-16106900D01*
X89718297Y-16261772D01*
X89751000Y-16426184D01*
X89751000Y-16593816D01*
X89718297Y-16758228D01*
X89654147Y-16913100D01*
X89561015Y-17052481D01*
X89442481Y-17171015D01*
X89303100Y-17264147D01*
X89148228Y-17328297D01*
X88983816Y-17361000D01*
X88816184Y-17361000D01*
X88651772Y-17328297D01*
X88496900Y-17264147D01*
X88357519Y-17171015D01*
X88238985Y-17052481D01*
X88145853Y-16913100D01*
X88081703Y-16758228D01*
X88049000Y-16593816D01*
X88049000Y-16426184D01*
X88081703Y-16261772D01*
X88145853Y-16106900D01*
X88238985Y-15967519D01*
X88357519Y-15848985D01*
X88496900Y-15755853D01*
X88651772Y-15691703D01*
X88816184Y-15659000D01*
X88983816Y-15659000D01*
X89148228Y-15691703D01*
X89148228Y-15691703D01*
G37*
G36*
X91688228Y-15691703D02*
G01*
X91843100Y-15755853D01*
X91982481Y-15848985D01*
X92101015Y-15967519D01*
X92194147Y-16106900D01*
X92258297Y-16261772D01*
X92291000Y-16426184D01*
X92291000Y-16593816D01*
X92258297Y-16758228D01*
X92194147Y-16913100D01*
X92101015Y-17052481D01*
X91982481Y-17171015D01*
X91843100Y-17264147D01*
X91688228Y-17328297D01*
X91523816Y-17361000D01*
X91356184Y-17361000D01*
X91191772Y-17328297D01*
X91036900Y-17264147D01*
X90897519Y-17171015D01*
X90778985Y-17052481D01*
X90685853Y-16913100D01*
X90621703Y-16758228D01*
X90589000Y-16593816D01*
X90589000Y-16426184D01*
X90621703Y-16261772D01*
X90685853Y-16106900D01*
X90778985Y-15967519D01*
X90897519Y-15848985D01*
X91036900Y-15755853D01*
X91191772Y-15691703D01*
X91356184Y-15659000D01*
X91523816Y-15659000D01*
X91688228Y-15691703D01*
X91688228Y-15691703D01*
G37*
G36*
X94228228Y-15691703D02*
G01*
X94383100Y-15755853D01*
X94522481Y-15848985D01*
X94641015Y-15967519D01*
X94734147Y-16106900D01*
X94798297Y-16261772D01*
X94831000Y-16426184D01*
X94831000Y-16593816D01*
X94798297Y-16758228D01*
X94734147Y-16913100D01*
X94641015Y-17052481D01*
X94522481Y-17171015D01*
X94383100Y-17264147D01*
X94228228Y-17328297D01*
X94063816Y-17361000D01*
X93896184Y-17361000D01*
X93731772Y-17328297D01*
X93576900Y-17264147D01*
X93437519Y-17171015D01*
X93318985Y-17052481D01*
X93225853Y-16913100D01*
X93161703Y-16758228D01*
X93129000Y-16593816D01*
X93129000Y-16426184D01*
X93161703Y-16261772D01*
X93225853Y-16106900D01*
X93318985Y-15967519D01*
X93437519Y-15848985D01*
X93576900Y-15755853D01*
X93731772Y-15691703D01*
X93896184Y-15659000D01*
X94063816Y-15659000D01*
X94228228Y-15691703D01*
X94228228Y-15691703D01*
G37*
G36*
X96768228Y-15691703D02*
G01*
X96923100Y-15755853D01*
X97062481Y-15848985D01*
X97181015Y-15967519D01*
X97274147Y-16106900D01*
X97338297Y-16261772D01*
X97371000Y-16426184D01*
X97371000Y-16593816D01*
X97338297Y-16758228D01*
X97274147Y-16913100D01*
X97181015Y-17052481D01*
X97062481Y-17171015D01*
X96923100Y-17264147D01*
X96768228Y-17328297D01*
X96603816Y-17361000D01*
X96436184Y-17361000D01*
X96271772Y-17328297D01*
X96116900Y-17264147D01*
X95977519Y-17171015D01*
X95858985Y-17052481D01*
X95765853Y-16913100D01*
X95701703Y-16758228D01*
X95669000Y-16593816D01*
X95669000Y-16426184D01*
X95701703Y-16261772D01*
X95765853Y-16106900D01*
X95858985Y-15967519D01*
X95977519Y-15848985D01*
X96116900Y-15755853D01*
X96271772Y-15691703D01*
X96436184Y-15659000D01*
X96603816Y-15659000D01*
X96768228Y-15691703D01*
X96768228Y-15691703D01*
G37*
G36*
X99308228Y-15691703D02*
G01*
X99463100Y-15755853D01*
X99602481Y-15848985D01*
X99721015Y-15967519D01*
X99814147Y-16106900D01*
X99878297Y-16261772D01*
X99911000Y-16426184D01*
X99911000Y-16593816D01*
X99878297Y-16758228D01*
X99814147Y-16913100D01*
X99721015Y-17052481D01*
X99602481Y-17171015D01*
X99463100Y-17264147D01*
X99308228Y-17328297D01*
X99143816Y-17361000D01*
X98976184Y-17361000D01*
X98811772Y-17328297D01*
X98656900Y-17264147D01*
X98517519Y-17171015D01*
X98398985Y-17052481D01*
X98305853Y-16913100D01*
X98241703Y-16758228D01*
X98209000Y-16593816D01*
X98209000Y-16426184D01*
X98241703Y-16261772D01*
X98305853Y-16106900D01*
X98398985Y-15967519D01*
X98517519Y-15848985D01*
X98656900Y-15755853D01*
X98811772Y-15691703D01*
X98976184Y-15659000D01*
X99143816Y-15659000D01*
X99308228Y-15691703D01*
X99308228Y-15691703D01*
G37*
G36*
X101848228Y-15691703D02*
G01*
X102003100Y-15755853D01*
X102142481Y-15848985D01*
X102261015Y-15967519D01*
X102354147Y-16106900D01*
X102418297Y-16261772D01*
X102451000Y-16426184D01*
X102451000Y-16593816D01*
X102418297Y-16758228D01*
X102354147Y-16913100D01*
X102261015Y-17052481D01*
X102142481Y-17171015D01*
X102003100Y-17264147D01*
X101848228Y-17328297D01*
X101683816Y-17361000D01*
X101516184Y-17361000D01*
X101351772Y-17328297D01*
X101196900Y-17264147D01*
X101057519Y-17171015D01*
X100938985Y-17052481D01*
X100845853Y-16913100D01*
X100781703Y-16758228D01*
X100749000Y-16593816D01*
X100749000Y-16426184D01*
X100781703Y-16261772D01*
X100845853Y-16106900D01*
X100938985Y-15967519D01*
X101057519Y-15848985D01*
X101196900Y-15755853D01*
X101351772Y-15691703D01*
X101516184Y-15659000D01*
X101683816Y-15659000D01*
X101848228Y-15691703D01*
X101848228Y-15691703D01*
G37*
G36*
X106928228Y-15691703D02*
G01*
X107083100Y-15755853D01*
X107222481Y-15848985D01*
X107341015Y-15967519D01*
X107434147Y-16106900D01*
X107498297Y-16261772D01*
X107531000Y-16426184D01*
X107531000Y-16593816D01*
X107498297Y-16758228D01*
X107434147Y-16913100D01*
X107341015Y-17052481D01*
X107222481Y-17171015D01*
X107083100Y-17264147D01*
X106928228Y-17328297D01*
X106763816Y-17361000D01*
X106596184Y-17361000D01*
X106431772Y-17328297D01*
X106276900Y-17264147D01*
X106137519Y-17171015D01*
X106018985Y-17052481D01*
X105925853Y-16913100D01*
X105861703Y-16758228D01*
X105829000Y-16593816D01*
X105829000Y-16426184D01*
X105861703Y-16261772D01*
X105925853Y-16106900D01*
X106018985Y-15967519D01*
X106137519Y-15848985D01*
X106276900Y-15755853D01*
X106431772Y-15691703D01*
X106596184Y-15659000D01*
X106763816Y-15659000D01*
X106928228Y-15691703D01*
X106928228Y-15691703D01*
G37*
G36*
X109468228Y-15691703D02*
G01*
X109623100Y-15755853D01*
X109762481Y-15848985D01*
X109881015Y-15967519D01*
X109974147Y-16106900D01*
X110038297Y-16261772D01*
X110071000Y-16426184D01*
X110071000Y-16593816D01*
X110038297Y-16758228D01*
X109974147Y-16913100D01*
X109881015Y-17052481D01*
X109762481Y-17171015D01*
X109623100Y-17264147D01*
X109468228Y-17328297D01*
X109303816Y-17361000D01*
X109136184Y-17361000D01*
X108971772Y-17328297D01*
X108816900Y-17264147D01*
X108677519Y-17171015D01*
X108558985Y-17052481D01*
X108465853Y-16913100D01*
X108401703Y-16758228D01*
X108369000Y-16593816D01*
X108369000Y-16426184D01*
X108401703Y-16261772D01*
X108465853Y-16106900D01*
X108558985Y-15967519D01*
X108677519Y-15848985D01*
X108816900Y-15755853D01*
X108971772Y-15691703D01*
X109136184Y-15659000D01*
X109303816Y-15659000D01*
X109468228Y-15691703D01*
X109468228Y-15691703D01*
G37*
G36*
X112008228Y-15691703D02*
G01*
X112163100Y-15755853D01*
X112302481Y-15848985D01*
X112421015Y-15967519D01*
X112514147Y-16106900D01*
X112578297Y-16261772D01*
X112611000Y-16426184D01*
X112611000Y-16593816D01*
X112578297Y-16758228D01*
X112514147Y-16913100D01*
X112421015Y-17052481D01*
X112302481Y-17171015D01*
X112163100Y-17264147D01*
X112008228Y-17328297D01*
X111843816Y-17361000D01*
X111676184Y-17361000D01*
X111511772Y-17328297D01*
X111356900Y-17264147D01*
X111217519Y-17171015D01*
X111098985Y-17052481D01*
X111005853Y-16913100D01*
X110941703Y-16758228D01*
X110909000Y-16593816D01*
X110909000Y-16426184D01*
X110941703Y-16261772D01*
X111005853Y-16106900D01*
X111098985Y-15967519D01*
X111217519Y-15848985D01*
X111356900Y-15755853D01*
X111511772Y-15691703D01*
X111676184Y-15659000D01*
X111843816Y-15659000D01*
X112008228Y-15691703D01*
X112008228Y-15691703D01*
G37*
G36*
X114548228Y-15691703D02*
G01*
X114703100Y-15755853D01*
X114842481Y-15848985D01*
X114961015Y-15967519D01*
X115054147Y-16106900D01*
X115118297Y-16261772D01*
X115151000Y-16426184D01*
X115151000Y-16593816D01*
X115118297Y-16758228D01*
X115054147Y-16913100D01*
X114961015Y-17052481D01*
X114842481Y-17171015D01*
X114703100Y-17264147D01*
X114548228Y-17328297D01*
X114383816Y-17361000D01*
X114216184Y-17361000D01*
X114051772Y-17328297D01*
X113896900Y-17264147D01*
X113757519Y-17171015D01*
X113638985Y-17052481D01*
X113545853Y-16913100D01*
X113481703Y-16758228D01*
X113449000Y-16593816D01*
X113449000Y-16426184D01*
X113481703Y-16261772D01*
X113545853Y-16106900D01*
X113638985Y-15967519D01*
X113757519Y-15848985D01*
X113896900Y-15755853D01*
X114051772Y-15691703D01*
X114216184Y-15659000D01*
X114383816Y-15659000D01*
X114548228Y-15691703D01*
X114548228Y-15691703D01*
G37*
G36*
X117088228Y-15691703D02*
G01*
X117243100Y-15755853D01*
X117382481Y-15848985D01*
X117501015Y-15967519D01*
X117594147Y-16106900D01*
X117658297Y-16261772D01*
X117691000Y-16426184D01*
X117691000Y-16593816D01*
X117658297Y-16758228D01*
X117594147Y-16913100D01*
X117501015Y-17052481D01*
X117382481Y-17171015D01*
X117243100Y-17264147D01*
X117088228Y-17328297D01*
X116923816Y-17361000D01*
X116756184Y-17361000D01*
X116591772Y-17328297D01*
X116436900Y-17264147D01*
X116297519Y-17171015D01*
X116178985Y-17052481D01*
X116085853Y-16913100D01*
X116021703Y-16758228D01*
X115989000Y-16593816D01*
X115989000Y-16426184D01*
X116021703Y-16261772D01*
X116085853Y-16106900D01*
X116178985Y-15967519D01*
X116297519Y-15848985D01*
X116436900Y-15755853D01*
X116591772Y-15691703D01*
X116756184Y-15659000D01*
X116923816Y-15659000D01*
X117088228Y-15691703D01*
X117088228Y-15691703D01*
G37*
G36*
X119628228Y-15691703D02*
G01*
X119783100Y-15755853D01*
X119922481Y-15848985D01*
X120041015Y-15967519D01*
X120134147Y-16106900D01*
X120198297Y-16261772D01*
X120231000Y-16426184D01*
X120231000Y-16593816D01*
X120198297Y-16758228D01*
X120134147Y-16913100D01*
X120041015Y-17052481D01*
X119922481Y-17171015D01*
X119783100Y-17264147D01*
X119628228Y-17328297D01*
X119463816Y-17361000D01*
X119296184Y-17361000D01*
X119131772Y-17328297D01*
X118976900Y-17264147D01*
X118837519Y-17171015D01*
X118718985Y-17052481D01*
X118625853Y-16913100D01*
X118561703Y-16758228D01*
X118529000Y-16593816D01*
X118529000Y-16426184D01*
X118561703Y-16261772D01*
X118625853Y-16106900D01*
X118718985Y-15967519D01*
X118837519Y-15848985D01*
X118976900Y-15755853D01*
X119131772Y-15691703D01*
X119296184Y-15659000D01*
X119463816Y-15659000D01*
X119628228Y-15691703D01*
X119628228Y-15691703D01*
G37*
G36*
X122168228Y-15691703D02*
G01*
X122323100Y-15755853D01*
X122462481Y-15848985D01*
X122581015Y-15967519D01*
X122674147Y-16106900D01*
X122738297Y-16261772D01*
X122771000Y-16426184D01*
X122771000Y-16593816D01*
X122738297Y-16758228D01*
X122674147Y-16913100D01*
X122581015Y-17052481D01*
X122462481Y-17171015D01*
X122323100Y-17264147D01*
X122168228Y-17328297D01*
X122003816Y-17361000D01*
X121836184Y-17361000D01*
X121671772Y-17328297D01*
X121516900Y-17264147D01*
X121377519Y-17171015D01*
X121258985Y-17052481D01*
X121165853Y-16913100D01*
X121101703Y-16758228D01*
X121069000Y-16593816D01*
X121069000Y-16426184D01*
X121101703Y-16261772D01*
X121165853Y-16106900D01*
X121258985Y-15967519D01*
X121377519Y-15848985D01*
X121516900Y-15755853D01*
X121671772Y-15691703D01*
X121836184Y-15659000D01*
X122003816Y-15659000D01*
X122168228Y-15691703D01*
X122168228Y-15691703D01*
G37*
G36*
X124708228Y-15691703D02*
G01*
X124863100Y-15755853D01*
X125002481Y-15848985D01*
X125121015Y-15967519D01*
X125214147Y-16106900D01*
X125278297Y-16261772D01*
X125311000Y-16426184D01*
X125311000Y-16593816D01*
X125278297Y-16758228D01*
X125214147Y-16913100D01*
X125121015Y-17052481D01*
X125002481Y-17171015D01*
X124863100Y-17264147D01*
X124708228Y-17328297D01*
X124543816Y-17361000D01*
X124376184Y-17361000D01*
X124211772Y-17328297D01*
X124056900Y-17264147D01*
X123917519Y-17171015D01*
X123798985Y-17052481D01*
X123705853Y-16913100D01*
X123641703Y-16758228D01*
X123609000Y-16593816D01*
X123609000Y-16426184D01*
X123641703Y-16261772D01*
X123705853Y-16106900D01*
X123798985Y-15967519D01*
X123917519Y-15848985D01*
X124056900Y-15755853D01*
X124211772Y-15691703D01*
X124376184Y-15659000D01*
X124543816Y-15659000D01*
X124708228Y-15691703D01*
X124708228Y-15691703D01*
G37*
G36*
X127248228Y-15691703D02*
G01*
X127403100Y-15755853D01*
X127542481Y-15848985D01*
X127661015Y-15967519D01*
X127754147Y-16106900D01*
X127818297Y-16261772D01*
X127851000Y-16426184D01*
X127851000Y-16593816D01*
X127818297Y-16758228D01*
X127754147Y-16913100D01*
X127661015Y-17052481D01*
X127542481Y-17171015D01*
X127403100Y-17264147D01*
X127248228Y-17328297D01*
X127083816Y-17361000D01*
X126916184Y-17361000D01*
X126751772Y-17328297D01*
X126596900Y-17264147D01*
X126457519Y-17171015D01*
X126338985Y-17052481D01*
X126245853Y-16913100D01*
X126181703Y-16758228D01*
X126149000Y-16593816D01*
X126149000Y-16426184D01*
X126181703Y-16261772D01*
X126245853Y-16106900D01*
X126338985Y-15967519D01*
X126457519Y-15848985D01*
X126596900Y-15755853D01*
X126751772Y-15691703D01*
X126916184Y-15659000D01*
X127083816Y-15659000D01*
X127248228Y-15691703D01*
X127248228Y-15691703D01*
G37*
G36*
X129788228Y-15691703D02*
G01*
X129943100Y-15755853D01*
X130082481Y-15848985D01*
X130201015Y-15967519D01*
X130294147Y-16106900D01*
X130358297Y-16261772D01*
X130391000Y-16426184D01*
X130391000Y-16593816D01*
X130358297Y-16758228D01*
X130294147Y-16913100D01*
X130201015Y-17052481D01*
X130082481Y-17171015D01*
X129943100Y-17264147D01*
X129788228Y-17328297D01*
X129623816Y-17361000D01*
X129456184Y-17361000D01*
X129291772Y-17328297D01*
X129136900Y-17264147D01*
X128997519Y-17171015D01*
X128878985Y-17052481D01*
X128785853Y-16913100D01*
X128721703Y-16758228D01*
X128689000Y-16593816D01*
X128689000Y-16426184D01*
X128721703Y-16261772D01*
X128785853Y-16106900D01*
X128878985Y-15967519D01*
X128997519Y-15848985D01*
X129136900Y-15755853D01*
X129291772Y-15691703D01*
X129456184Y-15659000D01*
X129623816Y-15659000D01*
X129788228Y-15691703D01*
X129788228Y-15691703D01*
G37*
M02*
