M48
; DRILL file {KiCad (5.1.0-964-gdaad58e51)} date Thu 13 Jun 2019 01:55:37 AM PDT
; FORMAT={-:-/ absolute / inch / decimal}
; #@! TF.CreationDate,2019-06-13T01:55:37-07:00
; #@! TF.GenerationSoftware,Kicad,Pcbnew,(5.1.0-964-gdaad58e51)
; #@! TF.FileFunction,NonPlated,1,2,NPTH
FMAT,2
INCH
T1C0.0630
T2C0.0669
T3C0.0984
%
G90
G05
T1
X2.7457Y-3.0
T2
X3.6016Y-3.2811
X3.7Y-3.2811
X5.3311Y-1.6
X5.3311Y-1.6984
X5.3311Y-2.3
X5.3311Y-2.3984
X4.6516Y-3.2811
X4.75Y-3.2811
X3.9516Y-3.2811
X4.05Y-3.2811
X5.3311Y-1.95
X5.3311Y-2.0484
X5.3311Y-2.65
X5.3311Y-2.7484
X4.3016Y-3.2811
X4.4Y-3.2811
T3
X2.6Y-0.65
X5.4Y-3.35
X2.6Y-3.35
X5.4Y-0.65
T0
M30
