M48
; DRILL file {KiCad (5.1.2-1)-1} date Wednesday, June 05, 2019 at 11:38:17 PM
; FORMAT={-:-/ absolute / metric / decimal}
; #@! TF.CreationDate,2019-06-05T23:38:17-07:00
; #@! TF.GenerationSoftware,Kicad,Pcbnew,(5.1.2-1)-1
; #@! TF.FileFunction,Plated,1,2,PTH
FMAT,2
METRIC
T1C0.800
T2C1.000
T3C1.100
T4C1.200
T5C1.600
%
G90
G05
T1
X114.3Y-52.07
X124.46Y-52.07
X114.3Y-40.64
X124.46Y-40.64
X114.3Y-63.5
X124.46Y-63.5
X114.3Y-59.69
X124.46Y-59.69
X114.3Y-48.26
X124.46Y-48.26
X96.52Y-40.64
X96.52Y-43.18
X96.52Y-45.72
X96.52Y-48.26
X96.52Y-50.8
X96.52Y-53.34
X96.52Y-55.88
X96.52Y-58.42
X96.52Y-60.96
X96.52Y-63.5
X104.14Y-40.64
X104.14Y-43.18
X104.14Y-45.72
X104.14Y-48.26
X104.14Y-50.8
X104.14Y-53.34
X104.14Y-55.88
X104.14Y-58.42
X104.14Y-60.96
X104.14Y-63.5
X114.3Y-36.83
X124.46Y-36.83
X68.89Y-64.77
X72.39Y-64.77
X114.3Y-55.88
X124.46Y-55.88
X114.3Y-44.45
X124.46Y-44.45
T3
X71.12Y-16.51
X71.12Y-31.75
X73.66Y-16.51
X73.66Y-19.05
X73.66Y-31.75
X76.2Y-16.51
X76.2Y-31.75
X77.47Y-28.75
X78.74Y-16.51
X78.74Y-19.05
X78.74Y-31.75
X80.01Y-28.75
X81.28Y-16.51
X81.28Y-19.05
X81.28Y-31.75
X82.55Y-28.75
X83.82Y-16.51
X83.82Y-19.05
X83.82Y-31.75
X85.09Y-28.75
X86.36Y-16.51
X86.36Y-21.59
X86.36Y-24.13
X86.36Y-31.75
X87.63Y-28.75
X88.9Y-16.51
X88.9Y-21.59
X88.9Y-24.13
X88.9Y-31.75
X91.44Y-16.51
X91.44Y-21.59
X91.44Y-24.13
X91.44Y-31.75
X93.98Y-16.51
X93.98Y-21.59
X93.98Y-24.13
X93.98Y-31.75
X96.52Y-16.51
X96.52Y-31.75
X99.06Y-16.51
X99.06Y-31.75
X101.6Y-16.51
X101.6Y-31.75
X104.14Y-16.51
X104.14Y-31.75
X106.68Y-16.51
X106.68Y-31.75
X109.22Y-16.51
X109.22Y-21.59
X109.22Y-24.13
X109.22Y-31.75
X111.76Y-16.51
X111.76Y-21.59
X111.76Y-24.13
X111.76Y-31.75
X114.3Y-16.51
X114.3Y-21.59
X114.3Y-24.13
X114.3Y-31.75
X116.84Y-16.51
X116.84Y-19.05
X116.84Y-21.59
X116.84Y-24.13
X116.84Y-26.67
X116.84Y-29.21
X116.84Y-31.75
X119.38Y-16.51
X119.38Y-21.59
X119.38Y-24.13
X119.38Y-31.75
X121.92Y-16.51
X121.92Y-21.59
X121.92Y-24.13
X121.92Y-31.75
X124.46Y-16.51
X124.46Y-21.59
X124.46Y-24.13
X124.46Y-31.75
X127.0Y-16.51
X127.0Y-21.59
X127.0Y-24.13
X127.0Y-31.75
X129.54Y-16.51
X129.54Y-21.59
X129.54Y-24.13
X129.54Y-31.75
X66.86Y-54.61
X68.56Y-54.61
X70.26Y-54.61
X71.96Y-54.61
X73.66Y-54.61
T4
X135.93Y-54.65
X135.93Y-57.15
X138.43Y-54.65
X138.43Y-57.15
X127.0Y-73.66
X127.0Y-76.16
X129.5Y-73.66
X129.5Y-76.16
X106.68Y-73.66
X106.68Y-76.16
X109.18Y-73.66
X109.18Y-76.16
X135.93Y-44.49
X135.93Y-46.99
X138.43Y-44.49
X138.43Y-46.99
X135.93Y-64.81
X135.93Y-67.31
X138.43Y-64.81
X138.43Y-67.31
X116.84Y-73.66
X116.84Y-76.16
X119.34Y-73.66
X119.34Y-76.16
X96.52Y-73.66
X96.52Y-76.16
X99.02Y-73.66
X99.02Y-76.16
X68.66Y-44.45
X73.66Y-44.45
X135.93Y-34.29
X135.93Y-36.79
X138.43Y-34.29
X138.43Y-36.79
T5
X83.82Y-51.15
X83.82Y-57.15
X85.09Y-64.77
X85.09Y-80.01
T2
G00X72.49Y-71.7
M15
G01X70.99Y-71.7
M16
G05
G00X72.49Y-80.7
M15
G01X70.99Y-80.7
M16
G05
G00X72.74Y-75.55
M15
G01X72.74Y-76.85
M16
G05
G00X78.74Y-75.2
M15
G01X78.74Y-77.2
M16
G05
T0
M30
