M48
; DRILL file {KiCad (5.1.0-964-gdaad58e51)} date Thu 13 Jun 2019 01:55:37 AM PDT
; FORMAT={-:-/ absolute / inch / decimal}
; #@! TF.CreationDate,2019-06-13T01:55:37-07:00
; #@! TF.GenerationSoftware,Kicad,Pcbnew,(5.1.0-964-gdaad58e51)
; #@! TF.FileFunction,Plated,1,2,PTH
FMAT,2
INCH
T1C0.0315
T2C0.0394
T3C0.0433
T4C0.0472
T5C0.0630
%
G90
G05
T1
X3.8Y-1.6
X3.8Y-1.7
X4.3Y-2.3
X4.7Y-2.3
X4.3Y-2.0
X4.7Y-2.0
X4.3Y-1.85
X4.7Y-1.85
X3.8Y-1.8
X3.8Y-1.9
X3.8Y-2.0
X3.8Y-2.1
X3.8Y-2.2
X3.8Y-2.3
X3.8Y-2.4
X3.8Y-2.5
X4.1Y-1.6
X4.1Y-1.7
X4.1Y-1.8
X4.1Y-1.9
X4.1Y-2.0
X4.1Y-2.1
X4.1Y-2.2
X4.1Y-2.3
X4.1Y-2.4
X4.1Y-2.5
X4.3Y-2.6
X4.7Y-2.6
X4.3Y-2.45
X4.7Y-2.45
X4.3Y-1.7
X4.7Y-1.7
X2.7122Y-2.55
X2.85Y-2.55
X4.3Y-2.15
X4.7Y-2.15
X4.3Y-1.55
X4.7Y-1.55
T3
X2.8Y-0.65
X2.8Y-1.25
X2.9Y-0.65
X2.9Y-0.75
X2.9Y-1.25
X3.0Y-0.65
X3.0Y-1.25
X3.05Y-1.1319
X3.1Y-0.65
X3.1Y-0.75
X3.1Y-1.25
X3.15Y-1.1319
X3.2Y-0.65
X3.3Y-0.75
X2.8331Y-2.15
X2.9Y-2.15
X3.25Y-1.1319
X2.6323Y-2.15
X2.6992Y-2.15
X2.7661Y-2.15
X3.2Y-0.75
X3.2Y-1.25
X3.3Y-0.65
X3.3Y-1.25
X3.35Y-1.1319
X3.4Y-0.65
X3.4Y-0.85
X3.4Y-0.95
X3.4Y-1.25
X3.45Y-1.1319
X3.5Y-0.65
X3.5Y-0.85
X3.5Y-0.95
X3.5Y-1.25
X3.6Y-0.65
X3.6Y-0.85
X3.6Y-0.95
X3.6Y-1.25
X3.7Y-0.65
X3.7Y-0.85
X3.7Y-0.95
X3.7Y-1.25
X3.8Y-0.65
X3.8Y-1.25
X3.9Y-0.65
X3.9Y-1.25
X4.0Y-0.65
X4.0Y-1.25
X4.1Y-0.65
X4.1Y-1.25
X4.2Y-0.65
X4.2Y-1.25
X4.3Y-0.65
X4.3Y-0.85
X4.3Y-0.95
X4.3Y-1.25
X4.4Y-0.65
X4.4Y-0.85
X4.4Y-0.95
X4.4Y-1.25
X4.5Y-0.65
X4.5Y-0.85
X4.5Y-0.95
X4.5Y-1.25
X4.6Y-0.65
X4.6Y-0.75
X4.6Y-0.85
X4.6Y-0.95
X4.6Y-1.05
X4.6Y-1.15
X4.6Y-1.25
X4.7Y-0.65
X4.7Y-0.85
X4.7Y-0.95
X4.7Y-1.25
X4.8Y-0.65
X4.8Y-0.85
X4.8Y-0.95
X4.8Y-1.25
X4.9Y-0.65
X4.9Y-0.85
X4.9Y-0.95
X4.9Y-1.25
X5.0Y-0.65
X5.0Y-0.85
X5.0Y-0.95
X5.0Y-1.25
X5.1Y-0.65
X5.1Y-0.85
X5.1Y-0.95
X5.1Y-1.25
T4
X3.6016Y-2.9
X3.6016Y-2.9984
X3.7Y-2.9
X3.7Y-2.9984
X4.95Y-1.6
X4.95Y-1.6984
X5.0484Y-1.6
X5.0484Y-1.6984
X4.95Y-2.3
X4.95Y-2.3984
X5.0484Y-2.3
X5.0484Y-2.3984
X3.9516Y-2.9
X3.9516Y-2.9984
X4.05Y-2.9
X4.05Y-2.9984
X4.95Y-1.95
X4.95Y-2.0484
X5.0484Y-1.95
X5.0484Y-2.0484
X2.7031Y-1.75
X2.9Y-1.75
X4.6516Y-2.9
X4.6516Y-2.9984
X4.75Y-2.9
X4.75Y-2.9984
X4.95Y-2.65
X4.95Y-2.7484
X5.0484Y-2.65
X5.0484Y-2.7484
X4.3016Y-2.9
X4.3016Y-2.9984
X4.4Y-2.9
X4.4Y-2.9984
T5
X3.35Y-2.55
X3.35Y-3.15
X3.3Y-2.0138
X3.3Y-2.25
T2
G00X2.8539Y-2.8228
M15
G01X2.7949Y-2.8228
M16
G05
G00X2.8539Y-3.1772
M15
G01X2.7949Y-3.1772
M16
G05
G00X2.8638Y-2.9744
M15
G01X2.8638Y-3.0256
M16
G05
G00X3.1Y-2.9606
M15
G01X3.1Y-3.0394
M16
G05
T0
M30
