G04 #@! TF.GenerationSoftware,KiCad,Pcbnew,(5.1.0-964-gdaad58e51)*
G04 #@! TF.CreationDate,2019-06-13T01:55:35-07:00*
G04 #@! TF.ProjectId,nowhere,6e6f7768-6572-4652-9e6b-696361645f70,rev?*
G04 #@! TF.SameCoordinates,Original*
G04 #@! TF.FileFunction,Legend,Top*
G04 #@! TF.FilePolarity,Positive*
%FSLAX46Y46*%
G04 Gerber Fmt 4.6, Leading zero omitted, Abs format (unit mm)*
G04 Created by KiCad (PCBNEW (5.1.0-964-gdaad58e51)) date 2019-06-13 01:55:35*
%MOMM*%
%LPD*%
G04 APERTURE LIST*
%ADD10C,0.200000*%
%ADD11C,0.010000*%
%ADD12C,0.120000*%
%ADD13C,0.150000*%
G04 APERTURE END LIST*
D10*
X86230952Y-35791904D02*
X86230952Y-34991904D01*
X86535714Y-34991904D01*
X86611904Y-35030000D01*
X86650000Y-35068095D01*
X86688095Y-35144285D01*
X86688095Y-35258571D01*
X86650000Y-35334761D01*
X86611904Y-35372857D01*
X86535714Y-35410952D01*
X86230952Y-35410952D01*
X87373809Y-35791904D02*
X87373809Y-35372857D01*
X87335714Y-35296666D01*
X87259523Y-35258571D01*
X87107142Y-35258571D01*
X87030952Y-35296666D01*
X87373809Y-35753809D02*
X87297619Y-35791904D01*
X87107142Y-35791904D01*
X87030952Y-35753809D01*
X86992857Y-35677619D01*
X86992857Y-35601428D01*
X87030952Y-35525238D01*
X87107142Y-35487142D01*
X87297619Y-35487142D01*
X87373809Y-35449047D01*
X88097619Y-35258571D02*
X88097619Y-35791904D01*
X87754761Y-35258571D02*
X87754761Y-35677619D01*
X87792857Y-35753809D01*
X87869047Y-35791904D01*
X87983333Y-35791904D01*
X88059523Y-35753809D01*
X88097619Y-35715714D01*
X88592857Y-35791904D02*
X88516666Y-35753809D01*
X88478571Y-35677619D01*
X88478571Y-34991904D01*
X89507142Y-35791904D02*
X89507142Y-34991904D01*
X89964285Y-35791904D02*
X89621428Y-35334761D01*
X89964285Y-34991904D02*
X89507142Y-35449047D01*
X90307142Y-35791904D02*
X90307142Y-35258571D01*
X90307142Y-34991904D02*
X90269047Y-35030000D01*
X90307142Y-35068095D01*
X90345238Y-35030000D01*
X90307142Y-34991904D01*
X90307142Y-35068095D01*
X90992857Y-35753809D02*
X90916666Y-35791904D01*
X90764285Y-35791904D01*
X90688095Y-35753809D01*
X90650000Y-35677619D01*
X90650000Y-35372857D01*
X90688095Y-35296666D01*
X90764285Y-35258571D01*
X90916666Y-35258571D01*
X90992857Y-35296666D01*
X91030952Y-35372857D01*
X91030952Y-35449047D01*
X90650000Y-35525238D01*
X91373809Y-35791904D02*
X91373809Y-35258571D01*
X91373809Y-35410952D02*
X91411904Y-35334761D01*
X91450000Y-35296666D01*
X91526190Y-35258571D01*
X91602380Y-35258571D01*
X91869047Y-35258571D02*
X91869047Y-35791904D01*
X91869047Y-35334761D02*
X91907142Y-35296666D01*
X91983333Y-35258571D01*
X92097619Y-35258571D01*
X92173809Y-35296666D01*
X92211904Y-35372857D01*
X92211904Y-35791904D01*
X92935714Y-35791904D02*
X92935714Y-35372857D01*
X92897619Y-35296666D01*
X92821428Y-35258571D01*
X92669047Y-35258571D01*
X92592857Y-35296666D01*
X92935714Y-35753809D02*
X92859523Y-35791904D01*
X92669047Y-35791904D01*
X92592857Y-35753809D01*
X92554761Y-35677619D01*
X92554761Y-35601428D01*
X92592857Y-35525238D01*
X92669047Y-35487142D01*
X92859523Y-35487142D01*
X92935714Y-35449047D01*
X93316666Y-35258571D02*
X93316666Y-35791904D01*
X93316666Y-35334761D02*
X93354761Y-35296666D01*
X93430952Y-35258571D01*
X93545238Y-35258571D01*
X93621428Y-35296666D01*
X93659523Y-35372857D01*
X93659523Y-35791904D01*
X84630952Y-36963333D02*
X85011904Y-36963333D01*
X84554761Y-37191904D02*
X84821428Y-36391904D01*
X85088095Y-37191904D01*
X85469047Y-37191904D02*
X85392857Y-37153809D01*
X85354761Y-37077619D01*
X85354761Y-36391904D01*
X86078571Y-37153809D02*
X86002380Y-37191904D01*
X85850000Y-37191904D01*
X85773809Y-37153809D01*
X85735714Y-37077619D01*
X85735714Y-36772857D01*
X85773809Y-36696666D01*
X85850000Y-36658571D01*
X86002380Y-36658571D01*
X86078571Y-36696666D01*
X86116666Y-36772857D01*
X86116666Y-36849047D01*
X85735714Y-36925238D01*
X86383333Y-37191904D02*
X86802380Y-36658571D01*
X86383333Y-36658571D02*
X86802380Y-37191904D01*
X87107142Y-37191904D02*
X87107142Y-36658571D01*
X87107142Y-36391904D02*
X87069047Y-36430000D01*
X87107142Y-36468095D01*
X87145238Y-36430000D01*
X87107142Y-36391904D01*
X87107142Y-36468095D01*
X87450000Y-37153809D02*
X87526190Y-37191904D01*
X87678571Y-37191904D01*
X87754761Y-37153809D01*
X87792857Y-37077619D01*
X87792857Y-37039523D01*
X87754761Y-36963333D01*
X87678571Y-36925238D01*
X87564285Y-36925238D01*
X87488095Y-36887142D01*
X87450000Y-36810952D01*
X87450000Y-36772857D01*
X87488095Y-36696666D01*
X87564285Y-36658571D01*
X87678571Y-36658571D01*
X87754761Y-36696666D01*
X88707142Y-37153809D02*
X88821428Y-37191904D01*
X89011904Y-37191904D01*
X89088095Y-37153809D01*
X89126190Y-37115714D01*
X89164285Y-37039523D01*
X89164285Y-36963333D01*
X89126190Y-36887142D01*
X89088095Y-36849047D01*
X89011904Y-36810952D01*
X88859523Y-36772857D01*
X88783333Y-36734761D01*
X88745238Y-36696666D01*
X88707142Y-36620476D01*
X88707142Y-36544285D01*
X88745238Y-36468095D01*
X88783333Y-36430000D01*
X88859523Y-36391904D01*
X89050000Y-36391904D01*
X89164285Y-36430000D01*
X89850000Y-37153809D02*
X89773809Y-37191904D01*
X89621428Y-37191904D01*
X89545238Y-37153809D01*
X89507142Y-37115714D01*
X89469047Y-37039523D01*
X89469047Y-36810952D01*
X89507142Y-36734761D01*
X89545238Y-36696666D01*
X89621428Y-36658571D01*
X89773809Y-36658571D01*
X89850000Y-36696666D01*
X90192857Y-37191904D02*
X90192857Y-36391904D01*
X90535714Y-37191904D02*
X90535714Y-36772857D01*
X90497619Y-36696666D01*
X90421428Y-36658571D01*
X90307142Y-36658571D01*
X90230952Y-36696666D01*
X90192857Y-36734761D01*
X90840476Y-36658571D02*
X90992857Y-37191904D01*
X91145238Y-36810952D01*
X91297619Y-37191904D01*
X91450000Y-36658571D01*
X92059523Y-37153809D02*
X91983333Y-37191904D01*
X91830952Y-37191904D01*
X91754761Y-37153809D01*
X91716666Y-37077619D01*
X91716666Y-36772857D01*
X91754761Y-36696666D01*
X91830952Y-36658571D01*
X91983333Y-36658571D01*
X92059523Y-36696666D01*
X92097619Y-36772857D01*
X92097619Y-36849047D01*
X91716666Y-36925238D01*
X92440476Y-37191904D02*
X92440476Y-36658571D01*
X92440476Y-36810952D02*
X92478571Y-36734761D01*
X92516666Y-36696666D01*
X92592857Y-36658571D01*
X92669047Y-36658571D01*
X92935714Y-37191904D02*
X92935714Y-36658571D01*
X92935714Y-36391904D02*
X92897619Y-36430000D01*
X92935714Y-36468095D01*
X92973809Y-36430000D01*
X92935714Y-36391904D01*
X92935714Y-36468095D01*
X93316666Y-36658571D02*
X93316666Y-37191904D01*
X93316666Y-36734761D02*
X93354761Y-36696666D01*
X93430952Y-36658571D01*
X93545238Y-36658571D01*
X93621428Y-36696666D01*
X93659523Y-36772857D01*
X93659523Y-37191904D01*
X92592857Y-38058571D02*
X92783333Y-38591904D01*
X92973809Y-38058571D01*
X93240476Y-37868095D02*
X93278571Y-37830000D01*
X93354761Y-37791904D01*
X93545238Y-37791904D01*
X93621428Y-37830000D01*
X93659523Y-37868095D01*
X93697619Y-37944285D01*
X93697619Y-38020476D01*
X93659523Y-38134761D01*
X93202380Y-38591904D01*
X93697619Y-38591904D01*
D11*
G36*
X126744481Y-73848035D02*
G01*
X126824464Y-73924800D01*
X126952782Y-74065387D01*
X127128575Y-74269297D01*
X127190897Y-74343285D01*
X127688213Y-74978783D01*
X128128334Y-75628784D01*
X128506155Y-76284033D01*
X128816573Y-76935275D01*
X129054480Y-77573253D01*
X129145223Y-77886584D01*
X129224315Y-78285501D01*
X129270231Y-78728999D01*
X129281048Y-79182970D01*
X129254847Y-79613310D01*
X129246391Y-79683047D01*
X129157694Y-80200165D01*
X129020938Y-80777031D01*
X128839022Y-81405776D01*
X128614844Y-82078531D01*
X128351302Y-82787428D01*
X128051296Y-83524599D01*
X127717722Y-84282174D01*
X127353480Y-85052286D01*
X127036504Y-85682666D01*
X126901708Y-85940069D01*
X126789658Y-86146801D01*
X126703182Y-86298213D01*
X126645105Y-86389655D01*
X126618253Y-86416476D01*
X126625454Y-86374027D01*
X126637683Y-86338833D01*
X126661445Y-86275081D01*
X126710116Y-86145140D01*
X126778797Y-85962064D01*
X126862587Y-85738911D01*
X126956590Y-85488737D01*
X126987127Y-85407500D01*
X127303254Y-84545574D01*
X127592629Y-83713646D01*
X127853439Y-82917937D01*
X128083869Y-82164666D01*
X128282107Y-81460051D01*
X128446337Y-80810313D01*
X128574747Y-80221670D01*
X128665521Y-79700342D01*
X128678508Y-79608347D01*
X128717048Y-79026993D01*
X128681360Y-78412449D01*
X128572954Y-77769376D01*
X128393337Y-77102435D01*
X128144016Y-76416287D01*
X127826501Y-75715592D01*
X127442299Y-75005011D01*
X126992918Y-74289205D01*
X126925111Y-74189166D01*
X126803149Y-74005657D01*
X126732963Y-73887964D01*
X126713694Y-73835590D01*
X126744481Y-73848035D01*
G37*
X126744481Y-73848035D02*
X126824464Y-73924800D01*
X126952782Y-74065387D01*
X127128575Y-74269297D01*
X127190897Y-74343285D01*
X127688213Y-74978783D01*
X128128334Y-75628784D01*
X128506155Y-76284033D01*
X128816573Y-76935275D01*
X129054480Y-77573253D01*
X129145223Y-77886584D01*
X129224315Y-78285501D01*
X129270231Y-78728999D01*
X129281048Y-79182970D01*
X129254847Y-79613310D01*
X129246391Y-79683047D01*
X129157694Y-80200165D01*
X129020938Y-80777031D01*
X128839022Y-81405776D01*
X128614844Y-82078531D01*
X128351302Y-82787428D01*
X128051296Y-83524599D01*
X127717722Y-84282174D01*
X127353480Y-85052286D01*
X127036504Y-85682666D01*
X126901708Y-85940069D01*
X126789658Y-86146801D01*
X126703182Y-86298213D01*
X126645105Y-86389655D01*
X126618253Y-86416476D01*
X126625454Y-86374027D01*
X126637683Y-86338833D01*
X126661445Y-86275081D01*
X126710116Y-86145140D01*
X126778797Y-85962064D01*
X126862587Y-85738911D01*
X126956590Y-85488737D01*
X126987127Y-85407500D01*
X127303254Y-84545574D01*
X127592629Y-83713646D01*
X127853439Y-82917937D01*
X128083869Y-82164666D01*
X128282107Y-81460051D01*
X128446337Y-80810313D01*
X128574747Y-80221670D01*
X128665521Y-79700342D01*
X128678508Y-79608347D01*
X128717048Y-79026993D01*
X128681360Y-78412449D01*
X128572954Y-77769376D01*
X128393337Y-77102435D01*
X128144016Y-76416287D01*
X127826501Y-75715592D01*
X127442299Y-75005011D01*
X126992918Y-74289205D01*
X126925111Y-74189166D01*
X126803149Y-74005657D01*
X126732963Y-73887964D01*
X126713694Y-73835590D01*
X126744481Y-73848035D01*
G36*
X132853832Y-73797671D02*
G01*
X132797532Y-73892024D01*
X132709438Y-74027158D01*
X132598360Y-74189086D01*
X132594556Y-74194509D01*
X132161250Y-74860899D01*
X131774963Y-75555036D01*
X131442635Y-76261828D01*
X131171208Y-76966180D01*
X130967621Y-77652999D01*
X130928923Y-77816686D01*
X130890696Y-78001324D01*
X130863697Y-78172813D01*
X130846155Y-78352683D01*
X130836300Y-78562460D01*
X130832359Y-78823671D01*
X130832068Y-78994000D01*
X130833838Y-79281314D01*
X130840012Y-79509116D01*
X130853076Y-79702536D01*
X130875516Y-79886707D01*
X130909818Y-80086761D01*
X130958466Y-80327829D01*
X130968865Y-80377171D01*
X131097227Y-80932612D01*
X131260703Y-81554387D01*
X131456394Y-82233177D01*
X131681399Y-82959664D01*
X131932816Y-83724530D01*
X132207744Y-84518457D01*
X132503283Y-85332126D01*
X132552567Y-85464268D01*
X132648485Y-85723500D01*
X132732145Y-85955371D01*
X132799607Y-86148476D01*
X132846932Y-86291413D01*
X132870183Y-86372781D01*
X132871345Y-86387099D01*
X132847558Y-86356797D01*
X132791656Y-86261179D01*
X132709305Y-86110697D01*
X132606170Y-85915804D01*
X132487918Y-85686954D01*
X132427561Y-85568331D01*
X132005015Y-84707685D01*
X131624193Y-83878129D01*
X131286358Y-83083538D01*
X130992769Y-82327784D01*
X130744689Y-81614740D01*
X130543380Y-80948281D01*
X130390103Y-80332278D01*
X130286119Y-79770607D01*
X130232690Y-79267138D01*
X130231078Y-78825747D01*
X130231143Y-78824666D01*
X130309390Y-78204862D01*
X130469530Y-77567189D01*
X130710994Y-76912957D01*
X131033208Y-76243480D01*
X131435602Y-75560068D01*
X131917605Y-74864033D01*
X132009982Y-74741178D01*
X132145915Y-74566939D01*
X132293526Y-74385133D01*
X132442868Y-74207135D01*
X132583997Y-74044320D01*
X132706968Y-73908062D01*
X132801835Y-73809738D01*
X132858653Y-73760720D01*
X132869527Y-73758082D01*
X132853832Y-73797671D01*
G37*
X132853832Y-73797671D02*
X132797532Y-73892024D01*
X132709438Y-74027158D01*
X132598360Y-74189086D01*
X132594556Y-74194509D01*
X132161250Y-74860899D01*
X131774963Y-75555036D01*
X131442635Y-76261828D01*
X131171208Y-76966180D01*
X130967621Y-77652999D01*
X130928923Y-77816686D01*
X130890696Y-78001324D01*
X130863697Y-78172813D01*
X130846155Y-78352683D01*
X130836300Y-78562460D01*
X130832359Y-78823671D01*
X130832068Y-78994000D01*
X130833838Y-79281314D01*
X130840012Y-79509116D01*
X130853076Y-79702536D01*
X130875516Y-79886707D01*
X130909818Y-80086761D01*
X130958466Y-80327829D01*
X130968865Y-80377171D01*
X131097227Y-80932612D01*
X131260703Y-81554387D01*
X131456394Y-82233177D01*
X131681399Y-82959664D01*
X131932816Y-83724530D01*
X132207744Y-84518457D01*
X132503283Y-85332126D01*
X132552567Y-85464268D01*
X132648485Y-85723500D01*
X132732145Y-85955371D01*
X132799607Y-86148476D01*
X132846932Y-86291413D01*
X132870183Y-86372781D01*
X132871345Y-86387099D01*
X132847558Y-86356797D01*
X132791656Y-86261179D01*
X132709305Y-86110697D01*
X132606170Y-85915804D01*
X132487918Y-85686954D01*
X132427561Y-85568331D01*
X132005015Y-84707685D01*
X131624193Y-83878129D01*
X131286358Y-83083538D01*
X130992769Y-82327784D01*
X130744689Y-81614740D01*
X130543380Y-80948281D01*
X130390103Y-80332278D01*
X130286119Y-79770607D01*
X130232690Y-79267138D01*
X130231078Y-78825747D01*
X130231143Y-78824666D01*
X130309390Y-78204862D01*
X130469530Y-77567189D01*
X130710994Y-76912957D01*
X131033208Y-76243480D01*
X131435602Y-75560068D01*
X131917605Y-74864033D01*
X132009982Y-74741178D01*
X132145915Y-74566939D01*
X132293526Y-74385133D01*
X132442868Y-74207135D01*
X132583997Y-74044320D01*
X132706968Y-73908062D01*
X132801835Y-73809738D01*
X132858653Y-73760720D01*
X132869527Y-73758082D01*
X132853832Y-73797671D01*
G36*
X130410344Y-74954604D02*
G01*
X130620928Y-75073894D01*
X130803310Y-75178709D01*
X130945715Y-75262160D01*
X131036374Y-75317359D01*
X131064000Y-75337120D01*
X131041093Y-75374129D01*
X130977574Y-75469281D01*
X130881251Y-75611264D01*
X130759930Y-75788765D01*
X130621417Y-75990471D01*
X130473519Y-76205070D01*
X130324041Y-76421248D01*
X130180791Y-76627692D01*
X130051575Y-76813091D01*
X129944200Y-76966130D01*
X129866470Y-77075497D01*
X129832172Y-77122257D01*
X129758276Y-77219015D01*
X129655625Y-77079924D01*
X129592483Y-76991910D01*
X129491436Y-76848217D01*
X129362335Y-76663079D01*
X129215030Y-76450733D01*
X129059370Y-76225411D01*
X128905206Y-76001351D01*
X128762388Y-75792786D01*
X128640765Y-75613952D01*
X128620643Y-75584180D01*
X128485727Y-75384300D01*
X128862667Y-75384300D01*
X128885513Y-75431311D01*
X128947333Y-75532399D01*
X129038054Y-75672631D01*
X129147598Y-75837070D01*
X129265892Y-76010785D01*
X129382860Y-76178840D01*
X129488426Y-76326302D01*
X129572516Y-76438235D01*
X129580597Y-76448460D01*
X129761609Y-76675754D01*
X129863189Y-76554293D01*
X129924084Y-76474814D01*
X130020019Y-76341835D01*
X130139020Y-76172269D01*
X130269111Y-75983030D01*
X130302717Y-75933513D01*
X130423871Y-75751943D01*
X130525787Y-75594315D01*
X130599897Y-75474260D01*
X130637635Y-75405411D01*
X130640667Y-75395797D01*
X130605331Y-75346564D01*
X130509398Y-75269590D01*
X130367984Y-75175038D01*
X130196201Y-75073065D01*
X130024012Y-74981270D01*
X129767191Y-74851951D01*
X129579512Y-74935636D01*
X129468027Y-74991450D01*
X129329308Y-75069400D01*
X129181802Y-75157940D01*
X129043957Y-75245524D01*
X128934221Y-75320606D01*
X128871041Y-75371640D01*
X128862667Y-75384300D01*
X128485727Y-75384300D01*
X128447855Y-75328193D01*
X129102271Y-74957481D01*
X129756687Y-74586768D01*
X130410344Y-74954604D01*
G37*
X130410344Y-74954604D02*
X130620928Y-75073894D01*
X130803310Y-75178709D01*
X130945715Y-75262160D01*
X131036374Y-75317359D01*
X131064000Y-75337120D01*
X131041093Y-75374129D01*
X130977574Y-75469281D01*
X130881251Y-75611264D01*
X130759930Y-75788765D01*
X130621417Y-75990471D01*
X130473519Y-76205070D01*
X130324041Y-76421248D01*
X130180791Y-76627692D01*
X130051575Y-76813091D01*
X129944200Y-76966130D01*
X129866470Y-77075497D01*
X129832172Y-77122257D01*
X129758276Y-77219015D01*
X129655625Y-77079924D01*
X129592483Y-76991910D01*
X129491436Y-76848217D01*
X129362335Y-76663079D01*
X129215030Y-76450733D01*
X129059370Y-76225411D01*
X128905206Y-76001351D01*
X128762388Y-75792786D01*
X128640765Y-75613952D01*
X128620643Y-75584180D01*
X128485727Y-75384300D01*
X128862667Y-75384300D01*
X128885513Y-75431311D01*
X128947333Y-75532399D01*
X129038054Y-75672631D01*
X129147598Y-75837070D01*
X129265892Y-76010785D01*
X129382860Y-76178840D01*
X129488426Y-76326302D01*
X129572516Y-76438235D01*
X129580597Y-76448460D01*
X129761609Y-76675754D01*
X129863189Y-76554293D01*
X129924084Y-76474814D01*
X130020019Y-76341835D01*
X130139020Y-76172269D01*
X130269111Y-75983030D01*
X130302717Y-75933513D01*
X130423871Y-75751943D01*
X130525787Y-75594315D01*
X130599897Y-75474260D01*
X130637635Y-75405411D01*
X130640667Y-75395797D01*
X130605331Y-75346564D01*
X130509398Y-75269590D01*
X130367984Y-75175038D01*
X130196201Y-75073065D01*
X130024012Y-74981270D01*
X129767191Y-74851951D01*
X129579512Y-74935636D01*
X129468027Y-74991450D01*
X129329308Y-75069400D01*
X129181802Y-75157940D01*
X129043957Y-75245524D01*
X128934221Y-75320606D01*
X128871041Y-75371640D01*
X128862667Y-75384300D01*
X128485727Y-75384300D01*
X128447855Y-75328193D01*
X129102271Y-74957481D01*
X129756687Y-74586768D01*
X130410344Y-74954604D01*
G36*
X83664292Y-42242628D02*
G01*
X83715237Y-42340775D01*
X83727578Y-42411976D01*
X83737728Y-42544241D01*
X83745144Y-42726084D01*
X83749287Y-42946022D01*
X83749973Y-43078032D01*
X83751284Y-43288307D01*
X83754663Y-43474290D01*
X83759702Y-43623452D01*
X83765998Y-43723262D01*
X83772054Y-43759979D01*
X83774820Y-43820519D01*
X83763989Y-43843803D01*
X83755437Y-43892374D01*
X83748697Y-44004367D01*
X83743983Y-44170656D01*
X83741513Y-44382116D01*
X83741501Y-44629620D01*
X83742408Y-44755930D01*
X83743569Y-45019977D01*
X83742059Y-45256220D01*
X83738115Y-45454571D01*
X83731975Y-45604945D01*
X83723875Y-45697255D01*
X83719791Y-45716763D01*
X83662094Y-45821720D01*
X83586401Y-45864497D01*
X83504221Y-45841523D01*
X83458956Y-45797725D01*
X83446615Y-45777246D01*
X83436399Y-45745637D01*
X83428154Y-45696668D01*
X83421726Y-45624109D01*
X83416960Y-45521731D01*
X83413703Y-45383303D01*
X83411801Y-45202595D01*
X83411100Y-44973378D01*
X83411445Y-44689422D01*
X83412683Y-44344496D01*
X83414348Y-43993568D01*
X83423125Y-42256827D01*
X83499262Y-42213461D01*
X83589558Y-42193050D01*
X83664292Y-42242628D01*
G37*
X83664292Y-42242628D02*
X83715237Y-42340775D01*
X83727578Y-42411976D01*
X83737728Y-42544241D01*
X83745144Y-42726084D01*
X83749287Y-42946022D01*
X83749973Y-43078032D01*
X83751284Y-43288307D01*
X83754663Y-43474290D01*
X83759702Y-43623452D01*
X83765998Y-43723262D01*
X83772054Y-43759979D01*
X83774820Y-43820519D01*
X83763989Y-43843803D01*
X83755437Y-43892374D01*
X83748697Y-44004367D01*
X83743983Y-44170656D01*
X83741513Y-44382116D01*
X83741501Y-44629620D01*
X83742408Y-44755930D01*
X83743569Y-45019977D01*
X83742059Y-45256220D01*
X83738115Y-45454571D01*
X83731975Y-45604945D01*
X83723875Y-45697255D01*
X83719791Y-45716763D01*
X83662094Y-45821720D01*
X83586401Y-45864497D01*
X83504221Y-45841523D01*
X83458956Y-45797725D01*
X83446615Y-45777246D01*
X83436399Y-45745637D01*
X83428154Y-45696668D01*
X83421726Y-45624109D01*
X83416960Y-45521731D01*
X83413703Y-45383303D01*
X83411801Y-45202595D01*
X83411100Y-44973378D01*
X83411445Y-44689422D01*
X83412683Y-44344496D01*
X83414348Y-43993568D01*
X83423125Y-42256827D01*
X83499262Y-42213461D01*
X83589558Y-42193050D01*
X83664292Y-42242628D01*
G36*
X85607487Y-42209289D02*
G01*
X85669707Y-42231950D01*
X85681140Y-42243533D01*
X85685992Y-42287577D01*
X85690757Y-42396869D01*
X85695311Y-42564087D01*
X85699531Y-42781908D01*
X85703295Y-43043009D01*
X85706479Y-43340068D01*
X85708960Y-43665761D01*
X85710551Y-43994319D01*
X85711889Y-44410323D01*
X85712389Y-44759589D01*
X85711555Y-45047952D01*
X85708894Y-45281246D01*
X85703911Y-45465302D01*
X85696110Y-45605956D01*
X85684998Y-45709040D01*
X85670080Y-45780388D01*
X85650861Y-45825833D01*
X85626845Y-45851209D01*
X85597540Y-45862349D01*
X85562450Y-45865087D01*
X85551910Y-45865142D01*
X85470381Y-45842028D01*
X85425642Y-45808122D01*
X85414142Y-45788364D01*
X85404527Y-45753639D01*
X85396634Y-45697922D01*
X85390298Y-45615190D01*
X85385356Y-45499417D01*
X85381643Y-45344578D01*
X85378995Y-45144649D01*
X85377249Y-44893606D01*
X85376240Y-44585423D01*
X85375804Y-44214076D01*
X85375750Y-43975694D01*
X85375750Y-42327285D01*
X85598000Y-42327285D01*
X85613875Y-42345428D01*
X85629750Y-42327285D01*
X85613875Y-42309142D01*
X85598000Y-42327285D01*
X85375750Y-42327285D01*
X85375750Y-42200285D01*
X85516751Y-42200285D01*
X85607487Y-42209289D01*
G37*
X85607487Y-42209289D02*
X85669707Y-42231950D01*
X85681140Y-42243533D01*
X85685992Y-42287577D01*
X85690757Y-42396869D01*
X85695311Y-42564087D01*
X85699531Y-42781908D01*
X85703295Y-43043009D01*
X85706479Y-43340068D01*
X85708960Y-43665761D01*
X85710551Y-43994319D01*
X85711889Y-44410323D01*
X85712389Y-44759589D01*
X85711555Y-45047952D01*
X85708894Y-45281246D01*
X85703911Y-45465302D01*
X85696110Y-45605956D01*
X85684998Y-45709040D01*
X85670080Y-45780388D01*
X85650861Y-45825833D01*
X85626845Y-45851209D01*
X85597540Y-45862349D01*
X85562450Y-45865087D01*
X85551910Y-45865142D01*
X85470381Y-45842028D01*
X85425642Y-45808122D01*
X85414142Y-45788364D01*
X85404527Y-45753639D01*
X85396634Y-45697922D01*
X85390298Y-45615190D01*
X85385356Y-45499417D01*
X85381643Y-45344578D01*
X85378995Y-45144649D01*
X85377249Y-44893606D01*
X85376240Y-44585423D01*
X85375804Y-44214076D01*
X85375750Y-43975694D01*
X85375750Y-42327285D01*
X85598000Y-42327285D01*
X85613875Y-42345428D01*
X85629750Y-42327285D01*
X85613875Y-42309142D01*
X85598000Y-42327285D01*
X85375750Y-42327285D01*
X85375750Y-42200285D01*
X85516751Y-42200285D01*
X85607487Y-42209289D01*
G36*
X90209687Y-43196436D02*
G01*
X90256083Y-43204686D01*
X90351432Y-43216257D01*
X90481325Y-43229701D01*
X90631353Y-43243569D01*
X90787106Y-43256414D01*
X90860562Y-43261854D01*
X90897522Y-43287573D01*
X90900250Y-43300952D01*
X90914639Y-43318942D01*
X90921245Y-43313243D01*
X90952941Y-43323331D01*
X91012179Y-43374793D01*
X91061084Y-43427806D01*
X91168231Y-43595632D01*
X91231599Y-43787862D01*
X91250102Y-43987685D01*
X91222653Y-44178287D01*
X91148164Y-44342855D01*
X91122481Y-44377450D01*
X91071204Y-44447580D01*
X91048751Y-44493522D01*
X91049695Y-44499842D01*
X91040405Y-44524352D01*
X90976752Y-44548725D01*
X90867850Y-44570986D01*
X90722815Y-44589162D01*
X90590687Y-44599222D01*
X90508231Y-44609243D01*
X90460501Y-44625350D01*
X90455750Y-44632285D01*
X90477350Y-44666480D01*
X90535550Y-44738240D01*
X90620451Y-44835707D01*
X90685622Y-44907616D01*
X90891197Y-45133118D01*
X91052409Y-45314588D01*
X91172524Y-45455991D01*
X91254809Y-45561288D01*
X91302531Y-45634443D01*
X91318540Y-45675442D01*
X91309404Y-45747777D01*
X91274906Y-45821107D01*
X91231561Y-45863089D01*
X91221799Y-45864908D01*
X91190922Y-45841710D01*
X91126321Y-45780215D01*
X91040218Y-45692224D01*
X91011375Y-45661735D01*
X90786404Y-45420196D01*
X90605653Y-45221580D01*
X90465372Y-45061258D01*
X90361810Y-44934599D01*
X90291220Y-44836975D01*
X90249851Y-44763756D01*
X90247367Y-44755404D01*
X90267756Y-44755404D01*
X90273594Y-44802468D01*
X90284432Y-44803029D01*
X90292011Y-44754465D01*
X90286938Y-44733482D01*
X90272840Y-44719737D01*
X90267756Y-44755404D01*
X90247367Y-44755404D01*
X90233953Y-44710313D01*
X90233500Y-44701305D01*
X90221616Y-44624530D01*
X90173750Y-44592884D01*
X90149389Y-44588481D01*
X90063842Y-44552429D01*
X90031809Y-44504428D01*
X90963750Y-44504428D01*
X90979625Y-44522571D01*
X90995500Y-44504428D01*
X90979625Y-44486285D01*
X90963750Y-44504428D01*
X90031809Y-44504428D01*
X90018283Y-44484161D01*
X90019264Y-44468142D01*
X90043000Y-44468142D01*
X90058875Y-44486285D01*
X90074750Y-44468142D01*
X90058875Y-44450000D01*
X90043000Y-44468142D01*
X90019264Y-44468142D01*
X90023335Y-44401741D01*
X90030602Y-44386500D01*
X90056629Y-44357608D01*
X90105073Y-44336927D01*
X90187170Y-44322131D01*
X90314156Y-44310891D01*
X90427315Y-44304327D01*
X90579160Y-44292969D01*
X90712960Y-44276520D01*
X90812704Y-44257336D01*
X90858412Y-44240865D01*
X90927170Y-44165193D01*
X90963815Y-44042290D01*
X90972409Y-43902142D01*
X90954010Y-43761566D01*
X90895714Y-43654771D01*
X90792873Y-43578956D01*
X90640837Y-43531320D01*
X90434958Y-43509063D01*
X90315807Y-43506571D01*
X90181034Y-43504524D01*
X90095809Y-43496246D01*
X90046239Y-43478534D01*
X90018428Y-43448183D01*
X90012480Y-43436628D01*
X90000652Y-43379571D01*
X90043000Y-43379571D01*
X90058875Y-43397714D01*
X90074750Y-43379571D01*
X90058875Y-43361428D01*
X90043000Y-43379571D01*
X90000652Y-43379571D01*
X89992597Y-43340721D01*
X90025833Y-43272588D01*
X90103200Y-43244893D01*
X90146187Y-43248274D01*
X90169366Y-43225356D01*
X90170000Y-43217424D01*
X90193164Y-43193752D01*
X90209687Y-43196436D01*
G37*
X90209687Y-43196436D02*
X90256083Y-43204686D01*
X90351432Y-43216257D01*
X90481325Y-43229701D01*
X90631353Y-43243569D01*
X90787106Y-43256414D01*
X90860562Y-43261854D01*
X90897522Y-43287573D01*
X90900250Y-43300952D01*
X90914639Y-43318942D01*
X90921245Y-43313243D01*
X90952941Y-43323331D01*
X91012179Y-43374793D01*
X91061084Y-43427806D01*
X91168231Y-43595632D01*
X91231599Y-43787862D01*
X91250102Y-43987685D01*
X91222653Y-44178287D01*
X91148164Y-44342855D01*
X91122481Y-44377450D01*
X91071204Y-44447580D01*
X91048751Y-44493522D01*
X91049695Y-44499842D01*
X91040405Y-44524352D01*
X90976752Y-44548725D01*
X90867850Y-44570986D01*
X90722815Y-44589162D01*
X90590687Y-44599222D01*
X90508231Y-44609243D01*
X90460501Y-44625350D01*
X90455750Y-44632285D01*
X90477350Y-44666480D01*
X90535550Y-44738240D01*
X90620451Y-44835707D01*
X90685622Y-44907616D01*
X90891197Y-45133118D01*
X91052409Y-45314588D01*
X91172524Y-45455991D01*
X91254809Y-45561288D01*
X91302531Y-45634443D01*
X91318540Y-45675442D01*
X91309404Y-45747777D01*
X91274906Y-45821107D01*
X91231561Y-45863089D01*
X91221799Y-45864908D01*
X91190922Y-45841710D01*
X91126321Y-45780215D01*
X91040218Y-45692224D01*
X91011375Y-45661735D01*
X90786404Y-45420196D01*
X90605653Y-45221580D01*
X90465372Y-45061258D01*
X90361810Y-44934599D01*
X90291220Y-44836975D01*
X90249851Y-44763756D01*
X90247367Y-44755404D01*
X90267756Y-44755404D01*
X90273594Y-44802468D01*
X90284432Y-44803029D01*
X90292011Y-44754465D01*
X90286938Y-44733482D01*
X90272840Y-44719737D01*
X90267756Y-44755404D01*
X90247367Y-44755404D01*
X90233953Y-44710313D01*
X90233500Y-44701305D01*
X90221616Y-44624530D01*
X90173750Y-44592884D01*
X90149389Y-44588481D01*
X90063842Y-44552429D01*
X90031809Y-44504428D01*
X90963750Y-44504428D01*
X90979625Y-44522571D01*
X90995500Y-44504428D01*
X90979625Y-44486285D01*
X90963750Y-44504428D01*
X90031809Y-44504428D01*
X90018283Y-44484161D01*
X90019264Y-44468142D01*
X90043000Y-44468142D01*
X90058875Y-44486285D01*
X90074750Y-44468142D01*
X90058875Y-44450000D01*
X90043000Y-44468142D01*
X90019264Y-44468142D01*
X90023335Y-44401741D01*
X90030602Y-44386500D01*
X90056629Y-44357608D01*
X90105073Y-44336927D01*
X90187170Y-44322131D01*
X90314156Y-44310891D01*
X90427315Y-44304327D01*
X90579160Y-44292969D01*
X90712960Y-44276520D01*
X90812704Y-44257336D01*
X90858412Y-44240865D01*
X90927170Y-44165193D01*
X90963815Y-44042290D01*
X90972409Y-43902142D01*
X90954010Y-43761566D01*
X90895714Y-43654771D01*
X90792873Y-43578956D01*
X90640837Y-43531320D01*
X90434958Y-43509063D01*
X90315807Y-43506571D01*
X90181034Y-43504524D01*
X90095809Y-43496246D01*
X90046239Y-43478534D01*
X90018428Y-43448183D01*
X90012480Y-43436628D01*
X90000652Y-43379571D01*
X90043000Y-43379571D01*
X90058875Y-43397714D01*
X90074750Y-43379571D01*
X90058875Y-43361428D01*
X90043000Y-43379571D01*
X90000652Y-43379571D01*
X89992597Y-43340721D01*
X90025833Y-43272588D01*
X90103200Y-43244893D01*
X90146187Y-43248274D01*
X90169366Y-43225356D01*
X90170000Y-43217424D01*
X90193164Y-43193752D01*
X90209687Y-43196436D01*
G36*
X93168505Y-43219902D02*
G01*
X93386040Y-43222894D01*
X93548295Y-43229287D01*
X93663478Y-43240830D01*
X93739792Y-43259275D01*
X93785442Y-43286371D01*
X93808634Y-43323868D01*
X93816000Y-43358029D01*
X93818803Y-43416049D01*
X93805111Y-43458471D01*
X93766924Y-43487443D01*
X93696242Y-43505117D01*
X93585063Y-43513642D01*
X93425387Y-43515168D01*
X93241176Y-43512483D01*
X93013854Y-43506884D01*
X92844591Y-43499662D01*
X92727949Y-43490062D01*
X92658491Y-43477332D01*
X92630780Y-43460718D01*
X92639378Y-43439467D01*
X92650242Y-43430588D01*
X92672534Y-43403954D01*
X92662375Y-43398825D01*
X92621331Y-43407217D01*
X92594126Y-43439639D01*
X92578934Y-43506965D01*
X92573935Y-43620068D01*
X92577304Y-43789820D01*
X92580939Y-43884560D01*
X92598875Y-44316978D01*
X93077419Y-44308500D01*
X93281035Y-44306625D01*
X93429269Y-44311100D01*
X93530161Y-44324636D01*
X93591749Y-44349948D01*
X93622071Y-44389746D01*
X93629167Y-44446744D01*
X93625249Y-44493360D01*
X93619023Y-44526453D01*
X93603266Y-44549613D01*
X93567951Y-44564841D01*
X93503049Y-44574139D01*
X93398534Y-44579509D01*
X93244377Y-44582954D01*
X93170375Y-44584180D01*
X92989640Y-44585981D01*
X92862019Y-44583829D01*
X92777175Y-44576610D01*
X92724767Y-44563205D01*
X92714945Y-44556494D01*
X93511534Y-44556494D01*
X93515877Y-44558857D01*
X93544851Y-44533312D01*
X93551375Y-44522571D01*
X93559465Y-44488648D01*
X93555122Y-44486285D01*
X93526148Y-44511830D01*
X93519625Y-44522571D01*
X93511534Y-44556494D01*
X92714945Y-44556494D01*
X92694460Y-44542499D01*
X92686187Y-44531888D01*
X92655262Y-44501328D01*
X92646500Y-44514497D01*
X92623608Y-44540804D01*
X92600489Y-44536401D01*
X92576664Y-44536787D01*
X92565411Y-44573494D01*
X92565048Y-44659490D01*
X92570922Y-44764325D01*
X92580893Y-44942372D01*
X92589315Y-45140597D01*
X92593120Y-45266428D01*
X92598875Y-45520428D01*
X93165201Y-45520428D01*
X93367487Y-45520711D01*
X93515916Y-45522452D01*
X93620136Y-45526988D01*
X93689789Y-45535658D01*
X93734522Y-45549800D01*
X93763978Y-45570751D01*
X93787803Y-45599850D01*
X93793308Y-45607564D01*
X93837671Y-45683934D01*
X93846207Y-45742700D01*
X93814401Y-45785491D01*
X93737741Y-45813936D01*
X93611712Y-45829664D01*
X93431802Y-45834305D01*
X93193497Y-45829488D01*
X93179810Y-45829022D01*
X92947122Y-45818452D01*
X92776130Y-45804848D01*
X92665080Y-45788016D01*
X92612217Y-45767761D01*
X92610331Y-45765852D01*
X92569739Y-45742161D01*
X92519994Y-45774117D01*
X92511724Y-45782470D01*
X92452130Y-45822623D01*
X92398578Y-45805234D01*
X92384123Y-45789509D01*
X92372497Y-45760515D01*
X92368388Y-45738142D01*
X92646500Y-45738142D01*
X92662375Y-45756285D01*
X92678250Y-45738142D01*
X92662375Y-45720000D01*
X92646500Y-45738142D01*
X92368388Y-45738142D01*
X92363399Y-45710980D01*
X92356524Y-45633633D01*
X92351569Y-45521200D01*
X92348231Y-45366410D01*
X92346205Y-45161992D01*
X92345189Y-44900672D01*
X92344879Y-44575179D01*
X92344875Y-44518616D01*
X92344875Y-43343285D01*
X92456000Y-43343285D01*
X92471875Y-43361428D01*
X92487750Y-43343285D01*
X92471875Y-43325142D01*
X92456000Y-43343285D01*
X92344875Y-43343285D01*
X92344875Y-43270714D01*
X92418060Y-43258857D01*
X92491809Y-43263841D01*
X92529275Y-43283071D01*
X92584747Y-43294731D01*
X92628845Y-43267714D01*
X92670415Y-43246512D01*
X92741737Y-43231972D01*
X92851744Y-43223301D01*
X93009370Y-43219708D01*
X93168505Y-43219902D01*
G37*
X93168505Y-43219902D02*
X93386040Y-43222894D01*
X93548295Y-43229287D01*
X93663478Y-43240830D01*
X93739792Y-43259275D01*
X93785442Y-43286371D01*
X93808634Y-43323868D01*
X93816000Y-43358029D01*
X93818803Y-43416049D01*
X93805111Y-43458471D01*
X93766924Y-43487443D01*
X93696242Y-43505117D01*
X93585063Y-43513642D01*
X93425387Y-43515168D01*
X93241176Y-43512483D01*
X93013854Y-43506884D01*
X92844591Y-43499662D01*
X92727949Y-43490062D01*
X92658491Y-43477332D01*
X92630780Y-43460718D01*
X92639378Y-43439467D01*
X92650242Y-43430588D01*
X92672534Y-43403954D01*
X92662375Y-43398825D01*
X92621331Y-43407217D01*
X92594126Y-43439639D01*
X92578934Y-43506965D01*
X92573935Y-43620068D01*
X92577304Y-43789820D01*
X92580939Y-43884560D01*
X92598875Y-44316978D01*
X93077419Y-44308500D01*
X93281035Y-44306625D01*
X93429269Y-44311100D01*
X93530161Y-44324636D01*
X93591749Y-44349948D01*
X93622071Y-44389746D01*
X93629167Y-44446744D01*
X93625249Y-44493360D01*
X93619023Y-44526453D01*
X93603266Y-44549613D01*
X93567951Y-44564841D01*
X93503049Y-44574139D01*
X93398534Y-44579509D01*
X93244377Y-44582954D01*
X93170375Y-44584180D01*
X92989640Y-44585981D01*
X92862019Y-44583829D01*
X92777175Y-44576610D01*
X92724767Y-44563205D01*
X92714945Y-44556494D01*
X93511534Y-44556494D01*
X93515877Y-44558857D01*
X93544851Y-44533312D01*
X93551375Y-44522571D01*
X93559465Y-44488648D01*
X93555122Y-44486285D01*
X93526148Y-44511830D01*
X93519625Y-44522571D01*
X93511534Y-44556494D01*
X92714945Y-44556494D01*
X92694460Y-44542499D01*
X92686187Y-44531888D01*
X92655262Y-44501328D01*
X92646500Y-44514497D01*
X92623608Y-44540804D01*
X92600489Y-44536401D01*
X92576664Y-44536787D01*
X92565411Y-44573494D01*
X92565048Y-44659490D01*
X92570922Y-44764325D01*
X92580893Y-44942372D01*
X92589315Y-45140597D01*
X92593120Y-45266428D01*
X92598875Y-45520428D01*
X93165201Y-45520428D01*
X93367487Y-45520711D01*
X93515916Y-45522452D01*
X93620136Y-45526988D01*
X93689789Y-45535658D01*
X93734522Y-45549800D01*
X93763978Y-45570751D01*
X93787803Y-45599850D01*
X93793308Y-45607564D01*
X93837671Y-45683934D01*
X93846207Y-45742700D01*
X93814401Y-45785491D01*
X93737741Y-45813936D01*
X93611712Y-45829664D01*
X93431802Y-45834305D01*
X93193497Y-45829488D01*
X93179810Y-45829022D01*
X92947122Y-45818452D01*
X92776130Y-45804848D01*
X92665080Y-45788016D01*
X92612217Y-45767761D01*
X92610331Y-45765852D01*
X92569739Y-45742161D01*
X92519994Y-45774117D01*
X92511724Y-45782470D01*
X92452130Y-45822623D01*
X92398578Y-45805234D01*
X92384123Y-45789509D01*
X92372497Y-45760515D01*
X92368388Y-45738142D01*
X92646500Y-45738142D01*
X92662375Y-45756285D01*
X92678250Y-45738142D01*
X92662375Y-45720000D01*
X92646500Y-45738142D01*
X92368388Y-45738142D01*
X92363399Y-45710980D01*
X92356524Y-45633633D01*
X92351569Y-45521200D01*
X92348231Y-45366410D01*
X92346205Y-45161992D01*
X92345189Y-44900672D01*
X92344879Y-44575179D01*
X92344875Y-44518616D01*
X92344875Y-43343285D01*
X92456000Y-43343285D01*
X92471875Y-43361428D01*
X92487750Y-43343285D01*
X92471875Y-43325142D01*
X92456000Y-43343285D01*
X92344875Y-43343285D01*
X92344875Y-43270714D01*
X92418060Y-43258857D01*
X92491809Y-43263841D01*
X92529275Y-43283071D01*
X92584747Y-43294731D01*
X92628845Y-43267714D01*
X92670415Y-43246512D01*
X92741737Y-43231972D01*
X92851744Y-43223301D01*
X93009370Y-43219708D01*
X93168505Y-43219902D01*
G36*
X79854239Y-43250660D02*
G01*
X79910192Y-43347296D01*
X79976056Y-43498917D01*
X80048462Y-43697997D01*
X80103660Y-43869438D01*
X80157717Y-44040916D01*
X80208862Y-44194970D01*
X80251158Y-44314200D01*
X80277695Y-44379291D01*
X80316557Y-44481044D01*
X80334740Y-44560720D01*
X80351794Y-44638768D01*
X80386293Y-44761976D01*
X80431303Y-44908496D01*
X80479892Y-45056477D01*
X80525128Y-45184070D01*
X80558650Y-45266428D01*
X80596900Y-45371911D01*
X80627548Y-45499599D01*
X80646950Y-45626339D01*
X80651463Y-45728978D01*
X80639725Y-45781691D01*
X80573795Y-45825490D01*
X80501280Y-45810752D01*
X80453881Y-45754964D01*
X80425753Y-45683964D01*
X80378703Y-45552155D01*
X80315216Y-45367052D01*
X80237777Y-45136168D01*
X80148874Y-44867018D01*
X80050992Y-44567115D01*
X79946616Y-44243974D01*
X79838233Y-43905108D01*
X79754292Y-43640351D01*
X79711093Y-43501069D01*
X79688294Y-43412866D01*
X79685990Y-43379571D01*
X79692500Y-43379571D01*
X79708375Y-43397714D01*
X79724250Y-43379571D01*
X79708375Y-43361428D01*
X79692500Y-43379571D01*
X79685990Y-43379571D01*
X79684540Y-43358640D01*
X79690269Y-43343285D01*
X79819500Y-43343285D01*
X79835375Y-43361428D01*
X79851250Y-43343285D01*
X79835375Y-43325142D01*
X79819500Y-43343285D01*
X79690269Y-43343285D01*
X79698476Y-43321291D01*
X79726255Y-43286565D01*
X79779545Y-43234683D01*
X79811562Y-43216533D01*
X79854239Y-43250660D01*
G37*
X79854239Y-43250660D02*
X79910192Y-43347296D01*
X79976056Y-43498917D01*
X80048462Y-43697997D01*
X80103660Y-43869438D01*
X80157717Y-44040916D01*
X80208862Y-44194970D01*
X80251158Y-44314200D01*
X80277695Y-44379291D01*
X80316557Y-44481044D01*
X80334740Y-44560720D01*
X80351794Y-44638768D01*
X80386293Y-44761976D01*
X80431303Y-44908496D01*
X80479892Y-45056477D01*
X80525128Y-45184070D01*
X80558650Y-45266428D01*
X80596900Y-45371911D01*
X80627548Y-45499599D01*
X80646950Y-45626339D01*
X80651463Y-45728978D01*
X80639725Y-45781691D01*
X80573795Y-45825490D01*
X80501280Y-45810752D01*
X80453881Y-45754964D01*
X80425753Y-45683964D01*
X80378703Y-45552155D01*
X80315216Y-45367052D01*
X80237777Y-45136168D01*
X80148874Y-44867018D01*
X80050992Y-44567115D01*
X79946616Y-44243974D01*
X79838233Y-43905108D01*
X79754292Y-43640351D01*
X79711093Y-43501069D01*
X79688294Y-43412866D01*
X79685990Y-43379571D01*
X79692500Y-43379571D01*
X79708375Y-43397714D01*
X79724250Y-43379571D01*
X79708375Y-43361428D01*
X79692500Y-43379571D01*
X79685990Y-43379571D01*
X79684540Y-43358640D01*
X79690269Y-43343285D01*
X79819500Y-43343285D01*
X79835375Y-43361428D01*
X79851250Y-43343285D01*
X79835375Y-43325142D01*
X79819500Y-43343285D01*
X79690269Y-43343285D01*
X79698476Y-43321291D01*
X79726255Y-43286565D01*
X79779545Y-43234683D01*
X79811562Y-43216533D01*
X79854239Y-43250660D01*
G36*
X81365182Y-43239886D02*
G01*
X81368376Y-43278988D01*
X81388478Y-43309159D01*
X81418262Y-43381299D01*
X81420973Y-43440910D01*
X81404551Y-43517760D01*
X81370059Y-43641681D01*
X81323852Y-43792759D01*
X81272288Y-43951077D01*
X81221723Y-44096721D01*
X81178513Y-44209775D01*
X81167237Y-44235903D01*
X81140539Y-44306882D01*
X81138482Y-44340684D01*
X81140197Y-44341142D01*
X81142529Y-44363444D01*
X81129515Y-44386500D01*
X81098882Y-44454738D01*
X81077398Y-44531642D01*
X81071914Y-44607524D01*
X81105825Y-44637204D01*
X81174102Y-44634848D01*
X81219227Y-44660418D01*
X81273149Y-44733440D01*
X81323273Y-44833039D01*
X81356900Y-44937848D01*
X81385978Y-45045786D01*
X81426208Y-45164511D01*
X81429738Y-45173705D01*
X81468433Y-45278998D01*
X81511227Y-45404056D01*
X81551316Y-45527801D01*
X81581896Y-45629155D01*
X81596164Y-45687042D01*
X81596463Y-45690194D01*
X81575457Y-45736320D01*
X81527698Y-45791696D01*
X81480071Y-45826725D01*
X81470500Y-45828857D01*
X81427862Y-45805882D01*
X81397708Y-45776768D01*
X81368372Y-45723298D01*
X81323328Y-45617686D01*
X81268993Y-45475817D01*
X81218134Y-45332268D01*
X81162053Y-45168160D01*
X81112125Y-45022285D01*
X81074252Y-44911874D01*
X81055749Y-44858214D01*
X81023034Y-44795378D01*
X80997453Y-44776571D01*
X80973834Y-44806960D01*
X80949473Y-44876223D01*
X80933272Y-44951506D01*
X80934137Y-44999953D01*
X80936157Y-45002753D01*
X80926129Y-45035102D01*
X80888684Y-45104314D01*
X80871648Y-45132369D01*
X80799975Y-45219716D01*
X80731811Y-45241649D01*
X80728896Y-45241226D01*
X80681668Y-45218532D01*
X80657524Y-45165010D01*
X80657267Y-45073901D01*
X80681699Y-44938447D01*
X80731623Y-44751891D01*
X80807843Y-44507474D01*
X80820734Y-44468020D01*
X80881924Y-44280960D01*
X80935175Y-44117012D01*
X80976493Y-43988561D01*
X81001884Y-43907996D01*
X81007866Y-43887571D01*
X81026510Y-43822621D01*
X81034939Y-43796857D01*
X81054664Y-43735802D01*
X81087864Y-43630150D01*
X81123719Y-43514528D01*
X81163332Y-43395663D01*
X81184047Y-43343285D01*
X81311750Y-43343285D01*
X81327625Y-43361428D01*
X81343500Y-43343285D01*
X81327625Y-43325142D01*
X81311750Y-43343285D01*
X81184047Y-43343285D01*
X81198581Y-43306539D01*
X81220990Y-43267542D01*
X81266064Y-43246916D01*
X81321263Y-43232878D01*
X81361274Y-43230282D01*
X81365182Y-43239886D01*
G37*
X81365182Y-43239886D02*
X81368376Y-43278988D01*
X81388478Y-43309159D01*
X81418262Y-43381299D01*
X81420973Y-43440910D01*
X81404551Y-43517760D01*
X81370059Y-43641681D01*
X81323852Y-43792759D01*
X81272288Y-43951077D01*
X81221723Y-44096721D01*
X81178513Y-44209775D01*
X81167237Y-44235903D01*
X81140539Y-44306882D01*
X81138482Y-44340684D01*
X81140197Y-44341142D01*
X81142529Y-44363444D01*
X81129515Y-44386500D01*
X81098882Y-44454738D01*
X81077398Y-44531642D01*
X81071914Y-44607524D01*
X81105825Y-44637204D01*
X81174102Y-44634848D01*
X81219227Y-44660418D01*
X81273149Y-44733440D01*
X81323273Y-44833039D01*
X81356900Y-44937848D01*
X81385978Y-45045786D01*
X81426208Y-45164511D01*
X81429738Y-45173705D01*
X81468433Y-45278998D01*
X81511227Y-45404056D01*
X81551316Y-45527801D01*
X81581896Y-45629155D01*
X81596164Y-45687042D01*
X81596463Y-45690194D01*
X81575457Y-45736320D01*
X81527698Y-45791696D01*
X81480071Y-45826725D01*
X81470500Y-45828857D01*
X81427862Y-45805882D01*
X81397708Y-45776768D01*
X81368372Y-45723298D01*
X81323328Y-45617686D01*
X81268993Y-45475817D01*
X81218134Y-45332268D01*
X81162053Y-45168160D01*
X81112125Y-45022285D01*
X81074252Y-44911874D01*
X81055749Y-44858214D01*
X81023034Y-44795378D01*
X80997453Y-44776571D01*
X80973834Y-44806960D01*
X80949473Y-44876223D01*
X80933272Y-44951506D01*
X80934137Y-44999953D01*
X80936157Y-45002753D01*
X80926129Y-45035102D01*
X80888684Y-45104314D01*
X80871648Y-45132369D01*
X80799975Y-45219716D01*
X80731811Y-45241649D01*
X80728896Y-45241226D01*
X80681668Y-45218532D01*
X80657524Y-45165010D01*
X80657267Y-45073901D01*
X80681699Y-44938447D01*
X80731623Y-44751891D01*
X80807843Y-44507474D01*
X80820734Y-44468020D01*
X80881924Y-44280960D01*
X80935175Y-44117012D01*
X80976493Y-43988561D01*
X81001884Y-43907996D01*
X81007866Y-43887571D01*
X81026510Y-43822621D01*
X81034939Y-43796857D01*
X81054664Y-43735802D01*
X81087864Y-43630150D01*
X81123719Y-43514528D01*
X81163332Y-43395663D01*
X81184047Y-43343285D01*
X81311750Y-43343285D01*
X81327625Y-43361428D01*
X81343500Y-43343285D01*
X81327625Y-43325142D01*
X81311750Y-43343285D01*
X81184047Y-43343285D01*
X81198581Y-43306539D01*
X81220990Y-43267542D01*
X81266064Y-43246916D01*
X81321263Y-43232878D01*
X81361274Y-43230282D01*
X81365182Y-43239886D01*
G36*
X88266919Y-43237101D02*
G01*
X88435982Y-43243916D01*
X88551680Y-43255035D01*
X88609414Y-43270145D01*
X88613396Y-43273378D01*
X88649755Y-43344343D01*
X88661713Y-43426833D01*
X88645416Y-43487283D01*
X88638666Y-43493608D01*
X88596565Y-43501220D01*
X88503601Y-43506521D01*
X88372374Y-43509628D01*
X88215487Y-43510661D01*
X88045539Y-43509739D01*
X87875133Y-43506979D01*
X87716869Y-43502500D01*
X87583349Y-43496421D01*
X87487173Y-43488859D01*
X87447548Y-43482406D01*
X87398570Y-43476403D01*
X87386506Y-43510024D01*
X87393850Y-43566169D01*
X87402811Y-43650788D01*
X87410882Y-43782963D01*
X87416623Y-43937680D01*
X87417552Y-43978285D01*
X87423625Y-44286714D01*
X87870325Y-44294191D01*
X88114277Y-44303078D01*
X88295872Y-44320505D01*
X88414921Y-44346435D01*
X88471233Y-44380831D01*
X88471411Y-44413646D01*
X88476257Y-44446798D01*
X88490297Y-44450000D01*
X88502781Y-44470823D01*
X88471375Y-44522571D01*
X88441523Y-44552972D01*
X88401003Y-44573501D01*
X88337943Y-44586030D01*
X88240469Y-44592431D01*
X88096709Y-44594573D01*
X88014016Y-44594647D01*
X87802329Y-44592008D01*
X87648955Y-44584184D01*
X87548829Y-44570410D01*
X87496881Y-44549923D01*
X87488044Y-44521958D01*
X87490804Y-44515767D01*
X87483201Y-44505591D01*
X87442446Y-44528889D01*
X87396697Y-44580600D01*
X87390034Y-44620890D01*
X87396193Y-44672764D01*
X87401977Y-44781242D01*
X87406728Y-44930358D01*
X87409756Y-45100839D01*
X87414690Y-45536749D01*
X87984649Y-45535047D01*
X88206799Y-45535656D01*
X88373320Y-45540207D01*
X88492054Y-45550527D01*
X88570844Y-45568443D01*
X88617535Y-45595782D01*
X88639969Y-45634368D01*
X88645989Y-45686030D01*
X88646000Y-45689055D01*
X88633432Y-45740125D01*
X88591322Y-45777966D01*
X88513059Y-45803884D01*
X88392030Y-45819185D01*
X88221625Y-45825175D01*
X87995232Y-45823161D01*
X87970114Y-45822590D01*
X87771678Y-45816545D01*
X87628261Y-45808562D01*
X87531387Y-45797600D01*
X87472581Y-45782624D01*
X87443367Y-45762595D01*
X87440240Y-45757728D01*
X87423111Y-45738142D01*
X88582500Y-45738142D01*
X88598375Y-45756285D01*
X88614250Y-45738142D01*
X88598375Y-45720000D01*
X88582500Y-45738142D01*
X87423111Y-45738142D01*
X87411994Y-45725431D01*
X87373971Y-45744803D01*
X87351625Y-45766800D01*
X87278221Y-45822038D01*
X87219891Y-45812713D01*
X87190185Y-45780880D01*
X87179204Y-45731951D01*
X87170166Y-45617207D01*
X87163030Y-45435285D01*
X87157756Y-45184819D01*
X87154305Y-44864444D01*
X87152694Y-44501808D01*
X87150357Y-43415857D01*
X87376000Y-43415857D01*
X87391875Y-43434000D01*
X87407750Y-43415857D01*
X87471250Y-43415857D01*
X87487125Y-43434000D01*
X87503000Y-43415857D01*
X87487125Y-43397714D01*
X87471250Y-43415857D01*
X87407750Y-43415857D01*
X87391875Y-43397714D01*
X87376000Y-43415857D01*
X87150357Y-43415857D01*
X87150278Y-43379571D01*
X87312500Y-43379571D01*
X87328375Y-43397714D01*
X87344250Y-43379571D01*
X87328375Y-43361428D01*
X87312500Y-43379571D01*
X87150278Y-43379571D01*
X87150043Y-43270714D01*
X87234650Y-43258860D01*
X87292805Y-43259460D01*
X87297086Y-43287786D01*
X87295098Y-43291680D01*
X87288943Y-43319321D01*
X87308118Y-43310095D01*
X87359411Y-43283075D01*
X87431937Y-43263050D01*
X87534549Y-43249120D01*
X87676102Y-43240387D01*
X87865448Y-43235953D01*
X88049090Y-43234904D01*
X88266919Y-43237101D01*
G37*
X88266919Y-43237101D02*
X88435982Y-43243916D01*
X88551680Y-43255035D01*
X88609414Y-43270145D01*
X88613396Y-43273378D01*
X88649755Y-43344343D01*
X88661713Y-43426833D01*
X88645416Y-43487283D01*
X88638666Y-43493608D01*
X88596565Y-43501220D01*
X88503601Y-43506521D01*
X88372374Y-43509628D01*
X88215487Y-43510661D01*
X88045539Y-43509739D01*
X87875133Y-43506979D01*
X87716869Y-43502500D01*
X87583349Y-43496421D01*
X87487173Y-43488859D01*
X87447548Y-43482406D01*
X87398570Y-43476403D01*
X87386506Y-43510024D01*
X87393850Y-43566169D01*
X87402811Y-43650788D01*
X87410882Y-43782963D01*
X87416623Y-43937680D01*
X87417552Y-43978285D01*
X87423625Y-44286714D01*
X87870325Y-44294191D01*
X88114277Y-44303078D01*
X88295872Y-44320505D01*
X88414921Y-44346435D01*
X88471233Y-44380831D01*
X88471411Y-44413646D01*
X88476257Y-44446798D01*
X88490297Y-44450000D01*
X88502781Y-44470823D01*
X88471375Y-44522571D01*
X88441523Y-44552972D01*
X88401003Y-44573501D01*
X88337943Y-44586030D01*
X88240469Y-44592431D01*
X88096709Y-44594573D01*
X88014016Y-44594647D01*
X87802329Y-44592008D01*
X87648955Y-44584184D01*
X87548829Y-44570410D01*
X87496881Y-44549923D01*
X87488044Y-44521958D01*
X87490804Y-44515767D01*
X87483201Y-44505591D01*
X87442446Y-44528889D01*
X87396697Y-44580600D01*
X87390034Y-44620890D01*
X87396193Y-44672764D01*
X87401977Y-44781242D01*
X87406728Y-44930358D01*
X87409756Y-45100839D01*
X87414690Y-45536749D01*
X87984649Y-45535047D01*
X88206799Y-45535656D01*
X88373320Y-45540207D01*
X88492054Y-45550527D01*
X88570844Y-45568443D01*
X88617535Y-45595782D01*
X88639969Y-45634368D01*
X88645989Y-45686030D01*
X88646000Y-45689055D01*
X88633432Y-45740125D01*
X88591322Y-45777966D01*
X88513059Y-45803884D01*
X88392030Y-45819185D01*
X88221625Y-45825175D01*
X87995232Y-45823161D01*
X87970114Y-45822590D01*
X87771678Y-45816545D01*
X87628261Y-45808562D01*
X87531387Y-45797600D01*
X87472581Y-45782624D01*
X87443367Y-45762595D01*
X87440240Y-45757728D01*
X87423111Y-45738142D01*
X88582500Y-45738142D01*
X88598375Y-45756285D01*
X88614250Y-45738142D01*
X88598375Y-45720000D01*
X88582500Y-45738142D01*
X87423111Y-45738142D01*
X87411994Y-45725431D01*
X87373971Y-45744803D01*
X87351625Y-45766800D01*
X87278221Y-45822038D01*
X87219891Y-45812713D01*
X87190185Y-45780880D01*
X87179204Y-45731951D01*
X87170166Y-45617207D01*
X87163030Y-45435285D01*
X87157756Y-45184819D01*
X87154305Y-44864444D01*
X87152694Y-44501808D01*
X87150357Y-43415857D01*
X87376000Y-43415857D01*
X87391875Y-43434000D01*
X87407750Y-43415857D01*
X87471250Y-43415857D01*
X87487125Y-43434000D01*
X87503000Y-43415857D01*
X87487125Y-43397714D01*
X87471250Y-43415857D01*
X87407750Y-43415857D01*
X87391875Y-43397714D01*
X87376000Y-43415857D01*
X87150357Y-43415857D01*
X87150278Y-43379571D01*
X87312500Y-43379571D01*
X87328375Y-43397714D01*
X87344250Y-43379571D01*
X87328375Y-43361428D01*
X87312500Y-43379571D01*
X87150278Y-43379571D01*
X87150043Y-43270714D01*
X87234650Y-43258860D01*
X87292805Y-43259460D01*
X87297086Y-43287786D01*
X87295098Y-43291680D01*
X87288943Y-43319321D01*
X87308118Y-43310095D01*
X87359411Y-43283075D01*
X87431937Y-43263050D01*
X87534549Y-43249120D01*
X87676102Y-43240387D01*
X87865448Y-43235953D01*
X88049090Y-43234904D01*
X88266919Y-43237101D01*
G36*
X89841384Y-43254973D02*
G01*
X89868890Y-43276460D01*
X89891223Y-43319624D01*
X89908794Y-43390865D01*
X89922017Y-43496583D01*
X89931305Y-43643175D01*
X89937071Y-43837042D01*
X89939727Y-44084581D01*
X89939686Y-44392193D01*
X89937532Y-44745185D01*
X89934542Y-45054482D01*
X89930354Y-45298812D01*
X89923912Y-45485778D01*
X89914159Y-45622985D01*
X89900038Y-45718037D01*
X89880494Y-45778539D01*
X89854470Y-45812093D01*
X89820909Y-45826304D01*
X89786986Y-45828857D01*
X89724339Y-45806291D01*
X89703561Y-45783500D01*
X89697306Y-45737600D01*
X89691222Y-45627853D01*
X89685529Y-45462983D01*
X89680444Y-45251714D01*
X89676187Y-45002771D01*
X89672976Y-44724877D01*
X89671367Y-44499161D01*
X89669803Y-44165723D01*
X89669170Y-43897647D01*
X89669746Y-43687724D01*
X89671814Y-43528750D01*
X89675651Y-43413517D01*
X89681540Y-43334820D01*
X89686172Y-43307000D01*
X89789000Y-43307000D01*
X89804875Y-43325142D01*
X89820750Y-43307000D01*
X89804875Y-43288857D01*
X89789000Y-43307000D01*
X89686172Y-43307000D01*
X89689760Y-43285451D01*
X89700590Y-43258204D01*
X89714312Y-43245873D01*
X89720176Y-43243648D01*
X89795078Y-43242251D01*
X89841384Y-43254973D01*
G37*
X89841384Y-43254973D02*
X89868890Y-43276460D01*
X89891223Y-43319624D01*
X89908794Y-43390865D01*
X89922017Y-43496583D01*
X89931305Y-43643175D01*
X89937071Y-43837042D01*
X89939727Y-44084581D01*
X89939686Y-44392193D01*
X89937532Y-44745185D01*
X89934542Y-45054482D01*
X89930354Y-45298812D01*
X89923912Y-45485778D01*
X89914159Y-45622985D01*
X89900038Y-45718037D01*
X89880494Y-45778539D01*
X89854470Y-45812093D01*
X89820909Y-45826304D01*
X89786986Y-45828857D01*
X89724339Y-45806291D01*
X89703561Y-45783500D01*
X89697306Y-45737600D01*
X89691222Y-45627853D01*
X89685529Y-45462983D01*
X89680444Y-45251714D01*
X89676187Y-45002771D01*
X89672976Y-44724877D01*
X89671367Y-44499161D01*
X89669803Y-44165723D01*
X89669170Y-43897647D01*
X89669746Y-43687724D01*
X89671814Y-43528750D01*
X89675651Y-43413517D01*
X89681540Y-43334820D01*
X89686172Y-43307000D01*
X89789000Y-43307000D01*
X89804875Y-43325142D01*
X89820750Y-43307000D01*
X89804875Y-43288857D01*
X89789000Y-43307000D01*
X89686172Y-43307000D01*
X89689760Y-43285451D01*
X89700590Y-43258204D01*
X89714312Y-43245873D01*
X89720176Y-43243648D01*
X89795078Y-43242251D01*
X89841384Y-43254973D01*
G36*
X82239087Y-43251883D02*
G01*
X82308837Y-43301878D01*
X82350694Y-43378948D01*
X82354645Y-43406101D01*
X82344473Y-43466711D01*
X82314109Y-43579143D01*
X82268519Y-43728590D01*
X82212670Y-43900241D01*
X82151529Y-44079287D01*
X82090063Y-44250919D01*
X82033238Y-44400328D01*
X81986020Y-44512704D01*
X81977335Y-44531150D01*
X81951011Y-44614187D01*
X81946750Y-44652666D01*
X81932227Y-44730651D01*
X81893648Y-44849952D01*
X81838499Y-44988900D01*
X81804614Y-45064153D01*
X81742192Y-45144936D01*
X81667076Y-45157867D01*
X81628213Y-45138696D01*
X81598240Y-45084089D01*
X81587942Y-45006549D01*
X81599093Y-44945424D01*
X81629444Y-44828805D01*
X81675224Y-44668856D01*
X81732660Y-44477738D01*
X81797979Y-44267615D01*
X81867411Y-44050647D01*
X81937181Y-43838999D01*
X82003517Y-43644832D01*
X82054574Y-43502109D01*
X82080950Y-43413531D01*
X82086687Y-43355790D01*
X82083841Y-43348771D01*
X82084098Y-43335544D01*
X82237617Y-43335544D01*
X82245343Y-43355822D01*
X82277312Y-43394776D01*
X82295690Y-43386785D01*
X82296000Y-43381713D01*
X82273448Y-43351021D01*
X82259344Y-43339820D01*
X82237617Y-43335544D01*
X82084098Y-43335544D01*
X82084656Y-43306945D01*
X82101177Y-43276667D01*
X82162761Y-43239851D01*
X82239087Y-43251883D01*
G37*
X82239087Y-43251883D02*
X82308837Y-43301878D01*
X82350694Y-43378948D01*
X82354645Y-43406101D01*
X82344473Y-43466711D01*
X82314109Y-43579143D01*
X82268519Y-43728590D01*
X82212670Y-43900241D01*
X82151529Y-44079287D01*
X82090063Y-44250919D01*
X82033238Y-44400328D01*
X81986020Y-44512704D01*
X81977335Y-44531150D01*
X81951011Y-44614187D01*
X81946750Y-44652666D01*
X81932227Y-44730651D01*
X81893648Y-44849952D01*
X81838499Y-44988900D01*
X81804614Y-45064153D01*
X81742192Y-45144936D01*
X81667076Y-45157867D01*
X81628213Y-45138696D01*
X81598240Y-45084089D01*
X81587942Y-45006549D01*
X81599093Y-44945424D01*
X81629444Y-44828805D01*
X81675224Y-44668856D01*
X81732660Y-44477738D01*
X81797979Y-44267615D01*
X81867411Y-44050647D01*
X81937181Y-43838999D01*
X82003517Y-43644832D01*
X82054574Y-43502109D01*
X82080950Y-43413531D01*
X82086687Y-43355790D01*
X82083841Y-43348771D01*
X82084098Y-43335544D01*
X82237617Y-43335544D01*
X82245343Y-43355822D01*
X82277312Y-43394776D01*
X82295690Y-43386785D01*
X82296000Y-43381713D01*
X82273448Y-43351021D01*
X82259344Y-43339820D01*
X82237617Y-43335544D01*
X82084098Y-43335544D01*
X82084656Y-43306945D01*
X82101177Y-43276667D01*
X82162761Y-43239851D01*
X82239087Y-43251883D01*
G36*
X81026000Y-44831000D02*
G01*
X81010125Y-44849142D01*
X80994250Y-44831000D01*
X81010125Y-44812857D01*
X81026000Y-44831000D01*
G37*
X81026000Y-44831000D02*
X81010125Y-44849142D01*
X80994250Y-44831000D01*
X81010125Y-44812857D01*
X81026000Y-44831000D01*
G36*
X84785522Y-43723667D02*
G01*
X84981356Y-43728541D01*
X85120077Y-43737305D01*
X85204841Y-43750141D01*
X85235858Y-43763401D01*
X85266726Y-43819645D01*
X85279698Y-43894080D01*
X85272835Y-43956718D01*
X85249746Y-43978285D01*
X85231462Y-44004491D01*
X85235667Y-44027945D01*
X85239688Y-44053500D01*
X85227548Y-44072595D01*
X85192130Y-44085813D01*
X85126317Y-44093740D01*
X85022994Y-44096960D01*
X84875045Y-44096059D01*
X84675353Y-44091621D01*
X84515333Y-44087142D01*
X84280483Y-44079011D01*
X84101700Y-44068872D01*
X83971551Y-44054894D01*
X83882605Y-44035250D01*
X83827429Y-44008109D01*
X83798590Y-43971644D01*
X83788656Y-43924024D01*
X83788250Y-43908206D01*
X83806460Y-43828577D01*
X83827937Y-43785478D01*
X83847546Y-43764662D01*
X83881424Y-43749034D01*
X83937927Y-43737842D01*
X84025410Y-43730338D01*
X84152226Y-43725770D01*
X84326732Y-43723389D01*
X84529420Y-43722501D01*
X84785522Y-43723667D01*
G37*
X84785522Y-43723667D02*
X84981356Y-43728541D01*
X85120077Y-43737305D01*
X85204841Y-43750141D01*
X85235858Y-43763401D01*
X85266726Y-43819645D01*
X85279698Y-43894080D01*
X85272835Y-43956718D01*
X85249746Y-43978285D01*
X85231462Y-44004491D01*
X85235667Y-44027945D01*
X85239688Y-44053500D01*
X85227548Y-44072595D01*
X85192130Y-44085813D01*
X85126317Y-44093740D01*
X85022994Y-44096960D01*
X84875045Y-44096059D01*
X84675353Y-44091621D01*
X84515333Y-44087142D01*
X84280483Y-44079011D01*
X84101700Y-44068872D01*
X83971551Y-44054894D01*
X83882605Y-44035250D01*
X83827429Y-44008109D01*
X83798590Y-43971644D01*
X83788656Y-43924024D01*
X83788250Y-43908206D01*
X83806460Y-43828577D01*
X83827937Y-43785478D01*
X83847546Y-43764662D01*
X83881424Y-43749034D01*
X83937927Y-43737842D01*
X84025410Y-43730338D01*
X84152226Y-43725770D01*
X84326732Y-43723389D01*
X84529420Y-43722501D01*
X84785522Y-43723667D01*
G36*
X92583000Y-43270714D02*
G01*
X92567125Y-43288857D01*
X92551250Y-43270714D01*
X92567125Y-43252571D01*
X92583000Y-43270714D01*
G37*
X92583000Y-43270714D02*
X92567125Y-43288857D01*
X92551250Y-43270714D01*
X92567125Y-43252571D01*
X92583000Y-43270714D01*
G36*
X81229046Y-39237578D02*
G01*
X81444883Y-39306952D01*
X81486375Y-39327930D01*
X81706258Y-39479699D01*
X81881924Y-39676938D01*
X82020770Y-39925582D01*
X82067056Y-40034031D01*
X82096287Y-40124130D01*
X82112173Y-40218341D01*
X82118424Y-40339124D01*
X82118748Y-40508937D01*
X82118681Y-40518386D01*
X82115059Y-40700617D01*
X82105111Y-40832869D01*
X82085495Y-40937653D01*
X82052872Y-41037481D01*
X82035077Y-41081925D01*
X81982480Y-41196581D01*
X81931427Y-41288065D01*
X81902834Y-41325910D01*
X81860946Y-41378600D01*
X81851500Y-41405192D01*
X81831110Y-41447932D01*
X81779990Y-41518449D01*
X81756730Y-41546581D01*
X81601209Y-41679444D01*
X81425208Y-41749086D01*
X81365393Y-41773838D01*
X81345833Y-41791221D01*
X81308087Y-41801410D01*
X81222388Y-41805044D01*
X81104048Y-41801792D01*
X81041875Y-41797817D01*
X80843854Y-41774557D01*
X80690410Y-41733117D01*
X80563183Y-41664979D01*
X80443814Y-41561622D01*
X80377207Y-41489365D01*
X80205992Y-41246232D01*
X80090860Y-40978300D01*
X80031612Y-40694368D01*
X80029858Y-40551085D01*
X80289615Y-40551085D01*
X80307622Y-40737154D01*
X80345091Y-40907247D01*
X80376243Y-40990603D01*
X80477290Y-41166187D01*
X80600374Y-41316755D01*
X80729905Y-41425051D01*
X80801846Y-41461695D01*
X80892547Y-41485334D01*
X81001887Y-41500382D01*
X81112400Y-41506369D01*
X81206619Y-41502824D01*
X81267076Y-41489277D01*
X81280000Y-41474571D01*
X81306791Y-41445810D01*
X81348330Y-41438285D01*
X81432260Y-41410201D01*
X81533537Y-41336489D01*
X81635714Y-41232967D01*
X81722345Y-41115449D01*
X81761842Y-41040644D01*
X81837763Y-40795569D01*
X81862285Y-40543478D01*
X81839115Y-40295762D01*
X81771959Y-40063813D01*
X81664524Y-39859022D01*
X81520515Y-39692780D01*
X81343640Y-39576480D01*
X81276981Y-39550439D01*
X81113078Y-39518708D01*
X80952877Y-39525686D01*
X80844931Y-39559355D01*
X80764704Y-39607765D01*
X80676369Y-39673491D01*
X80594342Y-39743867D01*
X80533040Y-39806225D01*
X80506883Y-39847901D01*
X80508440Y-39854979D01*
X80504421Y-39876243D01*
X80491967Y-39878000D01*
X80457655Y-39908339D01*
X80416639Y-39984081D01*
X80404537Y-40014071D01*
X80362330Y-40127335D01*
X80324762Y-40228526D01*
X80320201Y-40240857D01*
X80293124Y-40376500D01*
X80289615Y-40551085D01*
X80029858Y-40551085D01*
X80028048Y-40403238D01*
X80079967Y-40113708D01*
X80187171Y-39834581D01*
X80349458Y-39574655D01*
X80422750Y-39485872D01*
X80586898Y-39349216D01*
X80785620Y-39260853D01*
X81004480Y-39222926D01*
X81229046Y-39237578D01*
G37*
X81229046Y-39237578D02*
X81444883Y-39306952D01*
X81486375Y-39327930D01*
X81706258Y-39479699D01*
X81881924Y-39676938D01*
X82020770Y-39925582D01*
X82067056Y-40034031D01*
X82096287Y-40124130D01*
X82112173Y-40218341D01*
X82118424Y-40339124D01*
X82118748Y-40508937D01*
X82118681Y-40518386D01*
X82115059Y-40700617D01*
X82105111Y-40832869D01*
X82085495Y-40937653D01*
X82052872Y-41037481D01*
X82035077Y-41081925D01*
X81982480Y-41196581D01*
X81931427Y-41288065D01*
X81902834Y-41325910D01*
X81860946Y-41378600D01*
X81851500Y-41405192D01*
X81831110Y-41447932D01*
X81779990Y-41518449D01*
X81756730Y-41546581D01*
X81601209Y-41679444D01*
X81425208Y-41749086D01*
X81365393Y-41773838D01*
X81345833Y-41791221D01*
X81308087Y-41801410D01*
X81222388Y-41805044D01*
X81104048Y-41801792D01*
X81041875Y-41797817D01*
X80843854Y-41774557D01*
X80690410Y-41733117D01*
X80563183Y-41664979D01*
X80443814Y-41561622D01*
X80377207Y-41489365D01*
X80205992Y-41246232D01*
X80090860Y-40978300D01*
X80031612Y-40694368D01*
X80029858Y-40551085D01*
X80289615Y-40551085D01*
X80307622Y-40737154D01*
X80345091Y-40907247D01*
X80376243Y-40990603D01*
X80477290Y-41166187D01*
X80600374Y-41316755D01*
X80729905Y-41425051D01*
X80801846Y-41461695D01*
X80892547Y-41485334D01*
X81001887Y-41500382D01*
X81112400Y-41506369D01*
X81206619Y-41502824D01*
X81267076Y-41489277D01*
X81280000Y-41474571D01*
X81306791Y-41445810D01*
X81348330Y-41438285D01*
X81432260Y-41410201D01*
X81533537Y-41336489D01*
X81635714Y-41232967D01*
X81722345Y-41115449D01*
X81761842Y-41040644D01*
X81837763Y-40795569D01*
X81862285Y-40543478D01*
X81839115Y-40295762D01*
X81771959Y-40063813D01*
X81664524Y-39859022D01*
X81520515Y-39692780D01*
X81343640Y-39576480D01*
X81276981Y-39550439D01*
X81113078Y-39518708D01*
X80952877Y-39525686D01*
X80844931Y-39559355D01*
X80764704Y-39607765D01*
X80676369Y-39673491D01*
X80594342Y-39743867D01*
X80533040Y-39806225D01*
X80506883Y-39847901D01*
X80508440Y-39854979D01*
X80504421Y-39876243D01*
X80491967Y-39878000D01*
X80457655Y-39908339D01*
X80416639Y-39984081D01*
X80404537Y-40014071D01*
X80362330Y-40127335D01*
X80324762Y-40228526D01*
X80320201Y-40240857D01*
X80293124Y-40376500D01*
X80289615Y-40551085D01*
X80029858Y-40551085D01*
X80028048Y-40403238D01*
X80079967Y-40113708D01*
X80187171Y-39834581D01*
X80349458Y-39574655D01*
X80422750Y-39485872D01*
X80586898Y-39349216D01*
X80785620Y-39260853D01*
X81004480Y-39222926D01*
X81229046Y-39237578D01*
G36*
X80167326Y-35526227D02*
G01*
X80199439Y-35538398D01*
X80224842Y-35567176D01*
X80244365Y-35619507D01*
X80258837Y-35702341D01*
X80269088Y-35822624D01*
X80275946Y-35987306D01*
X80280242Y-36203334D01*
X80282804Y-36477655D01*
X80284462Y-36817219D01*
X80284543Y-36837890D01*
X80285713Y-37163715D01*
X80286139Y-37424797D01*
X80285435Y-37628963D01*
X80283211Y-37784041D01*
X80279077Y-37897858D01*
X80272646Y-37978241D01*
X80263528Y-38033018D01*
X80251335Y-38070014D01*
X80235677Y-38097059D01*
X80221043Y-38115992D01*
X80166716Y-38171311D01*
X80119555Y-38175355D01*
X80077148Y-38153240D01*
X80009772Y-38100330D01*
X79974447Y-38057924D01*
X79967910Y-38010982D01*
X79961915Y-37900451D01*
X79956661Y-37735313D01*
X79952350Y-37524549D01*
X79949181Y-37277141D01*
X79947354Y-37002071D01*
X79946986Y-36826552D01*
X79947057Y-36500983D01*
X79947805Y-36240298D01*
X79949585Y-36036811D01*
X79952754Y-35882835D01*
X79957668Y-35770684D01*
X79964682Y-35692672D01*
X79972390Y-35650714D01*
X79978250Y-35650714D01*
X79994125Y-35668857D01*
X80010000Y-35650714D01*
X79994125Y-35632571D01*
X79978250Y-35650714D01*
X79972390Y-35650714D01*
X79974154Y-35641112D01*
X79986438Y-35608317D01*
X80001892Y-35586602D01*
X80004562Y-35583766D01*
X80076324Y-35536068D01*
X80127674Y-35523714D01*
X80167326Y-35526227D01*
G37*
X80167326Y-35526227D02*
X80199439Y-35538398D01*
X80224842Y-35567176D01*
X80244365Y-35619507D01*
X80258837Y-35702341D01*
X80269088Y-35822624D01*
X80275946Y-35987306D01*
X80280242Y-36203334D01*
X80282804Y-36477655D01*
X80284462Y-36817219D01*
X80284543Y-36837890D01*
X80285713Y-37163715D01*
X80286139Y-37424797D01*
X80285435Y-37628963D01*
X80283211Y-37784041D01*
X80279077Y-37897858D01*
X80272646Y-37978241D01*
X80263528Y-38033018D01*
X80251335Y-38070014D01*
X80235677Y-38097059D01*
X80221043Y-38115992D01*
X80166716Y-38171311D01*
X80119555Y-38175355D01*
X80077148Y-38153240D01*
X80009772Y-38100330D01*
X79974447Y-38057924D01*
X79967910Y-38010982D01*
X79961915Y-37900451D01*
X79956661Y-37735313D01*
X79952350Y-37524549D01*
X79949181Y-37277141D01*
X79947354Y-37002071D01*
X79946986Y-36826552D01*
X79947057Y-36500983D01*
X79947805Y-36240298D01*
X79949585Y-36036811D01*
X79952754Y-35882835D01*
X79957668Y-35770684D01*
X79964682Y-35692672D01*
X79972390Y-35650714D01*
X79978250Y-35650714D01*
X79994125Y-35668857D01*
X80010000Y-35650714D01*
X79994125Y-35632571D01*
X79978250Y-35650714D01*
X79972390Y-35650714D01*
X79974154Y-35641112D01*
X79986438Y-35608317D01*
X80001892Y-35586602D01*
X80004562Y-35583766D01*
X80076324Y-35536068D01*
X80127674Y-35523714D01*
X80167326Y-35526227D01*
G36*
X80114607Y-34502319D02*
G01*
X80152875Y-34505509D01*
X80209381Y-34540530D01*
X80288656Y-34638756D01*
X80367187Y-34761576D01*
X80436291Y-34881513D01*
X80488734Y-34980414D01*
X80515987Y-35041894D01*
X80518000Y-35051290D01*
X80536794Y-35087152D01*
X80542904Y-35088285D01*
X80573487Y-35116638D01*
X80617582Y-35186758D01*
X80627825Y-35206214D01*
X80671643Y-35287806D01*
X80702964Y-35338231D01*
X80706430Y-35342285D01*
X80729425Y-35376857D01*
X80781810Y-35461650D01*
X80857531Y-35586675D01*
X80950532Y-35741942D01*
X81042196Y-35896229D01*
X81176343Y-36122832D01*
X81330216Y-36382742D01*
X81487950Y-36649164D01*
X81633681Y-36895300D01*
X81684812Y-36981656D01*
X81788700Y-37159839D01*
X81878873Y-37319707D01*
X81949636Y-37450739D01*
X81995299Y-37542412D01*
X82010250Y-37583180D01*
X82036863Y-37633314D01*
X82073750Y-37654057D01*
X82125348Y-37690506D01*
X82137250Y-37723232D01*
X82156697Y-37768720D01*
X82170873Y-37773428D01*
X82190867Y-37795006D01*
X82186931Y-37805912D01*
X82195501Y-37844242D01*
X82217526Y-37859517D01*
X82248303Y-37887608D01*
X82237279Y-37942333D01*
X82228284Y-37963105D01*
X82190140Y-38049258D01*
X82168599Y-38100000D01*
X82116264Y-38155375D01*
X82033215Y-38150847D01*
X81993356Y-38132254D01*
X81949898Y-38088207D01*
X81882416Y-37997201D01*
X81800950Y-37873521D01*
X81733440Y-37762340D01*
X81646030Y-37613585D01*
X81534507Y-37424519D01*
X81410498Y-37214817D01*
X81285633Y-37004155D01*
X81225300Y-36902571D01*
X80981884Y-36492871D01*
X80771830Y-36138780D01*
X80592687Y-35835979D01*
X80442007Y-35580146D01*
X80317342Y-35366959D01*
X80216242Y-35192098D01*
X80136258Y-35051242D01*
X80074941Y-34940070D01*
X80029844Y-34854261D01*
X79998516Y-34789494D01*
X79978509Y-34741447D01*
X79967373Y-34705800D01*
X79962661Y-34678232D01*
X79962325Y-34674073D01*
X79962728Y-34555822D01*
X79987072Y-34497670D01*
X80036007Y-34490374D01*
X80114607Y-34502319D01*
G37*
X80114607Y-34502319D02*
X80152875Y-34505509D01*
X80209381Y-34540530D01*
X80288656Y-34638756D01*
X80367187Y-34761576D01*
X80436291Y-34881513D01*
X80488734Y-34980414D01*
X80515987Y-35041894D01*
X80518000Y-35051290D01*
X80536794Y-35087152D01*
X80542904Y-35088285D01*
X80573487Y-35116638D01*
X80617582Y-35186758D01*
X80627825Y-35206214D01*
X80671643Y-35287806D01*
X80702964Y-35338231D01*
X80706430Y-35342285D01*
X80729425Y-35376857D01*
X80781810Y-35461650D01*
X80857531Y-35586675D01*
X80950532Y-35741942D01*
X81042196Y-35896229D01*
X81176343Y-36122832D01*
X81330216Y-36382742D01*
X81487950Y-36649164D01*
X81633681Y-36895300D01*
X81684812Y-36981656D01*
X81788700Y-37159839D01*
X81878873Y-37319707D01*
X81949636Y-37450739D01*
X81995299Y-37542412D01*
X82010250Y-37583180D01*
X82036863Y-37633314D01*
X82073750Y-37654057D01*
X82125348Y-37690506D01*
X82137250Y-37723232D01*
X82156697Y-37768720D01*
X82170873Y-37773428D01*
X82190867Y-37795006D01*
X82186931Y-37805912D01*
X82195501Y-37844242D01*
X82217526Y-37859517D01*
X82248303Y-37887608D01*
X82237279Y-37942333D01*
X82228284Y-37963105D01*
X82190140Y-38049258D01*
X82168599Y-38100000D01*
X82116264Y-38155375D01*
X82033215Y-38150847D01*
X81993356Y-38132254D01*
X81949898Y-38088207D01*
X81882416Y-37997201D01*
X81800950Y-37873521D01*
X81733440Y-37762340D01*
X81646030Y-37613585D01*
X81534507Y-37424519D01*
X81410498Y-37214817D01*
X81285633Y-37004155D01*
X81225300Y-36902571D01*
X80981884Y-36492871D01*
X80771830Y-36138780D01*
X80592687Y-35835979D01*
X80442007Y-35580146D01*
X80317342Y-35366959D01*
X80216242Y-35192098D01*
X80136258Y-35051242D01*
X80074941Y-34940070D01*
X80029844Y-34854261D01*
X79998516Y-34789494D01*
X79978509Y-34741447D01*
X79967373Y-34705800D01*
X79962661Y-34678232D01*
X79962325Y-34674073D01*
X79962728Y-34555822D01*
X79987072Y-34497670D01*
X80036007Y-34490374D01*
X80114607Y-34502319D01*
G36*
X82183999Y-34515174D02*
G01*
X82190442Y-34531590D01*
X82188966Y-34575520D01*
X82202170Y-34600385D01*
X82212452Y-34650251D01*
X82220968Y-34761932D01*
X82227735Y-34924702D01*
X82232769Y-35127833D01*
X82236087Y-35360599D01*
X82237704Y-35612272D01*
X82237639Y-35872125D01*
X82235907Y-36129431D01*
X82232524Y-36373463D01*
X82227508Y-36593493D01*
X82220874Y-36778795D01*
X82212640Y-36918642D01*
X82202821Y-37002306D01*
X82198452Y-37017642D01*
X82140329Y-37117280D01*
X82081835Y-37149502D01*
X82010572Y-37118148D01*
X81974079Y-37087157D01*
X81899125Y-37017742D01*
X81899125Y-35797690D01*
X81899456Y-35462091D01*
X81900630Y-35191973D01*
X81902915Y-34980248D01*
X81906581Y-34819828D01*
X81911896Y-34703625D01*
X81919130Y-34624551D01*
X81928551Y-34575519D01*
X81940430Y-34549440D01*
X81946750Y-34543231D01*
X81996289Y-34523504D01*
X82066382Y-34511581D01*
X82135971Y-34508469D01*
X82183999Y-34515174D01*
G37*
X82183999Y-34515174D02*
X82190442Y-34531590D01*
X82188966Y-34575520D01*
X82202170Y-34600385D01*
X82212452Y-34650251D01*
X82220968Y-34761932D01*
X82227735Y-34924702D01*
X82232769Y-35127833D01*
X82236087Y-35360599D01*
X82237704Y-35612272D01*
X82237639Y-35872125D01*
X82235907Y-36129431D01*
X82232524Y-36373463D01*
X82227508Y-36593493D01*
X82220874Y-36778795D01*
X82212640Y-36918642D01*
X82202821Y-37002306D01*
X82198452Y-37017642D01*
X82140329Y-37117280D01*
X82081835Y-37149502D01*
X82010572Y-37118148D01*
X81974079Y-37087157D01*
X81899125Y-37017742D01*
X81899125Y-35797690D01*
X81899456Y-35462091D01*
X81900630Y-35191973D01*
X81902915Y-34980248D01*
X81906581Y-34819828D01*
X81911896Y-34703625D01*
X81919130Y-34624551D01*
X81928551Y-34575519D01*
X81940430Y-34549440D01*
X81946750Y-34543231D01*
X81996289Y-34523504D01*
X82066382Y-34511581D01*
X82135971Y-34508469D01*
X82183999Y-34515174D01*
D12*
X130040000Y-38810000D02*
X130040000Y-44970000D01*
X130040000Y-44970000D02*
X138720000Y-44970000D01*
X138720000Y-44970000D02*
X138720000Y-38810000D01*
X138720000Y-38810000D02*
X130040000Y-38810000D01*
X130040000Y-40790000D02*
X130040000Y-40490000D01*
X130040000Y-40490000D02*
X129340000Y-40490000D01*
X129340000Y-40490000D02*
X129340000Y-40790000D01*
X129340000Y-40790000D02*
X130040000Y-40790000D01*
X130040000Y-43290000D02*
X130040000Y-42990000D01*
X130040000Y-42990000D02*
X129340000Y-42990000D01*
X129340000Y-42990000D02*
X129340000Y-43290000D01*
X129340000Y-43290000D02*
X130040000Y-43290000D01*
X125730000Y-39530000D02*
X126030000Y-39105736D01*
X126030000Y-39105736D02*
X125430000Y-39105736D01*
X125430000Y-39105736D02*
X125730000Y-39530000D01*
X130040000Y-47700000D02*
X130040000Y-53860000D01*
X130040000Y-53860000D02*
X138720000Y-53860000D01*
X138720000Y-53860000D02*
X138720000Y-47700000D01*
X138720000Y-47700000D02*
X130040000Y-47700000D01*
X130040000Y-49680000D02*
X130040000Y-49380000D01*
X130040000Y-49380000D02*
X129340000Y-49380000D01*
X129340000Y-49380000D02*
X129340000Y-49680000D01*
X129340000Y-49680000D02*
X130040000Y-49680000D01*
X130040000Y-52180000D02*
X130040000Y-51880000D01*
X130040000Y-51880000D02*
X129340000Y-51880000D01*
X129340000Y-51880000D02*
X129340000Y-52180000D01*
X129340000Y-52180000D02*
X130040000Y-52180000D01*
X125730000Y-48420000D02*
X126030000Y-47995736D01*
X126030000Y-47995736D02*
X125430000Y-47995736D01*
X125430000Y-47995736D02*
X125730000Y-48420000D01*
X130040000Y-56590000D02*
X130040000Y-62750000D01*
X130040000Y-62750000D02*
X138720000Y-62750000D01*
X138720000Y-62750000D02*
X138720000Y-56590000D01*
X138720000Y-56590000D02*
X130040000Y-56590000D01*
X130040000Y-58570000D02*
X130040000Y-58270000D01*
X130040000Y-58270000D02*
X129340000Y-58270000D01*
X129340000Y-58270000D02*
X129340000Y-58570000D01*
X129340000Y-58570000D02*
X130040000Y-58570000D01*
X130040000Y-61070000D02*
X130040000Y-60770000D01*
X130040000Y-60770000D02*
X129340000Y-60770000D01*
X129340000Y-60770000D02*
X129340000Y-61070000D01*
X129340000Y-61070000D02*
X130040000Y-61070000D01*
X125730000Y-57310000D02*
X126030000Y-56885736D01*
X126030000Y-56885736D02*
X125430000Y-56885736D01*
X125430000Y-56885736D02*
X125730000Y-57310000D01*
X130040000Y-65480000D02*
X130040000Y-71640000D01*
X130040000Y-71640000D02*
X138720000Y-71640000D01*
X138720000Y-71640000D02*
X138720000Y-65480000D01*
X138720000Y-65480000D02*
X130040000Y-65480000D01*
X130040000Y-67460000D02*
X130040000Y-67160000D01*
X130040000Y-67160000D02*
X129340000Y-67160000D01*
X129340000Y-67160000D02*
X129340000Y-67460000D01*
X129340000Y-67460000D02*
X130040000Y-67460000D01*
X130040000Y-69960000D02*
X130040000Y-69660000D01*
X130040000Y-69660000D02*
X129340000Y-69660000D01*
X129340000Y-69660000D02*
X129340000Y-69960000D01*
X129340000Y-69960000D02*
X130040000Y-69960000D01*
X125730000Y-66200000D02*
X126030000Y-65775736D01*
X126030000Y-65775736D02*
X125430000Y-65775736D01*
X125430000Y-65775736D02*
X125730000Y-66200000D01*
X122480000Y-77970000D02*
X116320000Y-77970000D01*
X116320000Y-77970000D02*
X116320000Y-86650000D01*
X116320000Y-86650000D02*
X122480000Y-86650000D01*
X122480000Y-86650000D02*
X122480000Y-77970000D01*
X120500000Y-77970000D02*
X120800000Y-77970000D01*
X120800000Y-77970000D02*
X120800000Y-77270000D01*
X120800000Y-77270000D02*
X120500000Y-77270000D01*
X120500000Y-77270000D02*
X120500000Y-77970000D01*
X118000000Y-77970000D02*
X118300000Y-77970000D01*
X118300000Y-77970000D02*
X118300000Y-77270000D01*
X118300000Y-77270000D02*
X118000000Y-77270000D01*
X118000000Y-77270000D02*
X118000000Y-77970000D01*
X121760000Y-73660000D02*
X122184264Y-73960000D01*
X122184264Y-73960000D02*
X122184264Y-73360000D01*
X122184264Y-73360000D02*
X121760000Y-73660000D01*
X113590000Y-77970000D02*
X107430000Y-77970000D01*
X107430000Y-77970000D02*
X107430000Y-86650000D01*
X107430000Y-86650000D02*
X113590000Y-86650000D01*
X113590000Y-86650000D02*
X113590000Y-77970000D01*
X111610000Y-77970000D02*
X111910000Y-77970000D01*
X111910000Y-77970000D02*
X111910000Y-77270000D01*
X111910000Y-77270000D02*
X111610000Y-77270000D01*
X111610000Y-77270000D02*
X111610000Y-77970000D01*
X109110000Y-77970000D02*
X109410000Y-77970000D01*
X109410000Y-77970000D02*
X109410000Y-77270000D01*
X109410000Y-77270000D02*
X109110000Y-77270000D01*
X109110000Y-77270000D02*
X109110000Y-77970000D01*
X112870000Y-73660000D02*
X113294264Y-73960000D01*
X113294264Y-73960000D02*
X113294264Y-73360000D01*
X113294264Y-73360000D02*
X112870000Y-73660000D01*
X104700000Y-77970000D02*
X98540000Y-77970000D01*
X98540000Y-77970000D02*
X98540000Y-86650000D01*
X98540000Y-86650000D02*
X104700000Y-86650000D01*
X104700000Y-86650000D02*
X104700000Y-77970000D01*
X102720000Y-77970000D02*
X103020000Y-77970000D01*
X103020000Y-77970000D02*
X103020000Y-77270000D01*
X103020000Y-77270000D02*
X102720000Y-77270000D01*
X102720000Y-77270000D02*
X102720000Y-77970000D01*
X100220000Y-77970000D02*
X100520000Y-77970000D01*
X100520000Y-77970000D02*
X100520000Y-77270000D01*
X100520000Y-77270000D02*
X100220000Y-77270000D01*
X100220000Y-77270000D02*
X100220000Y-77970000D01*
X103980000Y-73660000D02*
X104404264Y-73960000D01*
X104404264Y-73960000D02*
X104404264Y-73360000D01*
X104404264Y-73360000D02*
X103980000Y-73660000D01*
X95810000Y-77970000D02*
X89650000Y-77970000D01*
X89650000Y-77970000D02*
X89650000Y-86650000D01*
X89650000Y-86650000D02*
X95810000Y-86650000D01*
X95810000Y-86650000D02*
X95810000Y-77970000D01*
X93830000Y-77970000D02*
X94130000Y-77970000D01*
X94130000Y-77970000D02*
X94130000Y-77270000D01*
X94130000Y-77270000D02*
X93830000Y-77270000D01*
X93830000Y-77270000D02*
X93830000Y-77970000D01*
X91330000Y-77970000D02*
X91630000Y-77970000D01*
X91630000Y-77970000D02*
X91630000Y-77270000D01*
X91630000Y-77270000D02*
X91330000Y-77270000D01*
X91330000Y-77270000D02*
X91330000Y-77970000D01*
X95090000Y-73660000D02*
X95514264Y-73960000D01*
X95514264Y-73960000D02*
X95514264Y-73360000D01*
X95514264Y-73360000D02*
X95090000Y-73660000D01*
X117570000Y-63600000D02*
X117570000Y-60860000D01*
X117570000Y-60860000D02*
X111030000Y-60860000D01*
X111030000Y-60860000D02*
X111030000Y-63600000D01*
X111030000Y-63600000D02*
X117570000Y-63600000D01*
X118340000Y-62230000D02*
X117570000Y-62230000D01*
X110260000Y-62230000D02*
X111030000Y-62230000D01*
X74760000Y-64770000D02*
G75*
G03X74760000Y-64770000I-4120000J0D01*
G01*
X70640000Y-68850000D02*
X70640000Y-60690000D01*
X70600000Y-68850000D02*
X70600000Y-60690000D01*
X70560000Y-68850000D02*
X70560000Y-60690000D01*
X70520000Y-68849000D02*
X70520000Y-60691000D01*
X70480000Y-68847000D02*
X70480000Y-60693000D01*
X70440000Y-68846000D02*
X70440000Y-60694000D01*
X70400000Y-68844000D02*
X70400000Y-60696000D01*
X70360000Y-68841000D02*
X70360000Y-60699000D01*
X70320000Y-68838000D02*
X70320000Y-60702000D01*
X70280000Y-68835000D02*
X70280000Y-60705000D01*
X70240000Y-68831000D02*
X70240000Y-60709000D01*
X70200000Y-68827000D02*
X70200000Y-60713000D01*
X70160000Y-68822000D02*
X70160000Y-60718000D01*
X70120000Y-68818000D02*
X70120000Y-60722000D01*
X70080000Y-68812000D02*
X70080000Y-60728000D01*
X70040000Y-68807000D02*
X70040000Y-60733000D01*
X70000000Y-68800000D02*
X70000000Y-60740000D01*
X69960000Y-68794000D02*
X69960000Y-60746000D01*
X69919000Y-68787000D02*
X69919000Y-65810000D01*
X69919000Y-63730000D02*
X69919000Y-60753000D01*
X69879000Y-68780000D02*
X69879000Y-65810000D01*
X69879000Y-63730000D02*
X69879000Y-60760000D01*
X69839000Y-68772000D02*
X69839000Y-65810000D01*
X69839000Y-63730000D02*
X69839000Y-60768000D01*
X69799000Y-68764000D02*
X69799000Y-65810000D01*
X69799000Y-63730000D02*
X69799000Y-60776000D01*
X69759000Y-68755000D02*
X69759000Y-65810000D01*
X69759000Y-63730000D02*
X69759000Y-60785000D01*
X69719000Y-68746000D02*
X69719000Y-65810000D01*
X69719000Y-63730000D02*
X69719000Y-60794000D01*
X69679000Y-68737000D02*
X69679000Y-65810000D01*
X69679000Y-63730000D02*
X69679000Y-60803000D01*
X69639000Y-68727000D02*
X69639000Y-65810000D01*
X69639000Y-63730000D02*
X69639000Y-60813000D01*
X69599000Y-68717000D02*
X69599000Y-65810000D01*
X69599000Y-63730000D02*
X69599000Y-60823000D01*
X69559000Y-68706000D02*
X69559000Y-65810000D01*
X69559000Y-63730000D02*
X69559000Y-60834000D01*
X69519000Y-68695000D02*
X69519000Y-65810000D01*
X69519000Y-63730000D02*
X69519000Y-60845000D01*
X69479000Y-68684000D02*
X69479000Y-65810000D01*
X69479000Y-63730000D02*
X69479000Y-60856000D01*
X69439000Y-68672000D02*
X69439000Y-65810000D01*
X69439000Y-63730000D02*
X69439000Y-60868000D01*
X69399000Y-68659000D02*
X69399000Y-65810000D01*
X69399000Y-63730000D02*
X69399000Y-60881000D01*
X69359000Y-68647000D02*
X69359000Y-65810000D01*
X69359000Y-63730000D02*
X69359000Y-60893000D01*
X69319000Y-68633000D02*
X69319000Y-65810000D01*
X69319000Y-63730000D02*
X69319000Y-60907000D01*
X69279000Y-68620000D02*
X69279000Y-65810000D01*
X69279000Y-63730000D02*
X69279000Y-60920000D01*
X69239000Y-68605000D02*
X69239000Y-65810000D01*
X69239000Y-63730000D02*
X69239000Y-60935000D01*
X69199000Y-68591000D02*
X69199000Y-65810000D01*
X69199000Y-63730000D02*
X69199000Y-60949000D01*
X69159000Y-68575000D02*
X69159000Y-65810000D01*
X69159000Y-63730000D02*
X69159000Y-60965000D01*
X69119000Y-68560000D02*
X69119000Y-65810000D01*
X69119000Y-63730000D02*
X69119000Y-60980000D01*
X69079000Y-68544000D02*
X69079000Y-65810000D01*
X69079000Y-63730000D02*
X69079000Y-60996000D01*
X69039000Y-68527000D02*
X69039000Y-65810000D01*
X69039000Y-63730000D02*
X69039000Y-61013000D01*
X68999000Y-68510000D02*
X68999000Y-65810000D01*
X68999000Y-63730000D02*
X68999000Y-61030000D01*
X68959000Y-68492000D02*
X68959000Y-65810000D01*
X68959000Y-63730000D02*
X68959000Y-61048000D01*
X68919000Y-68474000D02*
X68919000Y-65810000D01*
X68919000Y-63730000D02*
X68919000Y-61066000D01*
X68879000Y-68456000D02*
X68879000Y-65810000D01*
X68879000Y-63730000D02*
X68879000Y-61084000D01*
X68839000Y-68436000D02*
X68839000Y-65810000D01*
X68839000Y-63730000D02*
X68839000Y-61104000D01*
X68799000Y-68417000D02*
X68799000Y-65810000D01*
X68799000Y-63730000D02*
X68799000Y-61123000D01*
X68759000Y-68397000D02*
X68759000Y-65810000D01*
X68759000Y-63730000D02*
X68759000Y-61143000D01*
X68719000Y-68376000D02*
X68719000Y-65810000D01*
X68719000Y-63730000D02*
X68719000Y-61164000D01*
X68679000Y-68354000D02*
X68679000Y-65810000D01*
X68679000Y-63730000D02*
X68679000Y-61186000D01*
X68639000Y-68332000D02*
X68639000Y-65810000D01*
X68639000Y-63730000D02*
X68639000Y-61208000D01*
X68599000Y-68310000D02*
X68599000Y-65810000D01*
X68599000Y-63730000D02*
X68599000Y-61230000D01*
X68559000Y-68287000D02*
X68559000Y-65810000D01*
X68559000Y-63730000D02*
X68559000Y-61253000D01*
X68519000Y-68263000D02*
X68519000Y-65810000D01*
X68519000Y-63730000D02*
X68519000Y-61277000D01*
X68479000Y-68239000D02*
X68479000Y-65810000D01*
X68479000Y-63730000D02*
X68479000Y-61301000D01*
X68439000Y-68214000D02*
X68439000Y-65810000D01*
X68439000Y-63730000D02*
X68439000Y-61326000D01*
X68399000Y-68188000D02*
X68399000Y-65810000D01*
X68399000Y-63730000D02*
X68399000Y-61352000D01*
X68359000Y-68162000D02*
X68359000Y-65810000D01*
X68359000Y-63730000D02*
X68359000Y-61378000D01*
X68319000Y-68135000D02*
X68319000Y-65810000D01*
X68319000Y-63730000D02*
X68319000Y-61405000D01*
X68279000Y-68108000D02*
X68279000Y-65810000D01*
X68279000Y-63730000D02*
X68279000Y-61432000D01*
X68239000Y-68079000D02*
X68239000Y-65810000D01*
X68239000Y-63730000D02*
X68239000Y-61461000D01*
X68199000Y-68050000D02*
X68199000Y-65810000D01*
X68199000Y-63730000D02*
X68199000Y-61490000D01*
X68159000Y-68020000D02*
X68159000Y-65810000D01*
X68159000Y-63730000D02*
X68159000Y-61520000D01*
X68119000Y-67990000D02*
X68119000Y-65810000D01*
X68119000Y-63730000D02*
X68119000Y-61550000D01*
X68079000Y-67959000D02*
X68079000Y-65810000D01*
X68079000Y-63730000D02*
X68079000Y-61581000D01*
X68039000Y-67926000D02*
X68039000Y-65810000D01*
X68039000Y-63730000D02*
X68039000Y-61614000D01*
X67999000Y-67894000D02*
X67999000Y-65810000D01*
X67999000Y-63730000D02*
X67999000Y-61646000D01*
X67959000Y-67860000D02*
X67959000Y-65810000D01*
X67959000Y-63730000D02*
X67959000Y-61680000D01*
X67919000Y-67825000D02*
X67919000Y-65810000D01*
X67919000Y-63730000D02*
X67919000Y-61715000D01*
X67879000Y-67789000D02*
X67879000Y-65810000D01*
X67879000Y-63730000D02*
X67879000Y-61751000D01*
X67839000Y-67753000D02*
X67839000Y-61787000D01*
X67799000Y-67715000D02*
X67799000Y-61825000D01*
X67759000Y-67677000D02*
X67759000Y-61863000D01*
X67719000Y-67637000D02*
X67719000Y-61903000D01*
X67679000Y-67596000D02*
X67679000Y-61944000D01*
X67639000Y-67554000D02*
X67639000Y-61986000D01*
X67599000Y-67511000D02*
X67599000Y-62029000D01*
X67559000Y-67467000D02*
X67559000Y-62073000D01*
X67519000Y-67421000D02*
X67519000Y-62119000D01*
X67479000Y-67374000D02*
X67479000Y-62166000D01*
X67439000Y-67326000D02*
X67439000Y-62214000D01*
X67399000Y-67275000D02*
X67399000Y-62265000D01*
X67359000Y-67224000D02*
X67359000Y-62316000D01*
X67319000Y-67170000D02*
X67319000Y-62370000D01*
X67279000Y-67115000D02*
X67279000Y-62425000D01*
X67239000Y-67057000D02*
X67239000Y-62483000D01*
X67199000Y-66998000D02*
X67199000Y-62542000D01*
X67159000Y-66936000D02*
X67159000Y-62604000D01*
X67119000Y-66872000D02*
X67119000Y-62668000D01*
X67079000Y-66804000D02*
X67079000Y-62736000D01*
X67039000Y-66734000D02*
X67039000Y-62806000D01*
X66999000Y-66660000D02*
X66999000Y-62880000D01*
X66959000Y-66583000D02*
X66959000Y-62957000D01*
X66919000Y-66501000D02*
X66919000Y-63039000D01*
X66879000Y-66415000D02*
X66879000Y-63125000D01*
X66839000Y-66322000D02*
X66839000Y-63218000D01*
X66799000Y-66223000D02*
X66799000Y-63317000D01*
X66759000Y-66116000D02*
X66759000Y-63424000D01*
X66719000Y-65999000D02*
X66719000Y-63541000D01*
X66679000Y-65868000D02*
X66679000Y-63672000D01*
X66639000Y-65718000D02*
X66639000Y-63822000D01*
X66599000Y-65538000D02*
X66599000Y-64002000D01*
X66559000Y-65303000D02*
X66559000Y-64237000D01*
X75049698Y-67085000D02*
X74249698Y-67085000D01*
X74649698Y-67485000D02*
X74649698Y-66685000D01*
X77530000Y-44450000D02*
G75*
G03X77530000Y-44450000I-6370000J0D01*
G01*
X71160000Y-50780000D02*
X71160000Y-38120000D01*
X71120000Y-50780000D02*
X71120000Y-38120000D01*
X71080000Y-50780000D02*
X71080000Y-38120000D01*
X71040000Y-50779000D02*
X71040000Y-38121000D01*
X71000000Y-50778000D02*
X71000000Y-38122000D01*
X70960000Y-50777000D02*
X70960000Y-38123000D01*
X70920000Y-50776000D02*
X70920000Y-38124000D01*
X70880000Y-50774000D02*
X70880000Y-38126000D01*
X70840000Y-50772000D02*
X70840000Y-38128000D01*
X70800000Y-50770000D02*
X70800000Y-38130000D01*
X70760000Y-50768000D02*
X70760000Y-38132000D01*
X70720000Y-50765000D02*
X70720000Y-38135000D01*
X70680000Y-50762000D02*
X70680000Y-38138000D01*
X70640000Y-50759000D02*
X70640000Y-38141000D01*
X70600000Y-50756000D02*
X70600000Y-38144000D01*
X70560000Y-50752000D02*
X70560000Y-38148000D01*
X70520000Y-50748000D02*
X70520000Y-38152000D01*
X70480000Y-50744000D02*
X70480000Y-38156000D01*
X70439000Y-50740000D02*
X70439000Y-38160000D01*
X70399000Y-50735000D02*
X70399000Y-38165000D01*
X70359000Y-50730000D02*
X70359000Y-38170000D01*
X70319000Y-50725000D02*
X70319000Y-38175000D01*
X70279000Y-50719000D02*
X70279000Y-38181000D01*
X70239000Y-50714000D02*
X70239000Y-38186000D01*
X70199000Y-50708000D02*
X70199000Y-38192000D01*
X70159000Y-50702000D02*
X70159000Y-38198000D01*
X70119000Y-50695000D02*
X70119000Y-38205000D01*
X70079000Y-50688000D02*
X70079000Y-45890000D01*
X70079000Y-43010000D02*
X70079000Y-38212000D01*
X70039000Y-50681000D02*
X70039000Y-45890000D01*
X70039000Y-43010000D02*
X70039000Y-38219000D01*
X69999000Y-50674000D02*
X69999000Y-45890000D01*
X69999000Y-43010000D02*
X69999000Y-38226000D01*
X69959000Y-50666000D02*
X69959000Y-45890000D01*
X69959000Y-43010000D02*
X69959000Y-38234000D01*
X69919000Y-50659000D02*
X69919000Y-45890000D01*
X69919000Y-43010000D02*
X69919000Y-38241000D01*
X69879000Y-50651000D02*
X69879000Y-45890000D01*
X69879000Y-43010000D02*
X69879000Y-38249000D01*
X69839000Y-50642000D02*
X69839000Y-45890000D01*
X69839000Y-43010000D02*
X69839000Y-38258000D01*
X69799000Y-50634000D02*
X69799000Y-45890000D01*
X69799000Y-43010000D02*
X69799000Y-38266000D01*
X69759000Y-50625000D02*
X69759000Y-45890000D01*
X69759000Y-43010000D02*
X69759000Y-38275000D01*
X69719000Y-50616000D02*
X69719000Y-45890000D01*
X69719000Y-43010000D02*
X69719000Y-38284000D01*
X69679000Y-50606000D02*
X69679000Y-45890000D01*
X69679000Y-43010000D02*
X69679000Y-38294000D01*
X69639000Y-50596000D02*
X69639000Y-45890000D01*
X69639000Y-43010000D02*
X69639000Y-38304000D01*
X69599000Y-50587000D02*
X69599000Y-45890000D01*
X69599000Y-43010000D02*
X69599000Y-38313000D01*
X69559000Y-50576000D02*
X69559000Y-45890000D01*
X69559000Y-43010000D02*
X69559000Y-38324000D01*
X69519000Y-50566000D02*
X69519000Y-45890000D01*
X69519000Y-43010000D02*
X69519000Y-38334000D01*
X69479000Y-50555000D02*
X69479000Y-45890000D01*
X69479000Y-43010000D02*
X69479000Y-38345000D01*
X69439000Y-50544000D02*
X69439000Y-45890000D01*
X69439000Y-43010000D02*
X69439000Y-38356000D01*
X69399000Y-50533000D02*
X69399000Y-45890000D01*
X69399000Y-43010000D02*
X69399000Y-38367000D01*
X69359000Y-50521000D02*
X69359000Y-45890000D01*
X69359000Y-43010000D02*
X69359000Y-38379000D01*
X69319000Y-50509000D02*
X69319000Y-45890000D01*
X69319000Y-43010000D02*
X69319000Y-38391000D01*
X69279000Y-50497000D02*
X69279000Y-45890000D01*
X69279000Y-43010000D02*
X69279000Y-38403000D01*
X69239000Y-50484000D02*
X69239000Y-45890000D01*
X69239000Y-43010000D02*
X69239000Y-38416000D01*
X69199000Y-50471000D02*
X69199000Y-45890000D01*
X69199000Y-43010000D02*
X69199000Y-38429000D01*
X69159000Y-50458000D02*
X69159000Y-45890000D01*
X69159000Y-43010000D02*
X69159000Y-38442000D01*
X69119000Y-50445000D02*
X69119000Y-45890000D01*
X69119000Y-43010000D02*
X69119000Y-38455000D01*
X69079000Y-50431000D02*
X69079000Y-45890000D01*
X69079000Y-43010000D02*
X69079000Y-38469000D01*
X69039000Y-50417000D02*
X69039000Y-45890000D01*
X69039000Y-43010000D02*
X69039000Y-38483000D01*
X68999000Y-50403000D02*
X68999000Y-45890000D01*
X68999000Y-43010000D02*
X68999000Y-38497000D01*
X68959000Y-50389000D02*
X68959000Y-45890000D01*
X68959000Y-43010000D02*
X68959000Y-38511000D01*
X68919000Y-50374000D02*
X68919000Y-45890000D01*
X68919000Y-43010000D02*
X68919000Y-38526000D01*
X68879000Y-50358000D02*
X68879000Y-45890000D01*
X68879000Y-43010000D02*
X68879000Y-38542000D01*
X68839000Y-50343000D02*
X68839000Y-45890000D01*
X68839000Y-43010000D02*
X68839000Y-38557000D01*
X68799000Y-50327000D02*
X68799000Y-45890000D01*
X68799000Y-43010000D02*
X68799000Y-38573000D01*
X68759000Y-50311000D02*
X68759000Y-45890000D01*
X68759000Y-43010000D02*
X68759000Y-38589000D01*
X68719000Y-50295000D02*
X68719000Y-45890000D01*
X68719000Y-43010000D02*
X68719000Y-38605000D01*
X68679000Y-50278000D02*
X68679000Y-45890000D01*
X68679000Y-43010000D02*
X68679000Y-38622000D01*
X68639000Y-50261000D02*
X68639000Y-45890000D01*
X68639000Y-43010000D02*
X68639000Y-38639000D01*
X68599000Y-50243000D02*
X68599000Y-45890000D01*
X68599000Y-43010000D02*
X68599000Y-38657000D01*
X68559000Y-50226000D02*
X68559000Y-45890000D01*
X68559000Y-43010000D02*
X68559000Y-38674000D01*
X68519000Y-50208000D02*
X68519000Y-45890000D01*
X68519000Y-43010000D02*
X68519000Y-38692000D01*
X68479000Y-50189000D02*
X68479000Y-45890000D01*
X68479000Y-43010000D02*
X68479000Y-38711000D01*
X68439000Y-50171000D02*
X68439000Y-45890000D01*
X68439000Y-43010000D02*
X68439000Y-38729000D01*
X68399000Y-50152000D02*
X68399000Y-45890000D01*
X68399000Y-43010000D02*
X68399000Y-38748000D01*
X68359000Y-50132000D02*
X68359000Y-45890000D01*
X68359000Y-43010000D02*
X68359000Y-38768000D01*
X68319000Y-50112000D02*
X68319000Y-45890000D01*
X68319000Y-43010000D02*
X68319000Y-38788000D01*
X68279000Y-50092000D02*
X68279000Y-45890000D01*
X68279000Y-43010000D02*
X68279000Y-38808000D01*
X68239000Y-50072000D02*
X68239000Y-45890000D01*
X68239000Y-43010000D02*
X68239000Y-38828000D01*
X68199000Y-50051000D02*
X68199000Y-45890000D01*
X68199000Y-43010000D02*
X68199000Y-38849000D01*
X68159000Y-50030000D02*
X68159000Y-45890000D01*
X68159000Y-43010000D02*
X68159000Y-38870000D01*
X68119000Y-50008000D02*
X68119000Y-45890000D01*
X68119000Y-43010000D02*
X68119000Y-38892000D01*
X68079000Y-49986000D02*
X68079000Y-45890000D01*
X68079000Y-43010000D02*
X68079000Y-38914000D01*
X68039000Y-49964000D02*
X68039000Y-45890000D01*
X68039000Y-43010000D02*
X68039000Y-38936000D01*
X67999000Y-49941000D02*
X67999000Y-45890000D01*
X67999000Y-43010000D02*
X67999000Y-38959000D01*
X67959000Y-49918000D02*
X67959000Y-45890000D01*
X67959000Y-43010000D02*
X67959000Y-38982000D01*
X67919000Y-49895000D02*
X67919000Y-45890000D01*
X67919000Y-43010000D02*
X67919000Y-39005000D01*
X67879000Y-49871000D02*
X67879000Y-45890000D01*
X67879000Y-43010000D02*
X67879000Y-39029000D01*
X67839000Y-49847000D02*
X67839000Y-45890000D01*
X67839000Y-43010000D02*
X67839000Y-39053000D01*
X67799000Y-49822000D02*
X67799000Y-45890000D01*
X67799000Y-43010000D02*
X67799000Y-39078000D01*
X67759000Y-49797000D02*
X67759000Y-45890000D01*
X67759000Y-43010000D02*
X67759000Y-39103000D01*
X67719000Y-49772000D02*
X67719000Y-45890000D01*
X67719000Y-43010000D02*
X67719000Y-39128000D01*
X67679000Y-49746000D02*
X67679000Y-45890000D01*
X67679000Y-43010000D02*
X67679000Y-39154000D01*
X67639000Y-49720000D02*
X67639000Y-45890000D01*
X67639000Y-43010000D02*
X67639000Y-39180000D01*
X67599000Y-49693000D02*
X67599000Y-45890000D01*
X67599000Y-43010000D02*
X67599000Y-39207000D01*
X67559000Y-49666000D02*
X67559000Y-45890000D01*
X67559000Y-43010000D02*
X67559000Y-39234000D01*
X67519000Y-49638000D02*
X67519000Y-45890000D01*
X67519000Y-43010000D02*
X67519000Y-39262000D01*
X67479000Y-49610000D02*
X67479000Y-45890000D01*
X67479000Y-43010000D02*
X67479000Y-39290000D01*
X67439000Y-49581000D02*
X67439000Y-45890000D01*
X67439000Y-43010000D02*
X67439000Y-39319000D01*
X67399000Y-49552000D02*
X67399000Y-45890000D01*
X67399000Y-43010000D02*
X67399000Y-39348000D01*
X67359000Y-49523000D02*
X67359000Y-45890000D01*
X67359000Y-43010000D02*
X67359000Y-39377000D01*
X67319000Y-49493000D02*
X67319000Y-45890000D01*
X67319000Y-43010000D02*
X67319000Y-39407000D01*
X67279000Y-49462000D02*
X67279000Y-45890000D01*
X67279000Y-43010000D02*
X67279000Y-39438000D01*
X67239000Y-49432000D02*
X67239000Y-45890000D01*
X67239000Y-43010000D02*
X67239000Y-39468000D01*
X67199000Y-49400000D02*
X67199000Y-39500000D01*
X67159000Y-49368000D02*
X67159000Y-39532000D01*
X67119000Y-49335000D02*
X67119000Y-39565000D01*
X67079000Y-49302000D02*
X67079000Y-39598000D01*
X67039000Y-49269000D02*
X67039000Y-39631000D01*
X66999000Y-49235000D02*
X66999000Y-39665000D01*
X66959000Y-49200000D02*
X66959000Y-39700000D01*
X66919000Y-49164000D02*
X66919000Y-39736000D01*
X66879000Y-49128000D02*
X66879000Y-39772000D01*
X66839000Y-49092000D02*
X66839000Y-39808000D01*
X66799000Y-49055000D02*
X66799000Y-39845000D01*
X66759000Y-49017000D02*
X66759000Y-39883000D01*
X66719000Y-48978000D02*
X66719000Y-39922000D01*
X66679000Y-48939000D02*
X66679000Y-39961000D01*
X66639000Y-48899000D02*
X66639000Y-40001000D01*
X66599000Y-48858000D02*
X66599000Y-40042000D01*
X66559000Y-48817000D02*
X66559000Y-40083000D01*
X66519000Y-48775000D02*
X66519000Y-40125000D01*
X66479000Y-48732000D02*
X66479000Y-40168000D01*
X66439000Y-48688000D02*
X66439000Y-40212000D01*
X66399000Y-48644000D02*
X66399000Y-40256000D01*
X66359000Y-48598000D02*
X66359000Y-40302000D01*
X66319000Y-48552000D02*
X66319000Y-40348000D01*
X66279000Y-48505000D02*
X66279000Y-40395000D01*
X66239000Y-48457000D02*
X66239000Y-40443000D01*
X66199000Y-48407000D02*
X66199000Y-40493000D01*
X66159000Y-48357000D02*
X66159000Y-40543000D01*
X66119000Y-48306000D02*
X66119000Y-40594000D01*
X66079000Y-48254000D02*
X66079000Y-40646000D01*
X66039000Y-48200000D02*
X66039000Y-40700000D01*
X65999000Y-48146000D02*
X65999000Y-40754000D01*
X65959000Y-48090000D02*
X65959000Y-40810000D01*
X65919000Y-48033000D02*
X65919000Y-40867000D01*
X65879000Y-47974000D02*
X65879000Y-40926000D01*
X65839000Y-47914000D02*
X65839000Y-40986000D01*
X65799000Y-47852000D02*
X65799000Y-41048000D01*
X65759000Y-47789000D02*
X65759000Y-41111000D01*
X65719000Y-47725000D02*
X65719000Y-41175000D01*
X65679000Y-47658000D02*
X65679000Y-41242000D01*
X65639000Y-47590000D02*
X65639000Y-41310000D01*
X65599000Y-47519000D02*
X65599000Y-41381000D01*
X65559000Y-47446000D02*
X65559000Y-41454000D01*
X65519000Y-47371000D02*
X65519000Y-41529000D01*
X65479000Y-47294000D02*
X65479000Y-41606000D01*
X65439000Y-47214000D02*
X65439000Y-41686000D01*
X65399000Y-47131000D02*
X65399000Y-41769000D01*
X65359000Y-47044000D02*
X65359000Y-41856000D01*
X65319000Y-46954000D02*
X65319000Y-41946000D01*
X65279000Y-46860000D02*
X65279000Y-42040000D01*
X65239000Y-46762000D02*
X65239000Y-42138000D01*
X65199000Y-46659000D02*
X65199000Y-42241000D01*
X65159000Y-46550000D02*
X65159000Y-42350000D01*
X65119000Y-46434000D02*
X65119000Y-42466000D01*
X65079000Y-46311000D02*
X65079000Y-42589000D01*
X65039000Y-46178000D02*
X65039000Y-42722000D01*
X64999000Y-46033000D02*
X64999000Y-42867000D01*
X64959000Y-45872000D02*
X64959000Y-43028000D01*
X64919000Y-45691000D02*
X64919000Y-43209000D01*
X64879000Y-45478000D02*
X64879000Y-43422000D01*
X64839000Y-45207000D02*
X64839000Y-43693000D01*
X64799000Y-44767000D02*
X64799000Y-44133000D01*
X77977082Y-48025000D02*
X76727082Y-48025000D01*
X77352082Y-48650000D02*
X77352082Y-47400000D01*
X87810000Y-67520000D02*
X82370000Y-67520000D01*
X82370000Y-67520000D02*
X82370000Y-77260000D01*
X82370000Y-77260000D02*
X87810000Y-77260000D01*
X87810000Y-77260000D02*
X87810000Y-67520000D01*
X85090000Y-66610000D02*
X85090000Y-67520000D01*
X85090000Y-78170000D02*
X85090000Y-77260000D01*
X87810000Y-69065000D02*
X82370000Y-69065000D01*
X87810000Y-69185000D02*
X82370000Y-69185000D01*
X87810000Y-68945000D02*
X82370000Y-68945000D01*
X89940000Y-54150000D02*
G75*
G03X89940000Y-54150000I-6120000J0D01*
G01*
X117570000Y-40740000D02*
X117570000Y-38000000D01*
X117570000Y-38000000D02*
X111030000Y-38000000D01*
X111030000Y-38000000D02*
X111030000Y-40740000D01*
X111030000Y-40740000D02*
X117570000Y-40740000D01*
X118340000Y-39370000D02*
X117570000Y-39370000D01*
X110260000Y-39370000D02*
X111030000Y-39370000D01*
X117570000Y-44550000D02*
X117570000Y-41810000D01*
X117570000Y-41810000D02*
X111030000Y-41810000D01*
X111030000Y-41810000D02*
X111030000Y-44550000D01*
X111030000Y-44550000D02*
X117570000Y-44550000D01*
X118340000Y-43180000D02*
X117570000Y-43180000D01*
X110260000Y-43180000D02*
X111030000Y-43180000D01*
X117570000Y-48360000D02*
X117570000Y-45620000D01*
X117570000Y-45620000D02*
X111030000Y-45620000D01*
X111030000Y-45620000D02*
X111030000Y-48360000D01*
X111030000Y-48360000D02*
X117570000Y-48360000D01*
X118340000Y-46990000D02*
X117570000Y-46990000D01*
X110260000Y-46990000D02*
X111030000Y-46990000D01*
X117570000Y-52170000D02*
X117570000Y-49430000D01*
X117570000Y-49430000D02*
X111030000Y-49430000D01*
X111030000Y-49430000D02*
X111030000Y-52170000D01*
X111030000Y-52170000D02*
X117570000Y-52170000D01*
X118340000Y-50800000D02*
X117570000Y-50800000D01*
X110260000Y-50800000D02*
X111030000Y-50800000D01*
X117570000Y-55980000D02*
X117570000Y-53240000D01*
X117570000Y-53240000D02*
X111030000Y-53240000D01*
X111030000Y-53240000D02*
X111030000Y-55980000D01*
X111030000Y-55980000D02*
X117570000Y-55980000D01*
X118340000Y-54610000D02*
X117570000Y-54610000D01*
X110260000Y-54610000D02*
X111030000Y-54610000D01*
X117570000Y-59790000D02*
X117570000Y-57050000D01*
X117570000Y-57050000D02*
X111030000Y-57050000D01*
X111030000Y-57050000D02*
X111030000Y-59790000D01*
X111030000Y-59790000D02*
X117570000Y-59790000D01*
X118340000Y-58420000D02*
X117570000Y-58420000D01*
X110260000Y-58420000D02*
X111030000Y-58420000D01*
X117570000Y-67410000D02*
X117570000Y-64670000D01*
X117570000Y-64670000D02*
X111030000Y-64670000D01*
X111030000Y-64670000D02*
X111030000Y-67410000D01*
X111030000Y-67410000D02*
X117570000Y-67410000D01*
X118340000Y-66040000D02*
X117570000Y-66040000D01*
X110260000Y-66040000D02*
X111030000Y-66040000D01*
D13*
X86360000Y-20320000D02*
X86360000Y-22860000D01*
X86360000Y-22860000D02*
X88900000Y-22860000D01*
X88900000Y-22860000D02*
X88900000Y-20320000D01*
X88900000Y-20320000D02*
X86360000Y-20320000D01*
X93980000Y-29210000D02*
X90170000Y-29210000D01*
X90170000Y-29210000D02*
X90170000Y-26670000D01*
X90170000Y-26670000D02*
X93980000Y-26670000D01*
X93980000Y-26670000D02*
X93980000Y-29210000D01*
X107950000Y-30480000D02*
X107950000Y-17780000D01*
X95250000Y-17780000D02*
X95250000Y-30480000D01*
X95250000Y-30480000D02*
X107950000Y-30480000D01*
X95250000Y-17780000D02*
X107950000Y-17780000D01*
X129540000Y-29210000D02*
X130810000Y-29210000D01*
X129540000Y-27940000D02*
X130810000Y-27940000D01*
X129540000Y-26670000D02*
X130810000Y-26670000D01*
X129540000Y-25400000D02*
X130810000Y-25400000D01*
X129540000Y-24130000D02*
X130810000Y-24130000D01*
X129540000Y-22860000D02*
X130810000Y-22860000D01*
X129540000Y-21590000D02*
X130810000Y-21590000D01*
X129540000Y-20320000D02*
X130810000Y-20320000D01*
X129540000Y-19050000D02*
X130810000Y-19050000D01*
X130810000Y-30480000D02*
X129540000Y-29210000D01*
X129540000Y-29210000D02*
X129540000Y-19050000D01*
X129540000Y-19050000D02*
X130810000Y-17780000D01*
X130810000Y-17780000D02*
X118110000Y-17780000D01*
X118110000Y-17780000D02*
X118110000Y-30480000D01*
X118110000Y-30480000D02*
X130810000Y-30480000D01*
X130810000Y-15240000D02*
X69850000Y-15240000D01*
X69850000Y-33020000D02*
X130810000Y-33020000D01*
X69850000Y-27940000D02*
X68580000Y-27940000D01*
X68580000Y-27940000D02*
X68580000Y-20320000D01*
X68580000Y-20320000D02*
X69850000Y-20320000D01*
X74930000Y-27940000D02*
X74930000Y-20320000D01*
X74930000Y-20320000D02*
X69850000Y-20320000D01*
X74930000Y-27940000D02*
X69850000Y-27940000D01*
X114300000Y-21590000D02*
X114300000Y-26670000D01*
X114300000Y-26670000D02*
X111760000Y-26670000D01*
X111760000Y-26670000D02*
X111760000Y-21590000D01*
X111760000Y-21590000D02*
X114300000Y-21590000D01*
X130810000Y-15240000D02*
X130810000Y-33020000D01*
X69850000Y-33020000D02*
X69850000Y-15240000D01*
D12*
X101330000Y-39310000D02*
G75*
G02X99330000Y-39310000I-1000000J0D01*
G01*
X99330000Y-39310000D02*
X97680000Y-39310000D01*
X97680000Y-39310000D02*
X97680000Y-64830000D01*
X97680000Y-64830000D02*
X102980000Y-64830000D01*
X102980000Y-64830000D02*
X102980000Y-39310000D01*
X102980000Y-39310000D02*
X101330000Y-39310000D01*
X75381000Y-57880000D02*
X65140000Y-57880000D01*
X75381000Y-53239000D02*
X65140000Y-53239000D01*
X75381000Y-57880000D02*
X75381000Y-53239000D01*
X65140000Y-57880000D02*
X65140000Y-53239000D01*
X75381000Y-56370000D02*
X65140000Y-56370000D01*
X72110000Y-57880000D02*
X72110000Y-56370000D01*
X68410000Y-57880000D02*
X68410000Y-56370000D01*
X73790000Y-71090000D02*
X79850000Y-71090000D01*
X79850000Y-71090000D02*
X79850000Y-73900000D01*
X79850000Y-78500000D02*
X79850000Y-81310000D01*
X79850000Y-81310000D02*
X73790000Y-81310000D01*
X69690000Y-81310000D02*
X66630000Y-81310000D01*
X66630000Y-81310000D02*
X66630000Y-71090000D01*
X66630000Y-71090000D02*
X69690000Y-71090000D01*
X80040000Y-75200000D02*
X80040000Y-77200000D01*
D13*
X135826666Y-81732380D02*
X135493333Y-81256190D01*
X135255238Y-81732380D02*
X135255238Y-80732380D01*
X135636190Y-80732380D01*
X135731428Y-80780000D01*
X135779047Y-80827619D01*
X135826666Y-80922857D01*
X135826666Y-81065714D01*
X135779047Y-81160952D01*
X135731428Y-81208571D01*
X135636190Y-81256190D01*
X135255238Y-81256190D01*
X136255238Y-81208571D02*
X136588571Y-81208571D01*
X136731428Y-81732380D02*
X136255238Y-81732380D01*
X136255238Y-80732380D01*
X136731428Y-80732380D01*
X137493333Y-81208571D02*
X137160000Y-81208571D01*
X137160000Y-81732380D02*
X137160000Y-80732380D01*
X137636190Y-80732380D01*
X138160000Y-80732380D02*
X138160000Y-80970476D01*
X137921904Y-80875238D02*
X138160000Y-80970476D01*
X138398095Y-80875238D01*
X138017142Y-81160952D02*
X138160000Y-80970476D01*
X138302857Y-81160952D01*
X138921904Y-80732380D02*
X138921904Y-80970476D01*
X138683809Y-80875238D02*
X138921904Y-80970476D01*
X139160000Y-80875238D01*
X138779047Y-81160952D02*
X138921904Y-80970476D01*
X139064761Y-81160952D01*
X126646666Y-37172380D02*
X126646666Y-37886666D01*
X126599047Y-38029523D01*
X126503809Y-38124761D01*
X126360952Y-38172380D01*
X126265714Y-38172380D01*
X127646666Y-38172380D02*
X127075238Y-38172380D01*
X127360952Y-38172380D02*
X127360952Y-37172380D01*
X127265714Y-37315238D01*
X127170476Y-37410476D01*
X127075238Y-37458095D01*
X126646666Y-46062380D02*
X126646666Y-46776666D01*
X126599047Y-46919523D01*
X126503809Y-47014761D01*
X126360952Y-47062380D01*
X126265714Y-47062380D01*
X127075238Y-46157619D02*
X127122857Y-46110000D01*
X127218095Y-46062380D01*
X127456190Y-46062380D01*
X127551428Y-46110000D01*
X127599047Y-46157619D01*
X127646666Y-46252857D01*
X127646666Y-46348095D01*
X127599047Y-46490952D01*
X127027619Y-47062380D01*
X127646666Y-47062380D01*
X126646666Y-54952380D02*
X126646666Y-55666666D01*
X126599047Y-55809523D01*
X126503809Y-55904761D01*
X126360952Y-55952380D01*
X126265714Y-55952380D01*
X127027619Y-54952380D02*
X127646666Y-54952380D01*
X127313333Y-55333333D01*
X127456190Y-55333333D01*
X127551428Y-55380952D01*
X127599047Y-55428571D01*
X127646666Y-55523809D01*
X127646666Y-55761904D01*
X127599047Y-55857142D01*
X127551428Y-55904761D01*
X127456190Y-55952380D01*
X127170476Y-55952380D01*
X127075238Y-55904761D01*
X127027619Y-55857142D01*
X126646666Y-63842380D02*
X126646666Y-64556666D01*
X126599047Y-64699523D01*
X126503809Y-64794761D01*
X126360952Y-64842380D01*
X126265714Y-64842380D01*
X127551428Y-64175714D02*
X127551428Y-64842380D01*
X127313333Y-63794761D02*
X127075238Y-64509047D01*
X127694285Y-64509047D01*
X123022380Y-75243333D02*
X123736666Y-75243333D01*
X123879523Y-75290952D01*
X123974761Y-75386190D01*
X124022380Y-75529047D01*
X124022380Y-75624285D01*
X123022380Y-74290952D02*
X123022380Y-74767142D01*
X123498571Y-74814761D01*
X123450952Y-74767142D01*
X123403333Y-74671904D01*
X123403333Y-74433809D01*
X123450952Y-74338571D01*
X123498571Y-74290952D01*
X123593809Y-74243333D01*
X123831904Y-74243333D01*
X123927142Y-74290952D01*
X123974761Y-74338571D01*
X124022380Y-74433809D01*
X124022380Y-74671904D01*
X123974761Y-74767142D01*
X123927142Y-74814761D01*
X114132380Y-75243333D02*
X114846666Y-75243333D01*
X114989523Y-75290952D01*
X115084761Y-75386190D01*
X115132380Y-75529047D01*
X115132380Y-75624285D01*
X114132380Y-74338571D02*
X114132380Y-74529047D01*
X114180000Y-74624285D01*
X114227619Y-74671904D01*
X114370476Y-74767142D01*
X114560952Y-74814761D01*
X114941904Y-74814761D01*
X115037142Y-74767142D01*
X115084761Y-74719523D01*
X115132380Y-74624285D01*
X115132380Y-74433809D01*
X115084761Y-74338571D01*
X115037142Y-74290952D01*
X114941904Y-74243333D01*
X114703809Y-74243333D01*
X114608571Y-74290952D01*
X114560952Y-74338571D01*
X114513333Y-74433809D01*
X114513333Y-74624285D01*
X114560952Y-74719523D01*
X114608571Y-74767142D01*
X114703809Y-74814761D01*
X105242380Y-75243333D02*
X105956666Y-75243333D01*
X106099523Y-75290952D01*
X106194761Y-75386190D01*
X106242380Y-75529047D01*
X106242380Y-75624285D01*
X105242380Y-74862380D02*
X105242380Y-74195714D01*
X106242380Y-74624285D01*
X96352380Y-75243333D02*
X97066666Y-75243333D01*
X97209523Y-75290952D01*
X97304761Y-75386190D01*
X97352380Y-75529047D01*
X97352380Y-75624285D01*
X96780952Y-74624285D02*
X96733333Y-74719523D01*
X96685714Y-74767142D01*
X96590476Y-74814761D01*
X96542857Y-74814761D01*
X96447619Y-74767142D01*
X96400000Y-74719523D01*
X96352380Y-74624285D01*
X96352380Y-74433809D01*
X96400000Y-74338571D01*
X96447619Y-74290952D01*
X96542857Y-74243333D01*
X96590476Y-74243333D01*
X96685714Y-74290952D01*
X96733333Y-74338571D01*
X96780952Y-74433809D01*
X96780952Y-74624285D01*
X96828571Y-74719523D01*
X96876190Y-74767142D01*
X96971428Y-74814761D01*
X97161904Y-74814761D01*
X97257142Y-74767142D01*
X97304761Y-74719523D01*
X97352380Y-74624285D01*
X97352380Y-74433809D01*
X97304761Y-74338571D01*
X97257142Y-74290952D01*
X97161904Y-74243333D01*
X96971428Y-74243333D01*
X96876190Y-74290952D01*
X96828571Y-74338571D01*
X96780952Y-74433809D01*
X64706666Y-81732380D02*
X64373333Y-81256190D01*
X64135238Y-81732380D02*
X64135238Y-80732380D01*
X64516190Y-80732380D01*
X64611428Y-80780000D01*
X64659047Y-80827619D01*
X64706666Y-80922857D01*
X64706666Y-81065714D01*
X64659047Y-81160952D01*
X64611428Y-81208571D01*
X64516190Y-81256190D01*
X64135238Y-81256190D01*
X65135238Y-81208571D02*
X65468571Y-81208571D01*
X65611428Y-81732380D02*
X65135238Y-81732380D01*
X65135238Y-80732380D01*
X65611428Y-80732380D01*
X66373333Y-81208571D02*
X66040000Y-81208571D01*
X66040000Y-81732380D02*
X66040000Y-80732380D01*
X66516190Y-80732380D01*
X67040000Y-80732380D02*
X67040000Y-80970476D01*
X66801904Y-80875238D02*
X67040000Y-80970476D01*
X67278095Y-80875238D01*
X66897142Y-81160952D02*
X67040000Y-80970476D01*
X67182857Y-81160952D01*
X67801904Y-80732380D02*
X67801904Y-80970476D01*
X67563809Y-80875238D02*
X67801904Y-80970476D01*
X68040000Y-80875238D01*
X67659047Y-81160952D02*
X67801904Y-80970476D01*
X67944761Y-81160952D01*
X135826666Y-13462380D02*
X135493333Y-12986190D01*
X135255238Y-13462380D02*
X135255238Y-12462380D01*
X135636190Y-12462380D01*
X135731428Y-12510000D01*
X135779047Y-12557619D01*
X135826666Y-12652857D01*
X135826666Y-12795714D01*
X135779047Y-12890952D01*
X135731428Y-12938571D01*
X135636190Y-12986190D01*
X135255238Y-12986190D01*
X136255238Y-12938571D02*
X136588571Y-12938571D01*
X136731428Y-13462380D02*
X136255238Y-13462380D01*
X136255238Y-12462380D01*
X136731428Y-12462380D01*
X137493333Y-12938571D02*
X137160000Y-12938571D01*
X137160000Y-13462380D02*
X137160000Y-12462380D01*
X137636190Y-12462380D01*
X138160000Y-12462380D02*
X138160000Y-12700476D01*
X137921904Y-12605238D02*
X138160000Y-12700476D01*
X138398095Y-12605238D01*
X138017142Y-12890952D02*
X138160000Y-12700476D01*
X138302857Y-12890952D01*
X138921904Y-12462380D02*
X138921904Y-12700476D01*
X138683809Y-12605238D02*
X138921904Y-12700476D01*
X139160000Y-12605238D01*
X138779047Y-12890952D02*
X138921904Y-12700476D01*
X139064761Y-12890952D01*
X64706666Y-13462380D02*
X64373333Y-12986190D01*
X64135238Y-13462380D02*
X64135238Y-12462380D01*
X64516190Y-12462380D01*
X64611428Y-12510000D01*
X64659047Y-12557619D01*
X64706666Y-12652857D01*
X64706666Y-12795714D01*
X64659047Y-12890952D01*
X64611428Y-12938571D01*
X64516190Y-12986190D01*
X64135238Y-12986190D01*
X65135238Y-12938571D02*
X65468571Y-12938571D01*
X65611428Y-13462380D02*
X65135238Y-13462380D01*
X65135238Y-12462380D01*
X65611428Y-12462380D01*
X66373333Y-12938571D02*
X66040000Y-12938571D01*
X66040000Y-13462380D02*
X66040000Y-12462380D01*
X66516190Y-12462380D01*
X67040000Y-12462380D02*
X67040000Y-12700476D01*
X66801904Y-12605238D02*
X67040000Y-12700476D01*
X67278095Y-12605238D01*
X66897142Y-12890952D02*
X67040000Y-12700476D01*
X67182857Y-12890952D01*
X67801904Y-12462380D02*
X67801904Y-12700476D01*
X67563809Y-12605238D02*
X67801904Y-12700476D01*
X68040000Y-12605238D01*
X67659047Y-12890952D02*
X67801904Y-12700476D01*
X67944761Y-12890952D01*
X114133333Y-65052380D02*
X113800000Y-64576190D01*
X113561904Y-65052380D02*
X113561904Y-64052380D01*
X113942857Y-64052380D01*
X114038095Y-64100000D01*
X114085714Y-64147619D01*
X114133333Y-64242857D01*
X114133333Y-64385714D01*
X114085714Y-64480952D01*
X114038095Y-64528571D01*
X113942857Y-64576190D01*
X113561904Y-64576190D01*
X114466666Y-64052380D02*
X115133333Y-64052380D01*
X114704761Y-65052380D01*
X70473333Y-70377142D02*
X70425714Y-70424761D01*
X70282857Y-70472380D01*
X70187619Y-70472380D01*
X70044761Y-70424761D01*
X69949523Y-70329523D01*
X69901904Y-70234285D01*
X69854285Y-70043809D01*
X69854285Y-69900952D01*
X69901904Y-69710476D01*
X69949523Y-69615238D01*
X70044761Y-69520000D01*
X70187619Y-69472380D01*
X70282857Y-69472380D01*
X70425714Y-69520000D01*
X70473333Y-69567619D01*
X71425714Y-70472380D02*
X70854285Y-70472380D01*
X71140000Y-70472380D02*
X71140000Y-69472380D01*
X71044761Y-69615238D01*
X70949523Y-69710476D01*
X70854285Y-69758095D01*
X70993333Y-52307142D02*
X70945714Y-52354761D01*
X70802857Y-52402380D01*
X70707619Y-52402380D01*
X70564761Y-52354761D01*
X70469523Y-52259523D01*
X70421904Y-52164285D01*
X70374285Y-51973809D01*
X70374285Y-51830952D01*
X70421904Y-51640476D01*
X70469523Y-51545238D01*
X70564761Y-51450000D01*
X70707619Y-51402380D01*
X70802857Y-51402380D01*
X70945714Y-51450000D01*
X70993333Y-51497619D01*
X71374285Y-51497619D02*
X71421904Y-51450000D01*
X71517142Y-51402380D01*
X71755238Y-51402380D01*
X71850476Y-51450000D01*
X71898095Y-51497619D01*
X71945714Y-51592857D01*
X71945714Y-51688095D01*
X71898095Y-51830952D01*
X71326666Y-52402380D01*
X71945714Y-52402380D01*
X89262380Y-73128095D02*
X88262380Y-73128095D01*
X88262380Y-72890000D01*
X88310000Y-72747142D01*
X88405238Y-72651904D01*
X88500476Y-72604285D01*
X88690952Y-72556666D01*
X88833809Y-72556666D01*
X89024285Y-72604285D01*
X89119523Y-72651904D01*
X89214761Y-72747142D01*
X89262380Y-72890000D01*
X89262380Y-73128095D01*
X89262380Y-71604285D02*
X89262380Y-72175714D01*
X89262380Y-71890000D02*
X88262380Y-71890000D01*
X88405238Y-71985238D01*
X88500476Y-72080476D01*
X88548095Y-72175714D01*
X88142380Y-65031904D02*
X87142380Y-65031904D01*
X88142380Y-64460476D02*
X87570952Y-64889047D01*
X87142380Y-64460476D02*
X87713809Y-65031904D01*
X88142380Y-65031904D02*
X87142380Y-65031904D01*
X88142380Y-64460476D02*
X87570952Y-64889047D01*
X87142380Y-64460476D02*
X87713809Y-65031904D01*
X77022380Y-54316666D02*
X77022380Y-54792857D01*
X76022380Y-54792857D01*
X77022380Y-53459523D02*
X77022380Y-54030952D01*
X77022380Y-53745238D02*
X76022380Y-53745238D01*
X76165238Y-53840476D01*
X76260476Y-53935714D01*
X76308095Y-54030952D01*
X114133333Y-42192380D02*
X113800000Y-41716190D01*
X113561904Y-42192380D02*
X113561904Y-41192380D01*
X113942857Y-41192380D01*
X114038095Y-41240000D01*
X114085714Y-41287619D01*
X114133333Y-41382857D01*
X114133333Y-41525714D01*
X114085714Y-41620952D01*
X114038095Y-41668571D01*
X113942857Y-41716190D01*
X113561904Y-41716190D01*
X115085714Y-42192380D02*
X114514285Y-42192380D01*
X114800000Y-42192380D02*
X114800000Y-41192380D01*
X114704761Y-41335238D01*
X114609523Y-41430476D01*
X114514285Y-41478095D01*
X114133333Y-46002380D02*
X113800000Y-45526190D01*
X113561904Y-46002380D02*
X113561904Y-45002380D01*
X113942857Y-45002380D01*
X114038095Y-45050000D01*
X114085714Y-45097619D01*
X114133333Y-45192857D01*
X114133333Y-45335714D01*
X114085714Y-45430952D01*
X114038095Y-45478571D01*
X113942857Y-45526190D01*
X113561904Y-45526190D01*
X114514285Y-45097619D02*
X114561904Y-45050000D01*
X114657142Y-45002380D01*
X114895238Y-45002380D01*
X114990476Y-45050000D01*
X115038095Y-45097619D01*
X115085714Y-45192857D01*
X115085714Y-45288095D01*
X115038095Y-45430952D01*
X114466666Y-46002380D01*
X115085714Y-46002380D01*
X114133333Y-49812380D02*
X113800000Y-49336190D01*
X113561904Y-49812380D02*
X113561904Y-48812380D01*
X113942857Y-48812380D01*
X114038095Y-48860000D01*
X114085714Y-48907619D01*
X114133333Y-49002857D01*
X114133333Y-49145714D01*
X114085714Y-49240952D01*
X114038095Y-49288571D01*
X113942857Y-49336190D01*
X113561904Y-49336190D01*
X114466666Y-48812380D02*
X115085714Y-48812380D01*
X114752380Y-49193333D01*
X114895238Y-49193333D01*
X114990476Y-49240952D01*
X115038095Y-49288571D01*
X115085714Y-49383809D01*
X115085714Y-49621904D01*
X115038095Y-49717142D01*
X114990476Y-49764761D01*
X114895238Y-49812380D01*
X114609523Y-49812380D01*
X114514285Y-49764761D01*
X114466666Y-49717142D01*
X114133333Y-53622380D02*
X113800000Y-53146190D01*
X113561904Y-53622380D02*
X113561904Y-52622380D01*
X113942857Y-52622380D01*
X114038095Y-52670000D01*
X114085714Y-52717619D01*
X114133333Y-52812857D01*
X114133333Y-52955714D01*
X114085714Y-53050952D01*
X114038095Y-53098571D01*
X113942857Y-53146190D01*
X113561904Y-53146190D01*
X114990476Y-52955714D02*
X114990476Y-53622380D01*
X114752380Y-52574761D02*
X114514285Y-53289047D01*
X115133333Y-53289047D01*
X114133333Y-57432380D02*
X113800000Y-56956190D01*
X113561904Y-57432380D02*
X113561904Y-56432380D01*
X113942857Y-56432380D01*
X114038095Y-56480000D01*
X114085714Y-56527619D01*
X114133333Y-56622857D01*
X114133333Y-56765714D01*
X114085714Y-56860952D01*
X114038095Y-56908571D01*
X113942857Y-56956190D01*
X113561904Y-56956190D01*
X115038095Y-56432380D02*
X114561904Y-56432380D01*
X114514285Y-56908571D01*
X114561904Y-56860952D01*
X114657142Y-56813333D01*
X114895238Y-56813333D01*
X114990476Y-56860952D01*
X115038095Y-56908571D01*
X115085714Y-57003809D01*
X115085714Y-57241904D01*
X115038095Y-57337142D01*
X114990476Y-57384761D01*
X114895238Y-57432380D01*
X114657142Y-57432380D01*
X114561904Y-57384761D01*
X114514285Y-57337142D01*
X114133333Y-61242380D02*
X113800000Y-60766190D01*
X113561904Y-61242380D02*
X113561904Y-60242380D01*
X113942857Y-60242380D01*
X114038095Y-60290000D01*
X114085714Y-60337619D01*
X114133333Y-60432857D01*
X114133333Y-60575714D01*
X114085714Y-60670952D01*
X114038095Y-60718571D01*
X113942857Y-60766190D01*
X113561904Y-60766190D01*
X114990476Y-60242380D02*
X114800000Y-60242380D01*
X114704761Y-60290000D01*
X114657142Y-60337619D01*
X114561904Y-60480476D01*
X114514285Y-60670952D01*
X114514285Y-61051904D01*
X114561904Y-61147142D01*
X114609523Y-61194761D01*
X114704761Y-61242380D01*
X114895238Y-61242380D01*
X114990476Y-61194761D01*
X115038095Y-61147142D01*
X115085714Y-61051904D01*
X115085714Y-60813809D01*
X115038095Y-60718571D01*
X114990476Y-60670952D01*
X114895238Y-60623333D01*
X114704761Y-60623333D01*
X114609523Y-60670952D01*
X114561904Y-60718571D01*
X114514285Y-60813809D01*
X114133333Y-68862380D02*
X113800000Y-68386190D01*
X113561904Y-68862380D02*
X113561904Y-67862380D01*
X113942857Y-67862380D01*
X114038095Y-67910000D01*
X114085714Y-67957619D01*
X114133333Y-68052857D01*
X114133333Y-68195714D01*
X114085714Y-68290952D01*
X114038095Y-68338571D01*
X113942857Y-68386190D01*
X113561904Y-68386190D01*
X114704761Y-68290952D02*
X114609523Y-68243333D01*
X114561904Y-68195714D01*
X114514285Y-68100476D01*
X114514285Y-68052857D01*
X114561904Y-67957619D01*
X114609523Y-67910000D01*
X114704761Y-67862380D01*
X114895238Y-67862380D01*
X114990476Y-67910000D01*
X115038095Y-67957619D01*
X115085714Y-68052857D01*
X115085714Y-68100476D01*
X115038095Y-68195714D01*
X114990476Y-68243333D01*
X114895238Y-68290952D01*
X114704761Y-68290952D01*
X114609523Y-68338571D01*
X114561904Y-68386190D01*
X114514285Y-68481428D01*
X114514285Y-68671904D01*
X114561904Y-68767142D01*
X114609523Y-68814761D01*
X114704761Y-68862380D01*
X114895238Y-68862380D01*
X114990476Y-68814761D01*
X115038095Y-68767142D01*
X115085714Y-68671904D01*
X115085714Y-68481428D01*
X115038095Y-68386190D01*
X114990476Y-68338571D01*
X114895238Y-68290952D01*
X99568095Y-13422380D02*
X99568095Y-14231904D01*
X99615714Y-14327142D01*
X99663333Y-14374761D01*
X99758571Y-14422380D01*
X99949047Y-14422380D01*
X100044285Y-14374761D01*
X100091904Y-14327142D01*
X100139523Y-14231904D01*
X100139523Y-13422380D01*
X101139523Y-14422380D02*
X100568095Y-14422380D01*
X100853809Y-14422380D02*
X100853809Y-13422380D01*
X100758571Y-13565238D01*
X100663333Y-13660476D01*
X100568095Y-13708095D01*
X99568095Y-37762380D02*
X99568095Y-38571904D01*
X99615714Y-38667142D01*
X99663333Y-38714761D01*
X99758571Y-38762380D01*
X99949047Y-38762380D01*
X100044285Y-38714761D01*
X100091904Y-38667142D01*
X100139523Y-38571904D01*
X100139523Y-37762380D01*
X100568095Y-37857619D02*
X100615714Y-37810000D01*
X100710952Y-37762380D01*
X100949047Y-37762380D01*
X101044285Y-37810000D01*
X101091904Y-37857619D01*
X101139523Y-37952857D01*
X101139523Y-38048095D01*
X101091904Y-38190952D01*
X100520476Y-38762380D01*
X101139523Y-38762380D01*
X69498095Y-58332380D02*
X69498095Y-59141904D01*
X69545714Y-59237142D01*
X69593333Y-59284761D01*
X69688571Y-59332380D01*
X69879047Y-59332380D01*
X69974285Y-59284761D01*
X70021904Y-59237142D01*
X70069523Y-59141904D01*
X70069523Y-58332380D01*
X70450476Y-58332380D02*
X71069523Y-58332380D01*
X70736190Y-58713333D01*
X70879047Y-58713333D01*
X70974285Y-58760952D01*
X71021904Y-58808571D01*
X71069523Y-58903809D01*
X71069523Y-59141904D01*
X71021904Y-59237142D01*
X70974285Y-59284761D01*
X70879047Y-59332380D01*
X70593333Y-59332380D01*
X70498095Y-59284761D01*
X70450476Y-59237142D01*
X80492380Y-76533333D02*
X81206666Y-76533333D01*
X81349523Y-76580952D01*
X81444761Y-76676190D01*
X81492380Y-76819047D01*
X81492380Y-76914285D01*
X81492380Y-76009523D02*
X81492380Y-75819047D01*
X81444761Y-75723809D01*
X81397142Y-75676190D01*
X81254285Y-75580952D01*
X81063809Y-75533333D01*
X80682857Y-75533333D01*
X80587619Y-75580952D01*
X80540000Y-75628571D01*
X80492380Y-75723809D01*
X80492380Y-75914285D01*
X80540000Y-76009523D01*
X80587619Y-76057142D01*
X80682857Y-76104761D01*
X80920952Y-76104761D01*
X81016190Y-76057142D01*
X81063809Y-76009523D01*
X81111428Y-75914285D01*
X81111428Y-75723809D01*
X81063809Y-75628571D01*
X81016190Y-75580952D01*
X80920952Y-75533333D01*
M02*
